/* XPM */
static char *result[] = {
/* columns rows colors chars-per-pixel */
"64 64 67 1 ",
"  c #1F1A24",
". c #221C26",
"X c #241F29",
"o c #26212B",
"O c #2A242D",
"+ c #2D292F",
"@ c #2D2633",
"# c #2E2832",
"$ c #2F2738",
"% c #302735",
"& c #332C36",
"* c #382E36",
"= c #352D3A",
"- c #382F3B",
"; c #3A3435",
": c #3D3A34",
"> c #373139",
", c #3B333B",
"< c #3E3A3B",
"1 c #413D36",
"2 c #40373D",
"3 c #423C3C",
"4 c #454037",
"5 c #45413B",
"6 c #4A453D",
"7 c #372E40",
"8 c #382F42",
"9 c #3C3541",
"0 c #3F3841",
"q c #453D46",
"w c #483F49",
"e c #464343",
"r c #4D4646",
"t c #4A4847",
"y c #4C434B",
"u c #4E494A",
"i c #524B4B",
"p c #4F4451",
"a c #504553",
"s c #564D53",
"d c #584E55",
"f c #575151",
"g c #5A5255",
"h c #5D545A",
"j c #60565D",
"k c #61595E",
"l c #635760",
"z c #645C62",
"x c #685F65",
"c c #676065",
"v c #696166",
"b c #6B6469",
"n c #6E696D",
"m c #706B6E",
"M c #736E72",
"N c #767274",
"B c #797377",
"V c #7B7579",
"C c #7F797D",
"Z c #80797D",
"A c #8E8B8D",
"S c #908D8F",
"D c #928E90",
"F c #959294",
"G c #989597",
"H c #999698",
"J c #9B999A",
/* pixels */
"::ukcvzlkhhhkq o::thhhhhhhhhjq o;:uhhhhhhhhhjq X;:yhhhhhhhhhjq.X",
"::ujlzzzzklhjw.o::uhghhhhhhhjw.X::uhhhhhhhjhjw O::uhhhhhhhhhjq.X",
"::ihhlllkllhlw.o::uhhjjjjlhhhw.o;:uhhkkkljjjlwXX::ihjjjjjjjhjw.X",
"1:ikq=<>>>>qly.O::uhe0>->>-qlw.O::rhq*>,>--qlwX@:1rhq=-*;>>wjwXX",
":1uz,@%%%%$,lyX@:1ik,@@@$%%,kwXO:1rj,@@$%%%>xyOO:1uk<@%%$%$,lwXO",
"11uz0>*;>>*<zyo@:1ilq**--,*<lyOO11rj0*;*>>;<kyoo:1ik0*,*;;*<jwX@",
"11il0<q222<<lpOO:1il,,<<2223ly@O:1yj0<2202<<kyO@<4uk0q<32221lwX@",
"11il,uassgs0hwO@21ij<yssssa5jyX$14yh<yddssd0hpo@14uh>uaaadaqlwO@",
"41ik>fzlzzz5hp@@:4ih>fkhkxk5hy@#14uh>dxzzzl5kyO$44uh>dxhkzzehy@@",
"54uh*dczzzl2hyO$44ih=dzlzxl3hy@#35uh*dxlzxz<hy@$14uh&sxzzxl1hy@$",
"55ihOykhjjg<hy@$45ikOykhhhh,hp@$15ihOujjhhh;hy@$45uh@ykhhjg,ly@#",
"55ih>MCVVBMehy$&56ih,nCVVVMehy$=55ih*bZZCVBthy@=55ih>nCVVVMehy#$",
"55ihNFFSAAHChp$=56fhNGDDDDHVdp$=55fgnHDDDAFBhp$=56fhMGGDDDGMdp$&",
"66fchgghlxxcly&=66fckddhhzxcly&=66fxkhgghhhkly=>56gbvkhhhhjllp$=",
"66fvcccvbvcllp&766gvczxcvvcklp&=66gvkkxcvbcllp=>66gbbvccczljlp==",
"66gcbcbbvvcllp=9e6fvvvvvvvcklp7966fvvvcvvvczlp=766fcvvvvvcxklp=9",
"66fkbbbbvvxlla79e6ixxvbvvxxllp7966fxcvvvcxclza88r6fccvvvvvxlla79",
"66ikkkkkzzlkja8766ijkkkvvclkja8866ijkxzxzxzhka8866ijkzzxzzljja87",
"r6ikkkkklzlhla9966ijjkxxzzlhla8766ihjkklkzkllp7766ihhkzlllljla87",
"66izq*22=>>qla7765ijw,**=>=qla7966rjq*=->==qzp7766rjq=>*>>>wla77",
"65iz,@%@%%%,za7765iz,O%@%%%,za7756ij>@%%$%%<zp$>46ik,O%%%%$,lp77",
"55iz2***>>*2lp$=55izq&;*--*<lp$744ij0=-*>>&<zp&744ik2**,>>*<la7=",
"44il0222<00<kp7751ix2222<<<<lp7=44rj0<222222zp$754ijq22223<<lp=7",
"51il,udfdfs0kp$741il<iaasssqkp$711rj0ufsdds3ky@$14ij,ydiads0lp=$",
"41rk>dllzzk5ha7$11rk>dhhzzz5hp7$14rj2dkkzzlehy@$14yh>dxhkxlehp$=",
"11ij&sxzzcl3hp$$11ik*szlzzz<hp$$11rj%dxxzxz<hu@$11rh=sxkzzl3ju$$",
"11rjOyjjhhh:jy@$11rkOyjjhhh,hp@$116d@rkjhjh;ly@$1:rhOylhjjg;jp@$",
"11rg;mZZCVBthyXO11rg,mZVCBNthyXO11rd*bZZVVNuhyX@1:rh>nCVVBMehwoO",
"1;rgmHSSDADNhw O::rfNGDDSSFBhw.O1:rsbHFSSADBhe.o:;rfnHFFDDHMhw.o",
":;rjjddddddhlq o;:rjhdddfhdhhw o::yjjgddddddjq..::rjlhdhhhjljq .",
":;6jgjgjhhhhhq o;;6jhhhhhhhhlq .;:rjdjjjhhhhjw .::rhdhhhhhhdlq .",
";:6jggjdhhhdlq  ;;6jgghghhhdhw .;;rgjghgdhhdjq  ;:rhhhdhhhdhlq .",
"::rhghhjhhhgjq X::yhhhhhhhhhje X;;rjhkkhhhhhhq o:;thhhhhhhhhkq .",
"::ujhhhjjkjhje o;:ukjkjjhhhhjq.o::ikzbbzzhhhle o;:ukzzzzczhhjq.o",
"::ukkkkkzzzjzy.o::izzzkjjjjjly o;:6kzcczllhhlq o::icxxzzzzlhlq.o",
"::ukq**-$>=0lyXO::iz<*-->7>0zyXO::uz<&&;->>qly.O::ic<&=*>=>qzy.o",
"::iz-O@%$%$,zy o::uc-O@%$$$:zyXo::ul,@@@$&$>zqXO::uv,@%%%%$,zq.O",
":1icq=-->,><kyX@::uzq=*->>*<zyXO::il0>*;>>;<zyXO:1uz0>->-;*,zyXO",
"<:iz0<3222<<zyoO11ik0<2<<<<<zyo@4<ij0<22<0<0kyo@:1uz<<2<22<<kyO@",
"44iz<udssss3jyo@14ik9uddsssqjyX@<4il,uddsss0hyo@14fz9yddsssehy.@",
"44ih,fxzlxkehyO$11iz>dczzzzehyo#45uh>gxlzzl5hyo#11uk>dxkzzlehyO#",
"51fh>fxzzxk<hyo#35ih&fczxch5hyo#14ih&fczzcz3jyO$35iz&sxxzzl3hyO@",
"53uz@ylhhkd:kyO#54ihOykhhhh>kyo#55ih+ykhhld:hyO#55uhOykhjjg:jyO#",
"e1fg>mCBBBBthyO@35fh<mCVVVNuhyO@35fh>nCVBVBthtO#35fh,mCCVVBuhy@O",
"54fhNFFHGFGBhuo#55fhMJDDSADBhuo#55fhNJFGGDDBjyO#55fhMGDDDSSBhyOO",
"55fkhfhlccccvuo+55gcxhhhhfdhxuo+55gvbkhhxhjlcpo+5egczdfdjhdhlpO@",
"e5gvkhkzczzcvpo+e5gncczzlzzkxpo+e5gnccczzxlzcpO+55gnczjzzzzkcuo+",
"e5gnccbcvvvcbpo+e5gnvnvcccccbao#5egnbbvvvvccbpo+e5gnvvccvcccbpo+",
"e5gmbbbbbbbcbao+e4gnbbbbbbccbuOO55gnbbbbbbvcnuo+55gmbbbbbbvcbioO",
"64gnbbbvvcccvuo+55gnbbbvvvccbuX@55gnbbbvvvvccuoO55gnbbbbvcvcvaoO",
"54gnxxczzzzzcuoO55fbcccczxxzcuoO55gbccxxcxzlcuoO54gnccczcczlvpoO",
"54fb<&=*=>=0cyoO35fb9&>&=>&9croO51fb<&&*===0xuoO54fv,&**==&<cuoo",
"5<fc>@%%$%$<zyoO14fc>@%%$$%,zyoo33fv>@%%$%$;cyoo<4fc<O%$%%@<cyoO",
"5:fc<>-;;>*<zyoo11fxq*;>;;-<zyoO11fc0**->;*<zyoo31fz9>>>>>=<ztXo",
"4:fz9<q222,<kyoo21ix,<222<<3kyoO<4ix922q2<<<zyoo31fz99<0239<zy o",
"1<fz,uassds5kr.o11sl<yssdsa3ky.o1:uz<iassds3hr.o1:iz<ufssdf3hyoo",
"4:iz>dvllzkqhy.o1:iz;fczzzz3je.o<:iz;sxzzzlehyoo::fk>fclzzlehy.o",
"1:ik&dvzzzz3hyoo::ik&fcczcl3jy.o::iz>fxzzxz3hy o::uk=dvzzzz3hy o",
"::ikOykhjkg;he o::ikOyhhhhg,jw.o::ikOyhhhhh;hy o::ikOykhjjg;he o",
"::ih,mCVVVBuhe o::ij>NCVVVBthy.o::ih>mCCVVByhy o::ih,mCVVVBuhy o",
"::tgMFDDSADNhw .;:tgMFDDFAANhw.X::uhNFFDDADBhe o::rgMFDDSADNhy  ",
"::uhhdddddddly o::thhddddddhje .;:yhhfdddssdj3 o::uhhdddddddlw .",
":;rhhhhhhhhhhq .;;rhhhhhhhhhje .;;rhghhhhhhdjq  ;:rhhhhhhhhhhq .",
"::uhdhhhdhhhhq o;;rhhghdhhdhh5 .;;rhhghhhhhhjq o;:uhdhhhdhhhjw ."
};
