/* XPM */
static char *result[] = {
/* columns rows colors chars-per-pixel */
"64 64 140 2 ",
"   c #030306",
".  c #0C0905",
"X  c #01030C",
"o  c #05080C",
"O  c #0C0C0C",
"+  c #120F09",
"@  c #020C15",
"#  c #000E1A",
"$  c #0D1215",
"%  c #01111E",
"&  c #0C141B",
"*  c #141414",
"=  c #181716",
"-  c #181817",
";  c #10161B",
":  c #13191E",
">  c #1C1C1C",
",  c #231803",
"<  c #201F1E",
"1  c #2D210A",
"2  c #34270C",
"3  c #36280C",
"4  c #22201F",
"5  c #021524",
"6  c #091621",
"7  c #051827",
"8  c #0D1924",
"9  c #031728",
"0  c #041A2C",
"q  c #0A1B2B",
"w  c #151D23",
"e  c #1B1E21",
"r  c #151F29",
"t  c #031D34",
"y  c #091F31",
"u  c #011F38",
"i  c #172027",
"p  c #1E2124",
"a  c #16212A",
"s  c #1A232B",
"d  c #052037",
"f  c #0B2135",
"g  c #04233C",
"h  c #0A243C",
"j  c #132533",
"k  c #192732",
"l  c #1D2832",
"z  c #102638",
"x  c #14293B",
"c  c #182A3A",
"v  c #252524",
"b  c #282725",
"n  c #2A2927",
"m  c #20262B",
"M  c #25292C",
"N  c #2C2B2B",
"B  c #312E2D",
"V  c #33302E",
"C  c #222B32",
"Z  c #2D2F31",
"A  c #2E3133",
"S  c #2F333B",
"D  c #333434",
"F  c #393734",
"G  c #3B3937",
"H  c #333638",
"J  c #373839",
"K  c #3C3C3C",
"L  c #5E3F02",
"P  c #403E3B",
"I  c #634303",
"U  c #7C5506",
"Y  c #42403B",
"T  c #042642",
"R  c #0B2741",
"E  c #062946",
"W  c #0B2944",
"Q  c #052B4C",
"!  c #0B2D4B",
"~  c #112C42",
"^  c #122F48",
"/  c #0D304F",
"(  c #11324E",
")  c #052F51",
"_  c #082F50",
"`  c #063154",
"'  c #0A3254",
"]  c #06355C",
"[  c #0A355A",
"{  c #0D385E",
"}  c #143654",
"|  c #1A3A57",
" . c #10365A",
".. c #11385C",
"X. c #1A3D5E",
"o. c #3F3F40",
"O. c #063761",
"+. c #063963",
"@. c #0B3A63",
"#. c #073D6B",
"$. c #0A3E6A",
"%. c #113D64",
"&. c #183F63",
"*. c #113F69",
"=. c #3F4040",
"-. c #07426F",
";. c #0C416E",
":. c #12426E",
">. c #064070",
",. c #0B4373",
"<. c #0C477A",
"1. c #0D4A7C",
"2. c #134573",
"3. c #144877",
"4. c #144A7B",
"5. c #1A4D7D",
"6. c #0B517F",
"7. c #454545",
"8. c #484746",
"9. c #4A4846",
"0. c #474748",
"q. c #474849",
"w. c #4B4A4A",
"e. c gray33",
"r. c #595959",
"t. c #865B04",
"y. c #895D05",
"u. c #956404",
"i. c #996703",
"p. c #9C6903",
"a. c #A67107",
"s. c #CA8703",
"d. c #DE9604",
"f. c #E79C04",
"g. c #E89C04",
"h. c #164D80",
"j. c #0F5687",
"k. c #1D5183",
"l. c #1F5589",
"z. c #175F90",
/* pixels */
"o O - > v v > v v b b b b m v b b b b m v b b b b b b b b b b v v b v b b v b b b b b b b v b v b b v b b v b v b v v p < - $ O ",
". v N N N N N N Z N N N Z N Z N N N Z N Z N N N Z N N Z B N C B N Z Z N N Z N Z N B Z N B C N B N Z N Z N N N A N Z N N N b > * ",
"* J K D A D N D D D Z D N D D Z A D D B D D Z Z A D A D D Z Z Z D Z D A D D D Z B Z Z Z Z B Z Z Z Z D Z A D D A A D N F K D n > ",
"> o.K D N n N N n n n n N N n N n n n N n n n N n n M b n n N N n n n n v M n n N N N N N N B n N n N N n N n N N n M K =.K N - ",
"v 0.K J n > $ & ; ; ; ; ; ; ; & ; & ; ; ; ; $ ; > v v > < > > - - - > e > v > - ; * $ ; ; ; ; ; = ; ; ; ; 8 ; ; ; $ > K 7.J N - ",
"v w.K J N ; @ % 5 5 % % % % % 5 % % % # @ # @ $ > v > > - * O o o * * > > v v v $ # # # # # 5 % # 5 % % % % % % 5 @ : 8.7.K D > ",
"v w.o.J N > 5 0 t 0 0 t t 0 0 t t 0 0 9 9 9 = v b v > > - * @ @ @ @ * - > v v Z b w 0 t t t t t t t t t d t d d 0 5 w 7.0.K D > ",
"n w.K J N w 9 T Q E ! E E E E E E E E ! h w B D M v v > - 5 7 7 0 7 6 - > v n N J B s Q Q ! Q Q Q ! Q ! Q ! Q E E 0 w 7.0.K A - ",
"v 7.K D N i d }  .[ {  ...{ } { ..} { ' m D G Z N v 4 > 8 f R _ ^ R d r > v b N D K D s .... ... . . .{ [ { { ..' h s 7.7.A v * ",
"4 K K J N i d { :...%.%.%.:...%.%.%...M G K Z Z n v > q h W  .@.*.{ ! W j e v n Z D P D C @.%.%.%.%.%.@.@.%.%.%.{ R s 7.0.H n * ",
"v w.7.J N i g ` @.[ [ @.@.@.] @.#.] M G P D Z N v w 7 t ! ` @.@.@.@.] _ Q f e v n D J o.D C ] @.@.] @.#.,.;.#.#.[ T s 7.w.K D > ",
"v 7.K F N w t ` ] ` ` ] ] O.` ] ' N K o.D D N b > 7 t T ) ] ] O.O.] ] ] Q T y 4 v N D J 7.G C ] ] [ O.+.#.@.O.O.` g s 7.7.J N - ",
"v K K J N i 0 Q ` Q Q ` Q ` ) Q C P 7.J D N b > 5 0 g Q ) ) ) ) ) ) ) ) ) T u 0 v v Z D F 7.K C ) ) ` ) ) Q ) ) Q u i 7.7.D M - ",
"v w.K J N : 0 T Q T T E T Q T n P 7.F D N b e % 5 t g Q Q Q Q E Q Q E Q Q E g t 7 e b Z D J 7.P M T E Q Q Q E Q E 0 i 7.0.K D > ",
"v 0.K J N i d / ] ) ! ` ` / N 0.7.J J Z b p 7 0 R Q ] ' ' ' ] ] ) ] ' ] ] ] ' ! t q 4 b Z J K 0.Y M ) ] ' ' ' ] ) g i 7.0.J n - ",
"4 K K J N i T %.:.%.:.2.} Z 7.0.K J N b p f W ' %.:.2.:.:.*.:.*.2.2.:.*.$.:.2.*...W y v n D J F 0.7.N %.2.:.%.2.%.E k 7.0.J N - ",
"v w.=.J n s ! :.3.:.3.&.D 7.0.K J Z n i f / ..:.3.3.4.3.3.3.3.3.3.4.3.:.3.4.k.4.3.%.W f s n D J K w.7.Z 2.3.3.3.:._ k 7.8.K N > ",
"b w.=.H n i E ;.<.;. .D 0.0.K F V n i d ) [ ;.<.<.,.<.,.,.$.,.,.,.,.<.#.,.l.h.<.<.,.@.E y p n D J K 0.7.A @.,.,.$.! k 7.0.K D > ",
"b w.=.J N i T O.-.' V 0.0.K J Z n p t E ` +.#.#.#.#.#.#.@.+.#.#.#.#.#.#.#.,.#.#.#.#.#.` d 7 p n Z K K w.8.Z ] #.] E j 7.0.J B > ",
"b w.K J N w u ` / D w.0.K F V n w 9 g E ] ] { ] ] ] ] ] ] ] ] ] ] ] ] ] ] ] ] O.] ] ] ] T 0 5 p n A K K w.8.A _ ] g s 7.0.K D > ",
"b w.=.J N w t h D w.8.K K A n > % d g T ) ) ) ) ) Q ) ) Q Q ) Q Q Q _ Q Q ) ) ) ' Q Q ) Q g 0 0 p N D K K 8.8.D R u e 7.0.F D - ",
"M w.K J N w q D w.0.K K Z n w 5 d Q [ [ { +.@.] @.[ ] ] ] ] +.[ { ] ] ] ] [ @.] @.[ ] +.@.] Q d 0 p n D K K 0.8.D d s 8.7.K D > ",
"v w.K F N p V 8.7.K J D n w q R ' :.2.:.3.3.2.2.3.:.3.2.:.:.3.2.:.2.3.:.2.2.3.3.3.2.2.2.2.3.2...! f m n D F K 0.0.N s 7.0.F Z > ",
"v w.=.J n v K K K F Z n w q W { 2.5.5.2.6.;.%.;.3.3.5.3.3.3.5.3.3.3.4.3.3.3.h.5.h.3.3.3.4.h.5.3.%.' h s b D J K =.H v 7.0.K D > ",
"n w.=.J n n H J D Z n w 0 h @.,.,.<.<.,.-.@.,.j.6.,.<.,.,.,.<.,.2.,.<.,.,.,.<.<.<.<.,.,.,.<.<.<.,.@.) g s n N J D N b 7.0.K A - ",
"b w.K J n M n A N n w 5 g ` -.#.+.-.-.+.-.-.6.z.<.+.#.-.#.+.-.#.#.#.#.#.@.#.#.#.-.-.@.#.#.#.#.-.-.+.` Q g i n n N v v 7.0.F D > ",
"b w.=.J n v M b v w 5 t ) ] +.] ] +.+.] +.+.;.;.] ] ] ] ] ] ] ] ] ] O.] ] ] +.+.] ] ] ] ] ] ] +.] ] ] Q g t i v v > v 7.0.K Z - ",
"b w.K J n v > v ; 5 t E Q ) Q Q E ) Q E Q Q Q Q Q Q ) Q Q Q Q Q E E Q Q E Q ) ) ) Q Q E Q Q Q ` Q Q Q Q g 0 0 w > * p 7.0.K B - ",
"b w.K F N v v N A H F J H H J J J J J J J H J J J H J H H H J J H J H J J H H J J H H H H J H J J J H H J H A N v * > 7.7.F N - ",
"M w.K J n M D 7.9.9.w.w.w.w.w.w.w.w.w.w.w.w.w.w.w.w.w.w.w.w.w.w.w.w.w.w.w.w.w.8.w.w.w.w.w.w.w.w.9.w.w.w.w.w.7.Y D v v 7.7.K D > ",
"v w.=.J n v N J K K K K =.K =.K K K K K K K K K =.K K Y =.K =.K K K K K K K o.o.K =.P =.K =.K =.K =.=.K K K K J n - v 7.7.K D > ",
"b w.=.J n v M N D H J D J D J D J J J D J J J D J J J D J D J D J J J J F J D J J D J D J D F D J D J F H D D N M - > 7.0.K A > ",
"b w.K J N > - 4 v n n N n N N N n N N n N N N N N n N n N N N N N n n N N n N n N N N B n n N n N n N n n n b v > O > 0.7.F D - ",
"b w.P J N > > v v p r r i r r r s i i r r r r r r r r r r r r r r r i r i s s r r r r r s r s r r s r s s r r w > = > 7.8.K D > ",
"M w.=.J N v v D =.A y u t u t u u t t u t u t u u u t t t t t u t u t t u u u u u u u u u u u u u u u u t u y b A e v 0.7.K D - ",
"v w.K J n v v D 7.8.D x ] ' ` ' ) ) ' ` ' ' ) ' _ ' ' _ _ _ _ ' ' ' ) ) _ ) ' ) _ _ _ _ _ ] _ ' _ ) ] ' ] ~ Z K D > > 0.0.K D > ",
"M w.Y J N p 4 N J 7.0.D } 2.:.:.*.%.2.;.@.*.:.:.2.:.*.:.:.*.:.:.*.2.2.*.2.:.*.$.%.*.*.2.2.*.2.2.2.2.2.3.} D 7.K N - > 7.7.J N > ",
"v w.K J N > - M N F =.0.D | 4.2.2.2.3.:.$.<.3.3.3.3.2.2.2.2.3.3.3.2.2.2.3.3.3.@.2.4.k.4.3.3.3.4.3.3.h.X.D 0.o.D n - < 0.0.K D > ",
"v w.7.J N - $ v M D J K 7.B } ,.$.@.;.-.1.h.,.$.$.$.#.@.#.$.$.;.$.*.$.$.*.$.$.$.*.h.h.,.$.$.,.*.,.<. .B 7.7.J D M - > 0.7.K D - ",
"n w.K D N : % ; 4 n D D K 7.B ^ +.] O.@.+.#.+.O.@.] ] ] O.] @.O.+.+.] ] +.+.+.+.+.+.+.+.+.#.+.+.#.^ B 0.o.F D b v * : 7.0.K D > ",
"b w.K K n : % 5 w < b Z D K o.B x Q ) ) ) ) ) Q Q ) Q Q Q Q ' ) ) ) Q Q Q ) _ ) ) ) ) ` ) ` ` ` ~ B 7.o.D D N v ; # w 8.0.F D - ",
"b w.K J N w 5 7 5 ; 4 b N Z K K B f T T T T T g T T T g T T T T T T T T T T T E E E T E T T Q h B 7.K D D N v ; 5 % w 8.7.K D > ",
"b w.o.J N w 0 g t 7 w > v N Z F K N j Q E E Q E ! Q E R E T Q E E E T T E E E Q Q E Q Q W ) z B o.K D D b v w 9 t 0 r 7.8.J Z > ",
"m w.K J N w f ' _ h 0 w > v N N D K n c { } [ ' '  .' ' [ } ' ' ' }  ._ } ' ' '  .[  .' ' x B o.F Z N v v ; y ! ' d s 8.0.K D > ",
"b 8.K J N w d } { [ h y w > v v N D K n c {  . . .{  . . .{ .. ... ... . . . . .......%.c n K D Z N b v 8 t ( %. .g s 7.7.J Z < ",
"p 7.P J N w u ! ' ] ' h 0 8 - v M n N J n k ] _ ] ' _ _ _ _ ' _ ] _ _ _ _ _ _ ' ] ' ] x n J D N n v e & 0 ! @.@.' g s 7.8.J n = ",
"v 7.o.J N w t T E Q ) E g 9 6 > 4 v n Z D b s E Q Q Q Q Q Q Q Q Q E E E Q Q E _ _ ) j n J D N M v > & 7 T ] ] ] Q t s 7.0.J N > ",
"v 7.P F N w 9 t T T T T g 0 5 & > > v n N J N q T T g d T g T T T T T u T g u T T a b H Z n b 4 > & 5 d Q Q Q ) T 0 w 7.0.K D > ",
"> 7.K J N > 5 0 t t t u t t 7 5 & = e v b N D n w u t t y t u t t y t t t t t u w n D Z b b 4 - $ % 0 g T T u T t 5 w 8.8.J B - ",
"v 0.K J N : 5 t d u d d d h t t 5 & = > v v M A b w u y d d h t u u t y u u t w n Z M b v < - & 5 d g T T W T W u 5 w 8.8.H b - ",
"> 7.K J N w 7 h W R R W E W R R y y 6 * - 4 v b Z b w R W R W R ! R R R ~ R w b B b v < > = & 7 h ! ! / _ ^ ! } W 0 r 8.7.K A > ",
"v w.P J N > 7 h W W W ! W ! R R ~ u q 6 * - e 4 v b < w h h R h R z h h h w 4 n v p e = * & 0 z ! ^ ! ! _ ^ ! ' ! y r 8.8.F M - ",
"b w.P J n w 5 t h u g ) ] ' g d u y t 7 # * * * * = > * $ # 5 # % % % % & = > - * * * $ @ 7 u h R R T Q W E W Q T 0 w 7.7.J Z - ",
"b w.K J N : # 9 t 0 t T Q g t t t t t 0 # o > N n N N Z N N M n M N M N N Z N N N b > o % 0 u u g g g g g g g T t 5 w 7.0.K D > ",
"m w.o.J N : # 7 7 7 9 9 5 9 7 7 5 0 0 7 @ ; K r.w.w.8.8.w.w.w.w.w.w.9.w.0.0.0.8.0.8.D $ % t t 0 0 t t t t t t u y # w 8.8.K Z < ",
"v w.o.J N = @ 5 5 % 5 5 5 5 5 5 5 5 5 5 @ ; w.r.D Z J F J D J D F H F F F F J J D J 7.: % 0 7 5 9 0 0 0 t 0 0 t 7 # w 7.8.G Z > ",
"b w.P H B : # 5 7 9 9 7 9 7 9 7 7 9 7 9 @ w 7.w.Z D K J K K K K o.J K K K K K K Z K 8.w # 0 0 7 9 0 0 0 y 0 y t 0 # w 8.7.J A < ",
"b w.o.J N = # 5 9 5 7 0 7 9 9 5 0 7 7 5 @ ; H o.7.e.r.r.r.r.r.r.r.r.r.r.r.r.r.r.8.K K $ % 0 0 0 0 0 y y 0 0 t y 0 % w 7.8.K Z - ",
"e 8.o.D N e w r r r r r r r r r r i r e w w b N F J F J D J H F H F H J H J F F D Z b e w i i r r r r r r r r r r w v o.7.G B * ",
"v w.7.K P 8.7.0.8.9.8.8.8.8.8.8.8.8.0.8.8.8.=.7.7.7.7.=.7.8.7.7.8.7.7.=.8.7.7.=.7.7.7.8.8.8.8.0.9.9.8.8.9.9.7.8.8.9.=.7.8.o.J > ",
"> S F F o.S K P J S P P K S P P o.S K P o.H P P J H K P o.H o.P o.H P P J H K P J H o.P J S P P K S P P o.H o.P J S G P J Z D > ",
"  U i.+ X y.u.+ X y.i.+ X t.p.+ X y.i.+ X t.i.+   y.i.+ X t.i.+ X t.p.+ X y.i.+ X t.i.+ X y.i.+ X t.i.+ X y.i.+ X y.p.+ X y.u.. ",
"L d.3 o a.g.2 o a.g.2 @ a.g.3 o a.g.2 @ a.f.2 @ a.g.3 o a.g.2 @ a.f.2 @ a.g.3 o a.g.2 @ a.g.2 @ a.g.3 o a.g.2 @ a.g.2 @ a.g.2   ",
"L 2 X U s., X t.s., X t.s., X t.s., X t.s., X t.s., X U s., X t.s., X t.s., X U s.1 X t.s., X t.s., X U s., X t.s., X t.s., X , "
};
