/* XPM */
static char *result[] = {
/* columns rows colors chars-per-pixel */
"64 64 80 1 ",
"  c #020203",
". c #080704",
"X c #0C0904",
"o c #03060A",
"O c #070A0F",
"+ c #0B0B0B",
"@ c #130D02",
"# c #120F09",
"$ c #161005",
"% c #1B1303",
"& c #14120C",
"* c #1B150A",
"= c #060B14",
"- c #0A0D12",
"; c #141414",
": c #191716",
"> c #1C1913",
", c #1B1B1B",
"< c #211600",
"1 c #251A03",
"2 c #2B1D02",
"3 c #231B0B",
"4 c #291E09",
"5 c #221C11",
"6 c #2E2004",
"7 c #2D220D",
"8 c #352404",
"9 c #3C2A04",
"0 c #322409",
"q c #3D2C0A",
"w c #272112",
"e c #2B2212",
"r c #21201F",
"t c #312712",
"y c #352911",
"u c #3B2D12",
"i c #232323",
"p c #282827",
"a c #26272B",
"s c #27282B",
"d c #2C2C2C",
"f c #302F2F",
"g c #2E3034",
"h c #2F3238",
"j c #343434",
"k c #333538",
"l c #37393B",
"z c #3B3B3B",
"x c #432F04",
"c c #473106",
"v c #4B3303",
"b c #4B3508",
"n c #513704",
"m c #543A06",
"M c #5A3D03",
"N c #583D08",
"B c #403F3F",
"V c #5F4001",
"C c #634404",
"Z c #694703",
"A c #6D4A03",
"S c #724D03",
"D c #755007",
"F c #7C5303",
"G c #41413F",
"H c #444444",
"J c #4A4A4A",
"K c #50504F",
"L c #515151",
"P c gray39",
"I c #6A6A6A",
"U c #825700",
"Y c #845903",
"T c #8A5D03",
"R c #8E6006",
"E c #946405",
"W c #996704",
"Q c #9D6A04",
"! c #A26D06",
"~ c #A77005",
/* pixels */
"ipdddddddsdp:jBzBzzzBzzzzklzjkljkzlhllgzllzzzGzzBHj:pspdddddddsr",
"jJHHBHHHHHJjdBJJJJJJJJJ; 10 *q &9.+9XX9$ >JJJJJHJJBdzHJBBHHHGHJl",
"lJzBHBBHlJPpdBKJJJJJJJKOvY&VT%nW3cW68W00M&JJJJJJJJHdjJPfBBBGBHJj",
"jJzzBzzzzjpffzHBGHGGGGG>93YY*DE*ZW3NQ7b!2-HHHBHHHHldzjpgzzzzzzJj",
"lJGzzzljkjkjsgljljllllz+XSbXZM+VCXmZXvS%%&llllljjljsjjgjljlBzBJl",
"lHGzjr:::,:;;:,r,,r::,:o$X %# $$ @% &% X$.::>>,,,,:;::::::ijzGJj",
"lHGzj+ ;;:,:.      .:,::+ X  .o . oo o. oo;:,,;    X ;;;; +fzBHl",
"jJzBj;.dGHJJk:::,:,BKKGg,;:,,,,,r,r,,rr,::azJLHd,,,,dHJJj ;jzBJj",
"lHHll;.gzJJJJj:riizJJzd,:,riiippaiapppipp5:ijHJJj,;dHJJJz :jHBHl",
"jJIfg;.fjzHJJHj,izJJzd,rpripppfjfiipppfjji,:pjHJHiiHJJJHf :dPJjl",
"lzdfk: ,fjzJJJJflJJzdrdfkpdjgjGljpdjjjHlldda,alHJHHJJJHjd ;jddHj",
"dzjjj;.r,skzJJJHJJBfrsHzzdjjljJBldjljlJBzdgkd5plHHHJJHjjr ;jjjzf",
"rdjdp#.fr;djlJJJJzdrplJBzdjjjzJGzdjljzJzzffljprdHJJHHjji; &djjpr",
"GJJGl,.kj,,jzzHJJGfrjzJzzfjlllJBzdjljzJBzdjllidGJJJHzji,, rJJHlf",
"zJJGl:.jjfjHJzzJJJHjfJKzzjHJJJKBlfJJJKKzGjHJjdHJJJzzJHddi rJJHlf",
"BJJGk,.jjlJJHjjzJJJJlfzBzzGHGHGzBzBGGHBzzzzjfGJJJHjlHJHj, rJJJlf",
"zJKGl,.glHJHlidjzJJJHjdlBzjzzzzBzzzzzzzzzzffGJJJHjjdlJJGi iJJHlj",
"zJJGk,.jHJHlirrdjzJJJHjpldfffgjzzddffflzBppHJJJGjj,;szJJz rJJHjf",
"zJJGl,oHJHjppzlrdjBJJJJjppjjjjJBzdjjjlJBkfGJJJGljr,i:dlJH ,JJHlf",
"GJJGl,+KJjddjzJd,djzHJJJj,flzzJBzdjzlzJljGJJJGjgr:ffi,dzG iJJJlj",
"zJJBj:#JjpijjzJzd;dlzJJJHg,ippjdpripapfgGJJJGljrrsjjjirfj rJJHlf",
"zJKJzr+lp,jjjzJzj,>djzJJJJj;#;;;;&;;;#iGJJJGjgiijgfjjddrp iJKJzf",
"Bjpii++didHJJKKzlfd,djzHJJJl,,pppppirpHJJJGljpfzzfBJJHHi: ;addpj",
"BO6X$X.ifzHHHHHzzzGp,fjzHJJBsrslllliilJJJGjgrsGGBzHHHBzd;  6@X3j",
"G;0E%$ dlzzzzzzzzBzzd,djzJHjfp.rGGr.igzHBjjipzzzzGzzzljd,  8E$wk",
"zy%CS +jjdfffjlBzdfff,#fjljgg:,+ri#prpjkgf,,ffjzGfdfffjdi <3CA=j",
"B;T3C% jjpjjjzHzldjjjs;,dspf:izi#Osldiipsr:jjjJBzdfjjjlj5  T3Cyh",
"B-xW&%ojjdjljGJGldljjp;,iir;rzldpdpgzj,ri,rljlJGzfjlljHji  cWXej",
"zy$AZ XjjpjllzJzlpjljp;ifp;rdBjfGljdlpp,rrijljJGzffljjBj, <*SC=j",
"z>Y>S%ofjdjjjzJGzpjjzp;rj,&jssdBzjBlrrgr;,rljkHGzffjjkzjr XY*Sej",
"G=nR#%.jjfGGGJJzzfGGHj>ijj,riilzzzzjdr,:irpHHJKBzfzJHBHk5  mRXyj",
"ztXFV +jjlJJJJHzzzJJJj;ijHl;rjjzBzzlff+ffrfJHJJBBjBJJHBfi <#FM=j",
"B3F*F$.jlGzGzzzzBGzzzg;ijBs+,jkzzzzjlr;;drdzzzzGzGzzzzjfr XF*Fwg",
"B=MY&<ojjfjjjlzBzjjjja#iji#driHzGzzGpjk:+riljllzGjjlljfdr  VY$yg",
"BeXTn XgjpfjjjGzzpgjjp;rd;,jzsrjdslplBzr+,rffjzGzdpjffjfr %#Rn-j",
"z5A*UX.gjdjljGJzjdjjlf;rgl:;jz,;,prfBBdij,rzljJGzdjljlBjr $D*F5j",
"H=ZD%1.jjplllzJGzdjjlp+dHzj:;ip:;;pjjfiHJfrlklJGzffzjjBjr  AD%ug",
"zwXEc .gjpjjjzJzzdjjf:iHJJzd:;j,+;;jirGJJHjfjlHGzffjjjGjr $XR9;j",
"leC3R .pfdzzlGJzjfzj,pHJJJBgd,;.gl;+,fzJJJJjjzKGzfjzzzGfr $ZwU:j",
"H-Zn7%+GpjJJJKJGzjzpdGJJJHjjdg,pzjd,ifjzJJJHlGJGzjHKJJHj,  An1yg",
"z; 1  &JzdzGzGzzzj,aGJJJBjjp,rpirrrir,fjzJJJJjdzzBzGzzlf,   1 ;j",
"zzzgf;+JJzpjllzzf:pHJJJBlj;.+++++++++.odkzHJJHjdzlllljjii ,zlzjf",
"BJLHl,.BJJlrdjlf:pGJJJBkk:>padjjjipppdi:fjzJJJJgpddffdpdz rJKJlf",
"zJJHl,.gzJJzrjj:sGJJJGlgr>fzlzJBzdjljzJi,djzHJJJjrdljddHH rJJHlf",
"zJJzj,.pfGJJjr,sGJJJGljripjjjlJGzdjljzJjr;fjzHJJJj,ddpBJG rJJJlf",
"zJJHl,.dsgzJJksGJJJHjjrpzfjljlJGldjjjzJGj;;fkzJJJHj>pHJJj rJJHjf",
"HJJGl,ojfrfGJHGJJJHjfidzzpjjlzJGzpjzjzJzzi::fjzHJJJjzJHzp rJJJlj",
"zJJHl:.jjfffzHJJJBjjidJzzjJJJKJGzjJJJKKzzfjprfjzJJJHHJzd: rJJJjf",
"zJJHj,.jjg,sBJJJGjjrilBzzBGGGGBzzzBGGGGGzzGjr,fjlJJJHzdrr iJJJlf",
"zJJHl,.gd,pHJJJBlBp,jzzBzzllzzlBzzzzzlzzzzzzgr,fjzHJJHj:: ,JJHlf",
"zJJzl,.d>iHJJJBjzJzidjlzzddffflzzddfffjzGfpffdr,jjzJJJJj: rJJJlf",
"idfji; ,sHJJJHjjlJJzpjJzzpjljlJzzdjljzJGzfjljfpgJzjzHJJJf ;affpr",
"dllzf& aGJJJBjjrdzJJzfJzBdjjlzJBzdjljzJzzffkgrgJJGjjzJJJj ;gjlld",
"lHHzj:.BJJJHkji:,dzJJzjlzpjljjJGlpjjjlJzzffgrfJJHjidjzJJl :jHHHl",
"jHIfj;+HJJHjgr,sa:dzJJzfjdfjjjGzjpfjflHzldprfJJGjp::djzJB >dPJjz",
"lBdfj:.HJBjjirdff,pjzJJlppjzzBHjfplzzBGjfpifJJHjdpgpidjzz >jfpBz",
"lHlzg;.jljfi:rssapprfBJLlpffdddsdpdfdfdpprfJKHlsspdsi,dlf ;jlzJj",
"lJGzf# o.X+ .    o  .o#+;X  X  ....  . .  ++#o.    .. .+. #jzBJl",
"lHBzji:,,,:,;rir5ir,,r+@. 2@ 2% %% %1 $< rr,rrrrrr,;:r,:::ijzzHj",
"zHGzzzklkgjjiGJJJJJJJLrX4Yc*Ym&FC&DS&CF&.HJJJJJJJKGpgffljllzBBJl",
"jHGzzzzzzIBjfGKJJJJJJL,2!xq!b7~M3QZ3ED*C%HJJJJJJJKGfjLLjzzBzzzJj",
"zJGGGGGGlHgjdzJHJJHJJJ,8*8Y11T6%Y9$FvXFv HJJJHJHHJzsjJGgGBBBBHJj",
"jJHHHGGHGdjzdjlljlljkl5O;7O#7++7#-7&o7&o&jzljzlzllkdzgfzHHHBBHJj",
"rpdddddddfdp,djfjdjjffjjjfjjhjjhjjhjjhjjjffffffffjd,pdffsfdddddi"
};
