/* XPM */
static char *result[] = {
/* columns rows colors chars-per-pixel */
"64 64 130 2 ",
"   c #010104",
".  c #0A0503",
"X  c #03040B",
"o  c #090709",
"O  c #06080D",
"+  c #0A090E",
"@  c #170F0B",
"#  c #17110F",
"$  c #030915",
"%  c #0C0D13",
"&  c #0D0F18",
"*  c #0E1117",
"=  c #0E111B",
"-  c #121115",
";  c #1A1615",
":  c #14141B",
">  c #18171C",
",  c #17181D",
"<  c #1B1A1D",
"1  c #211A17",
"2  c #211D1C",
"3  c #25201E",
"4  c #2A221E",
"5  c #0D1423",
"6  c #0E1629",
"7  c #131623",
"8  c #151925",
"9  c #1B1C24",
"0  c #111728",
"q  c #151B2A",
"w  c #1B1E2A",
"e  c #181F31",
"r  c #211F25",
"t  c #201F28",
"y  c #1F2026",
"u  c #1E212C",
"i  c #162035",
"p  c #1D2333",
"a  c #1F2739",
"s  c #232225",
"d  c #2A2525",
"f  c #2D2826",
"g  c #23242C",
"h  c #29262B",
"j  c #27282E",
"k  c #2B2A2D",
"l  c #312D2E",
"z  c #222632",
"x  c #282730",
"c  c #262935",
"v  c #2B2C34",
"b  c #202738",
"n  c #252B3B",
"m  c #2A2E39",
"M  c #312E32",
"N  c #2F3036",
"B  c #2D313D",
"V  c #333235",
"C  c #3A3435",
"Z  c #33343C",
"A  c #39373B",
"S  c #37393E",
"D  c #3B3A3D",
"F  c #413C3C",
"G  c #41403F",
"H  c #262F41",
"J  c #2D3342",
"K  c #2E3749",
"L  c #323642",
"P  c #363944",
"I  c #3B3C44",
"U  c #353B4A",
"Y  c #3B3E49",
"T  c #413E42",
"R  c #3F4047",
"E  c #3E414C",
"W  c #3D4452",
"Q  c #3D4658",
"!  c #434246",
"~  c #4A4545",
"^  c #42444C",
"/  c #49474B",
"(  c #47484F",
")  c #4B494C",
"_  c #534C4B",
"`  c #424652",
"'  c #454954",
"]  c #4B4C54",
"[  c #454B59",
"{  c #4A4E5A",
"}  c #504F53",
"|  c #4E5056",
" . c #4D515B",
".. c #545256",
"X. c #5A5656",
"o. c #53545B",
"O. c #59575B",
"+. c #57585E",
"@. c #5B5A5D",
"#. c #615D5E",
"$. c #4D5361",
"%. c #535661",
"&. c #565963",
"*. c #5C5D63",
"=. c #565B68",
"-. c #5A5F69",
";. c #615F62",
":. c #5F6065",
">. c #5D616A",
",. c #636265",
"<. c #64656A",
"1. c #69676A",
"2. c #67686D",
"3. c #6C6A6D",
"4. c #716D6E",
"5. c #636771",
"6. c #666971",
"7. c #6D6D71",
"8. c #6A6E78",
"9. c #716F71",
"0. c #6F7075",
"q. c #6D7078",
"w. c #747274",
"e. c #797575",
"r. c #767679",
"t. c #797779",
"y. c #7C7B7D",
"u. c #727680",
"i. c #838283",
"p. c gray54",
/* pixels */
"< < < < 2 2 y y d j j j j v N S T m b z x Z T J x x x x B L v A M r d h M M C D T ~ T Y Y T ` ` [ { [ ] } #.....&.;.&. .] I & 9 ",
"B c c j g u y y s h g g g u g p 0 0 8 w x V x e 8 e p z x t q h l h f l k v C D A B x w 0 7 = = q z m N F F x t t x B B B b o f ",
"6 u j g u p u y y y y g z u z b a b c H L L z q 0 q u z e q 0 r r r r r k M D I Z c t 7 w x z z z m L Z M k t 9 9 t B B m K - ; ",
"u c u u y u y y y y y s g g c P Q T T T T P u 0 q z x e 0 u 0 h r r r f l V A I c z 0 w x c z c m v v v l x z z t x B B L Y 9 9 ",
"b u i 8 , 7 8 8 9 9 9 8 8 w c L T T T U T U H H z H H a a z q C r 9 r r f l M c z 0 7 t 9 7 t v m c c Z C v x t t M P Y ` [ t r ",
"q q 0 u u u u 8 8 8 9 9 9 t w w c J K U U H H Y [ T U K K L n F M x l l l h r 7 0 p z 8 7 9 x z w z Z A v c c x C T T T ` [ v 2 ",
"q q y u j u u y 8 9 g x h w 8 z J L U Y U H Y $.%.$.T U T [ K l C Z I Z h r 8 7 7 w w 8 t c z 7 8 x Z A x x V Z A A A Z P ' Z > ",
"a c u y 8 8 0 8 9 r t g t 8 w m T L K T T T T T T U K Y [ [ H l M t t 9 : ; 7 8 8 q q t v Z c z x v t t v x t t l C T ' ! ] L t ",
"B m a u 8 5 7 8 9 9 w t w w u m L T ' ] T U T U J L Y {  .` J k t 9 9 8 > : : 9 z z c Z V L P P Z v g v A m u s C F ~  ...&.Y V ",
"E K L B p q y u t t w 9 9 8 g P I Y T L n J U H n J U ^ ` Q U V k t c n c g t t c m L Z h g m L L Z Z A c n B A l r l I } ;.T A ",
"W W K L B B N j x w 8 7 7 w h N Z m c n B K J H c n m B n B m v r 8 g m Z n N V P I J c w 8 t J Y P S Z Z L E R C x M A )  .K M ",
" .$.Q U E R B c g w q 0 9 h x m U T T T T T T T I L L n u u c h s 9 r z N L P I P Y L J m x v Z Z J P E ' ` ^ / T C C A T T w M ",
"Q Q {  .[ E L m z z z g g h v A ~ / } ] ^ ! I Z S S m v z y 8 f k d d z N I I Z B Z L Y T P M z z B P T ^  .] ^ Y A v k F T w v ",
"R R  .5.>.=.{ W ^ Y B m v M V T ! ! ! I Z V v g g c Z A N O ; V V S v h h v M Z V B Z L A L v x Z A I I E ^ E Y I S M v x c : d ",
"d N R '  .&.&.o.o.{ T I P I T ! I V m n v v g t g c m V u X 3 C L Z c c m v Z P L B C V M v v v x g g t w u 9 w w t t 9 - 7 o # ",
"h s y y s j v v v j v V I Z Z c w : = = : & = = = % % O X   . o O O % - : - > : & % + % & - % X O O X O O O % % - : - - > < k M ",
"i.y.y.r.r.r.0.2.>.O.| ) :.y X X X X X X X o + * * + - - > l G S ! ..#.@.*.*.@...@.,.1.2.3.O.> ; < 9 j V I ~ } ..O.O.+.O.X.@.0.i.",
"Z I R E L E  .$. .&.O.X.2.U , < y y h j N N k N N B V C ~ 4.r.r.t.w.1.&.o...^ ' @.,.#.@.O.[ l ..Y P E ( ( W E R R R R E W G G S ",
"y g j p p p a a B ` ....&.J , k Z Z N N Z Z Z m B V A F ) ,.9.3.#._ } ] ^ Y ^ } X.( ! ..#.:.D ( ` E P c y 6 y p u p c B B c u y ",
"N k u q p u 0 6 b E | .. .J , k v N S R E R Z Z S ! X.;.#.1.2.:.] A M P ' &.9.r.<.*.,.,.:.&.^ ..&.[ R U B m B P R L Z B m c c N ",
"Z V p 6 6 q q p H U ` (  .H y D R G | +.:.{ W | @.,.9.r.7.<.*.&.} ^ T } @.7.t.9.7.0.3.@.] o.R O.&.` E E E R P R R B p y z m c N ",
"I B z p p a p p p m U R [ n N @.>.<.+.+.{  .+.:.9.w.e.3.-.;.<.<.-.*.*.;.;.,.@.@.<.7.7.1.1.:.S ! `  . .Q Q E R Z n n a v N J S R ",
"R L B H J K J a p m P P E n V *.>.+.' W | &.:.<.4.9.,.&.o.] o.*.;.;.;.&...) ~ X.;.<.1.7.3.&.S I E ` ` E W { ] E E ' ' ' ( W W R ",
"R U U E Q W W K U E E R W H k | E R R E | +.@.X.O...T Y ^ / ..+.{ ' } ] ] } @.,.<.1.7.9.<.*.Y Z U U U E [ +.&.+. .>.>.&.o.| E G ",
"^ E E W [ [ [ $.$.[ U P E n j ^ E ( R R W ( ( ~ ~ R B S ^ ..o.] [ ] ] @.;.4.1.#.O.,.3.<.:.>.S N K R K E E |  . . .>.>.{ E E R W ",
"E E ` W T Y Q [ Y K P T { i k ] W E R R I G S C S S E | ..~ S P ' *.1.1.1.;.} } O.,.,.*.<.>.B R W E U E E ( E ( ' | { { W E R R ",
"m L Y U L n H K U T ' / ` q V  .W R Z B S R G S R ) | ) / E P E ) O.;.;.;.*.%.*.#.O.o.@.*. .b C E B B B U R E E R W W  .Q E Z B ",
"! Y L B n c m P ` {  .) W 6 A <.=.:.| W R ( ( ( } O.| o.*.&.o.o.} ....o. .[ o.o.[ E R I P U q k E K L U S P U P B Z W ' B n S R ",
"] ^ P L L J L T ` ` } } Q = V <.8.q.q.2.+.o.@.;...( ..<.<.o.o. .] } / T I U Y Y E K B B B U 6 < R E ' ( E R B S B m B m H E ' ) ",
"S Z L I P Z P Y I ^ ' I H $ h o.>.>.6.2.:.@.@.;.O.O.@...] o.<.2.#.) T I T Y I Z U E W [ | [ 6 + N R ' W E R L L R S n m W { E R ",
"Z I ^ ' T I L Z I A Z m e X 9 o.>.:.:.2.:.#.@.@.*.,.*.| | @.2.w.3.;.X.~ T I U T E `  . . .Q 5 o j S S B L L P S U P R [  .' E P ",
"V M M c z t w r r 9 8 > 7 : f ~ | &.:.:.:.@...;.3.:.| ] ( | @.3.<.*...T v v v c j u g j y 6 O . - , 8 y y j Z R R E ( |  .Q E L ",
"M 2 r d k l M M D D A V A U Y U Y T ` T } X.} ) o.+.%.o.{ E : < r 2 < < y y s 3 s h h h h h M S S Z m Z L T } ] T T L h z X ; T ",
"h h h l h v C F T m x w 8 7 = = e z H V A F x t w g n B m b + d m b c v x z z j x M m m m c v z w q w w v I L m J J m J m X 1 } ",
"s s r r k M I I V n z 0 w x x z b m Z Z M h t r 9 d c B N K , ; 0 u g g g j j u r r t g g u b n c c c m L L b e p m T T Y O 1 T ",
"< 9 r h l V C I m w 8 q x z z c m m v B M v c t g x m J L W 9 < b z g u u u 8 y t r t t g g m P ` ^ I Y T P e q u J T $.%.% r T ",
"d g d d f l M x z 8 0 w w 7 t m v c v Z C B z t d M L T ` [ z 3 c u i 8 7 8 8 , 8 9 9 > 9 u c J Y ` Y I T U H e n Z U ' =.> l ' ",
"Z P Z Z M h t 7 0 p g w 7 9 x t q z Z Z l x c v N T T Y ^ ' B > i 0 8 y u u u 8 8 9 9 9 9 t w w z Z L I L H K T ' ` ^ ] =.w k ] ",
"T U Y S x r 9 8 7 q q 8 t c t 8 9 x Z Z v x v B C A A Z S ' Z < 8 8 u u j u u 8 9 9 g h g w 8 z L L L Y L K Y $.%.[ ` [ -.9 h ] ",
"J b c g r > 7 8 8 8 w t M Z m c x x t t v x t t l A T / ^ ] U j c a u y 8 8 0 8 9 w t g w 9 w B I L L T T T T [ T U U ] -.r h Y ",
"L L B c g > : 9 g z n V A Z P P L B x v Z m p t V D ~ .. .+.E V K n a u 7 : 6 y y y y u u w u B P Y ] ] Y Y T I K U ` ] [ 7 d Y ",
"U ' ' Y L v h t c m L N x t n L L Z Z A v v L A l d f D ) <.` V E B K B p p u u u u u , 8 8 g S I Y T J n H P n m Y ' / L & h I ",
"U ' { ] ' I P A P Y L n w 8 w L Y P L L L L Y T V l N S / ..B V W W K B J B N c j u 5 = = 9 j N v x H n m J m H J I T Y H + r L ",
"{ { ] { {  ./ I I U L L Z c v N B Z P T ' ' ` / R C V S G R u k { $.W E E E S n p u q 5 8 y y c P T T T T T ^ Q T U U U J X M o.",
" .o.o. .} [ ^ Y A Z L P Y P m g z N P Y / $.{ ' R S M k G E y f Q Q { $.{ Q R B v c p y y < y j T T T } ^ ! I Z P P L Y K X h ] ",
" .%. .` T I P I P Z Z Z A S M x V P T I T T T Y R S V N j c * 4 R R &.>.>.:. .] ' R N j u y d C T I F I V M x x c Z ! O.Y   d ] ",
"T P m H L Z P I L v M M M x c v x x g t g g e z u p j y , 5 O # y V R ( { |  .| | W R S S S R ! T I V v N v z t g x Z L u   4 T ",
". X % - - - > > : - - & > 8 & + % % % % % % & 7 < < < , < u S G N N k k u c v c j j j N S k k j t 9 9 8 7 = & & % % X X     . . ",
"~ @.;.;.;.;.*.%.;.3.3.9.9.;.x r j N D ! } X.+.;.,.:.:.#.@.;.r.p.p.p.p.y.y.r.y.w.7.:.@...:.p X X - > > > * * * * - * % # < C G G ",
"t.9.1.&.%. .T ` *.;.#.&.O.{ M _ ' ] | | ( W R S S R R R E R S Z m Z R K B R [ { {  .O.@.6.R y 2 t M v Z S S V N V V S C ~ w.r.y.",
"X.} ] ] [ T T X.O.T / X.;.-.I ! E R L c y q u p z z b B B v u u y g u p i p p i a E R !  .B , k Z Z M Z B Z Z m N Z S G _ ,.0.2.",
"} A M P T &.q.e.1.*.;.1.;.&.T ]  .( U R B n B R R S B m m c v v N j y u p i 6 6 p n P R [ n < j m V P I R R Z Z S ( @.,.,.<.<.:.",
" .^ T ] *.3.e.7.7.q.9.#.}  .P }  .W R E W R P R R B p 8 p m n v Z B u 6 8 i 8 a n n K R [ n h R P R | :.&.| ( o.@.1.w.t.3.:.:.:.",
";.;.;.;.;.;.#.&.;.3.3.<.<.;.L A ]  . .[ W E R B m n c m N Z G R R N a p p a p p i p B R R p N +.<.<.+.+. . .o.,.w.e.w.2.:.:.:.>.",
">.-.;.*.} ) / X.;.<.<.7.1.&.P M ( { ' E Q { | ( W Q | ] Q Q ( R R L B J K K H a p a B m L p V *.*. .' (  .&.:.1.3.3.:.o.o.) | :.",
"[ ] ] ) ] } ;.;.1.1.9.9.<.*.U v P U L U [ +.&.+.&.&.>.&.o.| R G Y U U W W Q W K E E K B L c k ( R R I E  .*.O...O._ R R E ( +.O.",
"' [ } @.;.4.1.;...;.3.2.;.-.L x B U E E E |  .| o.&.&.{ ` Y T ` ^ E W ` ' Q [ $.=.$.W P E p k E E ( R R ^ ( / ! ! S S P / o...] ",
"] ;.3.4.9.1.X.} ;.1.3.;.7.5.m M P P E E ( ( E ^ ] o.[ [ [ Q T T Y E ' E Y W Q $.Q U K E E i N ] ^ E Y Y P S A D Z S ^ | } ~ S L ",
"} ;.4.9.t.9.3.e.e.1.1.9.9.-.n M P N m B L E E E U Y [ $.[ U J v m L U P J p a a a K E R U i V  .` U Z B S / D D R } | ) ' ! I ! ",
"o.;.;.4.t.y.p.y.1.X.X.@.;.-.c M ` L Z Z Z S L L m Z T ' H n Z I ! Y J b e e q i J W E E W q D <.>.&. .( ! ( ] ) } O.| O.;.*.*.*.",
"X.#.X.X.#.e.t.9.*.@.X.#.<.<.z r Y E ` ' E P m m m c m n H ` ] ' ] Y J H n a p L E U E W W = S >.8.u.q.<.*.o.@.;...] X.,.;.O.+.o.",
";.X.) _ #.;.;.;.6.3.,.#.3.6.h ; Z Y ' ` I L m m L Z b m Y [ ` I L H J U K H U E E R E E H $ k o.:.>.5.<.,.@.@.*.o.X.@...] &.1.7.",
"9.;.#.X._ ! ) O.<.;.@.#.;.=.r @ y m B Z L B B S P P I ] { ' Y I L n a b n J Y P L P P P i X d O.:.>.<.<.,.@.@.*.,.<.O.{ { O.<.q.",
"q.;.#./ C M M v g g r < > % o . + + * : 8 g Z A I ! ] o.%.{ ` L n q q q p c z w u y , * $ O 2 D R | o.:.*...) O.;.O.] ] ] o.,.9."
};
