/* XPM */
static char *result[] = {
/* columns rows colors chars-per-pixel */
"64 64 221 2 ",
"   c #2D2D2D",
".  c gray21",
"X  c gray20",
"o  c #2C2C2C",
"O  c gray19",
"+  c #343434",
"@  c #353535",
"#  c #313131",
"$  c #2F2F2F",
"%  c gray18",
"&  c gray16",
"*  c #282828",
"=  c #3C3C3C",
"-  c #3E3E3E",
";  c #373737",
":  c gray22",
">  c #3F3F3F",
",  c gray24",
"<  c #414141",
"1  c gray26",
"2  c gray25",
"3  c gray23",
"4  c #444444",
"5  c #484848",
"6  c gray28",
"7  c gray17",
"8  c #4C4C4C",
"9  c #3A3A3A",
"0  c #4B4B4B",
"q  c #505050",
"w  c #4E4E4E",
"e  c gray32",
"r  c #494949",
"t  c #5D5D5D",
"y  c #686868",
"u  c #515151",
"i  c gray30",
"p  c gray29",
"a  c #323232",
"s  c gray33",
"d  c #393939",
"f  c #535353",
"g  c gray37",
"h  c #777777",
"j  c #646464",
"k  c gray39",
"l  c #555555",
"z  c gray27",
"x  c gray40",
"c  c #6A6A6A",
"v  c #5B5B5B",
"b  c gray38",
"n  c #626262",
"m  c #717171",
"M  c #767676",
"N  c gray44",
"B  c gray43",
"V  c gray46",
"C  c gray48",
"Z  c #6F6F6F",
"A  c #6D6D6D",
"S  c gray34",
"D  c gray31",
"F  c #797979",
"G  c #818181",
"H  c #7C7C7C",
"J  c gray45",
"K  c #676767",
"L  c #656565",
"P  c #6C6C6C",
"I  c #565656",
"U  c #585858",
"Y  c #1D1D1D",
"T  c gray12",
"R  c #434343",
"E  c #464646",
"W  c #1E1E1E",
"Q  c gray9",
"!  c gray11",
"~  c #222222",
"^  c gray14",
"/  c #272727",
"(  c #2A2A2A",
")  c #232323",
"_  c gray13",
"`  c #202020",
"'  c gray15",
"]  c #5A5A5A",
"[  c #808080",
"{  c #8E8E8E",
"}  c gray63",
"|  c #979797",
" . c #939393",
".. c #898989",
"X. c gray50",
"o. c gray49",
"O. c #7B7B7B",
"+. c gray47",
"@. c #727272",
"#. c #8B8B8B",
"$. c gray56",
"%. c gray51",
"&. c #747474",
"*. c DimGray",
"=. c #606060",
"-. c gray35",
";. c #5F5F5F",
":. c gray42",
">. c gray53",
",. c #848484",
"<. c #888888",
"1. c #838383",
"2. c #959595",
"3. c gray55",
"4. c #A7A7A7",
"5. c #929292",
"6. c #989898",
"7. c gray62",
"8. c gray61",
"9. c #9B9B9B",
"0. c #8D8D8D",
"q. c #868686",
"w. c #7E7E7E",
"e. c gray36",
"r. c gray54",
"t. c #252525",
"y. c gray52",
"u. c gray59",
"i. c #494948",
"p. c #4E4E4D",
"a. c #444544",
"s. c #484847",
"d. c #464746",
"f. c #4A4A49",
"g. c #454544",
"h. c #2B2A2D",
"j. c #252427",
"k. c #252425",
"l. c #262429",
"z. c #2C2B2E",
"x. c #323132",
"c. c #323233",
"v. c #2D2B2F",
"b. c #27252A",
"n. c #262526",
"m. c #262527",
"M. c #2C2A2E",
"N. c #363536",
"B. c #363635",
"V. c #1E201C",
"C. c #253217",
"Z. c #1D2514",
"A. c #151911",
"S. c #293919",
"D. c #2B391B",
"F. c #1B1F17",
"G. c #232324",
"H. c #1B1E17",
"J. c #293918",
"K. c #353536",
"L. c #373837",
"P. c #302F32",
"I. c #1E2615",
"U. c #48721A",
"Y. c #334B19",
"T. c #1E2B12",
"R. c #4E7A1F",
"E. c #4A711F",
"W. c #1A240F",
"Q. c #181719",
"!. c #3E3E3D",
"~. c #434342",
"^. c #1C1B1E",
"/. c #19230E",
"(. c #4E7A1E",
"). c #1D2A11",
"_. c #324A19",
"`. c #2F2E31",
"'. c #2F302F",
"]. c #2D2C2D",
"[. c #1B1E19",
"{. c #1E2716",
"}. c #1D2019",
"|. c #1A1C19",
" X c #2C3324",
".X c #2F3628",
"XX c #242523",
"oX c #303729",
"OX c #2F3727",
"+X c #1E201D",
"@X c #1F231B",
"#X c #1B1D19",
"$X c #282928",
"%X c #3A383B",
"&X c #454446",
"*X c #504F50",
"=X c #5D5C5F",
"-X c #646365",
";X c #585958",
":X c #5C5B5C",
">X c #5C5B5D",
",X c #59575A",
"<X c #3E3D3E",
"1X c #323033",
"2X c #444443",
"3X c #363736",
"4X c #323332",
"5X c #151515",
"6X c #161616",
"7X c gray7",
"8X c #131313",
"9X c #181818",
"0X c #191919",
"qX c gray10",
"wX c #1B1B1B",
"eX c gray60",
"rX c gray67",
"tX c #9A9A9A",
"yX c #909090",
"uX c gray57",
"iX c white",
/* pixels */
"  . X     o o o o O + @ X # O O $ $ $ % % %     %   o o o   & * * &   o o o   %     % % % $ $ $ O O # X @ + O o o o o     X .   ",
"O = - = ; @ @ + + : - > , , < 1 < 2 < - 3 - 1 4 5 6 > 3 3 = ; O $ 3 4 - = > 5 5 4 1 - 3 > < 2 < < 2 , , - - : + + + @ ; 3 , 3 O ",
"7 8 6 > @ X X O $ O $ $ $ # ; 9 9 3 - 3 + . = 1 0 q w e q q r ; ; t y u q i w p < = . + 9 - 3 9 9 : a $ O O # $ O + X . 2 4 6 7 ",
"$ s r 1 : X . + # a a @ X . d d d d 9 3 ; : , > 1 1 r f e f 5 X X g h j k l w 8 z 2 d : , , 9 d ; @ $   $   % % # X $ + - > p % ",
"O x c c k v b n g j m M N B B V C V B B Z A k S D i u s e s 1     w M F G H J A y K j L Z m A P b S f f s D w i q D p w I f U O ",
"Y , q l S s D q q u s l f u e U I f q D 8 p 4 < = @ + + a # * T T & X ; - - > R 4 4 z E 0 i 8 i w r 5 r r 6 6 5 r 5 8 i 8 r 9 W ",
"Q ! ~ ^ / 7 ( 7 o o 7 ( 7   o 7 ( & * * * * * & * 7 ^ ) ~ _ T ) ) T ` _ _ ~ & ' / * * & & & ( o   % $     % % %   o o & ' ) ! Q ",
"Y o - - E 0 8 f s u e D w q q D D 8 0 0 p 5 6 6 6 e > R 3 % & o o & % 3 R > ] U ] e i i i i w u u e f q D q D w r 4 r z - - o Y ",
"( z j k N [ { } } |  ...X.o.O.F +.V J @.Z K j L k c s ] f > a $ $ a > f ] l o.#.$.o.@.m m m J M h F O.H X.%.%.G h N h N k j z ( ",
"7 = e I L m &.o.o.F h N c *.y L j n b b t S l s e ] r 6 0 2 O     O 2 0 6 r =.t g v -.t ;.;.=.b k L K K c B Z B :.y B j I e = 7 ",
"/ o a O = 4 - > - > > = = > > > - - 2 1 > 3 3 9 : 1 . @ 2 + &     & + 2 @ . 1 : d 9 3 > 1 2 - > > > > = = 2 2 > 2 > 4 = O a o / ",
") * ( / % X O $   O O o o $ # # # # X . @ a a a # 3 X d 1 # o O O o # 1 d X 3 a a a a @ . X # # # # $ o o $ O   % $ X % / ( * ) ",
"/ 7 O + : d ; . . : ; @ @ @ + + + + . ; : : : : 9 - = 4 = ( $ a a $ ( = 4 = , d : ; ; ; ; . + + X + @ + @ ; : . . ; d ; + O 7 / ",
"o O - 0 w w 8 i i i i i i p E 6 E 6 6 6 6 6 5 5 6 E R , O * a + + a * O , R 6 r p r 5 5 5 5 5 5 5 5 0 w i i i w i i D D 0 - O o ",
"O 6 P *.&.>.X.,.<.>.>.<.<.1.H +.&.J J &.&.&.&.&.P j l I r 9 a X X a 9 r I ] h #.2.3.%.G %.%.%.%.%.%.X.V B P P P P :.N :.*.P 6 O ",
"% u M :.3.4.5.6.7.8.8.8.9.2.0.q.w.o.o.o.o.o.o.H &.A S ;.;.< # O O # < ;.=.e.G 5.8. .r.............>.1.C @.Z Z Z Z B V @.:.M u % ",
"* 1 e.e.@.o.B m J @.@.@.@.N Z B P :.:.c c c *.K n x u I S 2 O % % O 2 S I u y L *.c c c :.:.:.:.:.c c *.y y y K K L :.y t e.1 * ",
"^ ; r E q e p p i q e s l l I I I S I I I I f q w l z 4 - @ 7     7 @ - 4 4 l w q f I I I I S I I I I l l f u w 0 0 f u E r ; ^ ",
") 7 9 ; , 9 %   # @ 3 , - > > 2 2 2 2 2 < 2 , 9 9 - a # % % ( 7 7 ( % % # a - 9 3 , 2 < 2 2 2 < 2 > > - , 9 @ O   % 9 , ; 9 7 ) ",
") t.a . . .   o o $ + . . @ @ @ @ @ . . ; : . + + : 7 ( o % ( 7 7 ( % o ( 7 : + + . : ; . . @ @ @ @ @ @ . + $ o o   . . . a t.) ",
"( / 7 + @ : @ X O # a a a a # # O X . @ ; 3 9 d d 9   ' / ^ 7 # # 7 ^ / '   d : : d 9 ; @ . X O # a a a X a # O X @ : @ + 7 / ( ",
"& X 8 i D U S S l s l I U U S S S I S l S ] ] U S I E 2 = # # X X # # = > 6 t g k x n v -.-.S l I I S S l s f l S U -.q i 8 X & ",
"o q m g :.1.q.1.%.1.q.<.#.#.<.<.<.y.%.O.h +.+.M &.V n j j 5 % $ $ % 5 j k y $.5.} 4.| <.q.y.G H O.O.o.w.O.F h h h M +.y g m q o ",
"# s k v m u.2.>.G G 1.,.q.y.%.%.%.X.o.h &.&.&.@.Z m =.] l E O o o O E l -.j G w.<.3.1.H H O.F h h M F C +.h &.&.&.&.M y v k s # ",
"a 4 e u ;.M m :.y K K K K K x x x L j k k k b g e.;.q 6 4 > $ ( ( $ > 4 6 u k v t =.n n k j j L x L x x x x x x K L K ] e e 4 a ",
"o + > - 1 i i e s s l l l U v e.e.v -.I s e i 0 r r = : d 9 o ' ' o 9 d : = r r 0 w e s I ] v e.e.v U l l l s s e i i 1 - > + o ",
"t.* $ $ # . + d = - < z z 6 0 8 0 0 5 < > 3 . X $   / ( $ O ' * * ' O $ ( /   $ X . 3 > < 5 0 0 8 0 6 z z < , = : + . # $ $ * t.",
"_ _ ' o 7 & ' * & o $ X + ; 9 3 , , = : ; X O   ( 7 (   o t.~     ~ t.o   ( 7 ( % O X ; d = , , 3 9 ; + X $ o & * ' & 7 o ' ` _ ",
"^ ! _ ( & ' ~ ~ ) ^ ' ' t.^ ' * 7 o       7 / ' t.* 7 ^ Y ^ * & & / ) ! ^ ( / ^ t.' ( o o o ( ( / ^ ) ^ t.^ ) ~ _ _ t.* ( _ W t.",
"2 l 0 i k Z *.g g g ;.U 8 r i 0 8 w i w D D E < < 1 , 3 9 > 9 o O q s E 6 0 I -.v n K e.v ;.;.e.e.g -.-.=.=.t t e.n k ] 5 - 4 3 ",
"t c 4 1 i.p.p a.s.z 5 0 4 R r 5 p p r 5 p p z 1 R R R E p w 8 @ > O.+.v I f S ] ] =.=.S I ] t e.] e.s u I i d.f.d.r r g.- @ r p ",
"8 @ a . h.j.k.l.z.x.. + @ - 3 + 9 X / ^ o O a X X a # # X u E X 3 P P + a a a X X a O 7 ^ / X 3 + = > @ @ ; c.v.b.n.m.M.N.O ( = ",
"E B.. V.C.Z.A.S.D.F.G.. ; D > ; E @ * @ 2 E 0 0 r 0 p 0 e.:.E X , *.q.t 0 p 0 r 0 0 E 2 @ * + p > 3 u 9 d t.H.D.J.A.Z.C.V.K.% 9 ",
", L.P.I.U.Y.T.R.E.W.Q.!.= -.5 : p .   R q s s e u f q u m w.R + - j $.A e q f u e s s q R   @ u 8 > v z ~.^./.E.(.)._.U.I.`.'.X ",
", @ ].[.{.}.|. X.XXX: w 3 =.l . w > # z u D 0 r r 0 q e &.X.R @ 3 t #.Z s u 0 p r 0 D q 4 # - e D 4 n z q z XXoXOX+X@X{.#X7 o + ",
"< 3 $Xt.%X&X*X=X-X*.L e E e.f , q w 1 I =.=.n n j c B N { O.4 @ ; D G q.P :.y k n b k L S 1 i s 0 4 ;.8 6 ;X:X>X,X0 <X1X) / # : ",
"2 - + a ; > 2 1 2XR R E 8 i r 6 p 5 6 U n y Z M o.y.+.K h =.< + + 1 ;.Z =.N H M N *.L n f R 6 8 i p i 8 6 1 ~.R < - !.3X4XX ; 9 ",
"1 z @ # + 3 9 ; ; ; : d 9 3 = - - , 3 > 4 R 4 8 D D r 1 r D 4 . . 4 D p R r D i r 1 2 2 , 9 , - - = 3 9 d : ; : : 3 = + # @ 4 1 ",
"< D z > < R 1 < 2 2 > - - - > > > > 2 2 2 < < 1 4 E R 2 > 1 > + + > 1 > 2 R E z R 1 < < 2 2 > > > - - - - > 2 2 < 1 R < > z D < ",
"T ) ^ ` ~ t.' * * / * * * & & * * t.t.t.^ ^ ) _ ~ ) ` T ` ` ) / / ) ` ` T ` ~ ~ _ ~ ^ ^ t.t.t.* * & & * * * / * * ' t.~ ` ^ ) T ",
"5X6X7X7X8XQ 9X0X9X9X9X9X9X9X9X9X0X0XqXqXqXqX9X9XqX0XQ qXY W ` ) ) ` W Y qXQ 0XqX9X9XqXqXqXqX0X0X9X9X9X9X9X9X9X9X9X9XQ 8X7X7X6X5X",
"5X9X^ 9X0X^ _ W Y W T T _ _ ` T Y Y W W W W wXwXW ` W ) ^ t.t.~ ~ t.t.^ ) W T Y wXwXY W W W Y Y T ` _ _ T T T W T ~ t.0X9X^ 9X5X",
"T 3 8 o 3 f f i r 0 8 i w w i 0 6 z 4 < , 3 d 3 = 1 , 1 E ; + $ $ + ; E 1 - 5 1 - , - > 2 1 R z r p p 5 6 6 z R 4 r w 3 o 8 3 T ",
"% p E : i L Z J Z P A A A A A P :.:.:.*.k ;.;.;.;.n s u S 1 3 @ @ 3 1 S u U +.&.P c c :.:.:.P P A A K n n n b b ;.v t i : E p % ",
"% ; 3 X = 1 6 s ] v v v v v v v e.e.e.v U S -.] -.] p 6 2 3 9 @ @ 9 3 2 6 0 b =.g t e.e.t t g g t t ] U U U U S q R < = X 3 ; % ",
"'   X 7 & / / $ : 9 3 = = , , = = , , , 3 d 3 = 3 - # O %   X X X X   % O # , 9 = 3 d 9 , , , = = , , , = 3 9 : O / * & 7 X   ' ",
"' ^ % % & & ( % a X X X + + + X a + + X O %     % + 7 o   7 $ # # $ 7   o 7 + %     % O X + + a + + + + X X a a % ( & & % % ^ ' ",
"* / # : , > , - - , = 3 3 9 9 3 9 d 9 d ; @ X X @ d . + $ O + $ $ + O $ + . d @ X X @ ; 9 9 d 9 9 9 9 9 3 3 , - - , > , : # / * ",
"' & $ d 2 6 5 5 6 E z 4 1 > , , , , - = 9 : : : : 9 ; X   7 7 ^ ^ 7 7   X ; d ; ; ; : d = - , , - - < 4 E 6 6 5 r r 5 2 : $ & ' ",
"o d z q b o.<.[ H H w.X.o.F @.m N A c L g t t t ] ] D i i - X % % X - i i u n b j K y c N @.h [ 1.X.1.1.X.o.w.[ %.X.&.b q z d o ",
". z k U K eXrX2.3.5.tX9.tX| yX$.0.,.o.V B A B N A B ] t y 0 + $ $ + 0 y t g ,.#.0.3.r.#.{ $.uX| 6.uXyX0.>.>.>...3.3.[ L U k z . ",
"d 5 v p D x B y x *.P P A P :.c *.x L n =.=.n x x K e I ;.6 X o o X 6 ;.l f J C F Z :.c c c y x x j L j k k k k k n g D p v 5 d ",
"@ r r = = - 2 6 p w w w e s s s f s s s s s f S I S z 5 i 1 O     O 1 i 5 z U S S e f s f f f f s s s e D w w 0 5 < > = = r r @ ",
"7 > 6 + O a X d 3 < 1 1 E 0 8 i i i w w 8 5 4 R 2 < @ 3 2 . 7 % % 7 . 2 3 @ < > R 4 5 8 w w i i i 8 0 E 1 1 < 3 d X a O + 6 > 7 ",
"' ( : # * o & & o   % O X @ : 9 3 3 3 9 . # o & * & ^ & ( t.( % % ( t.7 & ^ & * & o a . 9 3 3 3 9 : @ X O %   7 & & 7 * # : & ' ",
"/ ^ &   * & * / / ' ' & ( & o $ $ $ $ % o o / t.' * ' & t.) & / / ( ) t.& ' * ' t./ o o % $ $ $ $ o ( ( & / ' / / * & *   & ^ / ",
"T ~ ^ ^ W ! ! Y Y ! ! Y Y Y Y W W W W W W T W Y ` _ T ^ ' ( ) qX0X~ ( ' ^ T ` T Y Y T W Y Y Y Y ! wXwXwXwXqXqXwXwXwX! W ^ t.) ` ",
", K x n ;.-.U -.v ] ] v v g ;.s 0 p p p r E E E 6 5 8 u l ] 8 O # K r.m k ;.=.=.=.;.;.;.b e.-.-.I u D D w w w w p z E p 8 f I : ",
"u M -.u D 0 r r 0 0 8 w q f l i 5 E z 4 R 1 1 z p 8 D u l f e 3 1 H >.@.k n j n v -.I I ] U S U I f q w 8 p r 5 4 2 2 1 R 4 I 4 ",
"; 1   / ' * ' t.( 7 7 $ + : , > > > = 3 9 3 3 = z p 0 u q 8 p ; = ;.] e f 8 0 E , 3 3 3 = - < 2 2 > 9 @ O     7 ' / & / & & @ $ ",
"o : O o ( 7 o (   X X X : , 1 E 6 6 6 z z z R 4 r 0 8 e e u 0 . d U U e e 8 p r 4 R z z z E 6 6 z 1 , : X X X   ( o 7 ( o $ a & ",
"& 9 @ # O % O O O @ d 3 > 4 6 0 w w w 8 0 p r i u u q q f v 5 # # 8 g f q q u u i r 0 0 8 w w w 0 6 4 > 3 d @ O O O % O # + . / ",
"* = 3 3 d 9 - > > < R E 6 r r 0 8 8 8 i i 0 E p w w 0 p z q 1 7 7 1 q z p 0 w w p E 0 i i 8 8 8 0 r r 6 E R < > > - 9 d 3 9 3 * ",
"& - 4 4 3 9 , , , , , - , - > 2 2 > > 2 2 > ; ; : : : . o $ a ( ( a $ o . : : : ; ; > 2 2 > > 2 2 > - , - , , , , , 9 3 4 4 - & "
};
