/* XPM */
static char *result[] = {
/* columns rows colors chars-per-pixel */
"64 64 123 2 ",
"   c #0E0E0E",
".  c #110F0E",
"X  c #15110F",
"o  c #1B120E",
"O  c #141414",
"+  c #1B1614",
"@  c #1D1816",
"#  c #161718",
"$  c #16191B",
"%  c #1C1C1C",
"&  c #231711",
"*  c #231A16",
"=  c #2B1C15",
"-  c #251D19",
";  c #2C1F18",
":  c #321E13",
">  c #381F12",
",  c #28201D",
"<  c #352016",
"1  c #3C2316",
"2  c #35241B",
"3  c #3B251A",
"4  c #3E291D",
"5  c #1E1F20",
"6  c #1E2021",
"7  c #242424",
"8  c #2A2726",
"9  c #282827",
"0  c #262728",
"q  c #262829",
"w  c #2B2B2B",
"e  c #372C27",
"r  c #3D2B22",
"t  c #302F2F",
"y  c #30302F",
"u  c #2D2F30",
"i  c #343434",
"p  c #353738",
"a  c #37393A",
"s  c #3B3B3B",
"d  c #422516",
"f  c #4C2A17",
"g  c #412719",
"h  c #432A1D",
"j  c #4D2D1C",
"k  c #5C2F17",
"l  c #512E1C",
"z  c #57311D",
"x  c #5C331D",
"c  c #62361E",
"v  c #6C391D",
"b  c #753C1E",
"n  c #793D1D",
"m  c #442D21",
"M  c #4A2F20",
"N  c #4D3021",
"B  c #49372E",
"V  c #533423",
"C  c #5B3421",
"Z  c #5E3925",
"A  c #403F3F",
"S  c #613620",
"D  c #623924",
"F  c #6A3C24",
"G  c #6B3F28",
"H  c #743E22",
"J  c #40403F",
"K  c #6F412B",
"L  c #764125",
"P  c #7C4222",
"I  c #72442C",
"U  c #794529",
"Y  c #7D482C",
"T  c #434343",
"R  c #4B4B4B",
"E  c #535353",
"W  c #585757",
"Q  c #5C5C5C",
"!  c #605F5F",
"~  c #636363",
"^  c #6B6B6B",
"/  c #737373",
"(  c #7B7B7B",
")  c #824321",
"_  c #8B4621",
"`  c #8F4821",
"'  c #804829",
"]  c #8C4E2C",
"[  c #934B24",
"{  c #9E5027",
"}  c #9A5029",
"|  c #874E30",
" . c #825036",
".. c #86543A",
"X. c #A04E22",
"o. c #A45124",
"O. c #AA5526",
"+. c #A5562C",
"@. c #AB572A",
"#. c #AB582C",
"$. c #B45724",
"%. c #B25B2B",
"&. c #A05A35",
"*. c #AF5E34",
"=. c #B45F30",
"-. c #C15C25",
";. c #C4612D",
":. c #DC6D2E",
">. c #C06535",
",. c #C86732",
"<. c #CD6B36",
"1. c #C46939",
"2. c #CB6C3A",
"3. c #D36D36",
"4. c #DA6D34",
"5. c #E16E31",
"6. c #EB7C41",
"7. c #FF893B",
"8. c #838383",
"9. c #8A8A8A",
"0. c #929292",
"q. c #9A9A9A",
"w. c #A5A5A5",
/* pixels */
"% 0 s A T J s W W E ! / / ^ ^ / / ^ / ^ ~ ~ Q E E R y s s s p i p i A s a w T R E W ! ^ ^ ^ ^ ^ ^ ^ ~ ! W R R R T p J T J s 7 6 ",
"0 i R E ! Q ! ~ ~ ~ / 0.q.0.0.q.w.w.w.q.8.( / ~ Q Q T R R E R W E E R R R J E Q ~ ^ / ( 8.8.8.8.8.8.( / ^ ~ Q W W E W Q E R w w ",
", % 7 7 q w 7 7 5 % % % 5 6 7 7 0 9 w w w 0 0 7 7 7 % 0 0 7 9 i y 9 8 0 7 % , 7 7 7 7 7 7 7 5 % % % 5 % 5 % % 5 7 7 9 9 7 7 % 0 ",
"w 7 7 % % #   6 s T R ! W R T T T T T s i t 8 7 7 7 O i i 7 % 9 7 % 7 p w # 0 7 0 w s T T T T J s a i p i y i w # X # # % 7 7 w ",
"i p s s w % , E 8.9.8.0.8./ ^ ~ ~ ~ ~ E R T s p i i 7 E ! a 8 w w 9 a Q T 0 p p s R ^ ( / / 8.8.( / / ^ W W ! W s # # w s T a i ",
"p T ~ W u O 7 ~ E y 7 , w 0 7 7 7 7 7 7 7 6 , % % O $ E ^ s 0 t w 9 J ! T % O % 7 w w w w w w w w t w w 7 7 w T R @ # s ^ ^ T a ",
"p E 9.W p # w ^ p # O O % % % # % % % % % 5 % % O O + R ^ T 0 y w w T ~ T # X # % % % % % % % % % % - $ O # # i R % % R ! / R a ",
"y E ^ y w % w ~ p % % 5 i T E E E E R J p y w 7 # # % W / s 7 w w 9 J ~ T # O % 7 w i s J T R R R R T i % % % y R , % y i ! J y ",
"w T E w p # , E p 9 w s Q ^ / 0.q.0.9.^ W R T p 7 # % ~ ( A 0 y w w J ~ R % # 9 i J R W ~ ( 0.q.9.^ ^ W a w w i J % % i w R p w ",
"9 s T 8 a $ 6 R 9 % 5 9 s i w s s s s w w i w w % O % ~ ( s 0 w w 9 T ~ R # O 5 w y i w y T Q ~ R t a p 8 % % 9 J % % s 0 T p w ",
"w s s 9 a % 0 R y % % 7 i p t T E R s 8 y u i w , O $ ! / s 0 w w 0 s ~ R # O 7 w y i w 9 s E Q s w i i 7 % % w J % 6 s 8 J i w ",
"q J s 9 J % 7 W a 9 y s W W R ^ 9.8.W s R R T T y $ - W ^ a 0 w w 0 s Q T % % u T R R T s Q 9.9.! R W E s w w p T 6 7 s 0 J p 9 ",
"9 T s w T % w W i % 7 w a i t s T J i 7 w i y w % O % W ^ p 9 y w w a ! R + O , w i i w 7 a E E s w a i q 7 6 i T % 7 s 0 J p w ",
"w s p w R % w W w # # 6 y p y T E R s 7 q w w 9 % O 5 J R w % 9 8 % w T s % O % w w w 0 7 s E E s t a y % + % w R % 7 A 8 s p 9 ",
"0 T i t R % w Q p 8 w p R E R ^ 0.( Q s s T T s 9 % % 0 7 # . % % . # 0 6 % % w s T T s A ! 8.8.W R E R i w 0 i R % % R w A p 8 ",
"8 A s 9 R % w ^ s % % , 9 w w i s a y 0 0 w 9 7 % $ 7 R W p 7 w 0 7 w R s 5 # % 0 9 0 7 8 p R R i w w 9 7 % % w T 7 7 R 8 s p 9 ",
"0 T i 8 E 7 w ^ s % 7 w a T W ! ~ Q W E R R s p 7 # % T R 9 , u w % 7 T i # # 7 p T E E E E ~ ^ Q E A p w 5 % w T 7 7 R 7 s i w ",
"0 T s y W 7 y ~ u % 0 p T E / 9.q.9.8.^ ! W R s 7 # % i w # # w w # % w y % # 9 J E ~ ^ ^ ^ / ( / ~ R s y 7 % 7 T 9 0 E w J i w ",
"0 T A s ~ 7 y ~ w   % % 7 7 9 t i t w w 9 9 9 7 # % 6 T R w 9 w 9 9 y R T , % # 7 7 7 9 9 9 9 w q 9 7 , 7 #   , T 0 0 E s A a 9 ",
"0 a a A W 7 w ~ i 7 w i i i y t w 0 9 0 0 7 0 % # $ % E W a 9 9 0 w p W T % # # , 9 0 0 0 7 0 w w w w w w q 6 0 s 9 7 E s s i w ",
"q i s T T 6 w ! R T ! ~ ^ ^ ^ ^ W T J p i i i - 0 0 % E ~ p 8 9 9 9 p W R % 9 7 7 s T R E E W ^ / ~ E T s s i w s 0 7 R T s y w ",
"w u T R T , u ! s a a - 7 7 0 w w 7 6 , % 7 7 $ p s , W ^ p 0 w 0 9 i Q T 7 T i % 9 7 q w u i T T s w 9 % w i w s 0 7 T R J w 8 ",
"w s R R s 7 p ^ i i y # % - % 7 5 5 % 5 % 0 w 7 W E , W / i 0 9 0 w s ! T 7 W E 7 w 7 $ , 6 % % % % 6 % % w w w T 8 7 T R T p w ",
"i E W R J 9 s ^ t i p % % $ # % % % % % O w T i / ~ % W ^ a 0 9 0 9 s Q T 7 / ^ y T 0 # % # % % % % % % % w 0 w T w w T R W T i ",
"w p i y w % s ^ i i i # O   O # O . O # # T / T 0./ % W ^ p 9 w 0 8 s Q T 7 8.( T ( a O # O O O + O . # % i 0 w T w - w i p p w ",
"i p y t p 6 s ( i i p w s 8 s R p R i T y Q 9.T 0./ # Q ^ i 9 9 0 8 s Q T 7 8.( R q.E i A t T i T y 0 s 9 w 7 w R w 7 p w i p i ",
"i s p y i , T ( y s a s E 9 W ( ~ ( E / T ! / i 9.~ % ! / i 0 w 0 9 s Q T 7 ( / p ( ! E ~ R / E / T w R i w 0 9 T w 7 i i i s i ",
"s R A i p % s / i i s w a # t s i T 0 T w Q ^ a ^ W % ~ / i 0 9 0 9 s Q T 7 ~ Q p Q R u s 9 R w J 9 % a w y 7 w R 0 % p i A J i ",
"i R R s i % i / i i s # %   # # X # . % O T R p Q R % ! / i 0 9 0 8 s Q T 7 R E a T i O %   #   % O   $ # t 0 w T 8 % a T R T p ",
"p E Q R a % i ~ y y s % 7   % % # % O 0 % u y w R a $ ! ^ i 9 w 0 8 s ! T % T R w w w , 7 O , O % % O 7 7 w 8 w T 9 % s R E R i ",
"w a s s t + p ~ i i s % % O # % O % O , 6 w w 9 J w # ~ / i 9 9 0 9 a Q T # p s 0 w w 6 6 O % O % # O % % t w w s 0 + u t i i w ",
"w t y i y % i ! i i s +   .     O # # O % 6 7 7 y 7 X W ^ i 9 w 8 9 s ! J O 9 w 7 7 5 % O # # .         % i w w s 0 % i i t t w ",
"w a s s a # i W y s T @ O # % + O # # % + # % % w 6 X W ~ p 0 w 0 w s Q T   7 9 5 % # # % + # # # # + O % p i t s 0 % s a a i w ",
"8 s i w t % p E i s T s p p i i y w 0 9 0 9 y 7 7 %   W ^ i 0 9 0 0 s Q T   % 7 0 w 7 9 w w y i a a s J s s i y s 0 % i 9 w w 8 ",
"9 s 8 7 9 % i E i i p R ! ( 8.8.( Q E T T T R p 7 9 # W ~ i 0 w 0 8 s Q T # w 7 p T s A T R Q ^ / / / ~ R s i i a 0 % w 7 9 w w ",
"w T t w s % w R y 0 7 w i R R R T p w w 9 w i 9 % 7 @ E ~ a 8 9 0 8 s Q T # 7 % q u w q 0 w s J T T A i y 7 0 i i - % s w y w 0 ",
"0 R w 0 s % w W w % 0 w w y p p i t 9 0 7 w w w 7 % O E ! p 8 w 0 9 s ! T O % 9 i w w w w w y s a i w w w 7 % w s $ 7 s 7 t i 7 ",
"0 T w % i % w ^ i 7 y T W ~ / / / ~ W R R R R T p w # R ! i 0 9 0 9 s Q T O w i s s s s s T R ~ Q E R s s w 7 i s % 7 p % w w 0 ",
"w J 9 % i % w Q w X % 0 w s J s s s i 9 7 7 7 7 $ O X R Q i 0 9 0 9 s ! s   # + % , 7 % 7 w u s a y t 8 7 O O w T % - a % w i 9 ",
"w s 8 7 p % 0 R w O % i s t J W ( Q A w w w w 9 5 %   R W p 0 w 0 9 p W T O % 6 w w y w u T W ^ W J y s i % O w s % 7 s % 9 i w ",
"w T 8 7 p % 7 R 9 O % w a w s E ( W T w w w w 0 6 %   w p 7 % w 0 % w p 9   % , 0 9 w w i R W ~ E a w p w % O w T % 7 s 7 w t w ",
"w s w w s % 7 R w # % w s a J W / ! R s s s i y 9 %   p T w 7 9 8 7 w T w   % w u p s s s E ~ / Q T p s w % # y s % % T 0 w u 8 ",
"w T w p s % 0 T 0 # 7 u a t i R ~ R s y i p i w 7 % O R W p 8 w 8 9 s ! T O % 0 y i p i u T E Q R i w p w , # w s % % R p w i w ",
"w T i s T # 7 T 7   O 7 9 % w J R s y % - 7 7 6 $ O   y i 7 % w 9 % 7 a 9   # # - 5 0 % - p T R J w % q 7 O   0 s % % R s w i 0 ",
"w T i s T # 7 R w 6 0 p J i R ~ / Q E s p s s p 9 ,   u p 7 , 9 w % 7 s 8 O 7 w p s J p s Q ( 8.^ T i T p 7 6 i s % % R s y i 9 ",
"w s w s T % , T y % # , 0 6 0 y i w w % 7 0 0 7 % # O E W p 7 9 0 w a Q T . $ % 7 0 q % 7 w J T i 8 7 0 % # % i A % % R s w t w ",
"w s w s T % 7 J w $ , w R ! ~ ! ^ W T s i w 8 w 5 $ X E ~ p 7 7 7 0 a ! J   % - w u i i p s E E T J a i w , % i s % % T s w w w ",
"9 p i R T # 6 T w 7 p R ^ 8.8.( 8.( ^ Q R R T s y 7 O E ! p 0 7 7 0 s Q T O 0 t T R W Q ! ! ~ ^ ~ Q E R s t 0 i s % % R R w w w ",
"w i s Q T # , T w 6 7 w y i i u i i y y i w t w 7 % O E ~ i 9 7 7 w s ~ R   % 7 w t i p i i i i p i y y 0 , % u s % # E ~ a w 9 ",
"0 p R ! T # % s w % 5 9 w w w w w 9 w 0 w w w 0 % % O R ! a 8 0 7 q s ~ R X % % w w w 0 0 w 8 w w w w t 0 6 % w p $ # E ( T w 8 ",
"7 i R W p # % T T w 7 q w w w 0 0 0 7 % % 7 7 % % $ O R ! i 7 0 7 0 s ~ s O % % 5 7 7 - 6 7 7 7 7 w w 9 7 , 0 s s # # T ~ T w 9 ",
"0 w T R w # % s W ! W W W ^ ~ W E W R E R s s i q , # R ~ p 7 q 0 0 s ^ T O 7 w i p p s R R W Q R R R T i p s R a # @ y T s w 9 ",
"9 w s s w + $ p J E Q Q ~ ^ ^ ^ ~ ~ ~ ~ W E R T i 0 % R ! p 7 0 7 q s ! R + 0 i T R R Q / ( ( 8./ ^ ~ W T T T T i # % w s a 9 w ",
"w 7 w p w O   - 7 0 0 7 9 w 0 0 w w y w w w w w % % % R W i 7 7 , 7 p W T # % 7 t i i s s s s s i i w w 0 q q 0 % . # y p 9 7 t ",
"i 9 9 w w #   % 6 7 5 , 7 6 , 6 8 w w w y w w w 7 , $ T E p 9 6 5 9 p W s % 7 7 i w i w w q q 7 - 7 6 5 7 7 - 6 %   # y w 0 w i ",
"w w w w i w 7 9 7 5 7 7 7 7 7 7 0 7 0 9 q w 9 w 0 0 % q i w - O O 7 w i 0 % 7 0 w 0 w 8 8 7 0 0 7 7 7 7 7 7 5 7 q , w i w w w 8 ",
"w t s R ~ ^ ~ R w 5 p J R R R s u 0 5 p E E R s w , w J R J y 5 % i J T s q 7 w s T R T t 6 0 i p A R T s i 6 t T R R R A s w w ",
"i w A Q ^ / ^ E y w T Q / ( ^ E J u 0 J ! ~ W T p 7 i E W E T 9 9 T ~ ^ E i 0 i R ! Q E s 8 i A R W ~ ~ E T 8 i R E E E R s w i ",
"% % q t u w 0 w 7 % w y p p i w 7 5 $ 7 0 w 9 9 6 O $ 6 w 9 7 O # 0 w u 7 $ # , q w q 7 6 # $ 7 8 w w w 0 0 $ 6 0 7 w w w 8 % % ",
"% g F F r + 3 D V 4 * 1 x C < + 2 V h @ O 3 D h + 2 j h 5 # 5 * * % # - h h * X g M = . + h M * X : j l : + 3 M j = O 2 l j ; + ",
"r ] <.@.m 3 o.<.*.D j @.5.+.3 j %.1.F 3 Y 4.2.c z ;.:.| 8 B  .K I ..B t &.4.o.f D >.;.G 3 ] 6.<.N M 3.7.,.V I 1.4.` ; h { %.U r ",
"3 U [ 1 # c X.} C * x $.X.j ; ) O.n > N { O.c > n $.[ g 2 Y %.v U %.Y 2 z O.-.b 1 H ;.@.V f O.5.} r n 4.5.S ; H #.o.z $ l { U r ",
"- M 3 O - v ) z @ - F _ f + h P v > * c P f o 1 b b 1 @ h P L h j L n 4 @ d n b > & x ) C * > n ) g + k ` S * % C ) S * O h M - ",
"O + O O * 2 2 + O ; g 1 o o ; 1 = X # < < o   = d = o O , 1 < & * 2 1 = O X < 1 &   o < : # . : 1 ; . o 3 1 * O * 3 : + O O + # "
};
