/* XPM */
static char *result[] = {
/* columns rows colors chars-per-pixel */
"32 64 158 2 ",
"   c #151517",
".  c #16161B",
"X  c #18171A",
"o  c #17191E",
"O  c #1A1A1D",
"+  c #161A22",
"@  c #1A1C22",
"#  c #1E2126",
"$  c #1E212B",
"%  c #1D2433",
"&  c #1F2B3C",
"*  c #232227",
"=  c #22232C",
"-  c #24292D",
";  c #3D362C",
":  c #232632",
">  c #252934",
",  c #2A2C35",
"<  c #232A39",
"1  c #2B2E3A",
"2  c #2D3137",
"3  c #2D313E",
"4  c #30353E",
"5  c #41392F",
"6  c #433A30",
"7  c #4B3D30",
"8  c #5A4C3E",
"9  c #7A553F",
"0  c #2E3543",
"q  c #313541",
"w  c #363A46",
"e  c #363B4C",
"r  c #383D4E",
"t  c #363E54",
"y  c #3A3F51",
"u  c #3A404A",
"i  c #374155",
"p  c #3B4153",
"a  c #354259",
"s  c #3D4758",
"d  c #4E4646",
"f  c #4D4E42",
"g  c #4F5045",
"h  c #545346",
"j  c #565749",
"k  c #585749",
"l  c #57584A",
"z  c #59594B",
"x  c #434655",
"c  c #424759",
"v  c #454A5D",
"b  c #49505F",
"n  c #725542",
"m  c #7E5941",
"M  c #745B4A",
"N  c #75655C",
"B  c #7A665B",
"V  c #7D6A5F",
"C  c #454C62",
"Z  c #484E62",
"A  c #4A5165",
"S  c #786860",
"D  c #835A40",
"F  c #8A5F45",
"G  c #855F49",
"H  c #8C6147",
"J  c #85614B",
"K  c #8B644C",
"L  c #976546",
"P  c #9A6747",
"I  c #9B6A4B",
"U  c #816651",
"Y  c #8B6C55",
"T  c #966D53",
"R  c #9D6F52",
"E  c #8C755F",
"W  c #967256",
"Q  c #9D7255",
"!  c #967359",
"~  c #9B755A",
"^  c #9B785C",
"/  c #A26F50",
"(  c #A37354",
")  c #A87452",
"_  c #A3765A",
"`  c #A87759",
"'  c #A4795D",
"]  c #AB7B5B",
"[  c #B07E5E",
"{  c #BA7F5B",
"}  c #8C7867",
"|  c #81756E",
" . c #8D7A69",
".. c #9E7F67",
"X. c #9D7F68",
"o. c #917E76",
"O. c #A57B61",
"+. c #AB7E62",
"@. c #AF805F",
"#. c #B1805F",
"$. c #BC825D",
"%. c #8A817D",
"&. c #9D8573",
"*. c #928079",
"=. c #968979",
"-. c #988C7B",
";. c #AE8165",
":. c #A2826A",
">. c #AC866A",
",. c #B28364",
"<. c #BC8663",
"1. c #B68867",
"2. c #BE8965",
"3. c #B28569",
"4. c #B38A6C",
"5. c #B98A6C",
"6. c #A68971",
"7. c #A18F7C",
"8. c #B88C70",
"9. c #A4927E",
"0. c #AB937E",
"q. c #BD9272",
"w. c #B0957E",
"e. c #B5987E",
"r. c #C0835E",
"t. c #C08763",
"y. c #C18B66",
"u. c #C98D65",
"i. c #C38E6A",
"p. c #CB9067",
"a. c #C5916D",
"s. c #C9936D",
"d. c #C79470",
"f. c #C99671",
"g. c #CC9874",
"h. c #CE9B78",
"j. c #998780",
"k. c #9B8985",
"l. c #998C88",
"z. c #AC9580",
"x. c #AE9A86",
"c. c #AF9C88",
"v. c #B19781",
"b. c #B69B83",
"n. c #BB9E84",
"m. c #B19D89",
"M. c #AFA08D",
"N. c #BEA187",
"B. c #B6A38E",
"V. c #BDA48C",
"C. c #AAA697",
"Z. c #ADA99A",
"A. c #B9A590",
"S. c #BCA892",
"D. c #B7B3A4",
"F. c #C4A183",
"G. c #C0A68D",
"H. c #C2A88E",
/* pixels */
"a.' 4.s.a.i.a.a.a.a.a.a.a.i.i.s.a.a.a.i.a.a.a.a.s.i.a.i.d.;.;.a.",
"d.' _ 4.;.;.3.;.3.;.3.,.4.;.3.4.3.;.3.3.3.3.;.4.4.>.3.;.1.T ;.a.",
"g.~ K +...' O.O.' .._ O.O...' O.@.^ ' :.:.@.^ O.' ..' ' :.J ;.i.",
"d.O.8.g.a.d.a.a.a.a.a.d.d.i.d.f.d.i.d.i.i.d.a.a.a.a.f.a.h.@.>.i.",
"d.O.;.y.<.2.i.y.2.2.i.2.y.i.i.a.y.2.i.2.2.2.i.2.y.i.$.2.d.] 3.i.",
"i.' 3.y.y.3.` ] @.] @.] ` ` ` ] ' @.@.@.@.@.] ] @._ 5.2.d.' ;.a.",
"d.O.;.i.i.' n ~ ' ' ] _ ' _ ' ' ^ ` @.' ^ ] ' ] W 9 0.i.a.O.3.a.",
"d.O.3.i.y.` ` U h l j l z l j l j j j j j j z j B ) z.q.d.' 3.a.",
";.8 4.a.i._ @.@.# + @ @ # @ +  .D + @ @ + @ o > N.] 0.a.s.:.;.s.",
"@.5 4.i.i._ @.#.# 2 3 3 3 3 0 B.I q e r r p p v N.` z.2.a.O.;.s.",
"@.; 5.2.i.` ] @.- p s v v C C c.P v A A A A Z A b.] 0.a.a.' ;.s.",
"@.; 5.2.i.` @.@.2 v v C C C C c.P x C v v v v v b.] 0.a.a.+.;.a.",
"@.8 ;.2.y.` ] ,., c C v C v C m.P x C v v v v b N.] 0.i.d.O.3.s.",
"q.! 3.2.i.` ] ,.= t t t t t t x.P e i t i p t s b.] z.2.a.O.3.a.",
"d.' 3.2.y.` ] [ S k.k.k.l.k.l.A.] -.k.k.k.k.l.%.N.] 0.a.a.O.;.a.",
"d.' 3.a.y._ ] [ J ( R / ( / ~ F.) R ( R R Q / Y e.] 0.i.a.' ;.s.",
"a.' ,.i.i.` ] ,.* * = * * * : z.P * * * = = # 1 b.] 0.y.a.O.;.a.",
"a...3.i.y._ ] @.= e y y y e t x.I w r r r r w x N.] z.a.a.O.3.a.",
"a.' 3.i.i._ @.@.* q q q 0 q q z.I 1 3 3 1 1 > w b.] z.i.a.O.;.a.",
"a.' >.i.y.` ] #.@ > > > > : < z./ > > > , > : q n.] z.2.a.O.;.a.",
"a.' >.i.i._ @.@.@ : , , > > & z.I > > > > > : q n.] 0.i.i.+.;.a.",
"a.' ,.i.i.` @.#.O $ : = : = % z.I = : : > > : q n.] 0.i.a.O.;.a.",
"a.' 3.i.y._ ] @.@ : , , 1 , 0 z.I 1 0 q q q 1 r n.` z.i.a.O.,.i.",
"a.' ,.i.y._ @.@.+ % < % < < & z.P : % : < < % 0 b.` z.i.a.O.+.a.",
"a.^ 3.i.y.` ] @.N *.o.o.o.o.*.V.[ o.o.o.o.o.o.| e.] 0.y.a.' ,.a.",
"d.' 3.i.y._ ] #.K ` ( ( ( ( ~ F.) / ( / Q ( / ! n.] 0.a.a.O.+.a.",
"a.O.3.i.y.` ] ,.O X X X X X + 9.P X X X O X   - b.] 0.i.a.' ;.a.",
"d.' ;.y.y._ ] [ O % : = : = < z.I = < > : : = 3 b.` 9.a.s.' ;.a.",
"a.O.3.i.y._ ] [ O = : = = = % 0.L * * @ @ $ + , n.] z.6.*.' ;.a.",
"a.' +.i.i.` ] [ O + @ @ @ @ + 0.L + @ + @ @ X > e.] b.S d +.;.i.",
"a._ +.y.y._ ` [ X . o o + o + 0.P + + + + @ . : b.] e.S d +.;.a.",
"i...3.y.y._ ] ]   o + o + o + =.D X + X + + . = e.] b.Y d +.;.i.",
"a.' ;.y.$.' T :.Z.Z.C.C.Z.Z.Z.D.Z.Z.Z.Z.Z.Z.Z.Z.6.( n.S d +.+.i.",
"a.' ;.y.i.' M @.4.4.1.>.1.4.>.1.4.4.4.4.4.4.4.8.O.M m.U d +.+.s.",
"a.~ ,.y.$.1.M.M.M.x.M.M.M.x.M.M.x.x.c.c.x.x.c.c.M.M.F.S d +.+.i.",
"a.' >.i.2.2.y.<.i.$.y.2.$.$.y.y.2.2.2.i.2.2.y.y.y.<.p.U d +.+.i.",
"a.O.+.y.2.<.2.2.2.2.2.2.<.<.5.2.<.2.2.2.<.2.<.2.5.<.i.S d +.+.s.",
"i.~ 3.i.<.2.y.2.2.2.2.i.2.2.2.i.<.y.2.2.y.y.2.i.y.t.p.B d +.+.s.",
"i.O.+.y.$.@.W ` ` ) ` @.` ) ` ` ` ` ` ` _ ` ` ` ] T a.N d +.+.d.",
"i._ 3.y.2.` J W ! ^ ! ! ^ ! ^ ! ! ^ ! ! ~ ^ ~ ~ T G n.S d +.+.i.",
"a...+.i.i.` ] Y g h h j h h j h h h h h h h h h } [ b.B d [ +.a.",
"a.( +.i.t.O.] [ Q $.#.$.<.#.<.<.,.$.#.<.<.#.<.' S.[ b.B d [ +.i.",
"y.~ +.i.i.` ] [ ` i.<.2.2.i.2.2.<.<.y.y.y.2.t.;.A.] b.B d +.+.s.",
"a._ +.i.y.` [ [ _ 2.2.2.2.2.2.2.2.2.<.<.<.2.t.' B.[ v.,.+.O.+.i.",
"i.O.+.y.y.` [ [ _ y.2.2.2.2.2.2.<.2.<.<.2.2.y.@.B.[ z.i.s.O.+.i.",
"i.O.+.y.t.O.] [ ` y.$.2.2.2.2.$.<.2.2.2.2.2.2.' B.[ z.y.i.O.+.i.",
"i._ +.i.t.` ` [ _ 2.2.2.2.2.2.2.<.2.$.2.5.<.y.;.B.] z.t.i.O.+.i.",
"i._ +.y.y.` [ [ ` 2.2.<.2.2.2.<.<.<.<.<.2.<.<.@.B.+.v.t.i.O.+.i.",
"i._ +.i.i.` ] [ _ t.t.{ y.2.y.<.<.2.2.<.2.<.y.] B.] 0.y.i.O.+.i.",
"i.~ +.y.t.` ] [ ` t.t.<.5.t.y.<.<.2.<.2.2.2.t.:.B.#.0.2.i.O.+.i.",
"i.O.+.i.t.` ` ] _ t.t.5.<.2.5.<.<.<.<.2.<.<.y.' B.] 0.y.a._ +.y.",
"{ Y +.5.t.` [ [ _ t.t.{ <.2.y.<.<.2.2.2.<.2.2.+.B.] 0.y.i.O.+.i.",
"O.6 8.t.t.` ] [ _ y.<.<.<.2.2.<.<.<.<.<.<.2.2.+.B.] 0.2.a.' +.y.",
"_ 6 +.t.t.` ] [ _ y.<.2.<.y.y.<.<.2.<.2.<.<.y.` B.[ w.y.2.' +.i.",
"O.6 +.i.t.` O.[ _ t.2.2.2.y.2.2.<.<.2.2.<.2.y.+.B.] 0.t.i.' +.y.",
"_ ; 8.t.t.` ] [ / t.{ { { { <.{ { $.$.{ $.$.$._ B.] w.t.i.' +.y.",
",.n +.2.y.` +.O.=.7.7.z.7.z.k.9.k.9.0.7.7.7.z.=.z.[ z.y.i._ +.i.",
"s.+.+.t.2._ F O.H.G.H.S.V.H.G.G.V.V.G.G.G.H.S.H.+.F v.y.i.O.+.y.",
"i._ +.2.<.] } 6.O.:.:.:.:.:.:.:.O.X.X.X.:.O.X.O.6. .v.<.i.O.+.y.",
"i.~ ,.y.<.2.n.n.F.n.n.n.N.N.N.N.N.N.G.V.N.N.n.V.n.n.8.{ y.O.+.t.",
"i.Q +.i.<.<.{ <.$.{ $.{ $.$.$.$.{ { { { t.{ { { <.{ 2.<.i.O.+.t.",
"i._ +.{ { <.{ <.<.<.<.<.$.<.<.<.{ { 5.{ <.<.<.1.2.<.<.{ y._ +.y.",
"y._ 8.s.y.i.i.i.i.i.a.i.i.a.a.a.i.i.a.i.a.a.i.a.a.a.i.i.g.O.] t.",
"i.T m K K K K K K K K K J K K K G K K K K K K K K K K K K m ,.<."
};
