/* XPM */
static char *result[] = {
/* columns rows colors chars-per-pixel */
"64 64 133 2 ",
"   c #050406",
".  c #070608",
"X  c #08070A",
"o  c #0A090C",
"O  c #100E0E",
"+  c #0F0C10",
"@  c #110E12",
"#  c #141115",
"$  c #191715",
"%  c #1B1817",
"&  c #161218",
"*  c #1A151C",
"=  c #1E191C",
"-  c #211E1C",
";  c #23201E",
":  c #1C1720",
">  c #1E1921",
",  c #231D24",
"<  c #261F2A",
"1  c #262124",
"2  c #282326",
"3  c #2C2826",
"4  c #27202A",
"5  c #2B242C",
"6  c #2E292B",
"7  c #312C2E",
"8  c #32302E",
"9  c #2E2631",
"0  c #2F2832",
"q  c #302734",
"w  c #342D33",
"e  c #382F36",
"r  c #352C3A",
"t  c #382F3B",
"y  c #363234",
"u  c #3A3336",
"i  c #373837",
"p  c #3B3936",
"a  c #373038",
"s  c #3B333C",
"d  c #3E3A3B",
"f  c #40363E",
"g  c #423B3D",
"h  c #46413F",
"j  c #352D40",
"k  c #392F42",
"l  c #3C3342",
"z  c #3F3A42",
"x  c #3F3349",
"c  c #413644",
"v  c #443D42",
"b  c #483E45",
"n  c #41364D",
"m  c #463D49",
"M  c #4B3F4A",
"N  c #433750",
"B  c #463A53",
"V  c #483B56",
"C  c #4B3E5A",
"Z  c #454142",
"A  c #494346",
"S  c #4B4846",
"D  c #47414A",
"F  c #4C444B",
"G  c #4E494B",
"H  c #51444E",
"J  c #514B4E",
"K  c #53514F",
"L  c #4D4251",
"P  c #4E415F",
"I  c #524552",
"U  c #534C52",
"Y  c #564758",
"T  c #554958",
"R  c #565154",
"E  c #595356",
"W  c #595856",
"Q  c #575158",
"!  c #5B5559",
"~  c #575858",
"^  c #5E5A5C",
"/  c #615B5E",
"(  c #524464",
")  c #554769",
"_  c #56486A",
"`  c #5F5660",
"'  c #605761",
"]  c #635C62",
"[  c #666264",
"{  c #696467",
"}  c #686867",
"|  c #6B6669",
" . c #6D6A6C",
".. c #716C6E",
"X. c #6F6F70",
"o. c #736E71",
"O. c #757273",
"+. c #797577",
"@. c #7A7678",
"#. c #7C7A7B",
"$. c #817C7F",
"%. c #827E80",
"&. c #848383",
"*. c #898687",
"=. c #8B8789",
"-. c #8C8B8C",
";. c #8F908E",
":. c #928F91",
">. c #949394",
",. c #999697",
"<. c #9A9798",
"1. c #9C9B9B",
"2. c #A09E9F",
"3. c #9FA09F",
"4. c #A4A3A3",
"5. c #A8A5A6",
"6. c #ABABAB",
"7. c #B1AEAF",
"8. c #B0B0AF",
"9. c #B4B3B4",
"0. c #B9B7B7",
"q. c #BDBBBB",
"w. c #C1BEBF",
"e. c #C5C2C3",
"r. c #C9C6C7",
"t. c #C8C9C7",
"y. c #CCCACB",
"u. c #D4D4D3",
"i. c #DCDDDC",
"p. c #E2E3E2",
"a. c #EBECEB",
"s. c #F4F4F4",
"d. c #FFFFFF",
/* pixels */
"d } [ [ }  . .X.X.O.O.O.+.+.@.@.@.#.@.#.+.+.+.O.O.X.X.X. . .} 5 ] #.O.X.X. . .} } [ [ [ / ^ ~ ~ ~ ~ K K G G G D Z Z Z z z z i + ",
"i .. . ...o.O.O.+.@.#.#.#.$.#.%.%.%.%.%.%.$.%.#.$.#.#.#.+.#.{ + ~ %.@.@.+.+.O.X.X.| { { } [ [ / ^ ~ ~ ~ R U K U G K G G S S i . ",
"8 { [ }  .......o.o.O.O.O.+.+.+.+.+.@.+.@.@.@.+.+.@.+.+.o.+.] # K O.}  . . . .| } { [ [ ] ] ] ] ^ ^ ! ! ! ~ Q R R K U G G G Z . ",
"y { } E J U J U K R R R R R R ~ R E ! ! ~ ! ! ! ! ! ! T | +.] & K O.| ! T R T U U U T T U L G L L G L D F D D m D D D z K G z . ",
"8 [ | v * > , > , , , , , > , , , , , , , , , , , , < , ^ +.] @ K o.| 9 < < < < 4 5 < 4 < 5 < 5 5 4 4 9 4 4 9 5 9 4 5 0 ] G z . ",
"8 [ | D 2 a y w w w w w a y a w y y w t t e t e t t a w ^ +.] # G o.| w w s a a a a a a t t t i t a t a t t w t r t 0 y [ L z . ",
"8 [ { Z 2 y 7 w 7 y y y y y y y a y u u y y y y a a u w ^ O.^ # G O.} w w y a w y 0 w 0 0 w 8 0 0 6 0 6 0 6 6 5 5 6 2 i [ G d . ",
"7 ] [ Z i D Z Z Z Z A Z D A A A A A A D A G H M A A S Z ! O./ @ G  .| y u D v Z v Z v v v d z d d z d s s s s i s i y h [ G z . ",
"6 [ [ v J  .{ | |  ... .........o...o.o.o.o.o.o.o.o.o.[ ! o.! # G  .| w D | | { { ] { ] ] ] ^ ` ^ ^ ! ! Q Q K Q U U U G ^ G z . ",
"6 ] ] v J  .| | |  .| .... .....o.o.o.o.o.o.o.o.o.o.o.[ ! X.^ # S  .} w D  .| [ { ] { ] ] ] ] ^ ^ ` ! ! ~ ~ Q Q U U U G ^ G z   ",
"8 / [ v J  .} { | |  . . .......o... .o.o.....o.o.o.o.[ ! o.! # S | [ w m | | { { { ] ] [ ^ ] ` ` ! ! ! Q Q Q K Q U U G ^ S z . ",
"8 ] / p S | [ [ { { { | | | | |  . . . ..... . ... .o./ !  .! # S | } 0 v | ] ] ] ] ] ] ] ` ` ~ ! ! Q ~ Q Q Q Q U U U S ! G z . ",
"3 ^ ^ K ^ X.}  .......o.o.o.o.O.O.O.+.+.+.+.o.+.o.o.+. .^ | ! + Z | [ Z !  .} { | { [ [ [ ` [ / ` ^ ^ ^ ~ Q Q Q U ~ K K ! G z   ",
"i ^ ^  .O...O.O.O.+.+.@.$.+.$.$.#.$.#.#.#.#.$.#.$.#.#.#. .| ] 2 R | [  .O.X.X. . .| } [ [ [ ] / ] ^ ^ ~ ~ ~ Q K K U G K G G v @ ",
"*.*.-.;.;.,.<.3.3.4.5.6.6.8.7.7.9.9.0.0.9.9.9.8.7.7.6.6.6.4.6.!  .3.>.-.*.&.&.$.#.+.O.X. .} } [ [ / ^ ~ ~ ~ ~ ~ K G G G G G S S ",
"X.+.#.#.%.&.*.=.;.>.>.,.<.<.<.2.1.2.2.2.2.2.2.2.2.1.<.<.,.,.&.* p -.-.*.&.%.#.#.+.o.X. .} } ] ] ^ ! ~ ~ ~ K D K G D S S S Z Z z ",
"Z S S G G G G G J J J J R R K R R R R E E R E E E E E R R E G & 8 R R U U U J J G G G G F F A D Z A Z Z v v v z g d d d s d s y ",
"S G G G J U R R E K / K E / E / / / / / / / / / / / / / / / U * u E E E E R R U U U U I G F G S S D A D D Z v g v v z v f d f p ",
"S S G G J J J K R R J / K E / / R / E E E / / E / E / ! E / J & 8 W R R R U U U U G G G G F A F D A Z Z Z v v Z d d z d d d s s ",
"Z S G G G G G J J K J K K R J K R E E E E W E E E E E E E E J * 8 R R U R U U G J I L G G A F F A D Z D v Z v z v v f g f f d s ",
"A S J J J K J K R R K E E E E E / E E E W / / E ! ! ! ! ! ! G * 8 R R R U U U U G G G G A A A A A D Z Z v v z d f f d d d d p y ",
"p g f g g g d g g g g g g g g b g b b b g S b g A D A D D D m * 8 G F F F D F F F L L L L L L L L F L L L L L L L F V V M V V m ",
"2 2 2 2 1 < 1 1 < < , < 2 5 < 2 2 4 5 5 5 9 7 9 q 9 q q r q j 9 w k t k x x x x x N B B V C C C P P P ( ( ) ) ) ) ) _ _ _ _ _ _ ",
"- 2 1 2 2 2 2 1 2 2 3 5 5 2 5 3 5 5 5 5 5 5 5 5 5 0 5 0 0 q 9 5 5 q r r r r r t j t t t t k l k k k l l l k k x l l l x l l k t ",
"$ 3 3 3 7 3 7 6 7 7 7 7 w 7 8 8 w 7 e 7 w w w w 8 w w 7 0 7 6 + ; y y 7 y w 7 7 7 7 7 7 6 6 6 3 5 3 3 2 3 1 2 1 1 1 1 , , , =   ",
"$ 6 3 3 3 3 6 7 6 7 6 7 7 7 w w w 7 7 e w w w w w 7 3 7 w w 0 @ ; w w 7 6 7 u w w w y w 7 q 7 q q 7 9 6 q 0 5 6 5 5 2 4 2 4 , . ",
"* 3 5 3 3 7 3 3 6 7 7 7 7 7 7 w w w 7 w w w w w q A 7.%.6 w 0 + 2 g 3 W <./ 3 w w 7 q w w q 7 7 7 9 6 9 5 5 5 5 2 5 2 4 2 2 , . ",
"$ 3 3 6 7 3 7 3 6 7 7 7 7 w w w w w w w w w w w 7 g o.! 4 a 0 + 6 K y S ..D 2 y w 7 w w w 7 w 7 7 7 7 9 9 7 5 5 5 5 5 5 5 1 , . ",
"- u u u p g g g d g g g g g g g g h b g b b b v v u S f 5 v s + 7 [ S h J w 5 A v v v v z v z d f s d s s a a y w w w q q w 2 X ",
"2 S A S S S J J J K J K R R R R R E R R R U R E U p R v 5 U F + u ] R h R t 5 R ! Y U R U U U I I F F F F D D D v v v z s z w X ",
"2 S S J S J J J K K R R R E E E E E / E E E E ! R d J v 0 U I # p [ R h U t 5 E / E ! ! R U R U U I U G F F A D m m v v z z a X ",
"2 S S S J S J J J J J R R K R R E R K R E E Y E U d J v 5 U F & g / R h U s 3 E E E R Q Q R U U U I J L F F F D D v v c z v a X ",
"3 S g S S S H J J J J J J U K R R R R R U E R U I d G v 9 T F & g / K h K f 2 U E E Y Y R U U U U H H H F F F D m m v v l c a X ",
"2 S S S S J h S J S J J J U U K J R U U U U U R I d J v 9 G F & g W J h J f 6 U E E E R R I U I H H J H F F M m D v v c v z a X ",
"1 g S b h S S H S S J J J J J J J U U U U U U U J p G v 0 F F & p / G h H e 5 U E U R R R U U U I J F F F F D m m m v v l v a X ",
"3 h g S g S S b S S A J J J G J J J J I U U J U J d G v 0 F m # p E G h J f 6 H U Y R U I I U U I L J L F F D M m v v m v v a X ",
"3 h h h h S S S S S M H S H S H H H J J J J I I G u A f 0 F M & u / G g H e 9 J U U U U U U U U G G L F F F F m m m m c l c s X ",
"- g h g h g g S b S S h F S S H J G H G F G G H H w 2 5 t F m * u E J e 7 q u H U U U I H H U H I L F F F F D m v m m v v v a X ",
"; g g S g h h h h g S H S H S S J H S H H H J H I v w a t F M * g J U g w w f F J U U J I J I H G L L L L F M M m m m m c v s X ",
"% f f g f g g g g g g g g g g g f g v g v v v v v e 5 5 q v l o 7 h F g 6 5 7 b H M H H M H M b F F F m m m m m m m c v l c r   ",
"h / / / [ / [ } | |  . . ... ...o.........o.o.o... .] ] ] o. .U [ .. . .] ! / { { | { ] / / ' ! / E E E E R U I G I G F F G D 5 ",
"y.u.u.i.p.a.a.s.s.d.d.d.d.d.d.d.d.d.d.d.d.d.d.d.d.d.d.d.d.d.d.:.2.d.s.s.a.p.p.i.u.y.y.w.w.w.w.2.2.2.2.2.:.=.=.$.#.@.O.O.X. .} } ",
"1.2.5.5.6.7.w.0.w.w.w.r.r.t.t.r.y.t.y.t.y.y.y.y.y.y.y.y.y.y.e.< g r.w.w.w.w.7.w.5.5.5.2.2.,.,.=.=.%.$.$.$.$.$.|  . .| [ [ ] ] ~ ",
"g g h g h g g g g g g g p f f g p f g f g g f f g g g g f g f : 3 g g g g g g g M b b b g H g H M M M b M g H H F F M M M m M v ",
"h h h h h h h h S g S S A h g A A h b A v A b b H h S M M M b : 8 S H M S M H H M H H H H H H H I H I H H H H H M I I I F M M M ",
"g h g g h g h g g A g g g A g A g A g h h b v h g M b b b b b : 8 A M M M H H H H M H H H H H H H H H I H H H H Y I M M F H M M ",
"h h h h h g h g h g h g g h g g b g g b g b g A b g g b b b b , 3 S M b M H H g H M H H M H H H I I I I I I I I I I M Y I M I M ",
"h h g h h h h h h g b h g A A h g A h b A g A b S g H b b M c , 8 h H S H h H H H H H H H H H Y I I I I I I Y I I I I I I I I M ",
"g g g g g g g f g g f f f g f f f f f f f f f f f c f f f b f , 7 b b M M M M M I M I M M I Y M I M Y Y C Y Y C Y Y C Y Y C Y C ",
"; - % % % % % % % % = % % % % % = - - * = - > > - - , , > , , < 2 , , , , , < < < < < < 9 < 9 9 7 q q q j q r r q f q j k k r f ",
"% = 1 ; 2 , , 2 2 2 2 2 2 2 2 2 2 2 2 2 , 2 2 < 2 2 5 5 , 2 < : - 5 5 5 9 5 < 9 q q 5 9 q 9 q q q q q q q q q q q q r r q q q : ",
"% f 7 6 , , , , , , , , , , , 2 2 , < , 2 2 < 2 2 5 5 , 5 f f & - e e q < 9 q q 9 9 q 9 q q q q q q e q q r q q q r q q t f q X ",
"% 3 5 5 , 5 2 3 5 3 5 2 7 5 7 5 6 6 6 6 7 7 9 7 q q 7 2 5 f q & - e e < q e w w w r r t r t r r f r r r r c r r k t r - w t q X ",
"% 6 7 5 , e 3 f e 7 e e e 7 e e w e e e e w w e 7 f f 5 5 7 e & - f e 9 e f t f t f t f s c f f f f f f k f f c f k f - e f r X ",
"% 7 7 5 2 3 5 7 7 7 7 7 e 7 7 7 e 7 w w w w w e f f 7 5 6 7 e @ ; f e 9 t e e f f t t f f t c t t r f c f f r r c t t - e k r X ",
"% 6 7 5 , f 7 7 7 7 7 7 7 7 7 e 7 w w w w w e y 7 q f 2 5 f e @ 3 c e 5 e t t t t t f t t f t s f c c r f k c c t c f - w f r X ",
"$ 7 w 5 - 7 7 7 7 7 7 7 7 3 7 7 w 7 w w w w w w w w a 6 5 e q & 3 M s 5 t s t s s a s s s s t l l s s s l s l l c c s = y l t X ",
"- u u q 2 7 f 7 e e 3 f f 7 7 f y y a y y w y a u s y q w c s & 2 H m q s s s f l l z l c c c z c c c c c c c l c c c ; f m l X ",
"- f g q = 2 2 2 2 2 2 3 2 3 2 2 2 2 2 2 1 2 2 3 5 1 2 1 p b z & 3 J H 0 2 6 5 9 0 6 5 9 5 0 0 0 9 q 6 q q q 0 0 5 q q % v F c X ",
"; g g b g g g g f g g g g g g g Z z h g Z Z Z z Z Z Z g b F m & 6 J G v d d d d d d d d d p p i i i i i u i i i e w y u I T m X ",
"; h g K ! E ! / ! / ! ! / / / / ^ / / / / / / / / / / ] I G m & 7 H F Q ] ] ' ] ' ' ] ] ' ' ] ' / ' ' ' ` ` ` ^ ` ! ` ` T L m o ",
"2 A g b g g g g g g g f g g g g b Z v b b b b b D b b A F F F * 8 I I I L F F L F L I I L I L L I I I I L T P I L T L L T T B o ",
"- 7 7 w f 3 3 f f 7 f 6 3 f f f w e w w e w e e y a t a t a a * 3 u y a s s s z l s s s z z l z c l c c z c x z c n z x x c l X ",
"O # # O O O O # O O @ @ O @ O O # # # # * # & & & & & & # * * # # # # * # # # * @ * * * * * * * * * * : * * : : * > * > > * > o "
};
