/* XPM */
static char *result[] = {
/* columns rows colors chars-per-pixel */
"64 64 68 1 ",
"  c #7897BA",
". c #7C9BBD",
"X c #7D9CC1",
"o c #819EBF",
"O c #83A1BF",
"+ c #809FC2",
"@ c #84A3C4",
"# c #89A6C5",
"$ c #8CA9C6",
"% c #86A5CA",
"& c #89A7C9",
"* c #8CABCB",
"= c #92ADC6",
"- c #91AECB",
"; c #94B0C7",
": c #95B2CD",
"> c #99B5CD",
", c #9EB9CE",
"< c #8DADD3",
"1 c #91AFD1",
"2 c #95B3D2",
"3 c #99B6D1",
"4 c #9DBAD3",
"5 c #9DBBD9",
"6 c #A2BCCF",
"7 c #A2BDD4",
"8 c #A1BED9",
"9 c #A5C1D5",
"0 c #AAC5D6",
"q c #AEC8D7",
"w c #A5C1D9",
"e c #AAC5DA",
"r c #AEC9DC",
"t c #B0C9D7",
"y c #B3CDDD",
"u c #B7D0DD",
"i c #B9D2DE",
"p c #A4C2E2",
"a c #A9C7E2",
"s c #AECAE1",
"d c #B3CEE1",
"f c #B6D1E2",
"g c #BBD5E3",
"h c #BFD8E5",
"j c #B5D2EA",
"k c #BBD6E9",
"l c #BED9EB",
"z c #BDD9F0",
"x c #C1DBE6",
"c c #C8DFE7",
"v c #C4DDE9",
"b c #C3DEF1",
"n c #C7E0EB",
"m c #C9E2ED",
"M c #D1E7ED",
"N c #D3E9EF",
"B c #C6E1F1",
"V c #CCE5F1",
"C c #CFE8F3",
"Z c #D0E7F2",
"A c #D2EBF4",
"S c #D4EDF8",
"D c #D8EFF8",
"F c #DBF1F7",
"G c #D7F0FA",
"H c #DBF2FB",
"J c #E1F5FB",
"K c #E5F8FD",
/* pixels */
"rry0gvxhChyiihvfimHCvmvvvvgxihgfuyhCnnmh74ry97jxAmhhnJDcvvr3*9xh",
"y7rfvhimmnncivmmcmScvvcvvhchhmgfdhmCvvnngyvfuBGFmyvvAAhhnhy4*4vx",
"myygvhnmnvnxxCSCvAAvvvvvxvvuBnngrhnvnvngqvmigSJmghnBAmmmnxmy;wnn",
"vcufhhhnnvvvnncnmSnvxvhgvximnnBfwfvvvvcern0fmKnfdf4ygvxxvnhmvwvC",
"nvimSvhvvvvncvvhnVvygvvguiDAnnrwifhhngwuvuyflgfhhyeyugxvnvnnfykn",
"vnxnmnvvvvvhvvhgmve:qu,0cMAnhv9@90tyii9wiyr3svvhgeqyuxxBnvvhglhv",
"cvvvmcvvngyyr9ihVr$@%;uCFAnlhnf;;yihvut47##4CnghvvvygvvCnvnvghvv",
"vvvvmnnvghi9O&::4:**O:Smmnnhifgqyuhhire:$=4gBvvnvvvvmcvAmvhfwrvv",
"nvvvvvxgq0>.*5&%*X@,rrrfhvvvr*3ihhxlva%@@39lHCnnnnvnmnBnCvhe-*dv",
"cvvvvft0,$:2lBfe99%9vgifwynnf::fggdlw%@@2*wBHnvhigfyihhhcvnhi9rv",
"vvxvvyy064jjdrdxvhhwfffrhreff9uiyyfe=@#:<3gvfiyihvvffhviughimvfx",
"cxcxgxmhmnBw3:-*wyfvr4rgvv7X4fgnmxgq99097ersfgw,ghvnvvhhvmnvAghx",
"vnnhmCmcMAAvfdr7,0wqr7erfh9X*rvCmiCighd79igxcVmlxhvvvhqrvmmmnvvv",
"vvvnnvvxmmvcxgxcgdrrlny443r4924yxmmCSmwwhuvnnvcmnnhvnvvhhvvvvvcv",
"vvhhvvvvmmCvnvxuyvllli*:rixyr;w4ycvnmd<2fbbVnvxhxvnnnvnvnvvvvvvv",
"vvnvvvvvccnvvcxxhBfw:@X#4cxif48:fmccve:99214fhvmmvxchvcvvvvvcvvv",
"vvxcvvvvvvcvvvvgiV4@@@@*4fvnfswqrfvxxggxe@+@-:7fgxxiuvhxvvvxcvvh",
"xivvvvcvvvvvvcvihf>*X*:47fvu42wfdfxxgvmf4-*2-$*4;;0qreghvcvnnvih",
"inhvcvhcvcvxgfgu7**1wr3X$rhfw$@47yd74ffe:-tg9;%8g994w4nCvvvvvcix",
"hhuciuhghvhcvhe:*4sru9@#:gvhfw@@-3*X4fye3->yugwyhcgfllfhvnhxxixi",
"mmmnuinichxhhg4>rhnmf-:ygvxhre@#@%%+*>00tt>7xBsghvhnDClnnvxhhnvi",
"HDCCmnymmhnuihhhhfhu4wfiimi>,iw67$-7444-3ydez34glxghAnhvvhr9yiui",
"Annfe3@wmvCiFHmhvgg:wginv0$@,fviufdyCmffdfxlvfrgxvgilnvhgrrgiuuh",
"mmlr@.@%4CCVClhhgii4ihnf4**1*eiyxmggl4347rdvvhvxnvhvnnvuwyvvvvvv",
"vngg,%%O$hmvfuwqyf9evd7$X@@.*0ygcvvj- @++:elxgxvnvvvvhgye4yfhvnx",
"vvgiq,$$$ynvvh97rffwrg43r2@#5smmmFcBd+%@XX*gvxxvvvvvvvvnv94rgvvv",
"hmMnhhgiflffiiq*;lhnGffh0$:rkfBmmZxlfe8%@X+>gvvxgnvvvvvclvhghvvv",
"mmmmvnmimVvigmuew$uDqwi0;$79:9eyAcxfxvge773*rxvfgggxvvvhvxvhvxxx",
"nvniinvxMAmmChyCh95@*,,333$2X2vBVvxgggvxvvhd0eyxgyxghfgnvvvnnvnv",
"ivninMmvmnnhiunnuhvaf4@X49@&@%evvvcvvxddydyy7760quiyfdrhhhvccvgi",
"uhvxhxiiiihhkfryufk4>#@#7f4*.@7wygxxxf3@4ye>;yt::wyfferhvvchiiy0",
"uhiiihvihlBV4#r9wwry,:whmSf4@9cf7yfvvcf7sd:*:9xw@&274:ynnnniiigg",
"nmvcvmcgy890#%5-4et4:bSvVhqyruCiufuuccxcnhqqirr3455psglvvxiyggmx",
"ggxvvxxvxyDf3313*;$-sShi99uffCNhgfguxuxVnnnnixiflrBeggvvxunfyffg",
"vgxxmvxtyHAyd3--$*2ellfv85gfSnuicfyuxMSvvvvvninGxABwr9yrynvtw4yh",
"eyxvvZx38d7eed3>99-4lg4*wfqniuhnvcxgHHmvvvcvhiMFAHf:*:999yrx9;wb",
"40icvf7>dxj2223ruxyvvfuwhchknCMCmvxHZgxcvvcxxvSCnvhy23wvuifglw*:",
"#,ihxyqdxd2$31349ravCvgdfvg4llnGCxCMAAvhvvvvnnnnvgqw*$$ryyffx0$X",
"dxVgbZCcx4>7u6@@:757yhVgghf4wuCAvimFAvvxxvxiufvvguw4:;#4hgf*rr22",
"dvlsbbjr4xxxx828dffd4kBvgiw3:immvxSCvvxhvgutffryfhhvgqrsihq>w42p",
"w2***@**-gBbbeqyde9yqfxfuiq4;yhvcvvvcxxvgiymB5*wywrffe7;4hnBa%*w",
"dd4@.XX@@-ybxfgfrr:$7yfxvmni90vcvxvccmxhggAAe4yw99*wfr>$4smGs2rd",
"xvv93q47-+30qfgffgx97dxximAhxFCgxmmvvuixxBAtrfhhhvhyfur9yesgfgvn",
"giggfr09##-$#43-749iewfnCMvuAAuvmvvxixChxvmxhgufvvnnvfgxnClrhvch",
"vvutguui97t7edq9t9>6f8:fvvunShnncxxxmCmxmmmvcxcvhhgcvnnvcnmhwfvh",
"xmnCSmmydygvBxxmmggjCl7eihnCnhvvvvvCmvvvMnmvmmcnvimvccvvvxv9$ehh",
"vgxvvgnscDDVCggvvvSmfe%-wrhiihmmvvvvxxgvcmACvvvhiinxiigxiiy,;yhv",
"yty0:4evAbxmvvmZbsdfs2X@9hnxmDMncvvvcxvvcvvvvviiiihvxiguivyryhAv",
"yrt7ejerdfr4eyxvu24%*1X@whnvnhhhhvghnnhnvcvvxiumAiq0rs2X:rfmAClg",
"s;4pbvxfy7*@.*dxf,3-%$r9invnvhyihinnnvhhvxxvcxhCxye91*.$9fnnVr,f",
" @5<yvvg7>6642ehngiw=-uhhvvvnihhiDCnnhvviixvvhnmgrw4lf;.4vnxu943",
"-<XX9gfyuyymmcfrhnhu99hlvvvvxhniAHuqnhniqngvvvnnnlffVs&XdCxCiiwX",
"f8.+>uBxixmAmx47gvhihgvvnvvgihhgAhyuinutnmvCvhhlhgmmv4-uACDMhnsw",
"x>$exAVxvFmmmfeflgiihggnvh0$4qiinnnuhr%gJmAnhiuuyffyseivivvinhli",
"gxCmDC8edgfxxgryguw;r4rliw99wwihVnn08&Xamnnvvhvxnhlghvvxnnuvmlhf",
"vZBCxe9rrye9ye74wq9343Bf:qhhVuqnhhii2<<<rnvnnncnvhcnnnvnnivml::r",
"xhxfydxffxg9;1289;*:,52..rnhmdfhnDGC4***0hcvvhihnmnnnxvnxugf2@qv",
"vCcxmmvxvvxxJv8-;y,=:@.%27lnmvvvnnvhy9ruhhhnhinmMnxnnnxxi9;4whvv",
"mnvmvvBmvCnnMmx:$4rf54kClwrvvvvvnhnhggnvxxxvvnmCnnnmxxvvu-5fHCnm",
"vvxvvvxvvmxxxxy07$4weBCnvffvhxvcxnnnnnnlnnxxncvmniiinni4#*::hnnh",
"mvcxvvvvvxvmxixe->%&jgffgghhimmvhxxnnnhnnvnnnvnnnixnmq$.&&@:vMlv",
"gvvgghxxxxxuiig6,w2pgfnhgvhhvmnvhnnnvvnxxhhhxxnniinmhw..*..:sfir",
"flfey470umgyvxxtr4ashCmhnvnxmnviyxnhhxiuquiiiiiiuvmniq;wh9*%#wlf",
"yy4ey0:>sx93eyxxewlCCncvvcvvnhvi9ixinhiqqhDi9>tuuiNminCSGCs.@fvv"
};
