/* XPM */
static char *result[] = {
/* columns rows colors chars-per-pixel */
"64 64 238 2 ",
"   c #010000",
".  c #0C0100",
"X  c #130200",
"o  c #1B0200",
"O  c #1D0902",
"+  c #150B06",
"@  c #240200",
"#  c #2C0200",
"$  c #240A02",
"%  c #2B0A01",
"&  c #330300",
"*  c #3C0200",
"=  c #340A02",
"-  c #3C0B01",
";  c #2B1305",
":  c #3C1303",
">  c #371505",
",  c #440200",
"<  c #4B0300",
"1  c #440B01",
"2  c #4C0C01",
"3  c #530200",
"4  c #5C0300",
"5  c #530B01",
"6  c #5A0D01",
"7  c #431301",
"8  c #4B1201",
"9  c #4B1B04",
"0  c #461B07",
"q  c #541301",
"w  c #5C1301",
"e  c #521B03",
"r  c #5C1C02",
"t  c #5D1F08",
"y  c #640200",
"u  c #6B0400",
"i  c #630B01",
"p  c #6C0B01",
"a  c #730C00",
"s  c #7C0C00",
"d  c #760400",
"f  c #631301",
"g  c #6B1401",
"h  c #621B02",
"j  c #6B1B01",
"k  c #741402",
"l  c #7B1301",
"z  c #731B01",
"x  c #7B1B00",
"c  c #751409",
"v  c #4A230B",
"b  c #5C2403",
"n  c #58280A",
"m  c #552F14",
"M  c #632303",
"N  c #682906",
"B  c #732401",
"V  c #7C2402",
"C  c #782B03",
"Z  c #69330C",
"A  c #7B3404",
"S  c #73340B",
"D  c #7A390B",
"F  c #683815",
"G  c #763C13",
"H  c #603B21",
"J  c #78441C",
"K  c #764926",
"L  c #734B2A",
"P  c #860900",
"I  c #980900",
"U  c #851300",
"Y  c #831B01",
"T  c #8B1C01",
"R  c #8C1400",
"E  c #941401",
"W  c #951B00",
"Q  c #9C1A00",
"!  c #B41B00",
"~  c #AB1800",
"^  c #842303",
"/  c #8C2D03",
"(  c #882802",
")  c #942301",
"_  c #932C01",
"`  c #9C2801",
"'  c #833403",
"]  c #883807",
"[  c #9C3201",
"{  c #963804",
"}  c #8A3E11",
"|  c #A32400",
" . c #A42B00",
".. c #AC2B00",
"X. c #AD2500",
"o. c #B62600",
"O. c #A23301",
"+. c #AC3401",
"@. c #AA3C02",
"#. c #A43A03",
"$. c #B33300",
"%. c #B93A01",
"&. c #C42B00",
"*. c #CA3B00",
"=. c #C63601",
"-. c #D53D00",
";. c #8A420C",
":. c #93440D",
">. c #9B4B0C",
",. c #9A4307",
"<. c #854313",
"1. c #8A4919",
"2. c #984D14",
"3. c #9A531A",
"4. c #8C501F",
"5. c #A44C0B",
"6. c #A84606",
"7. c #B44301",
"8. c #BB4301",
"9. c #BC4C03",
"0. c #B34A06",
"q. c #AB530C",
"w. c #B85409",
"e. c #A54D12",
"r. c #A75718",
"t. c #B55B15",
"y. c #B96218",
"u. c #AF611D",
"i. c #8A5429",
"p. c #985826",
"a. c #865A36",
"s. c #8A5429",
"d. c #A75C23",
"f. c #9A6538",
"g. c #916035",
"h. c #A7632A",
"j. c #B66826",
"k. c #BC712E",
"l. c #A76A37",
"z. c #B46D33",
"x. c #B87438",
"c. c #C74701",
"v. c #D84900",
"b. c #C75707",
"n. c #D75702",
"m. c #C75F12",
"M. c #E85801",
"N. c #E64E01",
"B. c #CC640E",
"V. c #D9660A",
"C. c #C76718",
"Z. c #D96D14",
"A. c #D8731B",
"S. c #CD701C",
"D. c #E86905",
"F. c #EA740D",
"G. c #F57909",
"H. c #E77917",
"J. c #F1750C",
"K. c #C46C24",
"L. c #C9752A",
"P. c #D67926",
"I. c #C87935",
"U. c #D87F32",
"Y. c #E57E23",
"T. c #976C49",
"R. c #B77B48",
"E. c #A5744B",
"W. c #EB821C",
"Q. c #F78A19",
"!. c #FB941B",
"~. c #FB860D",
"^. c #D98437",
"/. c #D98230",
"(. c #E98728",
"). c #F28C26",
"_. c #F99828",
"`. c #E68A35",
"'. c #ED963A",
"]. c #F79937",
"[. c #ED902A",
"{. c #FDA62A",
"}. c #FCA638",
"|. c #FFB838",
" X c #FFB32F",
".X c #FFC33B",
"XX c #BA8354",
"oX c #B68B68",
"OX c #C98447",
"+X c #D68B4A",
"@X c #D49155",
"#X c #E99748",
"$X c #F59D45",
"%X c #E79C54",
"&X c #FAA645",
"*X c #FEB443",
"=X c #FFB84D",
"-X c #ECA359",
";X c #F8AA58",
":X c #FDB756",
">X c #ECA345",
",X c #CE9768",
"<X c #DFA168",
"1X c #EBA869",
"2X c #F3AC67",
"3X c #FBB669",
"4X c #F8B977",
"5X c #EBAE77",
"6X c #FFC749",
"7X c #FEC255",
"8X c #FFCB5B",
"9X c #FDC759",
"0X c #FFD95A",
"qX c #FFCC63",
"wX c #FEC769",
"eX c #FFD669",
"rX c #FEC777",
"tX c #FFDC7A",
"yX c #FFD876",
"uX c #FFE57A",
"iX c #FFEC69",
"pX c #FFE25F",
"aX c #F6BB83",
"sX c #DBAE87",
"dX c #FBC787",
"fX c #FED988",
"gX c #FED995",
"hX c #F9C997",
"jX c #FFE788",
"kX c #FFF38D",
"lX c #FFEC95",
"zX c #FFEB9B",
"xX c #FFF698",
"cX c #FDD9AA",
"vX c #FFE8A6",
"bX c #FFF9A7",
"nX c #FFFAB6",
"mX c #FFFDCA",
/* pixels */
"/.$XZ.8.A.}.3XwXwXeX8X*X{.{.G.V.F.t.A r # % .               # * 4 a U s P U u s R E %.c.@.B e.j.x.5XgXzXgXrX#XL.2.r N 8 8 M <.u.",
"&X).).'.&X&X=XyXjXyX=X_.{.J.n.b.b.w.' A 2 o   . .   .   X # 5 & , 3 y y a y < < u U U l 3 , w 4.p.z.%X4XrX;X#X`.:.w S M <.h.u.#X",
"&X].}.qXuXfXjXjXkXxXeX{.Q.J.8. ._ 6.6.>.N * # o X X X # # & & @ & * 3 3 3 3 , * 4 P y & # - % - b 1.R.I.-Xx.2.d.N S M S 1.d.h.L.",
"$X_.=XjXxXxXkXjXjXbXkX XQ.b.%.U T _ 0.'./.,.6 & & @ o * * & * & & & * * # , * o & 3 * @ = % + X 0 a.R.R.z.} h w 1 S l.4.Z A ;.K.",
"U.&XeXuXuXjXxXbXxXeX6X|.D.O.) ) Y ) #.W.[.0.g 3 6 < & i 6 < * & & * * , & * * # o . X o + X % 9 n L T.R.,Xp.C h 8 N 4.<.;.3.2.>.",
"`.wXeX:X9XuXkXkX9X).H.Z.7.k T _ l ^ 0.V.V.9.T 4 p T [ _ i * , & & , # @ o @ # X       o + X - L a.a.T.,X,XR.E.p.S N & - 7 <.r.;.",
"U.:XuX:X:XqX=X&XZ.#.0.#._ ( i a l Y 0.F.G.b.E U P Q c.) a 4 3 @ @ * o . X X                 . H a.T.oXoXoXsX,Xl.D r - # @ 7 A ;.",
"r.:XtXwX;X(.A.[.B.k ^ / V / x i k a 0.}._.V.c.U P Q ` s T ^ g & @ , # o .                     o m E.oXE.E.oXT.} r # O O + @ G 1.",
"r.$X:X$X`.P./.A.C.{ / / f ] V 6 i Y +.W._.H.+.d s s u a a 3 * , * @ o @ .                   + > G f.E.T.E.XXR.p.M : @ ; o = v ;.",
"%XU.`.(.P.$XS.C.q.q.,./ B { ,.T i Y #.n.Q.B.) k i < < < , & # & @ . . X .               . . # N ;.1.a.a.a.a.l.G 9 b 7 % : v : i.",
"OXL./.'.&X;XI.u.t.2.' ] ] ' ( / ) Y #.H._.6.) p 4 , , * * & o . X .   X               . . o - 1 r J T.K L a.i.Z - 7 7 > m 0 7 i.",
"' L.;X;X3X4X3XOX<.M h ] ' w V _ #.V.b.).(.c.[ l 4 * & * & , @         o .           . X   $ ; o 8 G K n s.H 9 Z 9 $ > % ; 7 = 9 ",
"e I.;X+X#X-X2XOXp.D r A V B { / #.c.n.V.F.B.O._ z * & * * * o .     . o               .   X @ 1 N i.i.g.s.J G F 0 o o + . . = - ",
"t I.I.K.K.k.x.h.2.z.d.C C t.6.V [ $.c.%.+.` s U ) 3 , 3 < , # o     X             X @ - & & 5 A r.OX@XE.T.f.i.4.v % O     . o = ",
"v 3.:.e.>.>.1.C A :.t.>.A ( x x k  .c.8.8.` U U d y < 3 y 4 < * @ . X o o . . o @ , < C ' ,.,.5.U.I.@Xl.l.f.4.i.v $       . . . ",
"t q M B ] 5.,.f 6 g / 5.6.Y i g p ) n.%. .P s a i 4 y u d y 4 y < & @ & * & , z i < z 9.b.[.&X#Xy.,.2.3.p.} N G v X       .   + ",
"8 - h ] ' w.6.k C ( 6.b.@.[ l 6 a ) 8.n.+.Y a u u d d I I P d d y 4 y y 4 < i  .@.[ c.b.0.W.'.'.t.:.] r.2.q 5 2 1 o           o ",
"= <.] ,.m.Z.7. . .b.b. . .8.8.a U +.n.n.c.%.$.$.` | X.I ~ I P P d I I P P ) %.b.W.F.n.9.6.{ w.m.q.{ ' ] B , & & * @ o o o X . o ",
"C ' V ^ #.Z.F.n.%.c.v.| R ..c.+.O.b.F.V.c.=.*.*.*.o.=.&.~ ! ! ! ~ ! &.o.c.X.n.{.6XW.c.@._ / ,.] / j f < < * - 2 3 & # * 1 1 1 b ",
"5.z x x #.F.)._.n. .T R P W 7.) [ [ w.V.n.$.Q c.=.X.v.v.&.! &.&.&.-.N.v.=.$.n.9XiX!.Z.0.' ,.' B 5 < i , # @ # , , & , y f w ' h.",
"^ u Y ^ Y W b.V.` s 4 y y a #.O.0.w.6.Z.b.$.$.$...c.v.*.o.o.&.X.-.&.X.=.%.*.H.iX6XA.(.6.,.;.r * 1 2 , # o # o @ * * 3 d s l / 0.",
"3 i i Y Y u Y ^ l 6 3 Y k 4 T b.B.q.t.b.0.B.9.%.$.c.n...Q ..X.E E R E c.%.X.A.8X*XB.5.t.D b 8 = * * @ X @ # X o , 4 u d d i 3 , ",
"4 4 3 u i p 4 p 6 < f w w 3 l 0.,.{ 5.C.P.b.#.O.@.O.$.%.%.%.| .. .Q O.0.8.9.(.}./.K.r.;.e 9 = O X . X # @ @ X o * 3 y u 4 4 4 < ",
", 4 4 3 < 4 f : = w q @ X q { ' B ' >.^.&Xw.b.b.#.)  .m.V.%.O.7.b.m.%.t.C.#X;X]./.3.<.0 = @ . .     X # o   . X @ , u y < * @ # ",
"& & , 4 * 4 w & 1 F : . . - D ] ] 2.L.2X>XZ.B.H.A.7.8.H.H.%.` 0.C.A.^.#X-XfXfX%Xk.4.G # = + .         X . . . . X # 3 , & X o # ",
"X . X * * w r b F m ;   ; 0 n } p.x.^.%X^.C.A.(.].~.H.J.J.D.V.Y.;XrXgXgXdXdXaX2XR.N 8 = X . .                     X @ o . .     ",
"    X # * < N 4.L > X . O $ : N G 1.l.I.y.S.'.7X=XQ.!._.).}.&XwXrXvXnXnXnXgX4X@X1.8 0 @   . .       .   .         o & #         ",
"  . & # # r B S m % .     X $ % 8 A z.L.L.S.(.:X=X}._.|.=X|.7X:X:XyXzXbXnXgX4Xz.M n N b $ @ X         . .         o & & o       ",
"    X . o 5 D 4.F $ . + . o % : 7 b d.^.U.A.(.}.=X|.!.|.6X*X7XqXyXlXxXvXvXbX4X3.b N M M 9 o o     . X .         o & @ & X       ",
"      . @ 1 N e - @ X .   X o $ - q e.P.(.].:X*X|.7X.X X X}.7XqXuXbXbXjXzXnX4Xk.:.' h t r 8 1 1 & X @ @ X X @ o o # # # X       ",
"    . o @ & M n n O X .     . X # q { 0.m.H.P.F.F.).{.|..X6X6X}.eXkXjXlXjXtX3X`.P.3.' C A C 8 h 5 @ @ * , & & # o 3 1 1 X       ",
"    X @ O . @ Z n @ X       o . X * 5 l P ` E o.*.v.D.~. XpXeXeXuXqXuXwXtXyX=X&XA.5.>.2.;.A * * 1 # o r A 1 , f B f * - o       ",
"  . X o @ @ X 8 7 o             . # * c P d E E o.D.G.~. X6X8X9XeXeXuXkXeXuXeX_._.S.r.:.h A h 1 % O # M q 1 j z C V 1 1 #       ",
"@ # @ 1 1 # . @ @ X               . , T R 4 4 y E n._.*X}.).W.[.].&X:XuXjXjXtX[.A.A.U.3.M S N 8 = - 9 N S <.;.' ' g , , 8 : o   ",
"r q 6 z 1 .     .                 X < u 4 4 i 5 y %._.qX&X(.(.m.b.B.m.(.:XwXyX&X`.#X#Xl.J J i.n e v b 9 b 3.D r B V ] } d.x.4.F ",
"2.2.,.B 5 X                       X & < 3 , 3 i k w.`.$X$X[.b.@.[ [ O.w.(.].qXrXwXrX4XXXf.i.J v - 9 7 @ % M 1 & & ' L.`.;XrX2Xk.",
"L.q.] g f # X X     X               @ * # @ & : = :.^.^./.P.0.7.@.( ( C.`.:XrX-X%X1X5XXXE.g.K F N Z n 9 - 8 q - 2 w e.m.P.:X$X^.",
"(.{ c #.{ 1 = # o * # o             X X . . * 8 q p.+X5.q.6.{ 6.@.#.#./.2XrX1XI.z.@X,Xl.l.f.E.3.D Z D D M = & - 1 < Y [ 7.Y.(.].",
"`.b./ w.0.6 < & # , 2 * o           . . . $ @ 1 N h.U.L.K.t.0.w.b.e.t.@X5X@X%XR.h.XXXXi.J z.R.<.;.A N b r 5 1 , q 6 6 c Y b.&X:X",
"wX$XH.Z.Z.{ ( A 5 & 8 2 1 # o       .     X = t h.h.I.#XL.q.6.U.P.5.>.z.@X@XR.x.z.l.l.h.1.x.%X1.;.M q q r f 3 2 6 i z ) O.Z.}.wX",
"tX=X].].].Z.6.5.A f j w * 2 1 X +       . . % N p.j.r.I.#XC./.$X#XL.I.@X@X1XOXf.R.h.p.1.;.OX1Xh.A e 1 S C f g f 6 / _ x O.8.Y.:X",
"eXwXwXeX:X[.q.' f 2 2 < * & & $ . .     . o = b A D e.k.L.I.L.%XdX4XdXaXaX5XsX@XOXOXh.x.XX<XR.D b N b M N 3.r.f 5 C 6.[ 7.#.A.eX",
"eX:X:XtXwXm.{ f 2 3 , 6 f 1 r 7 = > o @ o # 1 N 2.] r.#X%X^.+X1X1X1X4XaX5X4XdXcXhX5XR.i.p.R.a.F v n Z G S h.3.j j ] w.0.b.b.H.9X",
"qX=X=XeX:Xt.w # ; 5 3 z ,.5.2.;.p.s.G 2 8 1 h B ] q.I.;X4X4X1X4X1XOXI.1XaXaXhXmXmXcXE.m m g.L m > > v 4.p.2.3.k.3.:.{ [ 9.H.}.7X",
"*X].6XeX}.6.5 = * w i l c ^ { ,.,.e.:.C ' C { ( / e.`.3X4X4X2XdX1X+X+X3XrX4XvXmXcXsXa.F K L L H J J F i.p.h.x.I.2.B ,.6.0.[.7X9X",
"=X*X9XxX9XC.^ B z ( T u 4 u a i i g z { 5.{ _ { q.t.:XjXjXdXfXbXzXdXrX;X$X:XgXgX5XT.a.K F a.L L L f.l.l.z.p.3.d.B 2 h >.B.H.(.}.",
"=X=XeXiX0X[.9.6.( T U u a y u a g ^ p l x g p z 6.O.>XxXjXfXzXnXnXlX3X$XY.#X>X^.+X1.G K m L T.T.K f.f.p.z.<.r j w q 2 h { [ m._.",
"=X0X0X0XpX[.9.b.^ y y 3 , 3 3 u l l ( j < 3 < 6 Y t.=XtXzXjXlXzXwX#X].A.@.6.6.e.,.C D N Z L H L i.i.1.;.2.N 2 = 5 2 < 6 ( _ b.}.",
"0XiXiXiX0XW.V.0.^ a 4 3 3 * & , , * q * # & & * g e.$XwXlXlXlXjXwX[.A.0./ { / k V e.:.t N F n 0 F J ;.3.;.A C q = = - * 5 z 9.).",
"6X0XiXiX.XM.V.%.a a a 4 < @ # o . . . X o .   & z ,.C.;XjXrXfXeX'.Z.w.w.6./ _ f i t.q.A M Z m 9 n Z S x.k.3.A q - X . o 1 < ^ Z.",
" X.X.X.X!.D.D.V.#.R 4 3 < @ . X               7 J r.u.j.^.^./.Z.w.6.9.#.@._ T x p Y [ ^ h G s.K i.4.<.j.j.e.r.2.8 o @ # * g f @.",
"!..X.X!.~._.~.D.$.P u y , o X # X             @ 9 G G b M 2.6._ ^ T [ 7.b.%.E W  .s Q / g ] p.E.f.1.3.:.,.y.j.3.M & = = = 1 6 #.",
"W.{. X X{.~.D.n.| d 4 y < X @ o .               O m 9 9 9 r C ^ Y _ 7.8.n.v.X.o.o.I I +.6.r.z.,X,Xz.3.2.q.q.q.r.;.7 - # # 1 f 7.",
"~.F.{.6X6X{.!.J.=.R 4 p < o o # . X               ; ; X % 1 w p p [ n.n.D.G.N.o.o.&.-.n.n.Y.-X4XdX<Xr.e.t.5.t.I.:.8 , # * w / P.",
"b.W.{..X|.6X!.!.B.Q P a < # @ * o                   + O % # q ( ^ _ b.D.D.M.-.! -.M.N.G.).(.$XaXaX1XOXK.y.q.y.t.B 3 & o = # - ( ",
"{ {..X{. XH.D.!.Z.E c i g p 6 1 & ; .             . X $ # = r ,.0.B.n.D.v.&.&.! &.-.M.~.G.D.`.2X5X2X2XrX;XP.(.5.h < = & @ . . * ",
"[ F.!.{.|.G.G.!.Q.b.T u p ] { B b 9 o . .             @ = @ 6 j z w.V.D.v.*.o.! &.N.M.F.M.7.m.I.+X4X4XrXfX;X`.t.j z 2 # @ X = k ",
"k  .M.!.|.{.!.J.G.Q.n.K.r./ e.h.G =   $ X .       . $ & * * 1 , < T n.D.=.o.! &.N.M.v.v.b.@.#.e.OXhXgX3XrX;XK.q.h < & .   . * l ",
"k 8.V.|.|.}._.~._.}.:XwX$XL.u.z.g.7 + ; O . X O o X > : o & & o @ p ` %.M.v.-.-.*.X.| $.[ Y ^ } I.hXnXvXzXgX-X,.q < @ .   o & 2 ",
"V Z.{.8X=X_.}._.9XjXbXwX/.k.>.x.K @ ; v m > > L m % o 9 : & 1 = X # 3 +.n.D.v.&.~ P P ) T a ^ 2.+XcXmXmXmXnX5X2.t r @ . . . @ 5 ",
">.P.].}.}.&X_.}.iXuXjXwX%XC.K.^.F & 0 v m m v m > = % % : % X @ # * p +.=.v.v.v.%.Q s a s | O.r.+XdXvXnXbXgX-X;.2 1 @ o $   X q ",
"K.H.Z.b.B.`.].:XeXqXuXjXwX&XL.e.h b 8 $ ; v ;   . X . o - o . . # 4 ) X.%.J.~.D.n.$. .s U m.`.Y.-X4XaXzXlXfX#X;.7 0 = X X   @ D ",
"P.].H.m.m.Y.wXqXeX9XqXjXyX_.B.B.} 2 8 X + 7 %     . . . .   . @ , z $. ...M.c.+. .| %.) ` Y.$X#X2XdXgXvXnXfX^.>.r 8 - & o X & ' ",
"K.$XP.{ 6.>XtX=X:XeX0XeX7X_.).).S.D 9 7 + = +       .         & < _ c.$.$...W ` Q W %.c.b.B.t.j.%XgXmXbXnXfX^.I.:.:.Z 8 8 # b u."
};
