/* XPM */
static char *result[] = {
/* columns rows colors chars-per-pixel */
"63 64 53 1 ",
"  c #010101",
". c #090807",
"X c #0D0C0D",
"o c #0F0C13",
"O c #110D14",
"+ c #151216",
"@ c #1B1916",
"# c #161119",
"$ c #1B161C",
"% c #1E191E",
"& c #201D1D",
"* c #23211E",
"= c #1F1821",
"- c #221C24",
"; c #241F29",
": c #262324",
"> c #292526",
", c #2A2926",
"< c #26202A",
"1 c #2B252C",
"2 c #2D2B2D",
"3 c #302C2E",
"4 c #34322D",
"5 c #2D2730",
"6 c #2F2931",
"7 c #332D33",
"8 c #363135",
"9 c #393436",
"0 c #3B3935",
"q c #373138",
"w c #3B353B",
"e c #3E393D",
"r c #413C3E",
"t c #43413E",
"y c #3F3A40",
"u c #423D42",
"i c #464144",
"p c #484447",
"a c #474348",
"s c #4A4649",
"d c #4D4A4C",
"f c #504D4F",
"g c #51504E",
"h c #4F4C50",
"j c #524E51",
"k c #555253",
"l c #585656",
"z c #595857",
"x c #595658",
"c c #5D5C5C",
"v c #605F5F",
"b c #60605F",
"n c #616160",
/* pixels */
" %422333726722421333333233222:   >2227222222,2,,,,<2,<,,<::,:+.",
"%lbbvvbcbbnnbnnnvvvvnnvvbbbbck: 9bczzggssgkkkkzzzzzzzzzczzkggyX",
"9dgkjjjdgccxccbcvvvvcckfhkggga28ggkgdssatdddghgggghgkzzghgaaay+",
",phhjjjjkxxxxzzzlkjlllkfjgghgu:8idddhhhgardsssshhhggkgzdaaaia0X",
"2pgdkdjjhhhhhhxhlkllkkkkkhjhju<8iggdhddda9wweeiaahghzgzssaaaawo",
"2pdgdkkjhkkkkhhkjkkkjkjkkxddju<8idhdddhddsssgiasaahsahdsskyyi0o",
",pggdlhjhhhghakhjjxudkfflswhhu<8tghdhziadsslk8ssdhzeydaszd2ya0o",
",pgpgsujjhdsyskhflurjjfks7ajhu<8tpddzd7psakl7qdshza2agazk28aa0o",
",pdppqsfjdaqujhffrqsfffu7yhddy<7tpggj5ydssjq7ssajd1edssk72piiwo",
",ptwqaffhy7ujdfswqpfffs9ujddde<4tgds7wdssswqpssss7edssseqsaruqO",
",puwpfddkdsjddjdrdfffjffjddhdy<8tpdeudssdsudsassuusppdapsaiptwO",
",ifsfsdfjshsdkjsffpfkfufddldui<7tssddsskjeduajjessaskf8apagh7wO",
",ipssddfeadddjeafsfffqaddkf7uu;3tpdsssflqqdujxwqssajl78sahz22wo",
",tssspiwedspswqdsspsqqdsddqqde;7tpsssdje7uusku5upuskw1aasky<aqO",
",ispse7wsssr7qsdsdr7qdddu7qssr;7tppsspw2usudu5uspsse2iaisw2yiwO",
",tpspeusssseesssspiudssssudsse;3tipdpteasuuuquauuuueaaaiayiurwO",
"*tppsjdpudjjududdjfudufjjuuddu;3uuujuxufuuufusuupjausuufjquuuqO",
",rppgsppdujuudduffuuuffjqrjuur;7uujucuuuufxrquuujj7usujx87uuuqO",
",rippqppuurrufudd6rduudrqduduu;6ruucuruuuxu5uuufk77puuku1uuuuqO",
",rtr7usurr6uuuud7ruudrq6udduuu;5ruuu5rjuuu5uuuujq1puusu1euuuuqO",
",087rsuurrruuur7rsuuurrududuuq;3rtrruuuuurruuuuq7uuuuuquuuuuu8O",
"*rwrpupduuuuuuuursudfuuuuudjur;3rrrruuuuuuuuuuuuuuussusuuuudrqO",
"*riiaudfuuuukjuuruukuuududkuur-3rtrruuxuquuusfquuusxqquuualu7qO",
"*riuupsquuufurruuusrruuuudu6uq-5rruuujj7quuujqquuuku1uuuuks1qqO",
"*eitriq8uuipr7ruuur3rruuur1rur-5rrsrsfr>rrufq1rurfu;quurps;7uqO",
":0ir877uur077rrrr85rrrrurrrru7;5rrttrr1rrrur;ruuru5quuuru77uu7O",
"*0ur7qurrr88rrrrrrrurrrrrurrur-3rrrtrrrrrrr7uuuuuruuuurrreuuuqO",
"*euruurrw77q71r338331>rrruurrr-34rrrrrrrr567777qr7q7r7rrueewyqO",
"*wrrerrr7151111111>>>-rrruruur-1ruuurrrr6-551-55;551317ruquww7O",
"*errrruuq7777777331r1rrruurruq-5ruuurruur6666r67777rqqrruuuuu7#",
"@>3776666;;;<-<;<;;--:>1516371---16665;55-<11<115511556q566665#",
".@=%%&-=-&&&&=&&&&&=%%$%=====-#..$---=-=--=--=--==-=------;;;-O",
" @2<<>>>237773774843743,>>>>1-  .3,,1,>166q7678373737732<><><@ ",
"2glzzllllccccccvcccvcvczllxlzf1.rvlljffsujkxkxklzlzzllzzkggdgr+",
"8pdddfdpdcxxxxxxxxzllldsfffkgp6rtffjdsrruhxuhhjkkkgxkxkfgffdsy%",
"*ririiiiaddfffddddfsddpuauuurr=rrrrruuusuuuuasasssddfffiuuueyq+",
",tiuiiiiaussssdhffddfppspupuur;6rsudsusuuuuyuuuuadhhhkkaayuiiq+",
",0tiiiiipsssfsdsdsdfsdpipfsuur;6ruuuuuusuuuuuuuuiaadsssaidawyw+",
"*euuufsuaauddrupiifsusupfdquur164ruuujduuuujvuuuuukieaiudk8wiq#",
",euuppeiiuasqrsuida7uppps7wprr<6rruujdquuuuuu6uuikh5yaudk86yyq#",
"*ette7wauuuq6uusir1epiir75uuur-64rrtd77uuufr;uuuuh55duujq<wuuq#",
"*ee827aiu936uuir827iuae37ruuur15rrtt75uuuur1uuuuu65uuuuq1wyyyq#",
"*r027uuuurquuuir3quirprruuuuuq;5rrt97ruuuu7ruuuurquuuuuuuueuuq#",
",0eerutpfuuuusfuuuuudfuiuudfur;54ruruuuuuuuuuuuuuuuusxuuausjw7#",
":0rreitswrurifrwrurpdqeuusj7qq-54rrrruukuquuuju5uuuuxr6uuske6w#",
"*wrrurt87rruiq6uuuri81uuuur1rr154rrruudr;uuuuu;ruuuku;wuuju;wq#",
"*0rer971qurr81wrrrw31wuur71wur11rrrrurr-quruu17uuuuu;7uuuu17yq#",
"*wree22wrrr3>8urrrq3wrrrq5wru7-54rrrur1ruru7qquuuur7qyyuu7qey7#",
"*9rerurrrwusrrerriirrrrifrrrrq;59wuyuuuuyuyuswyyuuuuuuuuuxyyyq#",
"*9eessrrrrsuwreeidrrrwudwwrrrq;53wuyujuwywixwqyuruuuuuuuxq5uyq#",
"*9etuqwreiw7wreuiq7rwriw5rrrrq-54ryuji5ywujw5wywju7yuuuuw5uyuq#",
"*9er37rww8>qrwwr71rwwr91quwrrq113rysu5qywiw;qywuh5;uuuuq;wywuq#",
"*48>3erw313rww9219rwr317wyrwrq;14rr455wywq17wywuq1uuuyq5qyuuqq#",
"*8>3qeqr88wwww939w9rrwrwywusrq;13rr37wwwywwwywyq7uuuuuquwuquuq#",
"*90ewwpfr9wwuswwwwrfrwrwwrfiwq-139wrywysswwwwsuwuuquuuquuquxu5#",
"@8e9wrp8qq8rfr8w9rpr5w9wwsu5w7;549ewywsj6qwwsjqqu7uuu5uqyuju55=",
"&3r6rrr19qrr91r9rrr17rwwrr15r7-149eewus75wqujq5wquuu;quuquu5qq=",
"&>rrr1=6q9r7;8q893-1999w615qr7<149ewwr71qwquq;qwquu;7q7qyu55qq#",
"&rr3&>6r9q1;7qqr953r9w9w77qrr5-539rrw559www75qwwuq5ququywqqwyq#",
"@>r5rr3rq33333313333137wrrqrr7-13999wwwwq577777qq6qqq77qqyyqqq#",
"&>rrr1r35;1;1->&>-&&&%1777rqr5-139wwww9w7-111111;511515uqyqyu5=",
"&rr15r5r51111111>>>11>3rrqqrr7;539wwwwww511111555555557uqqyyqq#",
"+1*16r761%&==&&&%%%%%%>3555535-@&37777665----------1;-5qq5q5q5=",
".+@@$%$%$%$==$=&%%%%%%$$$$%%%%O.O$====--=----=--------===;=;==o"
};
