/* XPM */
static char *result[] = {
/* columns rows colors chars-per-pixel */
"64 64 100 2 ",
"   c #050504",
".  c #090806",
"X  c #0B0A09",
"o  c #12110F",
"O  c #151313",
"+  c #1F1B16",
"@  c #1E1D1B",
"#  c #211D17",
"$  c #221E19",
"%  c #22211F",
"&  c #28241E",
"*  c #1A1920",
"=  c #242221",
"-  c #292726",
";  c #2E2922",
":  c #2B252C",
">  c #2D2C2A",
",  c #332D26",
"<  c #342F29",
"1  c #33302D",
"2  c #3D342D",
"3  c #363432",
"4  c #393535",
"5  c #3B3836",
"6  c #32343D",
"7  c #36383F",
"8  c #3C3B39",
"9  c #40362E",
"0  c #453A3A",
"q  c #4A3B3C",
"w  c #42403D",
"e  c #4E413F",
"r  c #373941",
"t  c #3A3D44",
"y  c #4C3E40",
"u  c #3D4047",
"i  c #3F4249",
"p  c #4C4442",
"a  c #4E4945",
"s  c #43454B",
"d  c #4E4749",
"f  c #47484C",
"g  c #4C4949",
"h  c #534345",
"j  c #524B47",
"k  c #534648",
"l  c #544C4B",
"z  c #594B4D",
"x  c #595247",
"c  c #55514C",
"v  c #5A544C",
"b  c #5F584C",
"n  c #494750",
"m  c #4D4C54",
"M  c #4E4D58",
"N  c #524C54",
"B  c #584B50",
"V  c #574C58",
"C  c #4F5056",
"Z  c #4E5058",
"A  c #545255",
"S  c #5A5553",
"D  c #5D5955",
"F  c #525259",
"G  c #5A545B",
"H  c #5E5A59",
"J  c #635B4D",
"K  c #615454",
"L  c #625C55",
"P  c #685F52",
"I  c #655558",
"U  c #625E5A",
"Y  c #6A595B",
"T  c #65615C",
"R  c #6A655D",
"E  c #6E685E",
"W  c #726A5F",
"Q  c #5C5260",
"!  c #5F5966",
"~  c #605664",
"^  c #615866",
"/  c #6A5C62",
"(  c #666262",
")  c #6B6663",
"_  c #6E6965",
"`  c #65646A",
"'  c #6B6669",
"]  c #6E6B69",
"[  c #726C66",
"{  c #786F62",
"}  c #736E69",
"|  c #767066",
" . c #787165",
".. c #76716B",
"X. c #79736C",
"o. c #7F786E",
"O. c #777371",
"+. c #7A7671",
"@. c #7E7972",
"#. c #817B75",
/* pixels */
"  + % % = % % % & % % % % % % % % % % & % % % % % % % % $ % % X   $ % $ = % % % % % % % % % % % % % % % % % % % % % % % @ % @ X ",
"% R ) W E E ) E E ) E ) _ E E _ E ) ) ) E ) ) ) E ) E ) ) R _ 4 & _ _ _ _ ) ) W _ R E R E _ E E _ ( ( E R R T T T T U T U U T 1 ",
", { [ [ _ [ [ [ | | | [ ] | | | | .. .} | .._ ..| | [ [ } [ } q <  ... .| } [ [ | } [ [ ] [ } [ [ [ ] [ _ _ _ E ) ) ) ) ( E R 0 ",
"; W [ [ { W [ { | _ [ | | | [ [ [ } [ [ [ [ | _ _ _ _ _ ' [ [ q ,  .} [ [ { [ [ _ [ [ [ [ } [ [ | | ] [ [ _ _ _ E R R T R ( R 0 ",
"; W | E T x S U _ [ } | | | } |  .} [ |  .[ [ [ _ T c v T _ [ q , X.| [ R c c T ` _ } ] [ ..| | ..| ....| _ _ _ R U c c D H ( 0 ",
"; { W T x c e c T _ [ [ } } } } [ ....[ } } ..[ T x c e S ( ] q <  ...) v v a a T _ ] | ..| ..| ..........| [ _ U c v p a H R 0 ",
";  .{ J J @.) k D _ } } } | } } ..[ [ ..| } } [ b T o.I k T ] q , X.| R b o.' y U _ [ ......X.X.O...X.........E D J @.) q H T 0 ",
"; { _ T c ` ^ B D ] } } ......} } | } [ [ ..} [ T S ` G v T } q , X.| T D ` ^ B T _ [ ..| ..X.......X.X......._ L D ` Q l I R 0 ",
"; | | E T A A D ( ] ] ........| } [ } } } } }  .R D G V I [ ' q <  . ._ D A H D R } ] ....X...X.#...#./ #./ #.[ T S V A S U ) 0 ",
"; | | | E T T E | | ..] | ] ..] } } } } } } } } ..R Y / _ / #.y < o...X.W T T ( } } ....X.X.X.X.[ ..{ #.[ #.[ [ W T U U T ) ) 0 ",
"; | | | | | | X.....| ......| ] } [ } } [ } [ } ....} ....} } q < o.| ..X.....X.| ....X.X.X.+.....#.#.[ #.{ [ #...} [ _ _ E ) q ",
"& | | | ..| | ............] ....} } [ [ [ } } } [ } { ......#.q < o.....X.................X...X.} [ [ #.} } #./ .. .} [ _ _ ) q ",
";  .| | | | X.......| | | ..] ..} } [ } ] [ [ [ } } ....} ..#.q < o.X.X.........| ....X.........#.#.[ } [ } #.#.....[ [ _ ) ) q ",
";  .| | X.| | X.........] ....] [ } } [ } ] [ [ [ ....} ..[ } y , o...X.X.X...............X.X...[ ../ #.#.} [ } ..} } [ _ _ W q ",
"; | | | | ......| ............] } ] [ [ _ [ _ [ [ [ } ../ #...y , o.| ..X.X.............X.X.........#.{ #.[ ' #.} } [ [ [ ) ) q ",
";  .| X.X.| ....O.......] ] | ..} } } [ [ ] [ [ } [ } } #.' #.y < o.X.X.X.....X...O.....................} [ #...} } [ [ _ ) ) q ",
";  .| X.| | X.X...X.....] ....] | ] | ] ] | _ _ _ [ } ........y < o.X.X.X.X.X.X.............O.......#.} } } } } ' } } ' [ [ / y ",
";  .| X.X.X.| X.X.........| ] ....] ] ] ] ] _ _ ] [ } ....} #.y < @.X.X.X.O...X.O.....O...........O.} } #.} } #.} } } } / [ [ q ",
";  .X.| | X.X.X.X...........] ] ] ] ] | | ] ] _ ] ] } } ....#.y < o.X.O.X...X...O.O.............' #.....} } } O.#.} } / [ [ [ q ",
";  .X.X.X.X.| X.X...X.O.] ..] | ] | ] ] _ _ [ ] ] } } } ......y < o.X.X.O.O.+...O.....O.........#.} O.} } #.} } / } } } [ } / q ",
";  .| X.X.X.| X.X.X.X.......} } ] ] [ ] ] _ _ ] [ ' [ } } ..O.y < o.X.o.+.X.+.X...O.............' } O.....} } } } } } } [ [ ' q ",
";  .X.| | o.X.X.X.X.......O.] } ] [ ] ] _ ] _ [ [ ' [ [ } } O.y < o.X.X...+...+.O.....O.] O...../ #.} } O.} } O.} } } } / [ [ q ",
"; | ..X.......o.X.X.O.......} ] ] [ ] _ _ ] _ _ _ [ ] ] [ [ O.y > o.O.X.O.....@...O.O...O.O.....#.} } ..} } O.} O.} } } [ [ [ q ",
";  .....| E E _ ..X.X...O...} } ] ] ] _ ] _ ] _ ] U K Y ) ' } y , o.+.+...E _ ] ..O...O...O...O.} } ..} } } } } _ ~ I I / ' [ q ",
";  .X.W b a a D ) O...O.....} } [ ] _ ] _ _ _ _ H c c w S ( } y , o.+.| T a a D _ ] O.O...O.O...} O.} } O.} } ' S S k p c T _ q ",
";  .| T b _ c j U } ....O...} ] ] [ ] _ _ _ ` _ c b E D p U ] y ; o.O.E c E L w ( ] ....O.....] O.} O.} } } } ) D J R S p U _ q ",
"; | | L b +.( c H } O.......] ] ] _ _ ] ` _ _ ( D b o.E y H ' y < o.O.E b .._ a ( ] ] O.O.....O.} O.} } } } } ' b J +.Y h H ' q ",
"; | ..E c Z F A T O.........] ] _ ] _ _ ] _ _ E H D F f d H ] y , o.X._ D C C A ` ] O.} O.] O...} } O.} } } } ] U A F m c ^ ) q ",
"; | O.| E H H T ..........} } _ ] _ _ _ ` _ ` _ ( H S A H ) O.y , o.X.O._ H T ( ] ..O.O...O.O.} O.} } } } } } } ) U G I U ' _ q ",
"; | | ..| | | ..O.O.......] ] ` _ ` _ ` _ ( _ ( _ R ) ` ) _ } y < X.O.O.O.| ....O.......} O.} O.] O.O.} } ] } ] [ ] ) ) _ _ _ q ",
"& o.o.o.+.@.@.@.+.@.+.+.O.O.O.] ] ] ] ] ] ] ] ] ] ] ] } } } +.d 1 @.+.@.+.O.@.O.+.+.+.+.O.+.O.O.O.O.O.O.X.O.O.O.O.} O.} } ] } y ",
"o a C C C C C C C C C m i i u u r u u r r r t u u i i f n Z Z : o A F C C Z Z Z M M Z Z F Z F F F F M M F Z M N M M M N N N m = ",
"  , w w w w w w 8 8 8 3 1 - % % @ % % % % $ $ - : : 1 4 4 4 8 $ X 8 8 3 3 3 1 1 1 3 3 3 8 8 8 8 8 8 8 8 8 8 8 8 8 8 5 5 8 5 5 o ",
"%  . .X.| X.| X.o.X.X...| [ _ _ ' { ) ) _ ) _ [ { } } { ..} X.z 2 o.X.| | | [ [ | | ] ..| | ........| | [ [ [ [ _ [ [ _ _ E _ w ",
"% W X.| | | X. . .X. .| ] | [ _ _ _ ) ) _ _ [ [ } } ......} ..z 9  .| | | | | [ | _ | | | | ..| | ] ] ] [ [ [ [ E _ [ _ ) R E 0 ",
"& W ..| ..X.X...| X.X.....] [ _ _ _ [ ) _ [ [ [ ..{ [ [ } } } z 2 o.| | _ W E [ [ [ [ | | ] | ] | | ] | [ [ _ [ [ _ E _ [ [ ) 0 ",
"% W  . .| L T _ | ......| ..} [ { | _ _ [ [ } [ / Y D D L _ } z 2  .| { U c c U _ _ [ ] | | } ..] | ] [ [ [ _ ] ) D S D U R ) 0 ",
"# W | { x j p v [ | ..| | ] } [ _ _ [ [ [ } } [ U b c p z U } z 2 X.[ T x c w c T [ [ | ] | ] } ] | | [ [ [ [ [ L v v p k T R q ",
"& W X.T J o.T j R ] } | | } } [ ] [ [ _ [ [ [ ) D P X.K k S ) z 2 X.| D J @.E c D _ } | | | | ..| | ] ..] [ ] E D J o.R q K ) 0 ",
"% W  .R j ` G S ( } ..] [ } [ } [ [ [ [ [ [ } [ L v ( V B S ' z 2  .| T v ` ! S H _ } ..| ....| ] ..] ] [ [ [ _ D D ` G h U R q ",
"# W | | L C A T _ | } | } ] } [ [ [ ] [ [ [ [ [ Y S N A S Y ..z 2 o.| E L S D S R | } | | ..| ] } } } [ [ [ [ [ U D C g S U ) 0 ",
"& W X.| | | [ [ ....} ..} | } } | ] [ [ ] [ _ [ [ / R U T } ..z 2 X.| | E T T ] | } ......| ....} } [ } ' [ [ [ [ U R Y T ) _ 0 ",
"# W { X.| X...X...| ..| } } } } ] [ [ ] [ _ [ _ } [ } { } } O.z 2 X.| | | |  .X.....| ..........} } } [ [ [ [ ' [ [ ) _ ) _ ) q ",
"% W  .| ..| ..| ......] } } ..| | } ] | [ [ _ [ [ } ../ } } O.z 2  .......| ................| ....} } [ [ [ [ [ [ ) [ ) _ ) E q ",
"$ W ..| | ..| X...........] ..] _ ..[ ] ] [ _ [ } [ } #.} } #.z 2 o.....X. .| | | X.| X.X.| ..| } } } } } } } [ [ ) [ ) ) ) W q ",
"$ W ........| ..........| ....| ..[ ....] | ] _ [ } #./ #.} [ z 2  .| | | | X... ...X.| ..| ....} ....} } } [ [ [ [ { _ ) _ W q ",
"$ W | | ..| ......................_ } _ ..[ | ] ' } } } / ....B 9  .X.X.X.X...| X...X.X.........} ............} [ ) _ _ _ _ W q ",
"% W ..| ....| ..............] ......} .._ ] | _ } } } } ..{ #.B 2 o.X...| ..X.X...X.............X.X...........} } [ _ _ _ / / q ",
"% W { | | ..] | ......O.....} ..} } } } } } ] [ } } } } ..} O.B 3 o...............X...X.....X.......X.X.O.O...{ } } [ / [ ) [ q ",
"% W [ | ..| ................} O.} } } } } } [ } } } } } } } O.B 2 X.........................X.X.#...#.......#.} } } } } [ / / q ",
"$ W | | } ............} } O.} ..} O.O.} } } [ } } } } } } } X.B 2 o.] ..........| ......X.+.X.X.X.X.....#.{ #.O...} } / ) ) ) q ",
"# E [ | | } | ] ........O.......} } } } } } } [ } O.} } ..} ..z 2  .......................X.X.X.X.....#.O.O.{ O...} } ' ) ) E q ",
"@ E | [ } } ..| } ..} ......} ..} O.} } } } } } } } O.} } } O.B 2 | ........] O.] ....O.X.X.+.+.X.X.X.O.#.......X.} [ _ ) ) ) q ",
"# W } | } | ] | ..} ....} O...O.} O.} } } } } } } } } } } } ..B 2 o.......] ..] ..........+.X.X...#.X.X.O.O.#...} } ] _ ) ) / q ",
"# E | } } } | } ] ..} ..} ..} ..O.} } O.} } } } } } } } } } O.B 3 ............] ........+...X.X.X.X.O...#.O.#.O.O.} } _ _ ) _ q ",
"# E [ [ } ) _ } ..] } ..} } } O.} } O.} } } ] O.' / K V / ' } V 2 | ] ..] T T ] ] ..] ..X...+.O.X.O.#.O.....} ..} / D T Y ) Y q ",
"# R [ [ L j j U ] ] ] ..} ..] ..} O.} } } } O.] D v j p l H ] z 2 o...T D a a c T } } ..O.....O.O.X.O.X...O.....T c j p S U ( 0 ",
"# E | T b R v l T ] | ] ] ..] ..} } ] } } } O./ D J E z j A ' B 1 | ..T v E L w T ` ] } ....O...X.O...O.....} _ S J R D e D ( q ",
"# E } D b ..T l T _ ] | } } } } } } } } } } } ' D J X.I k F ` z 3 | | T x | [ w H ] ] ] } O.} O.} ....} ..] ] _ S b X.) q G / 0 ",
"# E [ R j m Z A ` _ | ] ] ] } ] } ] } ] ] } ] ' L c Z n S G ] l 2 | ] R c C C c H ` ] ] ] } ] ..} ] } ] ] ] ] _ U S F f j H T 0 ",
"+ E _ _ R H U E _ _ [ ] ] ] ..[ ] O.] } ] } } ] T H D H H ( ] l 3 | ] ] R H A T ` ` ] ] ] ] ] ] ] ] ] _ _ _ ' _ ( H S S H U / 0 ",
"# R _ E [ ] _ _ ] ] [ ] ] ] [ ] ] } ] ] } ] ] ] ] ) ) ( ) ] ] A 2 ..] ] ] ] ] ] ] ] ] _ _ ] ] ' ' ] _ ' ) ' ) ) ) ( ) ( ( ( ( 0 ",
"# R [ _ | ] ] | ] ] ] | ] ] ] } O.' ] ] ] ] ] ] ] ] ] ] ] ` ] C 1 | ] ] ] ] ] O.] ] ] ] ] ] ] ] ] ] ] ] ] ' ' ' ) ' _ ' ) ' ) 0 ",
". 8 C f f f i f i i f i i i u u t t t r t t r r r 6 r r 6 6 6 * . w i u i u u u u u u u u i u u t t t u t t t t t r r r r r r O "
};
