/* XPM */
static char *result[] = {
/* columns rows colors chars-per-pixel */
"64 64 180 2 ",
"   c #010001",
".  c #080606",
"X  c #0A0907",
"o  c #060309",
"O  c #09060B",
"+  c #0C0A0C",
"@  c #110F0D",
"#  c #0E0C11",
"$  c #110D13",
"%  c #150F1A",
"&  c #0F1010",
"*  c #141414",
"=  c #191716",
"-  c #1B1917",
";  c #151418",
":  c #19151C",
">  c #171818",
",  c #1C1B1B",
"<  c #221E1D",
"1  c #23211F",
"2  c #1C1621",
"3  c #1E1C22",
"4  c #211C24",
"5  c #241F2A",
"6  c #242324",
"7  c #292524",
"8  c #2A2927",
"9  c #25222A",
"0  c #2C262D",
"q  c #2C2B2B",
"w  c #312D2E",
"e  c #30272D",
"r  c #33302F",
"t  c #2B2430",
"y  c #2F2831",
"u  c #322C33",
"i  c #352D39",
"p  c #2F3030",
"a  c #343333",
"s  c #393533",
"d  c #3B3836",
"f  c #363138",
"g  c #3B353B",
"h  c #3C3B3B",
"j  c #433D3C",
"k  c #403A37",
"l  c #3F403F",
"z  c #49413D",
"x  c #42413F",
"c  c #3D3541",
"v  c #3E3A43",
"b  c #433D42",
"n  c #493F46",
"m  c #4A3F49",
"M  c #463D4C",
"N  c #444144",
"B  c #4B4544",
"V  c #4D4946",
"C  c #474248",
"Z  c #4B444B",
"A  c #4E4B4A",
"S  c #514D4C",
"D  c #564C45",
"F  c #55514E",
"G  c #5A554E",
"H  c #4E4552",
"J  c #4F4952",
"K  c #4F4659",
"L  c #514653",
"P  c #534D56",
"I  c #5C4F55",
"U  c #544D5B",
"Y  c #545252",
"T  c #5A5453",
"R  c #5C5955",
"E  c #565259",
"W  c #5B545C",
"Q  c #5D5B5B",
"!  c #61555E",
"~  c #625E5D",
"^  c #625856",
"/  c #64615F",
"(  c #575060",
")  c #5B5261",
"_  c #5E5861",
"`  c #625463",
"'  c #635C63",
"]  c #685F66",
"[  c #665768",
"{  c #675C6A",
"}  c #695C6C",
"|  c #6C5D74",
" . c #6A5D7B",
".. c #645972",
"X. c #666363",
"o. c #6A6565",
"O. c #6C6B67",
"+. c #6C656B",
"@. c #6D6B6B",
"#. c #706867",
"$. c #71666E",
"%. c #726C6D",
"&. c #786E6F",
"*. c #716664",
"=. c #76706E",
"-. c #78706F",
";. c #6F6A70",
":. c #716671",
">. c #736C73",
",. c #7A6E72",
"<. c #776E79",
"1. c #786E79",
"2. c #71627C",
"3. c #767374",
"4. c #7C7374",
"5. c #7D7876",
"6. c #7D747A",
"7. c #7D7A7B",
"8. c #817577",
"9. c #817977",
"0. c #82767A",
"q. c #847B7C",
"w. c #887D7F",
"e. c #86807F",
"r. c #89807F",
"t. c #746683",
"y. c #827784",
"u. c #857C82",
"i. c #897E81",
"p. c #8A7E8B",
"a. c #867691",
"s. c #858282",
"d. c #8B8384",
"f. c #8E8887",
"g. c #878088",
"h. c #8D8689",
"j. c #8E898A",
"k. c #918687",
"l. c #918689",
"z. c #938C8C",
"x. c #988F8F",
"c. c #958E91",
"v. c #988F91",
"b. c #988E98",
"n. c #969192",
"m. c #9A9495",
"M. c #9E9897",
"N. c #9C9699",
"B. c #9E999A",
"V. c #A09799",
"C. c #A29C9D",
"Z. c #9F9FA0",
"A. c #A49EA1",
"S. c #A6A1A2",
"D. c #AAA4A5",
"F. c #ADA7A9",
"G. c #ADA9AA",
"H. c #B1ADAD",
"J. c #B4B0AF",
"K. c #AFAFB0",
"L. c #B4AFB0",
"P. c #B6B2B2",
"I. c #B9B5B6",
"U. c #BCB8B7",
"Y. c #BBB7B8",
"T. c #BDBABA",
"R. c #C1BDBD",
"E. c #C3BFC0",
"W. c #C5C2C2",
"Q. c #C8C5C5",
"!. c #C7C7C8",
"~. c #CBCACA",
"^. c #CBC7C8",
"/. c #D2CECE",
"(. c #D0D0CF",
"). c #D4D3D3",
"_. c #D8D7D8",
"`. c #DCDBDB",
"'. c #E4E4E4",
"]. c #ECECEC",
/* pixels */
"j.)._._.`.`.`.'.'.'.'.'.].].].'.].].].].].].].].].].].].].].N.3.(.].].'.].'.'.'.'.`.`.`.`.`._.).).(.(.~.!.!.!.W.E.T.T.Y.I.K.X.> ",
"Q P.P.P.P.P.I.I.I.I.Y.T.T.T.R.R.R.T.E.W.E.W.E.E.Q.Q.W.Q.W.I.W h 3.W.R.W.T.T.T.T.T.Y.T.I.I.P.P.L.L.G.G.K.G.F.S.S.S.S.A.B.B.B.N # ",
"/ K.G.G.L.I.Y.I.P.I.T.E.R.T.T.R.W.W.R.T.R.Q.Q.E.R.T.Q.W.!.T.P N X.T.T.T.T.E.E.T.I.I.T.T.I.P.L.P.P.P.G.G.D.G.G.D.S.B.S.S.Z.Z.N + ",
"/ K.G.P.A.X.+.G.I.I.t./ m.T.T.Z.] 4.Y.R.I.6.' A.E.E.N.` s.Y.Y N O.T.T.T.L.+.+.G.T.T.g.! f.P.P.B.{ $.D.G.D.6.! f.S.S.g._ +.B.N + ",
"~ K.G.G.H 2   Q !.y.3 O , K.P.g $   4./.:.$   a W.F.5 O + f._ N X.T.Y.E.H o . Y Q.h.# O < C.P.u o @ X.T.+.o $ r Z.N., # , 5.Z O ",
"/ H.D.P.E     o.W.j.o   6 P.I.f     s.!.<.    h E.K.>     m.E b X.T.I.E.A     ~ W.z.    1 F.P.a     7.I.3.    N D.B.1   * z.Z + ",
"Q P.G.P.I.X.O.I.Y.E.u.Q C.E.W.K.X.7.Q.E.!.7.o.P.Q.^.S.Q m.T.Y N o.Y.T.Q.I.Q 3.Y.T.Q.s.Q S.U.T.C.Y q.P.G.H.X.Q A.D.D.s.C s.S.N + ",
"~ G.g.o.N.T.T.A.;.q.R.Q.Y.u.%.G.~.!.C.>.z.~.~.I.y.,.I./.!.P.U N O.T.b.:.M.!.Q.G.1.6.I.W.I.g.$.M.R.I.N.:.6.H.P.D.6.X.m.G.Z.N.C + ",
"X.g.t # 7 D.F.C ; O z.R.<.2   h Y.D.i # + c.Q.] $   Y T.I.I.E b O.n.: o 7 S.U.v o + 5.R.6.# O s S.S.0 O - 5.G.' o ; V B.n.N.N O ",
"X.j.#   & D.K.f     s.W.;.    7 T.D.&     g.~.J     N W.U.P.P h @.j.    + D.U.6     3.W.O.    q G.A.&     s.H.A     Y S.n.B.N # ",
"Q I.3.a s.P.K.B.h Q G.P.I.X.h N.Y.T.z.h 3.T.T.G.Y Y G.T.I.P.P N X.I.@.d c.Y.U.c.h X.P.J.F.E h B.G.G.5.a >.H.C.m.b C S.B.n.m.C + ",
"_ F.G.P.G.B.D.I.I.T.H.S.I.T.R.T.F.P.W.R.W.P.F.R.W.W.T.F.I.P.P x X.I.E.R.I.D.F.R.I.R.P.A.L.I.P.L.A.D.H.G.H.A.N.S.D.D.B.n.m.B.C O ",
"Q G.S.D.<.g q j.P.B.L 9 Q P.P.<.y s M.T.B.b 9 =.I.L.} 9 B D.E N / I.L.I.u.t w s.P.S.H 9 R S.H.>.y g f.D.n.h q / B.M.W 0 N j.C + ",
"Q D.S.D.c     Z R.>.o   . S.G.2     X.~.'     > U.B.o     3._ l / P.P.I.y     l E.4.    . m.F.;     R P.O.    1 B.z.o   . %.A + ",
"R D.Z.G.7.O + 7.I.B.8   B P.P.Q   > c.E.j.;   Q Y.L.h   q f.E x / P.G.I.@.  & s.I.N.9   F G.G.S   , m.D.t.*   3.D.N.d   l s.v + ",
"R D.D.Z.U.B.B.P.D.P.G.B.P.H.G.W.D.G.Y.G.R.P.D.R.P.I.T.S.U.S.P N / G.I.H.T.B.G.T.G.P.G.M.Y.H.D.H.n.G.L.A.D.n.m.K.B.N.m.s.G.j.N + ",
"Q N.W u / G.G.t.g j C.I.B.L q 4.T.H.>.u A G.T.N.M w f.T.L.G.U v X.D.W 0 o.P.P.y.i j m.P.B.Z w =.G.D.X.i A m.A.g.b f 4.M.c.n.N O ",
"X.6.#   + M.S.w     3.T._     , P.M.*     5.E.M     r I.H.G.Y b O.q.      m.L.,     / T.'     - C.N.O     O.G.C     s N.z.m.N # ",
"R B.y   a S.D.Q   O h.P.h.+   A L.G.f   - m.Y.@.    X.I.H.G.P j X.n.*   s D.H.C   + h.H.7.o   Y F.M.q   6 B.A.X.    5.M.z.n.N # ",
"R G.G.s.M.G.D.P.n.n.G.G.I.B.7.K.L.P.K.j.A.I.L.I.z.c.I.I.P.F.P b Q L.Z.c.P.P.L.D.j.S.P.G.G.j.4.S.D.D.N.7.B.D.M.M.3.s.F.n.n.z.N + ",
"R C.C.D.S.g.f.S.G.K.m.d.C.H.P.D.z.M.H.P.P.N.j.G.P.I.F.j.C.G.J x / G.G.P.G.c.z.F.H.H.N.u.M.G.G.A.g.z.C.D.C.h.q.n.B.B.z.7.s.n.M + ",
"R Z.B.Z.' 2 . %.G.g.u   s D.D.U O + s.P.u.2   Z H.D.c   , z.W N / G.F.H.X.o O o.H.z.3   s N.S.Z   = &.S.7.$ + B n.n.f O 7 7.C O ",
"R C.N.B.v     B P.>.    O B.D.:     / R.X.    - H.n.      3.W b / G.D.H.q     h I.>.    . c.A.*     Q G.+.    8 N.h.X     5.A O ",
"Q B.B.S.m.a p j.D.D.Y 6 O.G.G.u.8 B B.P.B.N q 7.P.G.O.6 Q D.P b ~ D.D.H.s.7 h B.D.A.A 6 6.D.D.%.6 Y S.M.c.a q n.B.m.Y , %.S.v # ",
"R B.n.g.S.G.D.A.h.n.L.L.G.N.f.P.Y.P.F.h.S.T.I.I.N.v.I.I.I.S.P N R G.A.l.F.H.P.H.c.b.H.H.P.N.h.A.F.H.A.d.z.C.D.S.h.u.m.M.A.c.b # ",
"R n.c . V B.C.+.$ , z.S.c.t   ~ D.D.E   q N.F.i.; O &.F.S.S.P b / S.a   N A.S.+.  , w.C.z.5 . Y N.N.P o q s.m.6.; ; ~ c.d.j.v # ",
"Q 6.o   + n.M.9     Q J.W     - D.c.o     3.I.h     q H.S.A.U h o.3.      v.D.;     I P.W     - N.z.o     @.S.b     h n.j.j.b # ",
"Y Z.W * Y B.B.7., 8 z.S.m.h * o.D.D.' * h V.F.d.6 , 9.F.S.C.P b / N.d * ~ A.A.X.* d n.A.d.8 - 7.B.N.A + Y M.m.4.* 8 n.z.j.j.v # ",
"T N.G.A.M.m.m.D.G.S.C.V.S.P.G.S.B.A.H.G.D.S.C.F.G.S.F.C.S.C.P N ^ D.F.H.H.C.C.A.D.L.C.N.C.C.G.A.m.m.N.B.A.n.z.n.c.N.m.h.h.h.b # ",
"R B.n.m.M.B.C.m.B.C.C.C.C.C.A.C.S.S.A.S.S.D.D.S.D.D.D.D.F.A.L j ^ A.C.C.C.S.S.C.C.V.C.C.C.N.N.N.M.N.m.n.v.n.n.z.z.j.h.z.f.z.b # ",
"z 4.5.8.9.0.0.0.q.0.9.0.9.q.q.q.q.u.q.q.q.u.q.i.q.u.u.u.w.p. .n ^ 0.y.u.u.u.i.u.u.u.u.u.u.y.u.u.y.p.y.u.y.u.y.y.y.u.u.y.y.y.K # ",
"^ R T T T T I T T T T I T I I I T I I I I I I I I I T I I ! a.$.*.` ! ! ! ! ! ` ` ` ` ` ` [ [ [ [ [ { { { } | | | |  .| 2.2.t.3 ",
"j.T.I.U.T.T.R.R.E.E.W.W.W.!.!.^.!.~.~.~.!.~.~.~.~.~.~.!.~.).B.O.Q.`.!.^.^.!.W.W.E.W.R.R.R.T.T.Y.I.P.P.K.P.G.G.G.D.D.S.Z.Z.Z.@.; ",
"Q K.I.I.I.U.Y.T.T.R.R.T.R.R.E.E.E.R.W.W.W.E.W.W.!.W.W.W.W.T._ N d.Q.E.W.E.R.R.R.R.R.T.Y.T.T.I.I.P.P.P.P.K.G.G.G.G.D.D.D.D.B.N # ",
"Y j.j.j.j.j.c.f.j.j.x.m.c.z.c.c.m.m.z.n.c.m.N.n.v.n.n.N.N.c.J N T n.n.v.z.m.m.z.z.z.z.n.j.j.j.h.n.j.j.g.d.h.l.s.s.s.u.s.q.g.b # ",
"Y n.j.j.m.7.q.m.n.M.f.3.n.N.m.M.5.d.C.M.C.d.6.M.M.M.N.4.z.B.U N R M.m.M.B.u.q.M.m.N.z.4.c.n.v.N.6.q.m.j.v.p.,.l.j.j.j.<.q.f.v # ",
"F z.j.n.' #   o.M.s.9   s m.m.H   @ 5.C.6.#   V V.N.f   - s.E b ^ m.n.C.'     / C.d.4   w z.m.H   & %.n.4.;   z f.h.g   < 4.N + ",
"Y j.f.z.v     N C.@.    + z.n.3     R D.E     - M.h.      @.W b R m.n.V.y     h C.+.    X s.v.-     E N.P     8 f.u.O   O =.C # ",
"G j.f.z.j.l q e.m.m.W 6 / m.M.5.y j z.m.n.B 8 4.V.C.o.9 Y m.L N R m.x.V.7.6 x f.m.N.N 8 4.n.m.@., Q z.z.d.w h h.h.z.Y 6 ;.z.v + ",
"F j.f.5.m.B.M.n.5.f.Z.D.V.h.q.S.H.S.m.q.n.G.G.C.d.s.D.G.D.z.U b R m.b.q.m.C.F.C.i.d.m.D.S.h.q.v.C.D.v.q.s.n.A.m.y.4.f.m.M.s.b # ",
"G s.i   x f.f.W . < e.z.q.3   F c.z.Z   8 e.n.>.$ X / n.z.z.P N R z.y   d z.x.` O * 4.z.q.9   B l.d.H   < 8.d.$.- + R u.5.u.b + ",
"R ;.+   o d.z.9     X.B.E     * m.h.o     o.S.g     8 m.x.z.U j ~ @.      w.m.*     T C.P     - z.s.O     X.m.k     s h.q.i.b # ",
"A m.Q > B f.f.6.6 6 q.z.h.l * Q z.z./ > f h.x.6.q 1 &.n.z.z.L N R f.f * Q z.z.Q * h h.z.6.6 6 6.d.d.C * T z.s.+.> d j.u.q.q.b # ",
"A j.n.s.j.z.j.B.z.z.c.c.m.m.f.N.m.n.B.m.n.M.m.M.V.m.m.m.m.z.U C R z.m.z.V.m.m.n.z.m.m.x.v.f.f.N.z.x.z.h.v.z.z.d.d.z.j.h.g.u.b # ",
"F s.e.d.7.C V s.d.z.! s =.f.z.6.g T f.z.z.P d 9.z.c.4.f ' z.U C T z.k.z.u.N B w.l.z.] f O.l.h.0.b S i.s.s.! g &.i.q.>.h T q.b + ",
"F d.e.f.M     V n.@.o   * h.j.t     ~ M.'     7 z.d.$     @.E b R f.z.n.b     j n.>.    @ q.z.q     T x.'     7 i.u.:   . o.C + ",
"A d.e.s.E +   A c.3.,   , d.h.d     Q m.X..   q z.u.,   + X.W b T f.d.z.h     Y x.#.    w q.d.9   * o.l.W     A s.0.>   q o.b # ",
"A e.d.f.m.5.@.s.j.n.d.3.q.z.c.m.7.7.f.v.v.s.7.f.n.n.f.7.d.4.P N G h.z.n.l.o.s.n.z.x.4.6.M.z.v.q.O.v.z.k.h.X.s.M.i.h.;.o.M.4.c $ ",
"A e.X.B =.z.z.q.Z ~ z.m.z.! V q.M.n.4.N #.V.m.l.W S k.C.z.w.U C T l.>.B ,.m.v.i.L R l.m.l.+.B 5.b.z.6.H ^ z.z.i._ Z 0.l.i.4.b $ ",
"F ;.%   < q.s.g     o.f.]     w d.s.4   . #.x.P     k k.d.s.U C R >.o   * q.l.f     ^ z.{     7 q.u.9   . / i.I     k 0.6.0.b # ",
"F 6.3   * 9.s.v     X.z.' +   6 f.u.6     O.x.Z     h z.d.d.U N R %.    - q.l.6     ~ v.T     s s.0.@   , %.l.b   + F q.8.0.b # ",
"A f.j.X.O.e.q.z.3.X.q.e.f.e.Y 3.d.h.s.@.%.d.s.s.%.@.d.d.d.s.U C T d.3.%.d.d.d.4.X.h.h.u.q.X.R q.i.i.o.~ g.h.9.4.Y 7.m.5.6.6.b # ",
"A q.f.z.r.e.w.d.n.z.d.d.d.z.f.f.d.d.z.m.z.f.d.d.z.n.z.d.l.s.U B T s.z.V.f.g.d.k.m.n.d.d.d.k.k.d.d.i.d.z.k.w.q.q.i.d.u.q.0.0.b $ ",
"A q.5.5.o.< 8 &.9.5.h * T e.d.! - s 9.e.0.u < ~ d.s.E = j w.U C G s.q.w.;.7 6 %.q.q.n ; V w.w.+.4 e &.0.8.g - T q.0.W - f 8.b $ ",
"V 9.5.e.b     h f.{     X 9.s.5     S x.Y     - d.0.O     ~ ) Z G s.w.z.y     s z.]     + 4.d.:     F l.I     7 0.8.+   X ~ M + ",
"A q.5.q.:.p , Q r.6.N , h q.q.Q 6 7 O.d.>.u - F r.q.Z > s 5.( Z T w.q.i.T - q %.i.>.8 , W q.w.N * N 5.q.+., 0 @.0.4.u , R i.b $ ",
"A 9.q.9.c.c.f.q.r.r.c.M.r.s.w.n.S.c.d.i.d.V.C.d.d.d.x.C.N.q.E Z G q.d.i.l.d.C.z.w.k.s.V.V.w.i.i.z.A.d.w.i.q.V.V.q.w.0.d.A.q.b $ ",
"V i.C < / q.q.+.< z q.9.e.h 1 #.q.d.~ < S s.w.w.r q -.d.q.q.( Z F h.P , ^ i.w.1.9 s 8.w.i.Z < ~ u.q.$.5 j 0.8.0.b 4 o.0.,.8.b # ",
"S %.;   @ 4.q.i     Y k.'     1 w.q.:     / k.Z     r s.9.q.E Z R %.    + 4.i.0     D k.!     6 0.q.-   o ^ i.m     d 0.8.8.b # ",
"V 6.l - 8 5.9.Y 1 > ~ r.+.q * k q.5.b = 6 %.d.W , = F u.q.0.( Z G &.6 * x 0.w.k $ 0 #.i.~ * , T q.8.q * x ,.q.L $ w o.8.,.1.b $ ",
"V q.m.s.4.5.4.z.c.q.9.8.u.m.f.q.9.9.z.z.q.w.8.w.f.f.s.q.q.8.) Z G w.d.z.z.0.w.9.d.m.i.8.0.8.c.z.8.q.8.q.p.u.8.8.,.k.p.,.1.8.b # ",
"V 5.5.9.5.5.8.5.e.9.9.9.5.q.q.5.9.8.9.w.9.8.q.8.w.q.9.0.w.8.U Z F 8.w.w.9.9.w.8.w.q.8.q.0.q.w.8.8.8.8.q.8.8.8.8.8.8.8.8.8.8.b # ",
"V -.=.&.&.-.&.-.=.=.8.&.-.4.-.4.8.,.4.&.8.4.8.8.&.8.4.4.-.8...Z G 4.8.&.-.8.4.&.,.,.8.,.8.,.,.8.,.8.8.&.8.8.,.8.,.,.8.,.,.1.M % ",
"z j z j z b z n z j j n j j n j j n j j n j j n j b j n n Z t.! D b b n n n n n n n n m m m m m m m m m m m m m L M L m L L  .5 "
};
