/* XPM */
static char *lightwall1695480475[] = {
/* columns rows colors chars-per-pixel */
"64 64 135 2 ",
"   c #0B0C0B",
".  c #0D130D",
"X  c #0E190E",
"o  c #0F1710",
"O  c #0F1C10",
"+  c #131413",
"@  c #141C14",
"#  c #1B1B1B",
"$  c #0F240F",
"%  c #0F3F0F",
"&  c #142314",
"*  c #132C13",
"=  c #1B241B",
"-  c #1C291C",
";  c #123412",
":  c #133C13",
">  c #1A311B",
",  c #1A3C1A",
"<  c #20211F",
"1  c #222322",
"2  c #242A24",
"3  c #2B2C2B",
"4  c #263226",
"5  c #2B342B",
"6  c #333433",
"7  c #353D35",
"8  c #3A3B3A",
"9  c #0F440F",
"0  c #0E4B0E",
"q  c #134413",
"w  c #154D15",
"e  c #1C441C",
"r  c #1A4C1A",
"t  c #165516",
"y  c #185117",
"u  c #155D15",
"i  c #1A531A",
"p  c #195D1A",
"a  c #146414",
"s  c #156C15",
"d  c #1C651C",
"f  c #1C6D1C",
"g  c #147413",
"h  c #1C751C",
"j  c #1C7C1C",
"k  c #215321",
"l  c #225C22",
"z  c #374137",
"x  c #3F413F",
"c  c #216221",
"v  c #216C21",
"b  c #217021",
"n  c #434543",
"m  c #178B17",
"M  c #1B831B",
"N  c #1B8C1A",
"B  c #189017",
"V  c #1C941A",
"C  c #1D9A1B",
"Z  c #24971F",
"A  c #209F1D",
"S  c #1EA01B",
"D  c #21A41D",
"F  c #25AA1F",
"G  c #259B20",
"H  c #2AA322",
"J  c #27A920",
"K  c #2BAC22",
"L  c #31AE26",
"P  c #37AB2A",
"I  c #39AD2B",
"U  c #2FB324",
"Y  c #32B326",
"T  c #32B826",
"R  c #3BB42B",
"E  c #40BA2E",
"W  c #44B631",
"Q  c #46BB31",
"!  c #4ABA34",
"~  c #52BD39",
"^  c #59BD3D",
"/  c #43C32F",
"(  c #4DC335",
")  c #4EC835",
"_  c #52C837",
"`  c #54C239",
"'  c #58C23B",
"]  c #55C939",
"[  c #5FC240",
"{  c #64C543",
"}  c #69C546",
"|  c #68C945",
" . c #6CC648",
".. c #6ECC49",
"X. c #73C74D",
"o. c #74CA4D",
"O. c #69D245",
"+. c #77D34D",
"@. c #7BD64F",
"#. c #78CA50",
"$. c #82CF54",
"%. c #8ACF5A",
"&. c #84D155",
"*. c #8BD35A",
"=. c #8DDA5B",
"-. c #92D45E",
";. c #92D95D",
":. c #97D661",
">. c #99D663",
",. c #99D962",
"<. c #A0D667",
"1. c #A4DA6A",
"2. c #ABDB6E",
"3. c #B4DF73",
"4. c #BADF77",
"5. c #B6E175",
"6. c #BDE279",
"7. c #C4E47D",
"8. c #C7E786",
"9. c #C9E683",
"0. c #D1E985",
"q. c #D4E98A",
"w. c #D8EB8B",
"e. c #D6EC95",
"r. c #DAEB92",
"t. c #E4F09B",
"y. c #DEEEA1",
"u. c #E4F1A4",
"i. c #E9F2A4",
"p. c #EBF3AC",
"a. c #EFF5B4",
"s. c #EBF5BB",
"d. c #F1F7C3",
"f. c #F2F7CC",
"g. c #F3F8D3",
/* pixels */
"        + + + # # # # # # # # # # + # # + # # + # + # + + +               + # # # # # # # # # # + + # + # # # # # + # + # +     ",
"          + # # < # 1 1 1 # # # # # + # # + # # # # # # + + +             + + # # 1 1 1 1 # # # # # # # + # + # # # # # + + +   ",
"          + @ 1 3 3 3 3 3 3 1 1 < # # # # # < < < < # + + + + +             # 1 3 5 5 3 3 3 1 1 < = # # = = # = 1 < # @ + + + + ",
"        . + # 2 6 7 8 z 7 5 5 3 2 1 - - 1 - 2 2 2 2 # + + + + #         + + # 1 6 7 8 z 8 5 3 4 2 < < 1 < < 2 2 2 < # + + + + + ",
"+ + + + + + . @ - 5 5 5 5 2 2 - - = = = = = = - - & X o o + # + + + + + + + o # - 4 5 5 5 4 > < - = & - = - - - - & + . + + # # ",
"+ # 1 # +       . @ & & & & & & @ $ $ O $ @ $ @ X . .   + + # # # < < # +       . & & - & & & & & @ @ O & O O @ X . . . + + 1 + ",
"# 1 1 1 @   . X & $ * ; ; : : ; ; ; ; ; ; * & & O .   . @ < < # # < 1 1 O .   . X $ * ; ; : : ; ; % ; ; * * * $ X .   . + # 1 + ",
"# 1 1 1 # . X * : y t u u a a a a a u p t y e , > & o . # < < + # < 2 1 & . X * , y y p u a a a a a u u t y e , > & .   # 1 1 # ",
"# 1 2 2 = X & , p b j M m N B V V V B m j h v l e > O o 1 1 1 # < 1 3 1 = o & , p h j M m B N V V B N m j h v l e > X X - 2 1 # ",
"# 1 3 3 = O : i h M V S D U R Q ( R T J C B M v k , & O - 1 1 # # 1 3 3 - O : i h M V C F U R E Q E T J C V j b k , & + - 2 1 # ",
"# 1 3 3 < & e a M C D Y ( | @.-.:.&.O.) T F V M c e & O 2 3 1 < # < 3 3 - O q d M C D Y ( | &.*.;.*...) T D V M d e & $ 1 3 3 # ",
"# 1 3 4 < $ w h N D Y ` #.>.2.3.5.2.,.+._ T D N f w * & 2 5 6 1 # < 3 3 - & w f B S Y ` #.,.2.5.5.2.,.+._ T S N f r * @ 2 6 3 1 ",
"# 1 3 3 < & t g V F Q ..,.6.0.w.q.8.3.=.O./ K C h y * & 2 6 6 1 # 1 3 2 < O t g V K Q ..,.6.0.w.w.8.2.=.O./ U C h y * & 2 7 6 1 ",
"# 1 3 2 & & 0 g A Y ' &.5.w.t.p.p.y.8.1.@.) U C j t * & 5 8 6 2 # 1 3 2 = & w g C Y ' &.5.w.t.p.p.y.8.1.@.) U C M t * @ 4 8 6 2 ",
"# < 3 2 = X 9 s Z Y { -.7.t.a.f.g.s.e.5.=.] T S M p ; @ 5 8 8 1 # < 3 3 # O 9 s C R [ -.7.t.a.f.g.s.e.6.=.] Y D M p * & 3 8 8 1 ",
"# < 3 2 & X 9 a Z R | ,.7.i.s.g.g.s.e.6.;.] T C M p ; & 3 x 8 3 # 1 3 1 & O 9 a V R } :.9.u.s.g.g.s.e.6.;.] Y A M u ; & 5 8 8 3 ",
"# 1 3 1 # + 9 a V R { -.7.t.s.f.d.i.q.3.%.' Y C M p ; = 5 8 8 1 # < 3 1 & X % a V I { :.9.t.s.f.d.u.8.5.%.` L G M p ; = 5 8 8 2 ",
"# < 3 3 @ X % a B L ^ &.3.w.i.a.p.r.4.<.#.~ L V j p ; = 5 8 8 1 # 1 3 2 # . % a V L ~ $.4.w.i.a.p.e.6.1.$.~ K V j p ; = 5 8 8 1 ",
"# < 3 1 & X % a B J Q | -.4.q.r.w.7.2.-.X.! H N h i ; = 5 8 8 1 # 1 3 2 @ X % a N F Q | -.4.q.r.q.7.1.-.X.~ G Z b i ; = 5 8 8 1 ",
"# < 3 1 # + q a N S L !  .%.>.2.1.>.%.X.^ I G M b i * = 5 x 8 1 + 1 3 2 & @ q f m D L !  .%.>.2.1.>.%.#.^ I G N b i * - 6 8 8 1 ",
"# 1 3 2 & & q d M C S U W { X.o.#.X.} ~ P G M b v r * - 6 x 6 1 # 1 3 1 @ @ q d M C D L Q ' ..#.#.X.} ~ P G N b c r > - 5 8 8 1 ",
"# 1 6 3 = + q d j N C S F Y R Q ! W I H G M M b l , = - 6 x 6 1 # 1 3 3 = @ q p j m C C F U R ! ! W I H G N M b c e & - 7 x 8 < ",
"# 1 3 3 = X ; i f g M m B V C C C V V N M h b c k , = - 8 n 8 1 # 1 3 3 = o , y f j M m B B C C V C B m j h f c k , & - 7 n 8 < ",
"# 1 3 3 = . & , w t u a s g g g g g s a a p r k , > & - 7 n 8 < # 1 6 3 = . & ; w t a a s g g g g g s s u p i e , - & = z n 8 < ",
"# 1 3 1 #   . X ; ; % 9 q 0 0 0 0 0 0 q 9 : ; * & X X = 8 n 8 < # 1 3 3 +   . @ * ; % 9 9 0 0 0 0 0 9 9 9 % > & & @ o = 7 n 8 1 ",
"# 1 3 1 +       . . X . X X . X o o . X o . o .       @ 6 x 6 < # 1 3 1 +         o o o o . o o X X o o o o o         @ 5 x 6 < ",
"# # 1 +       + + @ @ = # = # # = = = = = = < # o   . @ 3 6 3 # # # 1 + +     . + # # # = = @ = = = = & = = < < .     # 3 6 3 < ",
"# # + + +   + # # 1 1 1 3 3 3 3 3 3 5 3 3 6 7 6 1 # + + 1 3 1 # # # + +     + # # < < 1 2 3 3 3 3 3 5 3 3 6 6 6 2 @ + @ 1 3 1 # ",
"+ +         + < 1 2 1 3 3 6 6 3 5 6 6 6 8 x x x 8 1 # # + < # # #         + + 1 1 1 3 3 3 3 6 6 6 6 6 6 8 8 x n 8 1 # # # # # # ",
"+         + # < 1 1 1 2 3 3 3 3 3 3 3 3 6 8 8 8 8 6 1 # + + + #           + # < 1 1 1 1 3 3 3 3 2 3 3 6 6 8 8 8 8 3 1 # + + # + ",
"          + + # # # # # # 1 # 1 # 1 1 1 1 3 3 3 3 1 1 # + + + +           + # # # # # # < < < # < < < < 1 3 3 3 3 3 1 + + +   + ",
"          + + + + + + + + + + + + + + + + # + # + # + + +                   + + + + + + + + + + + + + + + # + # + # + + + +     ",
"      + + + + # # # # # # # # # # # + # # + + # # + # # + +   +           + # # # # # # # # # # + # # + + # # + # # # # + +     ",
"          + + # # 1 1 1 # # # # # + # # # # # # # # # + + + +             + + # # 1 1 1 1 # # # # + # # # # # # # # + # + +   + ",
"          + # 1 3 3 5 3 3 3 2 1 # # # # # # = 1 # 1 # # + + + +           + # 1 3 5 3 5 3 2 1 1 = # # # = # = - # = # # + + + + ",
"        + + @ 2 6 8 8 7 7 6 5 4 2 1 1 - 1 - 2 - 2 = # + + + + +         +   # 1 6 7 8 z 7 6 5 3 2 2 < < < < 2 < 2 1 # + + + + + ",
"  + # + + . + @ < 4 5 5 5 4 < < - & = - & - - - = & X . . + # # + + + @ + + + @ - 4 5 5 5 4 < - - = - & - = - - - & . + + + # # ",
"+ # # # + .     X & = * & & * & @ & @ @ @ @ @ @ + . . . + # # # # # < # +       . + & - & & * @ & @ X @ @ & @ O X . . . + # # + ",
"# 1 1 1 @   . . $ & * ; ; ; ; % ; ; ; ; ; * * & O .   . + # # # # 1 1 1 o . . . @ * * ; ; ; ; % ; % ; ; ; * * & X .   . + # 1 # ",
"# 1 1 2 & . X * : y t t u a a a a a a u t y e , > & . . # 1 1 # # 1 1 1 = . X * : y y p a a a a a a u u t w e , > & . . # 1 1 + ",
"# 1 3 2 = X & , p h h M m m V V V B B M M h d l e - @ . = 2 1 # # 1 1 3 = o & , p h j j m m B Z V V N m j h c l e > O X = 2 1 # ",
"1 1 1 3 = @ : y h M V S D U R Q / R T F C V M b k , & @ - 2 1 # < 1 3 1 - O : y h M C C F U R E Q E Y F C V M v k , & O - 2 1 # ",
"# 1 3 3 - @ q d M C D Y ( | &.*.;.*...) T D V j d e & $ 2 3 3 # # 1 3 3 - & q d M C S Y ( | &.*.;.&...) T F V M c e & X 1 3 3 # ",
"# 1 3 3 = & w f N D Y ` #.,.2.5.5.2.,.+.] T D N f w * X 2 5 3 1 < 1 3 3 = @ y s B S T ` #.,.2.3.5.2.,.+.) T D N f y * @ 2 6 3 1 ",
"# 1 3 3 = $ y g B K Q ..,.6.0.w.q.8.5.=.O./ U V h y * @ 2 6 6 1 # 1 3 2 1 & t g V K Q ..,.6.0.w.w.9.2.=.O./ U C h y * & 4 6 6 1 ",
"# # 3 2 = & t g C Y ' &.5.w.t.p.p.y.8.1.@._ U C j p * & 3 8 8 1 # 1 3 2 = $ t g C Y ` &.5.w.t.p.a.y.8.1.@.) U C M t * @ 5 8 6 2 ",
"# 1 3 2 = O 9 s C R { ;.7.t.a.f.f.s.e.5.=.] T D M p * & 5 8 8 1 # < 3 3 # O 9 s V R { :.7.t.a.f.g.s.e.5.=._ Y D M p * & 3 8 8 1 ",
"# 1 3 2 @ X 9 a V R { ;.8.t.d.g.g.s.e.6.;.] Y S M p ; & 5 8 8 3 # < 1 1 = X 9 a V R { :.9.t.d.g.g.s.e.6.;.] Y A M u ; & 5 8 8 3 ",
"# # 3 2 & + 9 a B R { ;.9.t.s.f.d.y.8.4.*.` Y C M p * = 5 8 8 1 # # 3 2 @ X % a B R { -.9.t.s.f.d.u.8.5.*.` K V M p ; = 5 8 8 2 ",
"# 1 3 1 @ X % a V L ^ $.3.w.i.a.p.e.4.1.#.~ K Z j p ; = 5 8 8 2 # 1 3 2 # . % a B L ^ $.3.w.i.a.p.e.6.1.$.^ K G j p ; = 5 8 8 2 ",
"# 1 3 2 # X : a B J Q | -.4.0.r.q.9.1.:.o.! H V b t * - 6 8 8 1 # 1 3 2 & X % a B J ! | -.4.q.r.q.7.2.-.X.! G Z b p > = 6 8 6 1 ",
"# 1 3 2 & X q a m C Y !  .%.<.2.1.>.%.#.^ P G b b i * - 5 8 8 1 # 1 3 2 @ @ q f N A Y !  .%.>.2.1.>.*.o.^ I G N b i * = 5 8 8 1 ",
"# 1 3 1 1 + e d m C S U ! {  .#.#.X.} ~ I G M h v e * - 6 x 6 1 # 1 3 1 & @ q d M C D U Q ' o.#.#.X.} ~ P G N b c r * - 5 x 8 < ",
"# 1 3 3 = @ q d h m C C D P R ! ! W I H G N M b c e * - 7 x 8 1 # 1 3 3 = @ q p j N C C F U R ! ! W I H G N M b c , * - 7 x 8 < ",
"# 1 3 3 # + : r f h m m B B C A C V V N j h b c k , * < 7 n 7 = 1 1 3 3 = + , r f g M m m B C C V V V m j h f c k , = - 6 n 8 < ",
"# 1 3 3 = . * : w t u a g s g g g g s a a p i r , - @ - z n 8 1 # 1 3 3 # . * : w t a a s g g g g g s s p p y e , - & - z n 8 < ",
"+ 1 3 2 +   X + * ; : 9 9 0 0 0 0 0 0 9 : : : * & o o < 8 n 8 1 # 1 3 3 +   . @ * : % 9 9 0 0 0 0 0 9 9 % : ; > & & . = 7 n 8 1 ",
"# 1 3 1 o       . . X . X X . X . . o X X X o .       # 6 8 6 < # 1 3 < +         o o o o o o o . X o o o o o         # 5 x 6 < ",
"# 1 1 # +     + X @ @ # # & = = = = # 1 = = = = o     + 3 6 3 < # # 1 + +     . + + # < # = = = = = = = = = 1 # .   . # 3 6 3 < ",
"# + +   + . + + # < 2 2 2 3 3 3 6 3 3 3 3 5 6 6 1 + + # < 3 1 # + # # +   + + @ # < 1 1 2 3 2 3 3 5 5 3 3 5 6 6 1 # o + 1 3 1 # ",
"+ + +     + + 1 1 1 1 3 6 3 6 6 3 6 6 6 8 8 x x 8 1 # + # # # # +         + + 1 1 1 1 3 3 3 6 6 6 6 6 6 8 8 x x 8 1 # # # < # # ",
"+         + # < 1 1 1 1 3 3 3 3 3 3 3 3 6 8 8 8 8 6 1 # + + + + +         + # # 1 1 1 1 3 3 3 3 2 3 3 3 6 8 8 8 8 3 1 # + + + + ",
"          + # # # # # # # < # 1 < 1 < 1 1 3 3 3 3 3 1 + + +   +           + # # # # # # 1 < < # < 1 1 1 1 3 3 3 3 3 < + + + + + ",
"          + + + + + + + + + + + + + + + + # # + # + # + + +               + + + + + + + + + + + + + + + # + # + # + # + +       "
};
