/* XPM */
static char *redlight1695480731[] = {
/* columns rows colors chars-per-pixel */
"64 64 84 1 ",
"  c #0C0101",
". c #140202",
"X c #1D0202",
"o c #240202",
"O c #2C0202",
"+ c #330303",
"@ c #3C0303",
"# c #430303",
"$ c #4B0303",
"% c #530404",
"& c #5C0404",
"* c #640404",
"= c #6B0404",
"- c #730505",
"; c #7B0505",
": c #830606",
"> c #8C0505",
", c #920606",
"< c #9B0707",
"1 c #960808",
"2 c #A30707",
"3 c #AC0707",
"4 c #A60909",
"5 c #AC0808",
"6 c #B00707",
"7 c #B40909",
"8 c #BB0909",
"9 c #C30909",
"0 c #CB0A0A",
"q c #D40B0B",
"w c #DC0B0B",
"e c #C51212",
"r c #CD1111",
"t c #D31313",
"y c #DC1212",
"u c #D51919",
"i c #DC1B1B",
"p c #E30D0D",
"a c #E90E0E",
"s c #E41414",
"d c #EC1414",
"f c #E41A1A",
"g c #EB1B1B",
"h c #F11414",
"j c #F41C1C",
"k c #DD2121",
"l c #E12424",
"z c #EC2121",
"x c #E62929",
"c c #EB2D2D",
"v c #F32525",
"b c #F82424",
"n c #F52C2C",
"m c #F92C2C",
"M c #ED3131",
"N c #F43333",
"B c #F93333",
"V c #F53A3A",
"C c #F93B3B",
"Z c #F74242",
"A c #F94444",
"S c #F94C4C",
"D c #FA5454",
"F c #FA5C5C",
"G c #FA6464",
"H c #FA6D6D",
"J c #FA7373",
"K c #FB7B7B",
"L c #FB8282",
"P c #FB8C8C",
"I c #FC9393",
"U c #FC9C9C",
"Y c #FCA3A3",
"T c #FDAAAA",
"R c #FDB4B4",
"E c #FDBCBC",
"W c #FDC3C3",
"Q c #FECCCC",
"! c #FED4D4",
"~ c #FEDCDC",
"^ c #FEE3E3",
"/ c #FFECEC",
"( c #FFF3F3",
") c #FFFEFE",
/* pixels */
"$#@++#$%&&******==*%#$&=&%$$$#$$$$$$$$$%%%&**=*&$#@##$%%$##$$$$$",
"$@OoO+#$$%&&&&&&==*$#$*=*%%$$$$$$$$%$%$%%%&*===&$#@@@@##@@@@@@##",
"#+OoO+@$%%&&&&***=*%##*==&&&&&&&&&&&*&*&%%%&*==&$$######@@@+@@#$",
"@+O+o+@#&*******=-=$#$*=-;-;;;::>>::;;;-*%#$*--=*&&%%%%$#@O+##%&",
"$@@O+;75;==-==----=$#$*-:<8tlcNVVVNcft7,=$##*-;:;--=*&&&$$@+@$%%",
"$$$O@<ur;----;;;:;=$#$*>0vDGHHHJHJJHHGSg2&#$*-;::>;;==*&191%@$%%",
"&$%@$9g5---;:>>>:;=$#$=7jSGJJJJJJJJJJHFm9-$$*-;:>>>:;-=*1mt:+%$$",
"&&&%$;;--;::>>>>>;-%#$;8jDHJJJKJKJJJJHFm9=$$*;>>>>>>>:-==70:$%$$",
"&&&&*=--;:>>>>>,<2:%#$;8vDJKKKKKKKKKKJGm9-$$*>692,,>>>:-=***%$$$",
"&&&&*=;;>,,>,,,7p0>%#$;0mGKLPPPPPLPLLKGN0=$#*>8hg81,>>>:-=*&&%#$",
"%%&&*=;>>,>,,1qBmq>%#$;0mHLIIIUIUIIIPLJB0=$$*>9jSAt<>,,>;-*&&$$$",
"$%%&*;>>>>,><iDDnq>%#%;0CJUYTTTTTTYYUIKZ0-$#&>9hSGDi<>>>>;=&&%$$",
"$%&*=:>,>>,1iFHFBw>%#$;qAPTREEWWEWERRYPSq-#@%:9jSGHGi<,,>:;*&%$$",
"%&*=-:,>,,1iFJHFBw>#+#:wDUWQ!!!!!!!QWEUFw-#+$:0jSGHHGi<>,>;=&$$$",
"&*==->>,>1rDHJHGCw:#+#;yFTQ~^^^^^^~~~QTGy-#+$;9jDGJHJDq,>>:-*%$$",
"**=-;>>>,7VGHGHFBw:#+@:wGT!^^^^^^^^~~QRHy-@+$:9jSGGHGGZ8,>>;=%%$",
"&*==-::><sAASSSAbq:@O@;qSIREEEEEEEEERRIDq=@+$;8hBSSSSSAd<>>:-*&%",
"&&***---<wppasspw6=@O@=7dCDFFFFFFFFFFDAv7*@O#=<0sddhddda6;;;-*&%",
"$$$##$$%-::::>:>:=$OoO$-147888888888887<-$OXO%=><<<<12221-=**&%%",
"#@+O+++@@@##@@+OOOo...oO@@@@#@#@@##@##@@Oo. XO+@@@@@#%%&&%$$##$$",
"#@+++O+++++OooXXXX.    .X.XXXXXXXXXXXXXX..   .XXXXXXXo+@+@++OO+#",
"&%%%$$$$$##@@OOoooX.  .ooooXXXoooXXXXoXXX.   XXooXoooO+++++++O+$",
"=======----==***&&$oXX@$%&%&%&%%%%%%%%%$@OX.o@$$$$$$$%&&&%%%$#$&",
"-----:<<<2<222421>*+oO%:<566656566666541;$Oo+&;,<22<<<1111,:==**",
"=---;5wwwpwppddds8-+oO*5pvnnnnnmmnnBnnvp5&+o@=4wdgjhdspwpww6;-=*",
"*=--:smBmBCADFHGCw:@oO=0CJPIIIIIIIIIIIKAq=+o+;9mGKJHFSAVBBnd,-=*",
"*=--1CFDFGHJLUYUJd>+oO-yGTQ!~!!!!~!!!QEJs-+o@;yDUERTILJHGFFA5--=",
"&=--6DHHHJKPUREELv>+o+;sKW^((((((((((/!Pg;+o@;sGR!~QRYPKJHHF9;==",
"&=--9GJJJKPITEQWPv>@oO;sKQ())))))))))(~Iz;+o@:sHW^^~WTUPKJJHu;-=",
"&=-;uHHHJLLURW!WPv>+o+-fKQ/))))))))))(~Iz;+o@:sHW//^QRUPLJJHk;==",
"%==-kHJJKKPURW!WPv>@oO;fLQ())))))))))(~Ig;+o@:sHW^(^!RYPLJJHx:-=",
"&=-;kJHJJLPYRQ~QPv>+o+;fK!())))))))))(~Iz;+o@;sHW/(^QEYILKJJc;-=",
"&==;lHHJKKPURQ~QPc>+o+;fK!())))))))))(~Iz;+o@:pHW/(^!EYPLKJHM;-=",
"&*-;lHJJJLIYEQ~QIv>+o+;sKQ()))))))))))~Ig-+o@:sHW/(^!EYPLKJHc;==",
"&*-;kHJJJLPUR!~QPv>+o+;fK!())))))))))(~Iz;+o@:sHW/(^!RYILKJHx;-*",
"&*=;uHHHJLPURQ!WPz:+o+;fKQ/))))))))))(~Pz;+o@:yHE^/^QRUPKJJHi;-*",
"&*-;eFGGHJKPYEWELz:+o+;sHE^//////////^QLg-+O@:yFR!~QEYPKJHGGr;=*",
"*=--5BASSDFHKIUPFd;+o+-qDITEEEWEEEEEERUGy-+o@;qAPYTUPJGFSSAV7-==",
"&*==:wsssgggvNBNg8=OoO*5fNASSSSDDSSSSSVg5&OoO*4yvVVNvzgdspsq:=**",
"%%%%&->>>:>>>,,,>=#o.X@&->>>>>>1>,>,>>:;&@X.o#=;,<<1,>:::::;&%%%",
"##@@@#####@@@@@@@+o.  XoO++++O++++++++OOoX. .o@#######@##$$##@@#",
"$#@+++@@@+OOOOOOOoX   .XXoXXoXXXXoXXXoXoX.  .XOO+O++OOOO+@@@@@@@",
"%%$$##$$$#@@+@+@@+O...XO+O++OO++++O++O+OOX...O+++@+++@@+@$$#$$$%",
"****=*=--========&$+oo#%*****=*********&$@Oo+$&&&&*&*&**===*****",
"==--;-;<224334654>=#O+%:4889989898998884;%++#=><555342222<;;--=-",
"=*=-;::6paaadhhdp7;$++&4smCCAAAAAAAAACBd7=#+$-4whjjhdaaap7::;===",
"*&&=-:><gCCCASSSmq:$++*9ALUYYTYTTTTTYYPDt-#+$;9bSFFSAACCj2>:;=**",
"&%%*=;>,rSFGGHHHAp>$+@*tGR!~^^^^^^^~^~WKf;#+$:qBHKKHHGFDq,>>;=&&",
"%$%**-:>2zHHJKJHAp>$+@=tJW^((()()()((/!Pg;#+$:qCHLLKJHHc2>>,:=&&",
"*%%&=-;>,6VHJJJHAp>$++=qHW/())())()))/!Pf;#+$>qmGKKJJHA7,,,>;=&&",
"=*&*==;:>,9DHJJGCw>$@#-tGR~^//(///(//^QLs;##&>0mFJKJJD0,>>,>;=*&",
"-*&&=--;>>1tDJHGBw:%#$;qDYQ!~^~^^^^~~!RHs;$$*>0bFHJJFt1,>,>>:=&&",
";=&*==-;:>,1tFHFmq:%#%;0SIRWWQQQQQQQWEYGw;$$*>9jDGJFy1,>>,>>;==*",
";=*&*---;:>,1tSDmq:%#$-0CKUTRRRRRRRRRTIDq-$$*>9jDGDt1,,>,>>:;--=",
";=&%*=---;:>><9Nmq:%#$;9BHPUUUUYYYYUUILA0-$#*>9hSVr11>,,>>:-----",
";*%$&=----;:>>15w0:%#$-9mGKLPPPIPPIPPLHC0-$$*>9hs71,,>>>>:;-----",
"=%$$*;-----;:>>>,<;$#%-8bFJKLKLLLLKLLKGB0-$$*>68<,,,,>>>:-------",
"&$$#=y9;=----::>>:=$#$-8vDHJJKKJKJKKJJFN0-#$*;>>>>>>>>:;-;:&*===",
"%##+*rv7---=--;::;*$#$-7jDHJJJJJJJJJJHFm9=##*-::>>,>::;-<i0&$&&=",
"%#$+@:62-------;;;*$##*>0vSGHHJHJHHHHFAf<%+@&-;:>>:;----8i4#+$%&",
"&#@@oO#$=--=------*$@#&-><6rulxcNcxlte4>=$@@&-;;;--==**=57:+o$#%",
"&#@@OoO%=------=--*$+#&-;::>>>,,,,,:;;;-*$@@&---***&&*&&#@+o+@@$",
"*$#@@@$&=---=-----*$@#&=;;;;;:;;;;;----=*%@#&--=&&&&&&&&%@@@@@#$",
"-&$@@##%*=-------=*$##&=---------------=*%$$*==**&&&&&*&%%%$##$*"
};
