/* XPM */
static char *result[] = {
/* columns rows colors chars-per-pixel */
"64 64 256 2 ",
"   c black",
".  c #010101",
"X  c #020202",
"o  c gray1",
"O  c #040404",
"+  c gray2",
"@  c #060606",
"#  c #070707",
"$  c gray3",
"%  c #090909",
"&  c gray4",
"*  c #0B0B0B",
"=  c #0C0C0C",
"-  c gray5",
";  c #0E0E0E",
":  c gray6",
">  c #101010",
",  c #111111",
"<  c gray7",
"1  c #131313",
"2  c gray8",
"3  c #151515",
"4  c #161616",
"5  c gray9",
"6  c #181818",
"7  c #191919",
"8  c gray10",
"9  c #1B1B1B",
"0  c gray11",
"q  c #1D1D1D",
"w  c #1E1E1E",
"e  c gray12",
"r  c #202020",
"t  c gray13",
"y  c #222222",
"u  c #232323",
"i  c gray14",
"p  c #252525",
"a  c gray15",
"s  c #272727",
"d  c #282828",
"f  c gray16",
"g  c #2A2A2A",
"h  c gray17",
"j  c #2C2C2C",
"k  c #2D2D2D",
"l  c gray18",
"z  c #2F2F2F",
"x  c gray19",
"c  c #313131",
"v  c #323232",
"b  c gray20",
"n  c #343434",
"m  c #353535",
"M  c gray21",
"N  c #373737",
"B  c gray22",
"V  c #393939",
"C  c #3A3A3A",
"Z  c gray23",
"A  c #3C3C3C",
"S  c gray24",
"D  c #3E3E3E",
"F  c #3F3F3F",
"G  c gray25",
"H  c #414141",
"J  c gray26",
"K  c #434343",
"L  c #444444",
"P  c gray27",
"I  c #464646",
"U  c gray28",
"Y  c #484848",
"T  c #494949",
"R  c gray29",
"E  c #4B4B4B",
"W  c #4C4C4C",
"Q  c gray30",
"!  c #4E4E4E",
"~  c gray31",
"^  c #505050",
"/  c #515151",
"(  c gray32",
")  c #535353",
"_  c gray33",
"`  c #555555",
"'  c #565656",
"]  c gray34",
"[  c #585858",
"{  c gray35",
"}  c #5A5A5A",
"|  c #5B5B5B",
" . c gray36",
".. c #5D5D5D",
"X. c gray37",
"o. c #5F5F5F",
"O. c #606060",
"+. c gray38",
"@. c #626262",
"#. c gray39",
"$. c #646464",
"%. c #656565",
"&. c gray40",
"*. c #676767",
"=. c #686868",
"-. c DimGray",
";. c #6A6A6A",
":. c gray42",
">. c #6C6C6C",
",. c #6D6D6D",
"<. c gray43",
"1. c #6F6F6F",
"2. c gray44",
"3. c #717171",
"4. c #727272",
"5. c gray45",
"6. c #747474",
"7. c gray46",
"8. c #767676",
"9. c #777777",
"0. c gray47",
"q. c #797979",
"w. c gray48",
"e. c #7B7B7B",
"r. c #7C7C7C",
"t. c gray49",
"y. c #7E7E7E",
"u. c gray50",
"i. c #808080",
"p. c #818181",
"a. c gray51",
"s. c #838383",
"d. c #848484",
"f. c gray52",
"g. c #868686",
"h. c gray53",
"j. c #888888",
"k. c #898989",
"l. c gray54",
"z. c #8B8B8B",
"x. c gray55",
"c. c #8D8D8D",
"v. c #8E8E8E",
"b. c gray56",
"n. c #909090",
"m. c gray57",
"M. c #929292",
"N. c #939393",
"B. c gray58",
"V. c #959595",
"C. c gray59",
"Z. c #979797",
"A. c #989898",
"S. c gray60",
"D. c #9A9A9A",
"F. c #9B9B9B",
"G. c gray61",
"H. c #9D9D9D",
"J. c gray62",
"K. c #9F9F9F",
"L. c #A0A0A0",
"P. c gray63",
"I. c #A2A2A2",
"U. c gray64",
"Y. c #A4A4A4",
"T. c #A5A5A5",
"R. c gray65",
"E. c #A7A7A7",
"W. c gray66",
"Q. c #A9A9A9",
"!. c #AAAAAA",
"~. c gray67",
"^. c #ACACAC",
"/. c gray68",
"(. c #AEAEAE",
"). c #AFAFAF",
"_. c gray69",
"`. c #B1B1B1",
"'. c #B2B2B2",
"]. c gray70",
"[. c #B4B4B4",
"{. c gray71",
"}. c #B6B6B6",
"|. c #B7B7B7",
" X c gray72",
".X c #B9B9B9",
"XX c gray73",
"oX c #BBBBBB",
"OX c #BCBCBC",
"+X c gray74",
"@X c gray",
"#X c gray75",
"$X c #C0C0C0",
"%X c #C1C1C1",
"&X c gray76",
"*X c #C3C3C3",
"=X c gray77",
"-X c #C5C5C5",
";X c #C6C6C6",
":X c gray78",
">X c #C8C8C8",
",X c gray79",
"<X c #CACACA",
"1X c #CBCBCB",
"2X c gray80",
"3X c #CDCDCD",
"4X c #CECECE",
"5X c gray81",
"6X c #D0D0D0",
"7X c gray82",
"8X c #D2D2D2",
"9X c LightGray",
"0X c gray83",
"qX c #D5D5D5",
"wX c gray84",
"eX c #D7D7D7",
"rX c #D8D8D8",
"tX c gray85",
"yX c #DADADA",
"uX c gray86",
"iX c gainsboro",
"pX c #DDDDDD",
"aX c gray87",
"sX c #DFDFDF",
"dX c gray88",
"fX c #E1E1E1",
"gX c #E2E2E2",
"hX c gray89",
"jX c #E4E4E4",
"kX c gray90",
"lX c #E6E6E6",
"zX c #E7E7E7",
"xX c gray91",
"cX c #E9E9E9",
"vX c #EAEAEA",
"bX c gray92",
"nX c #ECECEC",
"mX c gray93",
"MX c #EEEEEE",
"NX c #EFEFEF",
"BX c gray94",
"VX c #F1F1F1",
"CX c gray95",
"ZX c #F3F3F3",
"AX c #F4F4F4",
"SX c gray96",
"DX c #F6F6F6",
"FX c gray97",
"GX c #F8F8F8",
"HX c #F9F9F9",
"JX c gray98",
"KX c #FBFBFB",
"LX c gray99",
"PX c #FDFDFD",
"IX c #FEFEFE",
"UX c white",
/* pixels */
"{ 9 s g v Z E U S x a 6 < 2 q i j Z P  .7.3.%.=.-.:.%.Q F A F Z +   d 9.t.2.%.+.[ _ { &.:.*.&.;.2.w.&.' [ ` ( ] [ J w 3 e h m ~ ",
"O.g 5 z b M M N b p 0 w t y y g B H G / %.%.} #.j.L.C.r.| _ O.R o   . N &.+.' W U P P ( ..#.:.' j a B %.*.&.=.#.#.$.( ! ^ +.p.b.",
"T l y J R ` ) D g u u h k g h S ] | T I ( &.0.g.v.c.9.#.] '  .S X   $ 9 ^ *.| G l i y i j V U J S A { Y.R.z.M.Y.~.D.4.O. .:.l.p.",
") y j ! } :.{ Z d u f C H A S / %.+.W F T <.C.H.a.@./ Y K L E N o   $ r O.-.%.` C k h x M H E R U W ] r.J.!././. X).k.>.6.x.`.A.",
"T w V +.1.t.{ b i y z Q ../ T I P H S S E >.m.y.} J S C D L ^ D o   $ y } ,.0.2.{ L F K Q ~ ~ ^  .1.#.Q O.v.'.|.{.|.R.g.r.f.S.r.",
"L w H %.w.n.w.! z a b ) >.%.` C j h m G W } =.( Z v m D Y +.8.Y O   # m | -.y.h.5.} ! )  . ...1.j.J.t.' Y +.Z.[.{..X'.A.j.l.x.6.",
"~ y J  .i.G.Q.u.J j n ! @.t.i.$.R A A F H T U V z z M Y $.b.D.! O   # Y } +.6.w.;.` T ! ] &.0.A.].|.Y.f.>.=.8.n.C.K.J.c.a.i.d.8.",
"' l %.&.i.G.'.i.P k j N  .A.Y.R.C.6.Q G A N n x z b D ] d.R.B.W +   + ! } +.1.2.#.^ P T ) =.f.Q.(.T.T.H.v.p.k.d.r.r.9.5.1.2.3.;.",
") x 9.r.b.K.K.7.F u 0 i U w.H.Q.).E.8.U M z k z n Z E %.a.v.a.I +   # | $.9.n.V.p.$.) _ ..=.e.b.b.l.V.D.C.N.(.`.J.N.h.q.:.O.| -.",
"L c e.z.!.(.A.>.C t 7 e x W s.Y.W.|.M.` V z x B I R / _ ] ..#.A O   :  .;.g.T.'.L.u.=.;.6.7.3.;.3.j.A.F.v.z.K.W.).[.Q.l.>._ Q +.",
"v m M.b.T.}.Y.5.P l i y u v | n.Y.Q.Z.#.F b M P | } L V V n S B +   3 ^ *.h.Q.[.W.j.6.w.e.1. .} 5.N.T.R.m.v.Y.D.A.(.{.m.+.E S W ",
"d u v.B.H.Y.L.i.{ G z i r 0 p K } O.` H c l m ~ 5...G z s t j b + # e K  .a.!. X^.z.4.,.#.' / { e.H.^.].F.Z.'.P.h.M.[.G.+.G d C ",
"j # f F R ~ #.t.r.X.D f 3 % - 1 q g c z z B n b I A y 2 : > p l & 2 0 l J  .f.S.c.7.#.) Y K L R  .8.C.S.a.6.e.k.u.a.I.U.o.n p M ",
"V . + & > 3 q c Y Y N t 3 : = : q a j b A S g 1 $ : 3 3 1 1 4 p 0 9 q < < < 8 9 , 3 w 0 w y i a g I p.P.i.H g f a a n P Z a d v ",
"r . + & % & - > 1 3 6 9 g v c g i u w 6 5 3 < < < - = , 2 - X 5 k w 4 # @ $ $ & 2 7 - * ; 1 6 5 q r f S G x a , % $ @ # & % O @ ",
"2 p N L G Z C B B N B H Y E R C t 1 % & - > < 2 0 q 3 ; - > : i J m z V A F D G L I G D H L G Y U Y Q Y Y ( ] U z 0 : @ .   O ; ",
"D S J R / ( ! R U L I ) [ } @.D Z e.=.! K m M z d a i f M J W ! K U } ] ' ( ^ _  .:.7.1. .Y C Y B S E R ~ Y Y ! ` ) Q F n b N S ",
"s s x B Y $.1.=.+.*.t.p.1.O.R g u @.v.c.7. .^ E Y P P P L K S e e n W ! U A V D W  .@.../ P U P c :.m.>.I j p s z ~ X.X.O.) K n ",
"D C M M F ! +.1.e.H.^.x.$.( J k g ~ p.m.7.{ E G N z p 0 4 < , 7 a z m b l f d h b F U ) _ R Y A g 5..Xx.} S v v H 1.C.L.Q.c.o.I ",
"U Y U P J K ! &.c.{.L.-.~ Q Q B k J N.E.G.<.! P B g r 6 2 1 5 q w r w 9 8 7 6 7 q a M R / ) K m f 1.(.l.{ G V A ) l.).(.oXD. .Y ",
"Q / / ^ R K L #.E.K.=.( Q [ $.U c S v.E.!.7.( ~ P B k s u r e w e 6 > : : > > , 3 q k ! ;.:.W C l 7.J.i.[ H H [ 9.B.{.{.Q.r./ E ",
"~ ( ' O.` F Z | F.t.%.;.:.5.:.R x D J.T.].i.` / ~ E H F C n j s r 5 < 2 5 q e w w p Z 6.K.M.#.Q n w.j.$.R D J <.V.F.(.U.u.o.Q Q ",
"! ) &.g.;.D n W 8.;.e.Z.B.k._ Z x s q.n.T.u.! L I T / | [ ! Z l y q q r f V H D M Z ~ l.).K.0.| C t.4.~ G C ~ x.b.y.t.2.| ^ W Q ",
") @.v.).f.P x A ` X.u.W.C.t.H c k 6 J =.j.3.P M M G ^ O.2.:.T x p a j x B T o.*.[ ! { p.C.i.<.U F g.u.o.~ W y._.2.[ | [ ( ~ ~ / ",
"&.h.`.{.V.[ b c D ) g.S.e.4.~ A c r X.w.x.t._ Z N G W } ,.,.Q n V K I J D G _ ;.#.' @.p.u.+._ b B z.K.i.$...w.y.{ _  .+.X.X.X.o.",
"i.L. X^.D.;.F S T -.k.i.;.4.=./ N x G.E.T.S.9._ Y E { { ~ P G Q  .| _ Q J B G / ] ..4.F.A.7.! g d 7.E.J.8.%.-.*.o.+.=.4.8.9.7.8.",
"h.Q.XXW.J.8.( o.y.n.j.8.} [ ..^ M V H.K.V.b.t.o.R R #. .C z A ..+.( R J V n m C U ` 2.M.h.X.H f i P <.D.m.t.B.N.8.5.0.w.5.8.0.y.",
"a.U.W.c.c.0.{ 9.E.|.U.i.%.&.[ K D x 5.*.} ' ' W A N T Q L P ( { / K x s f x n M V K | ;...L N g p C L <.g.h.[.|.x.z.V.i.@...+.1.",
"M z d j T W v B U ^ / V v l I / { n ) L Z B A V l d j V X.8.4.&.' m y t h m b h f h z Z K F V l r D Y R Q E ] o...7.j.7.^ A V B ",
"% & , e g v u 2 & = , 6 0 t x R Q m S h i y p V v 0 0 f U -.%.~ l e 8 0 f A I A d 9 2 3 5 2 w l 6 > > 2 7 p b k y 0 w e 7 , - & ",
"k b M K I T T Y R ) @.2.&./ J K / U V M x g p j c p e r i k i $ ; 5 7 0 a B R / J M n N C D L ~ ] T K J H K E R Y B d t t e u h ",
"M W } O.X.~ / ..%.8.c.x.} v h P 6.p.-.| O.| ' _ R A M N N b l - 6 v N S J G S Z A D J Y )  .X.%.O.^ W E ~ / ^ ) o.| T G V B D Q ",
"M Q | [ ! L L ` &.1.q.g.2.7.e.n.J.3.Q N E X.o.E W ~ L J P c s e Y Q T Q ! U F N n S Q ( W ( ~ _ | +.%.%.4.d.w.O.I t 9 9 u z J ( ",
"i n } ^ W ^ @.j.R.~.I.T.~.P.k.p.4.( C n l b N s t j _ -.#.;.#.N m ~ =.8.i.r.;...+.4.l.m.i.O.K Z N n N Z I ) #.>.0.;.W ~ H N K J ",
"q d / ( ] +.4.n.J.I.Y._.].H.6._ L G G F A C Z C C H #.M.Z.G.5.b i :.A.V.h.a.e.4.5.z.M.A.OXC.^ Z x d y t r i g V { <. .D f p M G ",
"q e L ( *.t.a.p.l.S.Q.'.Q.j.| S b M I ! E Y W ( O.w.N.U.P.P.=.F d v.(.z.,.$.$.&.5.F.H.k.R.^.;.S c c v v v v N L =.z.V.;.J l n Y ",
"d 3 H ) O.0.S.U.T.^.).W.A.g.#.J v b J ` { | &.s.V.Y._.(.~.`.7.L k J._.p.o.~ ~ ' ,.T.`.c.C./.p.L v B Y E Y P U ] l./.R.8.E B F / ",
"l : Z U I ) ,.b.U.T.S.x.c.x.1.W V m V U ( } >.B.Q.W.W.^.`.}.0.L l V.XXT.i.[ Q ) 2.F.T.c.j.m.s._ S F ` @.#...^ ( 8.A.Z.4.` P X.{ ",
"z = c Z A P _ :.6.6.2.;.3.4.#.T D C M Z P / O.*.4.g.M.Z.b.h.| S z V.|.H.u. ._ +.s.b.a.3.,.2.8.6.X.W T _ o. .U Z P -.a.2.' P @...",
"f = h C H Q @.i.p.%.( R Y P J K K P P L T _ ` Y Z Z H Y U ! H V z B.'.v.2.X.@.y.C.k.8.3.1.6.e.k.a...L J E ! F h f b F G B C ) [ ",
"f 2 j B H ^ ;.M.A.;.Y S M v n H ^ { $.-.$.+.X.` Q K D A F U Z N a j.{.J.y.$.:.a.n.x.y.g.l.c.l.x.k.,.^ D D D v p i l b m N B / [ ",
"h r x b Z Y o.z.K.u.@.' Q U U ( #.6.f.M.c.t.6.6.6.=.' ! ! ~ Z m 9 3.L.c.q.o.o.8.c.M.n.n.N.z.s.y.r.2.| U Z x s y a b T ^ I A {  .",
"j g v z m F ( 0.A.Z.f.i.r.7.7.1.6.j.G.Q.~.I.V.b.x.0.%.] ^ Q Z b 1 U 6.q.1.{ ] ;.b.T.T.k.:.X. .o.&.*.| ~ G z a u d b I U I K X.[ ",
"k z m j M T X.y.E.[.B.a.a.a.i.r.h.U.].}.{._.~.D.j.4._ J D H B M : g ^ +.%.} [ #.v.{._.0.R V C I ^ ) ` ^ Q U C l g l M S J Y ..! ",
"k k 0 2 u s j A ( ..~ H l a u D ;.6.a.k.Z.R.J.B.y.#.U m v m B n * a ~ ) K J F Z ' 6.,.! N l k b G Y ^ ( ..1. .S l j l M F R ` P ",
"v p 8 > o             . O * 3 e y w q p n U L P J B B S V j k C - 7 q 0 3 0 7 ; = ; & , > * = 2 l N B F ( @._ C m v i u f g a z ",
"b u 4 # $ ; 1 3 w j 5 4 w h V S H K M u 5 1 5 3 5 5 3 a a 0 r Z ; O   X o X .             + $ * < 9 7 2 , ; & > 2 , * = = $   4 ",
"L V v D L W ( ` [ ..[ ' ] ] I k n +.o.) P M k p w 6 4 < < 6 9 f 9 7 y g x m Z A V v s u l v h d y , $ % * = & X         + = , p ",
"H L | [ ` / ~ )  .>.0.7.&.^ g 8 O D ;.O.[ ' ' ! P G C M n M A J J J E ] %.:.-.%.+.@.#.%.@.+.-.D G p.<._ Y V V z u w t g C I ~ Q ",
"w v R Q I Z N Z T } O...) R N i - l q.c.<._ / ! I / ..X.+._ U S x x V J ^ #.&.X.o.:.0.6.$.[ K d i #.x.x.4.} ~ R U L L L J G M 9 ",
"i l b v k d s f c A P ( _ ! Z k 6 V g.g.@.T T Q W =.b.L.^.N.%.R G A V C L ! X.=.4.z.x.2.[ ~ J k g ) f.M.7.{ R F M k y 7 2 > , 8 ",
"q e q 9 7 7 5 5 0 p n Y / [ Y n a ! f.d...J R ` ' y.!.(.XXG.X.Y Y T Y P J K ~ =.b.(.m.+.^ ^ Q m g P V.W.G.>.Q P B f r 7 3 2 7 w ",
"e 6 > : : > , , 2 0 j Q >.9...C h +.0.9.} I _ =.2.h.`.}.Q.t.( E ! / / / R K K *.~.A.#.( ! ` ] D k L n.W.Q.4.( ~ P B l d i t r w ",
"t 6 1 2 5 w t w w p V 4.U.Y.1.C d O.&.X.( ` X.=.y.v.W.I.u.o.! Q ~ ( ] +._ D Z o.D.0.*.<.1.2.` S j T K.R.'.t.) ^ ~ E J H A m j s ",
"u w w r f C K J B A ! h._.[.7.M a o.` ) &.1.$.6.i.e.w.<.| ~ W Q ! _ ;.k.-.S n ! 6.-.y.G.F.n.R b h x 0.b.Y.w.W K P T (  .} ~ Z l ",
"a s k c B Y ..-.} ~ ] y.S.z.} M t } Y ( i.l.u.D.e...| { ) ~ ^ ( _ &.N._.a.K x S _ ..d.Q.Z.p.F l d q L -.j.,.L m M H ^ +.3.:.Y x ",
"Z P Y K F D / =.$.] +.a.h.-.Y Z w [ K Q 0.B.h.y.+.'  .@.O.o.o.O.=.c.].].M.' v v F ' k.Z.w.6.R C x s %.t.v.r.) Z B H Q } >.:.R m ",
"..| _ Q K B D ! ' ..3.L./.P.,.K w ' ! ( 5.C.x.r.*.@.=.5.9.0.9.9.s.T. X~.A.*.F F Q <.k.y.=.2.o.! V S I.W.R.S.8._ Y Q | { W H G ^ ",
"o.( T H B n n V P ) <.H.E.N.;.Y t b  .<.M.J.S.D.y.6.q.w.4.6.9.r.j./.XXE.J.5.) $.d.N.k.6.{ [ O.~ n F J.F.M.x.w...Y R $.{ B z G ..",
"( K z a p g k x m J X.t.p.2.' U i 7 z T >.6.d.J.z.z.Z.s.@. .o.>.a.P.L.h.l.5.[ q.E.{.L.e.&.-.[ H N k 4.+._ / ( R V M Y E I Y _ [ ",
"] M t w s x j w 9 9 q a g s 0 c u ; - < 9 f m U / :.a.5.^ C m n x s y f U U l b F T ! F J P Y S F s  .L C N Z N h s h C +.q.6.*.",
"g w 8 4 3 , * o .     + - < 1 0 g u p u i i k j r 6 5 8 5 > = & & = 1 t j b i 3 ; 1 q e 0 w w c R 9 n e 9 0 u U C 0 0 h R >.%.T ",
"  @ O . X       O ; a S Q ~ / ^ ( ( ~ ) } / R L P L B g y e i k l n N J G D V n x c b x a e t z ~ t O + @ o O , 4 & o + ; 7 * . ",
"+ O 2 d D R G f s f c S Y K B R o.-.=.:.4.3.>.-.:.9.5.O.) Q ^ ` h B I U K N v b j h n I L J I ( O.-.! n h 7 * & +     X + & % # "
};
