/* XPM */
static char *result[] = {
/* columns rows colors chars-per-pixel */
"64 64 223 2 ",
"   c #342D2B",
".  c #392E2E",
"X  c #35312E",
"o  c #392F33",
"O  c #352E36",
"+  c #3B3334",
"@  c #3E3A39",
"#  c #383337",
"$  c #423436",
"%  c #43353A",
"&  c #433C3D",
"*  c #4A3B3E",
"=  c #42403F",
"-  c #3A3644",
";  c #3C3847",
":  c #3D3B4A",
">  c #373341",
",  c #453A42",
"<  c #4B3D43",
"1  c #423E4D",
"2  c #4A3F49",
"3  c #513F43",
"4  c #454242",
"5  c #4A4345",
"6  c #43404F",
"7  c #4B4449",
"8  c #4D4B4C",
"9  c #534245",
"0  c #54454B",
"q  c #544D4D",
"w  c #5C4A4D",
"e  c #59474E",
"r  c #454352",
"t  c #494656",
"y  c #4B4958",
"u  c #5C4C54",
"i  c #544C59",
"p  c #5B5454",
"a  c #5C565A",
"s  c #5D595B",
"d  c #565257",
"f  c #614C52",
"g  c #604F58",
"h  c #635255",
"j  c #65535A",
"k  c #6C555B",
"l  c #6D595C",
"z  c #64595B",
"x  c #715B5F",
"c  c #604C4F",
"v  c #565463",
"b  c #5C5B63",
"n  c #5E5A6D",
"m  c #5A5566",
"M  c #5F5B70",
"N  c #544F60",
"B  c #615E61",
"V  c #6B5C6A",
"C  c #685A64",
"Z  c #745C61",
"A  c #795F64",
"S  c #615E73",
"D  c #6C5F72",
"F  c #64636D",
"G  c #676469",
"H  c #7C6165",
"J  c #72636D",
"K  c #7A6A6A",
"L  c #756567",
"P  c #6D6C74",
"I  c #6A667C",
"U  c #696675",
"Y  c #776974",
"T  c #727176",
"R  c #74737C",
"E  c #7C797C",
"W  c #7A7579",
"Q  c #816F6F",
"!  c #846D77",
"~  c #847272",
"^  c #8E737A",
"/  c #897679",
"(  c #7C7B83",
")  c #767586",
"_  c #77728C",
"`  c #817E85",
"'  c #867886",
"]  c #957E88",
"[  c #917B87",
"{  c #8C7E91",
"}  c #827C98",
"|  c #838186",
" . c #85838B",
".. c #8B858B",
"X. c #8E898E",
"o. c #8D8483",
"O. c #948283",
"+. c #988286",
"@. c #998188",
"#. c #938A8B",
"$. c #968C8B",
"%. c #8C8C93",
"&. c #8A8797",
"*. c #948294",
"=. c #9E8C93",
"-. c #988995",
";. c #9D9394",
":. c #94939C",
">. c #98959A",
",. c #A18D94",
"<. c #A19695",
"1. c #A29A9C",
"2. c #A99D9E",
"3. c #A29897",
"4. c #8B86A7",
"5. c #968CA8",
"6. c #9D9CA3",
"7. c #9C97A7",
"8. c #948EB1",
"9. c #9591B4",
"0. c #9F99BE",
"q. c #9B95B7",
"w. c #A494A6",
"e. c #A09BA1",
"r. c #AC9DA5",
"t. c #A49AAA",
"y. c #A49AB6",
"u. c #AA9EB7",
"i. c #A49BBB",
"p. c #AA9EBB",
"a. c #A097B5",
"s. c #ADA2A5",
"d. c #A4A4AB",
"f. c #ABA7AD",
"g. c #AAA6AC",
"h. c #B3A6AC",
"j. c #B5A9AE",
"k. c #B1A3A7",
"l. c #A6A3B3",
"z. c #ADABB3",
"x. c #ADA1BC",
"c. c #AAA8B9",
"v. c #B5A6B4",
"b. c #B5AAB2",
"n. c #B9ADB5",
"m. c #B2A5BB",
"M. c #B6AABC",
"N. c #BAADBB",
"B. c #B2B1B7",
"V. c #BBB0B7",
"C. c #B5B4BB",
"Z. c #BDB2BC",
"A. c #B9B9BE",
"S. c #C0B6BE",
"D. c #9F9AC1",
"F. c #A19DC1",
"G. c #ADA4C3",
"H. c #AAA5C9",
"J. c #B1A6C2",
"K. c #B4AAC4",
"L. c #BAAEC3",
"P. c #B5ACCA",
"I. c #B9AFCA",
"U. c #B5B4C3",
"Y. c #BEB2C3",
"T. c #BDBBC2",
"R. c #BCB2CC",
"E. c #BDBCCD",
"W. c #B1ADD1",
"Q. c #B8AFD2",
"!. c #BCB4D2",
"~. c #BFBAD3",
"^. c #BFBBDA",
"/. c #B9B5D8",
"(. c #AFAAD2",
"). c #C1B6C3",
"_. c #C3BBC5",
"`. c #C1B6CB",
"'. c #C4BCCB",
"]. c #C8BFCC",
"[. c #C0B7D1",
"{. c #C4BBD3",
"}. c #C3BDDA",
"|. c #C5BEE0",
" X c #C6C2CB",
".X c #C9C3CE",
"XX c #C7C6CC",
"oX c #CBC4D2",
"OX c #CECAD4",
"+X c #C6C1DC",
"@X c #C9C2DA",
"#X c #CCCADC",
"$X c #C5C3D3",
"%X c #D0CCD6",
"&X c #D3CDDB",
"*X c #D5D2DD",
"=X c #D8D6DD",
"-X c #DAD9DE",
";X c #D2D1D6",
":X c #CBC6E2",
">X c #CECAE4",
",X c #CFCBE8",
"<X c #D2CDE5",
"1X c #D2CEE8",
"2X c #D6D1E4",
"3X c #DAD5E4",
"4X c #DDDAE4",
"5X c #D6D2E8",
"6X c #DAD6E9",
"7X c #DDD9E9",
"8X c #E1DEEA",
"9X c #E0DEE5",
"0X c #E2DFF0",
"qX c #E2E1E5",
"wX c #E4E3EC",
"eX c #E8E7ED",
"rX c #EAE9EE",
"tX c #E4E1F0",
"yX c #EEEDF2",
"uX c #F1F1F5",
"iX c #FAFAFD",
"pX c #F6F5FA",
"aX c #F0EFF3",
/* pixels */
"s T T T W E E ( ( |  .X.X.%.:.>.,.2.r.s.g.z.z.B.C.C.A.A.)._.A. XA.T.A.A.A.C.B.z.z.d.d.6.6.:.:.%.%.%. . . .( ( ) R R R T P P P v ",
"4 G | | | | X.%.:.>.6.6.d.g.z.B.S.S._..XXXOX;X-X-X-X-XqX9X9XqXqXqXqXqX-X-X-X-X;X;XXXXXE.T.A.B.z.d.d.6.:.:.%.%. . .( ) ) ) ) F r ",
"8 8 P >.6.d.d.g.z.B.A.A.T.XXXX;X&X=X=X9XqXqXrXrXrXyXaXaXuXaXuXuXaXaXaXyXyXrXeXqXwXqX-X-X-X;XXX$XE.T.U.B.c.l.d.6.6.:.:.:.%.U y 6 ",
"= q s >.B.C. X XXXXXOX;X;X;X-X-X4X9X9X9XqXeXeXqXrXeXrXrXrXrXrXrXrXrXeXeXeXeXwXwX8X8X8X7X-X4X6X-X-X#X#X#X#X$X$X$XE.E.E.c.F.F y : ",
"= 8 B ` ` B.c. XXXXXOXOX;X-X;X-X=X9X4X9X9X9X8X9XqXqXwXwXwXwX0XwXtXwXtXtXwX8X8X8X8X7X7X7X4X6X5X5X<X*X#X#X#X#X#X$X$XU.C.9.} U r : ",
"= 8 B W W  .` OXXXOXOXOX;X;X;X-X=X9X=X9X9X9X9X3XqXqX8X8XwX0X8X8XwX8X8X8X8X8X7X8X7X7X7X7X6X7X5X6X5X5X2X<X2X1X,X#X5Xd.P  .) S r : ",
"= 8 s  .Y J f.$XXXoXOXOXOX&X;X*X=X&X3X3X3X3X3X3X4X4X4X6X8X6X8X8X7X8X8X7X8X7X7X7X7X7X7X6X6X6X6X5X5X5X5X2X1X2X,X2X,X:X) ) 9.F t : ",
"= 5 s | :.f._. X.XXXOXOXOXOX;X#X&X&X&X*X*X*X3X3X4X4X4X4X4X9X6X9X7X7X7X7X7X7X7X7X6X7X7X6X7X6X6X5X6X5X5X2X2X,X,X#X>X:X/.F.9.M t : ",
"= 7 s | :.f.'. X.XXXoXOX%XOX%X%X&X&X=X=X=X=X=X3X9X3X3X8X3X3X7X7X7X7X7X4X7X7X7X7X7X6X6X6X6X6X6X6X-X5X5X5X-X#X,X5X,X#X/.F.9.M t : ",
"@ 5 s ..:.b. X X.XoXXX%XOX%X%X%X&X&X&X=X=X=X3X=X3X3X3X3X7X7X7X7X7X7X7X7X7X7X7X7X7X6X6X6X6X6X6X5X5X5X5X,X5X,X5X#X,X:X^.H.9.F t : ",
"= 7 s ..>.b._. X X.X.X.XoX%X%X%X&X&X&X&X=X=X3X3X3X3X3X3X3X3X7X7X7X4X7X7X7X6X7X7X7X7X6X7X6X6X6X5X5X5X5X5X1X,X,X,X,X:X^.W.9.M r : ",
"= 5 a X.6.b._. X X.XoXOX%X%X%X%X&X&X=X=X&X3X*X3X3X3X3X3X3X7X3X6X6X7X7X7X6X7X7X6X6X6X6X6X6X6X5X6X5X5X5X5X5X,X5X#X#X:X^.(.F.F t : ",
"@ 5 s X.e.b. X X X.X.X.X.XOX%X%X%X&X&X&X*X*X3X*X3X3X3X3X6X6X6X3X6X4X4X7X7X7X6X7X6X6X6X6X6X5X5X6X5X5X5X5X1X,X1X,X,X>X^.W.F.S t : ",
"@ 4 s X.e.z.T. X XXX.XOXOX%XoX%X&X&X&X&X*X*X*X3X3X3X=X3X3X3X3X6X6X6X6X6X6X6X7X6X7X6X6X6X6X6X6X5X5X5X5X,X-X,X,X,X,X>X^.W.F.S r : ",
"@ 4 s X.e.b._._. X.X.X.X.X%X%X%X&X&X&X&X&X3X3X*X*X3X3X3X3X3X3X3X6X4X6X6X6X6X6X4X6X6X6X6X5X5X6X5X5X5X5X,X1X,X,X,X>X#X^.W.F.S r : ",
"@ 4 s X.1.j._.].]..X.XOX.XoXoX%X&X&X&X&X*X&X*X*X*X3X*X3X3X3X3X3X6X3X6X4X6X6X6X6X6X6X6X6X5X5X5X5X5X1X5X5X5X#X,X,X,X>X^.W.F.S r : ",
"@ 4 p X.1.b.T._. X X.X.X.XOXOXOX%X%X%X&X&X*X*X*X3X3X&X3X3X3X3X3X6X3X3X6X6X6X6X6X6X6X6X6X5X5X5X5X5X1X5X,X5X>X,X,X>X>X^.W.F.S t : ",
"@ 4 s X.1.z.T. X]..X X.X.X.XOXOX%X%X&X&X&X&X&X2X&X3X3X3X2X&X3X3X6X6X3X3X6X6X6X6X2X6X5X5X5X6X5X1X1X5X1X2X,X<X<X>X>X>X^.W.F.S 6 : ",
"+ = s #.>.b.Y._.S..X X.XOXOXOXOXOX%X%X%X&X*X&X2X3X&X3X2X3X&X2X2X2X2X3X3X2X6X2X6X6X5X5X5X6X5X5X5X5X1X1X1X,X<X,X>X>X,X^.W.F.S 6 : ",
"# = p X.1.h.T. X].]. X.X.X.XOXOXOXOX%X&X&X&X&X&X&X3X&X2X3X3X2X3X3X3X2X6X2X2X6X2X2X5X6X2X5X5X5X1X1X1X2X,X<X,X>X>X>X,X^.W.F.M 6 : ",
"+ = p X.e.z.S._.]. X X.X.XoXoXoX].%X&X&X&X&X&X&X&X2X&X2X2X2X2X2X2X3X2X2X2X6X2X6X6X2X2X2X5X5X2X2X2X1X<X,X,X<X,X>X>X:X|.(.F.M r : ",
"+ = p #.1.z.Z._._. X]. X.X.XoXOX%X%X%X].%X&X&X&X&X2X2X&X3X&X2X2X2X2X2X2X6X1X2X2X2X5X5X5X2X1X1X1X,X2X<X,X,X,X#X,X,X,X|.(.F.M : : ",
"# & p X.1.h.A._._. X].]..X.XOXoX].&X&X&X&X&X&X&X&X&X&X&X&X&X&X2X2X2X2X2X2X2X2X2X2X1X1X2X2X1X2X2X2X2X,X*X>X<X,X>X:X:X^.(.D.M 6 : ",
"+ @ d #.1.f.S._.S.].].]..X.X.X.X].%X&X].&X].&X&X&X&X2X2X&X2X3X2X2X2X2X2X2X2X2X2X2X2X5X1X1X<X1X2X,X,X,X,X>X>X#X,X>X:X^.(.D.n 6 : ",
"X @ p #.>.z.Z._._. X'. X.X.X.X.X%X].%X].%X%X%X&X&X&X&X&X3X&X&X2X&X2X2X&X2X&X2X2X2X<X<X2X2X<X<X|.<X<X>X|.,X|.:X|.:X|.[.K.q.M 6 ; ",
"+ = p W X.t. .Z.Z.A.S.S._.S._._.'.].].].].`.].].].].].{.].].@X].@X].@X@X@X@X@X@X{.|.{.|.|.{.|.|.}.}.}.}.}.}.|.[.+X9.e.l._ S : ; ",
"X @ p o.L l O.j.j.j.b.n.n.n.V.V.S.S.S.S.S.S.S.S.).).`.).).).).).`.`.`.[.[.[.`.`.[.[.[.[.`.[.[.[.[.[.[.Q.[.Q.Q.P./.0.G B 4.M : : ",
"X = q #.;.$.2.3.2.2.2.r.2.s.s.k.r.k.k.k.h.h.k.k.v.v.v.v.v.v.v.r.v.v.N.m.v.m.m.v.m.m.p.G.m.m.m.p.p.p.p.p.i.i.i.i.q.0.5.5.8.m 1 - ",
"+ = p L L K Q K K Q Q Q Q ~ ~ ~ ! ^ ~ ^ ^ ^ Q Q ^ ^ ! ^ ^ ^ ^ ^ ^ ^ ^ ^ [ ^ ^ ^ ! ! ! ! ! ! ! ! ! Y J J J J J D D V V D C N 1 > ",
"X = c p c p c h h z z l l x x Z x x x Q k Q Q Q Q Q Q Q A Q Q H H A A A H A A A A A A Z k C k k k j k k j j g g g u u u i i 2 > ",
"+ = 9 9 = w w w w w w c c c h c f h k h c c k k f k k k k k k k k k k k k k k f k f j j g g g f f g 3 g e e e 2 2 e 2 2 2 2 2 - ",
"$ & * * = = * = = 9 = 9 = 9 9 w 3 w 9 w c c c c c c c c c c c c f f f f f f e f f e e e e 3 u 2 3 2 3 2 2 2 2 < 2 2 , 2 , , , , ",
"s b d s s s b s B B G G G G G P P T R E R ( ( ' ` | | | | { { [ ] [ '  .` ` ` ( ( W ) R R R T P U U F F F F b b b b v v b v v N ",
"8 T P F G P P P T R T E ( | | .. .X.%.%.:.>.>.>.6.6.d.d.d.g.l.k.K.] g.u.l.d.d.6.7.7.>.:.:.&.&. . . .` ) E ) R I I P U U F F F t ",
"= B X.E ( %.>.d.d.d.z.B.A.A._. XXXOX;X;X=X-X9X9XqXqXwXeXeXeXtXtXtXrXrXeXwXwXwXwX9X9X9X2X&X#XOXXXE.T.U.C.z.l.d.6.6.:.:. .) ) v 6 ",
"8 8 E d.d.B.C.T.T.XXOX%X;X-X-X9XqXeXeXyXyXaXuXpXpXiXpXiXiXiXpXpXpXpXpXiXiXpXpXpXpXuXyXaXyXwXwXwX8X4X3X#X#X$X~.E.U.U.H.l.6.) y 6 ",
"4 d B d._.A._._.XX.XXXOX%X%X;X;X=X3X-X3X3X9X9X9X4X8XwX8X0X0X0X0XwX0XtXtXtXtXtXtX0X0X0X0X0X0X7X0X7X6X6X5X5X5X<X,X>X>X:X:X/.S t 6 ",
"= 8 B #.>.n.C. X X XXXXX.XOX%X%XOX;X&X;X*X2X2X*X3X3X3X3X3X3X6X3X8X8X6X6X7X7X6X6X5X8X6X5X6X1X1X5X5X1X5X<X,X,X,X>X>X^.E.H.9.) y 6 ",
"= 8 B E E 7.`  X_._.].]..X.X.X].OXoXOX%X#X&X&X&X&X&X&X<X&X2X2X&X<X<X<X&X<X<X1X<X2X<X&X2X,X>X1X>X,X>X>X:X:X:X+X+X,Xd.( 6._ S t 6 ",
"= 8 B o.Y J ;.S.Z.S.S.S.)._._.'.'.'.].].].].].oX].].oXoX@X].@X@X}.].oX@XoX@X@X@X].|.}.|.}.}.}.}.^.^.$X^.^.^.}.^.^.(.I I 4.) t 6 ",
"= = B #.$.1.B.V.S.S.S.S.S.S.).).)._.)._._._.'.'.].].].].].].].@X].}.].}.].}.].].|.|.].}.{.{.{.{.[.}.}.}.}.}.[./././.H.q.9.) : : ",
"= 8 z o.;.s.n.V.v.S.v.S.S.S.S.).).)._._._.'.'.'.).].`.].`.].{.].].].].{.{.].}.}.].{.{.{.{.}.{.}.}.}.[.[.!.[./.!.~.Q.H.D.9.S y : ",
"= 8 z #.;.s.n.V.h.S.S.v.S.S.S.S.S.)._._.'._.'.'.`.].].).].`.`.{.].{.{.].{.{.{.{.{.{.{.{.}.[.[.[.[.[.}.!.!.[.!.!.!.!.H.0.9.S t : ",
"= = z #.;.s.j.V.S.h.S.S.n.S.N.S.).S.).).).).).).).].`.].`.].].`.`.{.].{.`.{.].[.{.{.{.{.[.[.[.[.[.!.[.!.!.!.!.!.Q.P.H.0.9.M t : ",
"= = s $.;.k.V.V.h.S.S.S.S.S.S.S.S.).).).).).'.).).`.`.].`.].`.`.`.].`.{.`.`.[.[.`.{.[.[.[.[.[.[.!.[.!.!.!.Q.R.!.Q.Q.F.D.8.M r : ",
"= = s $.1.s.j.B.S.h.h.S.v.S.m.S.S.S.M.S.S.).).).`.).).`.`.`.`.`.`.`.`.`.{.`.`.`.`.`.[.`.Q.`.[.[.!.R.!.R.!.!.Q.I.I.P.H.F.8.M r : ",
"@ = s $.3.s.n.n.h.S.h.S.S.S.S.v.m.S.S.).S.).).).).).).`.).`.`.`.`.`.`.`.`.`.`.`.`.[.`.[.`.Q.`.`.R.!.R.R.Q.I.Q.P.Q.P.F.D.9.M : : ",
"= = s $.3.s.j.n.S.h.S.v.S.v.S.v.S.S.S.S.S.S.).S.Y.).).).).).Y.`.`.`.).`.`.`.`.`.`.`.I.`.I.`.I.Q.I.Q.I.I.I.I.P.P.P.P.F.D.9.M : : ",
"+ = z $.3.s.j.V.j.V.j.V.V.V.V.V.Z.n.S.N.S.Z.N.).).).Y.Y.Y.Y.Y.`.Y.`.`.Y.R.`.L.R.R.`.`.I.`.I.I.I.I.I.I.I.P.P.I.P.P.H.i.q.8.n 1 ; ",
"X = p $.3.s.j.j.V.j.V.V.V.V.V.V.n.Z.N.S.Z.Z.).Z.N.).N.Y.Y.Y.Y.Y.Y.Y.L.`.L.L.`.`.L.I.I.I.I.I.I.I.I.I.P.I.P.P.P.P.P.J.i.8.4.n 1 - ",
"X = p $.3.2.j.j.j.j.V.j.j.V.V.V.n.Z.n.Z.N.Z.Z.Z.).N.).Y.Y.Y.Y.Y.Y.Y.Y.L.L.`.L.L.R.L.I.L.L.I.I.I.I.P.P.K.P.J.J.P.J.P.i.8.4.n 1 - ",
"X = p $.3.2.k.j.j.j.j.V.V.V.j.V.n.n.Z.Z.N.N.N.Z.N.Y.N.N.N.Y.N.Y.L.L.Y.L.L.L.L.L.L.L.L.L.I.L.K.K.K.K.P.K.J.P.J.J.G.G.i.8.4.m 1 - ",
"X = p o.3.2.j.j.j.j.j.j.j.n.n.n.n.n.n.n.N.N.N.N.N.N.N.N.N.).N.Y.L.L.L.N.L.L.L.L.L.I.L.L.K.L.K.K.K.K.K.J.J.J.J.G.J.J.i.5.} m 1 - ",
"X = p $.3.2.s.j.j.j.j.j.j.j.j.n.n.n.n.n.n.N.N.n.N.N.N.N.N.N.N.N.L.L.N.L.L.L.L.L.L.m.m.K.L.L.K.K.J.J.J.J.J.J.J.G.G.F.q.5.} n 1 > ",
"X = q O.<.2.s.j.j.j.j.j.j.j.j.n.v.n.v.n.n.n.n.n.N.N.N.N.N.N.N.N.L.N.N.N.L.m.L.L.L.L.L.m.J.m.J.m.J.J.J.J.J.G.G.J.x.F.a.5.} N : > ",
"X = q o.;.3.s.j.h.j.j.j.j.j.j.j.j.n.v.v.n.n.v.v.v.N.v.N.v.N.N.N.m.N.N.m.M.M.m.m.m.m.m.J.m.J.m.m.m.m.x.x.x.x.p.p.x.x.a.4.} N 1 > ",
"X @ q o.<.3.s.h.k.h.j.h.h.j.j.j.j.n.j.v.j.n.n.n.N.v.v.v.v.N.N.v.m.N.m.N.m.m.N.m.m.m.m.m.m.m.m.J.x.m.x.J.x.x.G.G.p.p.a.4.} i ; > ",
"X & q o.$.3.k.h.h.h.k.h.j.j.j.h.j.k.j.n.v.h.v.v.v.v.v.v.v.v.v.v.v.v.N.L.m.v.m.m.m.m.m.m.x.m.x.G.x.u.u.p.u.y.y.D.y.p.q.&.} i ; > ",
"X + q / ;.U.X.2.2.2.2.2.2.2.2.k.k.r.r.k.k.k.r.r.r.r.r.v.r.r.r.r.r.v.v.v.r.v.r.w.u.r.w.w.] u.w.u.w.w.u.w.w.{ { w.w.{ M.U.I N ; O ",
"X + q W K J K <.,.,.<.,.,.,.,.,.,.,.,.] ,.,.,.,.,.,.,.,.,.,.,.,.] ] ] ] ] w.] ] w.{ ] { ] w.] ] ] ] { { { ] { ' { Y Y J S i ; > ",
"  + q / K l o.o.O.O.O.O.O.O.O.O.^ ^ ^ ^ @.^ @.^ ] ^ ] ] ] ] ] ^ ] ] ] ] ] ^ ] ] ] ] [ [ [ [ [ ' [ ' ' ' ' ' ' ' ) ' V g ) y - O ",
"  @ = p h h c h h h h h k k k l k k Q Q Q k Q Q ! A A Q A H Q Z A A A A ! Q Q k Z k k Z k k k k k j g g g f f u u u u u e 2 - > ",
"  $ = $ $ $ * $ $ * $ $ * * * * 3 3 3 3 3 3 3 3 3 3 3 3 9 9 3 3 3 3 3 3 3 3 * 3 3 3 3 < < < < < < < 3 < , % , , % , % % % % - O ",
"    .   . . . . . . $   $ . $ $ $ $ . $ $ . $ $ $ $ $ $ % % % % % 3 % % % % $ $ % % o % % % % o % o % o o $ o o o o O O O O O O "
};
