/* XPM */
static char *result[] = {
/* columns rows colors chars-per-pixel */
"64 64 207 2 ",
"   c #1D1613",
".  c #251D1C",
"X  c #2A1E1E",
"o  c #27211F",
"O  c #28211F",
"+  c #2A1E21",
"@  c #2B2221",
"#  c #29242D",
"$  c #342425",
"%  c #322728",
"&  c #3A2629",
"*  c #352A2C",
"=  c #3B2E2E",
"-  c #382626",
";  c #36322F",
":  c #2E2936",
">  c #2F2B39",
",  c #2C2734",
"<  c #3B2E31",
"1  c #312C3B",
"2  c #3B3332",
"3  c #3E3936",
"4  c #383337",
"5  c #423434",
"6  c #443D3B",
"7  c #4A3D3D",
"8  c #403B37",
"9  c #46423E",
"0  c #4A403F",
"q  c #3D394A",
"w  c #413F47",
"e  c #4C4342",
"r  c #494247",
"t  c #524544",
"y  c #544847",
"u  c #534548",
"i  c #554A4B",
"p  c #5B4D4D",
"a  c #5A4946",
"s  c #5A504F",
"d  c #464151",
"f  c #4A4556",
"g  c #4E495E",
"h  c #4B465A",
"j  c #564B54",
"k  c #5B4E54",
"l  c #594F5A",
"z  c #5D5253",
"x  c #5E535B",
"c  c #5B5756",
"v  c #64514F",
"b  c #604E50",
"n  c #635455",
"m  c #6A5555",
"M  c #645957",
"N  c #6B5956",
"B  c #62555B",
"V  c #69575A",
"C  c #655B5C",
"Z  c #6B5C5B",
"A  c #725D5C",
"S  c #715856",
"D  c #6D605E",
"F  c #72615F",
"G  c #524D63",
"H  c #555165",
"J  c #565269",
"K  c #5D5567",
"L  c #615663",
"P  c #665A63",
"I  c #6B5D63",
"U  c #6C5E6A",
"Y  c #715E63",
"T  c #735F69",
"R  c #695F72",
"E  c #6D6263",
"W  c #6E636A",
"Q  c #6A696C",
"!  c #736463",
"~  c #796564",
"^  c #756966",
"/  c #7B6966",
"(  c #73646C",
")  c #7B6569",
"_  c #746A6B",
"`  c #7B6C6B",
"'  c #7D716E",
"]  c #6E6B72",
"[  c #6F6777",
"{  c #736672",
"}  c #756B73",
"|  c #7A6D73",
" . c #756C7A",
".. c #7A6D7A",
"X. c #757275",
"o. c #7C7373",
"O. c #77747A",
"+. c #7C727B",
"@. c #7E7A7C",
"#. c #7D7877",
"$. c #826D6C",
"%. c #846C6B",
"&. c #83716E",
"*. c #89706E",
"=. c #826D73",
"-. c #836F78",
";. c #837473",
":. c #8A7473",
">. c #847977",
",. c #8B7976",
"<. c #83747B",
"1. c #8B757B",
"2. c #847B7B",
"3. c #8B7C7B",
"4. c #917977",
"5. c #927C7B",
"6. c #917777",
"7. c #8D817E",
"8. c #93817E",
"9. c #99817E",
"0. c #7B6F81",
"q. c #7D7383",
"w. c #7F7885",
"e. c #7F7689",
"r. c #777080",
"t. c #827683",
"y. c #897681",
"u. c #847B83",
"i. c #8B7C84",
"p. c #817789",
"a. c #857B8A",
"s. c #8C7D8A",
"d. c #937E82",
"f. c #917F89",
"g. c #907F91",
"h. c #8B7F93",
"j. c #878184",
"k. c #8D8383",
"l. c #86808C",
"z. c #8C838B",
"x. c #8D898C",
"c. c #948383",
"v. c #998484",
"b. c #958886",
"n. c #9B8986",
"m. c #93848B",
"M. c #9A868B",
"N. c #948A8C",
"B. c #9B8C8C",
"V. c #9E918F",
"C. c #8D8492",
"Z. c #8F8B92",
"A. c #868190",
"S. c #938592",
"D. c #948B94",
"F. c #9B8D93",
"G. c #948799",
"H. c #958B9A",
"J. c #998D9B",
"K. c #988792",
"L. c #949193",
"P. c #9C9294",
"I. c #969199",
"U. c #9D939A",
"Y. c #9C9B9D",
"T. c #A18D8D",
"R. c #A1918F",
"E. c #A08F93",
"W. c #A29495",
"Q. c #A59897",
"!. c #A2959A",
"~. c #A49A9C",
"^. c #A99D9D",
"/. c #A99798",
"(. c #ABA09F",
"). c #998EA1",
"_. c #9C94A1",
"`. c #9F9BA1",
"'. c #A49CA2",
"]. c #AA9EA1",
"[. c #A49EA9",
"{. c #A396A4",
"}. c #A4A1A5",
"|. c #ACA2A4",
" X c #A7A4A9",
".X c #ABA4AA",
"XX c #ABA9AC",
"oX c #B2ABAD",
"OX c #B2ACB1",
"+X c #B4B2B4",
"@X c #BBB4B4",
"#X c #BCBBBD",
"$X c #BDB6BB",
"%X c #AEA8AF",
"&X c #C2BCBD",
"*X c #C5BCBB",
"=X c #C9C1BF",
"-X c #BFBFC0",
";X c #C1BEC0",
":X c #C3C2C3",
">X c #CDC6C9",
",X c #D4CBCC",
"<X c #D0C7CC",
"1X c #D4CBD1",
"2X c #D2D1D1",
"3X c #DAD3D2",
"4X c #D8D0CE",
/* pixels */
"c j.Z.L.L.Y.Y.Y.}.}.Y.-X2X2X2X2X2X2X2X2X-X+X#X#X#X#X@X+X+X@X X]  X-XXXXX X}.}.Y.Y.Y.x.`. X}.Y.Y.L.x.x.l.@.O.O.X.O.X.X.] ] Q Q w ",
"* #.x.x.L.x.Z.L.P.~.L.+X,X>X>X2X2X2X2X3X+XoXOX+XOX@XoXoXXXoXZ.H E +XoX XXX|.|.}.'.'.Y.}.$XoXOXXXXX.X X}.Z.z.x.x.u.l.l.l.a.C.X.1 ",
"o X.7.#.x.7.x.7.x.L.2.2.b.L.Y.P.b.|.}.P.j.^.Y.Z.P.|.~.}.N.^.a.G 9 7. XXXI.D.(.~.oXz.m.t.U.+XD.D.D.~.a.D.@.u._.Y.] C.l.C._.O.r.> ",
"o #.c E 7.7.j.c _ x.7.x.#.+.z.(.>._ Y.^.N.b.D N.|.(.>.<.P.|.a.H e k.P.7.z.].~.L.a.x.U.t.D.k.[ U.C.#.} Z.j.a.N.q.A.C.a.'.A.e.r.> ",
"o o.C #.@.x.7.D 7.L.2.j.b.E x.~.V.^ b.(.b.b.N.|.~.|.i.W.(.|.u.G e k.N.2.~.~.}.2.i.~.P.@.U.} @.I.U.+.} D.u.a.q.z.D.Z.C.O.r.G.r.> ",
"o o.7.7.^ #.'.b.b.x.7.7.N.b.V.P.P.L.P.Y.k.~.(.(.j.7.|.].~.|.w.H e 2..X|.~.@.u.~.].U.U.@.P.U.S.D.F.F.x.C.u.z.H.C.l. . .C.C.C.r.> ",
"o o.@.@.7.E Q j.k.N.b.x.N.N.V.L.V.V.P.Q.P.~.Q.~.^.' Q ~.^.|.t.H e 2.|.W.~.P.C  .!.!.U.F.L.D.F.D.D.Z.C.D.x.S.C.C.S.u.l [ C.C.r.> ",
"o o.7.#.L.7.#.7.x.x.b.N.N.L.L.V.W.P.Y.L.P.~.~.Y.P.(.N.~.Y.P.u.G r 2.|.|.I.F.!.N.XXZ.D.U.P..XZ.z.I.F. Xu.C.D.F.`. .D.a.a._. .w.> ",
"o X.M E 2.2.k.D _ j.b.b._ ] k.P.L.^ +.V.Q.N.X.i.P.~.Q.+.u.^.w.H 9 7.I.j.a.W.~.P.x.a.P.U.D.D.w.F.D.P.D.q.F.C.Y.l.w.C.C.'.l.w.w.> ",
"o ' c _ 2.b.#.c #.b.L.7.M 7.N.P.7.D N.P.^.>.^ Q.Q.|.7._ !.^.w.G 9 7.j.' !.~.~.+.;.!.Y.!.2.| P.U.J.X.+.J.H.S.} w.J.H.C. .q.H.r.> ",
"o ' 2.7.E @.P.7.b.Q x.P.N.V.o.x.~.V.P.o.x.~.Q.Q.2.x.~.^.!.^.w.H e ;.}.~.!.@.z.!.~.F.#.s.U.!.D.#.u.J.U.x.X.u.F.G.C.X.q.G.C.G.e.> ",
"o ' #.#.b.C X.j.k.b.Z o.b.N.V.D X.N.P.P.D X.P.~.P.D _ W.~.Q.w.H 9 2.^.W.~.k.B +.!.Y.>.x t.F.U.2.x  .J.D.| c q.J.Z.+.j  .G.C.e.> ",
"o ' #.#.j.7.' #.j.x.7.o.7.b.z.N.>.b.D.N.V.3.L.I.V.Q.3.P.I.F.w.H 9 #.~.|.Z.F.F.k.oXl.F.z.j.OXl.D.z.a.oXq.D.u.S.[. .H.w.C.}.r.e.> ",
"o X.s c #.>.7.i E 7.7.b.c Q b.N.N.c o.N.P.k.C 3.W.Q.N.E 2.Q.q.J 9 2.N._ z.!.!.k. .m.!.!.m.+.a.U.F.N.@.a.H.D.N. .C.G.G.F.r.A.e.> ",
"o ^ C o.' N.>.E 2.2.P.7.! b.7.Y.7.' V.N.^.2.>.Q.L.~.k.2.Q.Q.q.J 9 >.c.3.W.P.~.2.k.W.P.U.2.i.U.F.F.<.s.U.D.D.+.C.H.Z.C.r.a.).e.> ",
"o ' 2.2.! Q Y.7.k.^ #.L.b.N.' o.P.N.V.' #.P.V.W.>.o.P.Q.P.Q.w.J 6 #.].!.W.| X.U.~.F._ X.U.!.D._ } J.J.x.Q } J.J.C._ [ G.G.G.r.q ",
"o ' o.;.b.! E @.7.N.! E k.b.P.' I k.V.W.^ E V.P.W.&.E P.Q.Q.q.J 9 ;.~.F.~.F.E { W.!.N.C | U.!.m.P { J.J.s.x  .J.G.l.x [ H.G.e.> ",
"o _ #.#.j.2.>.#.j.z.8.7.7.x.k.N.b.b.D.x.V.n.V.I.N.Q.B.P.I.N.u.J 9 o./.|.J.N.~.B..Xx.H.U.K.oXl.D.U.D.XXw.D.G.U. Xq.J.G.J. Xr.e.q ",
"o ' s M #.;.>.s D 2.7.7.c E 7.b.7.c ` b.B.7.C @.V.V.c.E <.Q.q.J 3 >.N._ u.W.W.k.| s.!.F.m.+.t.J.F.m.@.a.J.D.D...h.H.S.L.0.h.e.> ",
"o _ c ' ' N.&.C >.2.P.2.D 7.j.W.7.! N.N.~.;.' V.N.~.3.o.W.W.q.J 3 >.k.;.W.P.~.<.3.W.P.U.2.2.U.P.F.+.i.J.F.D.} C.J.D.G. .h.).e.> ",
"o _ >.>.! Q P.7.7.^ @.L.8.b.' #.P.N.N.' 2.P.V.V.;.#.P.Q.B.W.q.J 6 o.^.Q.E.| +.W.!.K.` @.U.!.H._ +.U.!.S.( +.J.J.C._ r.).G.H.p.q ",
"o _ ;.' 7.D E >.,.7.D E 7.7.N.! E c.b.V.E W b.V.R.^ P B.R.W.q.J 6 o.!.B.W.B.C } E.!.m.x +.F.W.m.x } F.J.s.l +.J.J.a.l [ G.).e.> ",
"o ` ;.@.x.>.' #.k.x.7.>.7.x.N.b.3.c.P.N.B.7.V.U.N.W.c.V.~.B.t.J 6 o./.^.Y.B.P.m.|.J.D.F.m.|.J.m.H.m..Xl.D.S.S. Xw.J.G.C..Xp.e.1 ",
"o ` C B o.' >.D E #.7.7.! E >.b.8.Q _ k.n.b.^ +.b.B.B.o.+.V.q.J 8 o.B.2.t.B.W.B.u.<.W.F.B.z.+.H.H.B.z.q.D.K.U.a.p.J.G.{.a.p.a.> ",
"o ^ i D #.k.' i ' 7.7.>.z >.b.n.7.C 8.V.V.' C b.V.Q.;.D B.R.q.J 8 >.1.! E.!.!.` ` W.H.!.<.} !.E.!.| -.!.J.D.W t.U.J.H.{ q.).p.q ",
"o ^ ' 7.E 7.V.;.7.7.7.F / ' / / / ' ' ' >.B.V.V.;.k.P.V.T.T.q.J 8 ' W.W.T.#.m.W.!.E.E.3.<.3.<.<.+.<.t.<.t.K.J.J.S. .p.).J.H.p.: ",
"o ^ ' ' ;.z _ >.;.7._ c D n Z D D D D D F n.b.n.N.Z ( B.B.W.0.J 8 ' W.B.W.c.x +.E.F.F.( ` ) } } } } { | P z.F.K.J.<.j 0.G.H.p.1 ",
"o ^ ` 7.x.>.E ;.7.N.' ^ ' oXb.>.&.b.N.,.' b.B.~.B.B.;.B.~.B.q.J 3 o.W.W.~.F.v.<.].!.m.<.m.[.D.m.m.'.S.K...z.H.[.l.J.a.t.{.h.0.q ",
"o ^ D E X.&.>.! Q >.' o.D _ k.5.^ Q +.8.' c.o.+.8.B.B.3.@.b.q.J 8 | W.c.@.m.E.T.S.q.m.2.3.! a.M.f.<.R S.<.s.~.S.0.G.G.[.G.0.a.q ",
"o ` y M >.>.;.y / 8.o.<.,.n >.b.8.^ ,.n.,.' M v.R.W.3.n c./.t.J 3 >.3.I B././.| ! W.W.i.!.| <.!.!.-.<.!.u.m.} +.{.!.J.} ..{.e.: ",
"  0 D M D M Z N D D M Z ^ F ~ / ~ F / ' D ~ / ` / ` ^ ` &.` L J 2 a $.` ;.` =.` =.o.` Y -.<.| =.-.<.} -.U ( { -.{ | } ( ....K 1 ",
"o o o . . . . . X . @ $ $ $ $ $ $ $ - - O . O X O O X X X X < w = @ O + X X X X X + + & & & & & & & & & & + + + + + + # + + % 1 ",
"i k.x.L.L.P.Y.Y.~.}.Y.oX$X&X&X;X=X=X:X:X|. X+X+X+X+X+X+X+XOX}.[ N.-XXXXXXX|. X}.'.}.x.u.}.OXXX.X|.[.`.`.L.x.u.q.O.O.X. .] } Q d ",
"; L.oXoX+X@X@X@X#X:XoX$X3X4X2X4X2X4X3X3X@X>X,X,X,X,X,X:X;X,X XJ c &X4X<X,X,X<X<X>X>X&XXX,X1X1X1X<X>X>X>X.X.XOXXXXX.X.X{._.[.l.q ",
"o D ^ ' 7.^ / ` >.k.! ! &.7.7.;.&.V.c.>.^ ,.7.x.1.8.5.9.E.c...G 2 ^ v.B.U.i.b.c.W.F.3.<.m.~.m.f.f.!.z.K.X.y.H.[.t.g.S.S._.s.w.> ",
"o ^ D C _ ' >.D E ;.' ;./ X.2.b.! } U.8.&.7.D ` 9.n.n.2.<.v.q.G 3 ' V.2.<.v.F.n.s.+.M.y.m.k. .F.z.| e.K.<.s.n...t.J.m.!.a.t.t.1 ",
"o ! e M o.>./ 0 ! ,.` ` &.M ' 8.>.v &.9.' ` Z 9.B.R.&.i 1.R.| G 2 $.;.n c.W.T.^ Z M.M.<.M.W | F.K.! | F.<.i.U y.J.J.s.I ..J.t.1 ",
"o D ' ' D b.b.' >.;.` ` ,.&.,.8.7.:.7.8.` 9.n.b.&.N.v.v.T.n...G 2 ` B.B.B.>.D.M.E.T.m.;.K.M.d.m.K.K.s.m.+.i.J.K.s.<.s.g.K.K.q.1 ",
"o F ` ` / s +.#.&.;.#.>.7.>.7.7.7.3.7.b.7.8.8.9.,.n X.v.9.n...G 3 ` T.v.B.;.B <.M.M.M.i.m.m.m.m.m.m.s.m.s.m.K.m.K.( x t.g.G.p.> ",
"o F ` ' k.` n ` 7.c.;.:.>.c.B.:.,.8.B.b.8.8.8.P.B.5.E v.!.B. .g 2 ` T.T.!.K.:._ W.!.c.B.M.W.!.f.B.M.!.J.m.M.s.{.C.K.{ { {.g.0.1 ",
"o ! F D _ ' >.F E o.;.>.' ^ ;.,.7.' ' >.8.8.o.X.3.v.n.>.+.9...G 2 ^ B.k.+.d.E.B.c.+.m.M.M.D.+.c.K.m.F...M.f.F.x...M.K.J.D. .t.1 ",
"o D 0 s &.&.^ 9 V ,.:.&.e Z 7.4.&.t / 9.8.^ y :.n.v.$.y :.n. .G 2 ' &.p 5.T.M.! n c.T.M.^ n d.F.M.! C f.K.f.P T K.g.s.U U S.0.1 ",
"o D ^ ' D N.3.^ ;.^ P.,.` 4.` L.7.>.8.' P.6.5.v.;.P.8.5.v.v.| G 2 / v.c.v.3.B.d.M.c.i.K.5.M.c.i.K.i.K.s.i.f.i.K.s.u.f.y.S.g...1 ",
"o D ` ^ / s 2.&.&./ c 2.;.,.&.M <.:.8.&.M 2.5.c.;.B <.8.9.n.} g 2 ~ T.c.B.` L i.v.B.! P s.m.M.( L i.f.M.U L a.f.f.U L t.s.S...1 ",
"o F / o.z.~ s ` 3.z.~ M &.k.N.` n >.B.N.$.M c.P.c.:.V 8.!.c.} g 2 ^ n.T.U.v.) ! /.U.f.! ) /.U.d.Y ( ].S.f.P { .Xa.g.P { .Xa...1 ",
". F M s E / &.n c / &.:.Z M ` ,.4.C P &.8.,.M ( 4.c.9.E ( d.} g 2 / v.^ ( 5.M.5._ ` d.M.d...( d.M.i.+.{ f.M.d.| -.f.f.f.....t.> ",
". D e M ' 3.F t F >.3./ y ~ 7.9./ p &.9.v.F z 4.b.n./ p 6.v.{ g 2 _ ` n v.T.n.Z I v.F.v.! V M.F.d.I Y M.K.i.B { M.S.s.B T g...> ",
"o D / ` M j.c./ &.Z N.7.&.,.F j.v.,.3.! N.c.5.9./ z.v.v.8.9.{ g 2 ! n.v.d.| m.v.M.5.| m.c.M.i.| z.c.M.1.| f.f.m.1.} a.f.f.s...: ",
". D ^ F ~ t | ` $.~ y | &.&.&.p } :.,.%.s | ,.4.:.s } 5.6.v.{ g 2 ! n.6.v.) k -.5.v.T x <.d.d.) l ..d.f.I l -.i.f.Y j ..y.s.{ > ",
". D ^ ' j.^ z ~ >.k.~ n ' 3.c.%.n ;.c.m.%.Z 1.B.v.:.Z 4.P.c.( g 2 ! v.v.W.c.%.! T.F.d.^ ) B.U.d.) ! E.K.f.Y { !.s.i.Y { {.s.{ > ",
". F D M ! ~ &.F I ! &.:.~ E ` ;.,./ _ $.,.4.` _ :.5.9.' } 6.{ h 2 ! d.,.} 1.n.d.3.} 6.v.d.k.{ 6.m.c.z.{ i.d.m.s.{ d.d.g.g.{ ..> ",
". Z 6 a / ` D 6 n &.&./ 9 m ,.:.~ e A 5.5.F e $.9.5.~ e %.5.{ f 2 ! / u :.n.d.Z j 5.M.5.! p 1.m.d.Z b 3.d.<.n V i.i.y.b B y.{ > ",
". Z F ~ D b.;.F &.! B.;.~ &.^ P.:.$.:.' B.;.:.4.' B.,.:.5.5.{ f 2 ! 6.6.5.3.M.:.d.5.i.m.1.i.5.1.f.-.d.1.u.i.-.i.<.t.y.-.y.y.{ > ",
". Z ^ F D i +.` / Z z <.$.$.F s +.&.:.F c <.:.:./ c +.6.6.5.U f ; ! v.6.5.A L <.5.6.Z L 1.5.1.Y B -.1.1.V L <.1.1.V K -.y.y.{ : ",
". Z F ^ >.D i ! &.3.F p / ;.c.~ p %.5.c.~ n :.v.d.%.b :.v.5.T f ; D 5.6.T.d.A Z d.B.5.V T d.T.i.V P f.M.1.n Y M.s.1.B L f.f.T > ",
". Z F D ` ! ` ~ _ | / %./ ' | %.:.` #.$.:.6.;.<.;.4.4.:.2.,.( f 2 ! 5.c.t.:.d.5.M.t.:.d.1.M.t.:.d.d.E...<.i.f.J.{ 1.y.f.U.{ { > ",
". V 7 t F F ! 6 a ! / / t p / %./ e n *.:.F 0 F :.:./ e Y 6.R G ; ! ` t ~ 5.6.Y a %.1.1.~ j ) 1.1.Z k | 1.:.I b -.<.-.I k -.{ : ",
"o N k A D N.~ v / ` / ! m / %.%.~ Z *.$.*.~ ~ :.:.M.%.) 6.1.T w ; F %.%.6.k.c.~ =.5.1.6.~ $.1.:.1.T %.6.1.-.I -.<.i.<.Y -.-.T : ",
". M ! F n z a./ ~ ~ F n S m m N S A S A A *.:.*.F P y.:.:.6.U w ; A 5.6.:.Z W 1.6.:.:.Y ) Y Y T ~ ) T Y V -.1.1.=.V U -.-.-.T : ",
". m D A &.v u ! ~ ;.Z n N ;.! S S / %.A m &.%.4.5.S p *.6.6.U h ; Z 5.*.d.6.b B 6.d.:.A %.1.%.%.) -.=.) B ) -.-.i.) w P -.y.U : ",
". M F ! o.F A F o.;.Z n a m.<.S v E } S N &.&.s.&.:.*.:.s.*.I w ; A 6.5.m.=.6.:.v.s.$.T S 1.i.) A ` U T V ) i.!.{ =.-.-.{. .I : ",
". M y 9 m F F t u Y Z V m 5 N ~ A b m ~ N ~ y m %.*.%.i m 6.I w ; Y $.p Z :.:.~ k Y :.T %.w A =.%.n n =.P ) ( n ) =.| { x T T , ",
". v t n F F Z t A ~ Z n S N S A F S F F S Z m *.%.*.F v :.*.L w ; m Y S 6.:.6.S A 6.=.Y %.T Y ) ) ) T T V ) b ) -.-.-.b T <.I , ",
"  O = * % - = = * = * % % $ % * % % - % - 5 5 = = = 5 5 < < * 6 O . 5 5 < < < 5 5 < 5 * & & & < * * & & % < 5 < < < < < < < * # "
};
