/* XPM */
static char *result[] = {
/* columns rows colors chars-per-pixel */
"64 64 208 2 ",
"   c #2B2425",
".  c #2E2629",
"X  c #2A2425",
"o  c #30272A",
"O  c #322B2C",
"+  c #34302F",
"@  c #2F2C34",
"#  c #342E33",
"$  c #322F38",
"%  c #353231",
"&  c #3A3435",
"*  c #35333C",
"=  c #3A363C",
"-  c #3D3B3B",
";  c #42363A",
":  c #433B3D",
">  c #413637",
",  c #45403F",
"<  c #373640",
"1  c #393741",
"2  c #3B3A44",
"3  c #3E3E48",
"4  c #423D43",
"5  c #4A3E42",
"6  c #423F49",
"7  c #454243",
"8  c #4B4445",
"9  c #43414B",
"0  c #49454C",
"q  c #4E4A4A",
"w  c #4D4847",
"e  c #524346",
"r  c #564649",
"t  c #58474A",
"y  c #524D4C",
"u  c #59494B",
"i  c #56504F",
"p  c #4A4651",
"a  c #4D4A54",
"s  c #4F4C58",
"d  c #534D53",
"f  c #524E5A",
"g  c #555254",
"h  c #5A5555",
"j  c #54535D",
"k  c #59545A",
"l  c #5D5A5B",
"z  c #5E5857",
"x  c #635D5D",
"c  c #695A5C",
"v  c #65605F",
"b  c #565360",
"n  c #595563",
"m  c #5B5966",
"M  c #5E5C69",
"N  c #635D63",
"B  c #6A5E66",
"V  c #605E6B",
"C  c #635F70",
"Z  c #656262",
"A  c #6A6565",
"S  c #6A6669",
"D  c #6C6A6D",
"F  c #67666B",
"G  c #74646C",
"H  c #746B6B",
"J  c #7A6B6E",
"K  c #736869",
"L  c #78716F",
"P  c #666273",
"I  c #696476",
"U  c #6C6B74",
"Y  c #6A6779",
"T  c #6D6B7C",
"R  c #726B73",
"E  c #7D6C71",
"W  c #716A79",
"Q  c #737175",
"!  c #7B7573",
"~  c #76747B",
"^  c #7D797B",
"/  c #7E7877",
"(  c #806F72",
")  c #827C7C",
"_  c #837376",
"`  c #6F6D80",
"'  c #716D81",
"]  c #7D7C81",
"[  c #7B768C",
"{  c #797487",
"}  c #7E7A91",
"|  c #827682",
" . c #847C82",
".. c #8B7D86",
"X. c #857D8C",
"o. c #827D94",
"O. c #848285",
"+. c #8E8383",
"@. c #87858C",
"#. c #8A848A",
"$. c #8B898D",
"%. c #8F8886",
"&. c #918486",
"*. c #928488",
"=. c #938D8D",
"-. c #998D8F",
";. c #918987",
":. c #848294",
">. c #8D8391",
",. c #868399",
"<. c #89859C",
"1. c #8E8A9C",
"2. c #8D8C93",
"3. c #928C92",
"4. c #9A8D92",
"5. c #948D9C",
"6. c #958A96",
"7. c #949296",
"8. c #9B9494",
"9. c #94939B",
"0. c #9C979A",
"q. c #9E999C",
"w. c #98908F",
"e. c #A19798",
"r. c #A39B9D",
"t. c #A09496",
"y. c #8F89A2",
"u. c #8C87A0",
"i. c #938DA4",
"p. c #958EA6",
"a. c #9C94A4",
"s. c #9D9CA3",
"d. c #9591AC",
"f. c #9C96AC",
"g. c #9E9BAC",
"h. c #9A96B2",
"j. c #9D99B5",
"k. c #9F9CB9",
"l. c #A49CA1",
"z. c #A99EA3",
"x. c #A39AAC",
"c. c #A69CAB",
"v. c #A49DB2",
"b. c #A29EBA",
"n. c #A89FB1",
"m. c #A4A1A7",
"M. c #AAA1A5",
"N. c #A5A3AA",
"B. c #ADA4AB",
"V. c #ACA9AE",
"C. c #B0A7AE",
"Z. c #B1A9AE",
"A. c #A6A1B4",
"S. c #ABA2B4",
"D. c #ADACB2",
"F. c #A6A2BC",
"G. c #ACA5BA",
"H. c #AFA8BE",
"J. c #B1A7B2",
"K. c #B4ACB4",
"L. c #B3ABBC",
"P. c #B8AFB9",
"I. c #B6B0B7",
"U. c #B6B2B9",
"Y. c #BAB4BC",
"T. c #BCB9BF",
"R. c #B8B1B6",
"E. c #AAA6C2",
"W. c #ADA9C3",
"Q. c #B4ADC3",
"!. c #B4AEC9",
"~. c #B6B0C6",
"^. c #BBB4C3",
"/. c #BEBAC1",
"(. c #B7B2CA",
"). c #BBB5CB",
"_. c #BEB9CD",
"`. c #BBB7D0",
"'. c #BEB9D0",
"]. c #C1BCC5",
"[. c #C3BDCB",
"{. c #C2BDD3",
"}. c #C2C1C6",
"|. c #C6C2CB",
" X c #C9C5CE",
".X c #CAC9CE",
"XX c #C6C2D5",
"oX c #CAC6D3",
"OX c #CDCAD4",
"+X c #C6C3D8",
"@X c #C9C6DA",
"#X c #CDCADC",
"$X c #D0CED6",
"%X c #D1CEDD",
"&X c #D2D1D6",
"*X c #D4D2DC",
"=X c #D9D7DE",
"-X c #DAD9DE",
";X c #D3CFE0",
":X c #D5D2E1",
">X c #D8D6E3",
",X c #DDDCE2",
"<X c #E0DEE5",
"1X c #E2E1E5",
"2X c #E5E4E9",
"3X c #EBEAEE",
"4X c #EEEDF1",
"5X c #F1F0F4",
/* pixels */
"l Q D Q ~ ^ ] O.@.$.7.0.s.N.D.D.R.T.T.T.}.}.}.T.T.T.U.D.N.D.@.m F s.T.U.T.T.}.}.}./.T.T.T.U.D.D.N.s.9.9.2.@.] ] ] ~ U U U F F j ",
"7 F ] ] O.$.2.9.s.N.D.U.T.}..X&X=X-X,X1X1X1X1X1X,X-X&X&X.X9.M j l D D.1X-X1X1X-X1X1X1X-X-X&X&X.X}.T.U.D.N.s.9.2.@.] ] ] ~ ~ m 3 ",
"7 0 ~ q.s.N.V.D.T.T.}..X&X&X-X1X<X2X3X3X3X4X4X3X4X4X3X1Xs.F V l l Z D D.4X4X4X4X3X3X3X3X2X,X,X-X*X&X.X}.}.U.D.D.N.s.9.9.2.~ 3 3 ",
"- w D N.D.U./.}.}..X.X&X&X&X-X-X-X,X,X<X1X1X1X3X-X X1X*X} U V j l Z U O.&X-X.X-X2X<X,X,X,X,X>X:X*X&X&X.X+X+X}.}.`.T.W.s.b.` 3 3 ",
"- q D Z N.N.V.}.}. X.XOX&X&X&X-X=X-X<X<X<X<X<X>X7.U.g.#X@.U V j l F D $..X2.V.7.1X,X>X,X-X:X:X:X%X#X@X@X.X+X.X`.+XD.N.9.~ ` 3 3 ",
"- 7 D l F F N.}.}.}. X.X.X&X&X&X$X$X$X*X*X*X=X*XD Z ] #X} U V j l Z D $..XZ F ] ,X,X>X>X>X:X:X%X%X%X%X@X.X@X@X+X@XN.m U ] ` 3 3 ",
"2 7 F O.F $.T.}.}.}.}..X}..X.X.X.X$X$X$X$X%X*X*XU.@.).#X} U V j g Z D $.&XU.@./.>X:X:X:X:X:X:X%X%X%X%X#X#X#X@X@X+X+X<.` d.T 3 3 ",
"7 7 F O.7.D././.}.}.}..X}..X.X.X$X$X$X$X&X$X&X%X#X%X*X@X:.U M j l Z D @..X*X#X#X:X:X:X:X:X:X;X;X%X%X%X#X#X#X@X@X@X+X(.k.d.T 3 < ",
", 7 S O.7.D./././.}.}.|.|. X.XoXOXOXOX$X&X$X&X*X#XoX%X@X:.U V j l Z F O..X&X+XOX:X>X:X:X;X:X;X;X:X#X:X#X#X#X#X@X@X+X`.b.d.U 3 3 ",
"- 7 S O.9.U./././.}.}.|.|.oX X.X.XOX$XOX$X&X&X&X&X#X:X#X:.U V j j Z D O..X=X$X#X:X:X:X:X:X;X;X;X#X:X#X#X#X#X@X@X@X+X`.b.d.U 3 < ",
"- 7 F $.s.U.T././.}.}.|.|. X XoX.XOXOXOX$X$X%X%X*X:X>X#X:.T V j l Z D O.}.-X*X%X:X:X:X:X;X;X;X;X#X:X#X#X#X#X#X@X@X+X`.E.h.T 3 3 ",
"- 0 S 2.l.I.T././.}.}.|.|.|. X.XOXOXOXOX$X$X&X%X*X>X>X#X:.U V j g Z D O..X=X:X:X:X:X:X:X;X;X;X;X:X#X#X#X#X#X@X@X.X+X`.E.k.` 3 < ",
"- 7 F 7.m.I.T././.].[.}.|. X X.XoX.XOXOXOX&X&X&X*X:X>X@X,.U Z j l l D O..X&X*X>X*X:X:X%X;X;X;X#X#X#X#X#X#X@X@X@X@X@X`.W.b.` 3 < ",
"- 7 F 2.s.I.T././.].].|.}.|.|..X.XoXOXOXOX#XOX%X%X>X>X#X,.T M b j Z D O.}.-X=X:X:X:X:X;X;X;X;X;X:X#X:X#X#X#X#X@X@X@X`.W.b.` 3 3 ",
"- 7 S 2.r.I.T./.].].].}.}.|.|..X.X.XoXOXOX%X#X&X%X:X>X@X,.U V j g Z F O..X-X*X:X:X:X;X;X;X;X%X%X:X#X#X#X#X@X@X@X@X+X`.W.b.` 3 3 ",
"7 7 A =.s.I.T./././.[.}.}.}.|. X.XoX.XOXOXOXOX$X%X:X>X@X,.T V j g Z F ] }.&X*X*X;X;X;X;X;X%X%X%X#X#X#X#X#X@X@X@X@X+X`.W.b.~ 3 < ",
"- 7 A 7.q.I.T.T././.].].]. X|. X.X.X.XOXOXOXOXOX$X:X:X#X<.T V j g x S  .|.*X*X:X;X;X;X;X;X;X#X;X#X;X#X#X#X@X@X@X@X+X`.!.b.` 3 3 ",
"- , A 2.l.I.T.T././.].].|.].|.|. X X.X.XOXOXOXOX$X%X:X@X<.T V j g v S  .|.$X*X%X;X;X;X;X#X#X;X#X#X#X#X#X#X@X@X@X+X+X`.E.b.` 3 3 ",
"- 7 F =.q.D.T.U././.].].].|.|.|. X X X.X{.OXOX$X#X%X:X@X<.T V j g x S O.}.$X*X;X;X%X;X#X;X#X#X;X#X#X#X#X@X#X@X@X+X+X`.!.b.` 3 3 ",
"- 7 F 2.l.I.U.T././.].].].|.|.|.|. X X X$XOX$X{.%X;X;X@X<.T V j g x S ) }.%X%X%X%X;X%X;X#X;X%X#X#X#X#X@X@X@X@X+X+X+X`.E.b.` 3 3 ",
"- 7 D 2.q.I.U.T./././.].].].].].[..X[.OXOX[.&X$XOX%X;X@Xo.W C n g x F ] }.$X*X%X#X;X%X#X#X#X#X#X#X#X#X@X@X@X@X+X+X+X`.E.b.` 3 3 ",
"- , S =.q.I.Y.Y.Y././.].].|. X X.X[..XOX[.$XOXOXOX#X;X{.u.W C n g l F O.].$X$X%X%X#X;X#X#X#X%X#X#X#X@X@X@X@X@X+X+X+X`.E.E.` 3 3 ",
"& 7 S =.q.I.U.T./././.].].].[.[.|.|..X[.[.OX[.$XOX#X;X{.u.` C 6 g l A ) }.OX#X*X#X#X#X#X#X#X#X#X#X@X#X@X@X@X+X+X+X+X`.E.k.` 3 3 ",
"& 7 S =.q.Z.U.Y.R././.].].].].].|.|.[.OX[.OX[.OX+X;X;X@Xo.` C f g l F ) /.OX*X#X#X#X#X#X#X#X#X@X@X@X@X@X@X+X+X+X+X+X`.E.k.` 3 3 ",
"- 7 F =.q.D.R.Y.T.T.T./.].].].].|.|.|.|. X X[.oXOX#X;X{.o.[ C f g l A ) }.OXOX#X#X#X#X#XOX@X@X#X#X@X+X+X+X+X+X+X+X+X`.E.k.` 3 3 ",
"& 7 F =.r.D.R.T.Y.T.T././.].].].].|.|.|. X X[.OXoXOX#XXXo.' C f y l F ) T.OXOX#X@X$X#X#X@X@X@X@X@X+X+X+X+X+X+X+X+X`.`.E.k.` 3 3 ",
"& , F =.q.Z.U.U.R.T.T././.].].].|.].|.|.[. X X XoXoX#X{.o.' C f i l Z ) T.OXOX#X@X@XOX@X@X#XOX@X+X@X+X+X+X+X+X+X+X`.`.E.b.` 3 < ",
"& , A =.q.V.R.U.Y.Y.Y././.]./.].].|.].]. X[. XoX{.oX#X{.o.` C f i l A ^ /.oXOXOX@XOX@X@X@X@X@X@X@X+X+X+X+X+X+X+X`.+X`.E.k.` 3 < ",
"- 7 A w.q.V.I.I.Y.Y.Y./././.].].].].|.]. X X|.|.oXoX@X{...| n f y z A ) T..XoXOX@X@X.X@X@X@X+X+X+X+X+X+X+X+X+X`.`.+X`.E.k.` 3 3 ",
"& - D =.q.V.I.R.R.Y.Y./.T./././.].].].].|.].|.|.oX{.XX{.o.' C s y z A ) Y..XOX+X+X+X+X@X+X+X+X+X+X+X+X+X+X`.`.+X+X`.!.b.k.` 3 < ",
"- - D =.q.V.R.R.R.Y.Y.Y.T./././.].].].|.[.[.|.|.oX[.#X{.o.` n s q l A _ Y..XoX+XXX.X.X+X.X+X'.+X+X+X`.+X+X+X+X+X`.`.!.E.k.` 3 3 ",
"% 7 F =.q.V.K.R.R.Y.Y.Y.Y./.Y.].].].].].].|.[.|.[.[.{.[.o.| C s q z A ) Y.[.oXoXXX+XXXXXXX+X+X+X+X+X`.+X`.+X`.`.+X`.!.b.k.` 3 < ",
"% , D =.q.B.D.R.P.P.Y.Y.Y.Y.Y.].^.^.].].].[.[.[.[.{.{.`.o.` n s q l A ) Y.|. XXXoXXXXXoXXXXXXXXX[.XX{.{.{.'.'.{.'.'.!.F.o.' 6 1 ",
"% - A =.q.V.K.R.R.P.R.Y.Y.Y./.Y.^.^.].].].].].[.[.{.{.{.o.` C s q h v ) R.}. XXX{.{.{.{.{.{.{.{.{.{.{.{.{.'.'.'.`.'.!.F.E.| 6 1 ",
"& , A w.8.B.K.K.R.P.Y.P.Y.Y.Y.].].Y.].].].].[.[.[.[.{.!.o.` n s q h A ^ R.[. X{.{.{.[.{.{.{.[.{.{.{.{.[.'.{.'.'.`.).!.b.o.` 6 * ",
"% - A w.e.M.K.D.R.R.R.R.Y.Y.Y.].].Y.P.].^.].^.].[.[.{.!.o.C n s q h Z ^ R.]. X[.{.[.{.{.{.{.{.{._.'.{.'.'.{.).'.`.`.!.v.k.` 6 1 ",
"% - D =.0.B.Z.R.K.R.R.R.R.Y.Y.Y.Y.].Y.].].].].].].].{.W.o.C n s w h v ^ R.].[.[.[.{.{.[.{.{.{.{._.{.'.'.).'.).).`.`.E.k.j.` 1 $ ",
"% , D =.0.M.Z.K.K.R.R.R.R.R.Y.Y.Y.Y.Y.Y.P.].^.].].].[.!.o.C b 6 w h Z / K.].[.[.{.).[.{.).[.).)._._._._.).).).).!.!.!.k.h.` 6 * ",
"% - v w.t.B.K.K.K.K.K.R.P.R.P.P.Y.Y.].Y.].].].~.].].!.!.[ ` n p w g Z / C.].[.[.{.[.[.{.[.).).[._._.).).).).).!.!.!.!.j.o.` 2 1 ",
"% - A =.t.M.C.Z.Z.K.K.R.P.P.P.P.Y.Y.Y.Y.P.].P.].Q.[.~.Q.[ ` n p w g c _ Z.].[.[.).[.).).).[.[.).).).).).).).).!.!.!.E.j.h.` 2 * ",
"% - A w.0.M.V.D.Z.R.R.R.R.R.P.P.P.Y.Y.Y.].].Y.].^.^.^.Q.| C b 6 8 i x / Z./.].[.^.).[.(.[.).).).).^.).).).~.~.~.`.!.Q.o.k.' 6 * ",
"% - v =.0.M.Z.Z.Z.R.Z.R.R.C.P.P.Y.P.P.Y.P.Y.^.P.^.^.~.L.| C b p 8 g v ! C.Y.].[.^.[.[.^.).).~.).).).~.~.~.~.~.!.!.!.E.k.o.| 6 * ",
"+ - v =.8.M.Z.Z.Z.Z.C.R.R.R.K.P.P.P.P.P.^.P.P.].^.P.Q.H.| C s 6 7 i x ! C.Y.^.].].!.!.~.).^.).^.~.~.~.~.~.~.!.!.!.Q.G.F.o.C 1 * ",
"+ - A =.8.r.Z.Z.C.Z.R.C.C.R.R.K.P.P.P.P.P.P.P.P.^.Q.Q.G.[ C s 6 8 i x ! C.P.^.^.Q.].Q.].~.^.~.^.~.~.~.Q.!.!.!.H.Q.Q.F.o.o.` 1 * ",
"+ - A w.8.z.V.V.C.C.C.Z.P.C.R.C.P.P.P.P.P.P.P.P.P.P.Q.G.' C s 6 7 y x L B.R.].^.].Q.L.Q.Q.^.^.Q.Q.^.Q.Q.Q.H.!.H.Q.W.E.j.o.` * $ ",
"+ - A ;.8.M.M.M.C.C.Z.R.C.P.C.P.C.J.P.P.P.P.P.P.^.L.L.S.' C s 6 7 y x ! B.R.L.^.].Q.].Q.~.Q.~.Q.Q.Q.Q.Q.Q.Q.Q.H.E.E.E.b.j.` 1 $ ",
"+ & A ;.w.M.Z.M.C.C.C.C.C.C.C.P.P.C.P.K.P.P.P.P.L.L.Q.!.' n s 6 , y x L M.R.P.^.H.Q.].Q.Q.Q.Q.Q.Q.Q.L.L.H.E.Q.E.E.H.E.o.o.C 6 $ ",
"+ & A ;.8.M.M.Z.C.C.C.C.C.R.C.R.C.P.K.P.J.P.P.P.L.L.H.o.' n s 6 , y z L M.K.P.L.H.Q.H.L.L.L.Q.L.H.L.H.H.H.H.G.H.G.H.!.o.o.C 1 * ",
"+ & A ;.8.r.M.M.V.Z.Z.Z.Z.Z.Z.Z.J.K.K.K.P.J.J.P.P.P.J.c.` f 6 ; : r h ( z.P.P.^.L.Q.L.L.L.Q.L.L.H.H.H.H.H.H.G.G.G.G.F.o.o.C 1 * ",
"+ & A ;.8.r.M.V.M.M.Z.Z.M.Z.Z.Z.C.C.J.K.J.P.P.J.J.J.S.c.` b s 6 : e z G z.J.J.L.L.L.L.L.L.L.L.G.H.H.G.G.G.G.G.G.F.F.H.G.o.| 1 $ ",
"+ & v ;.w.r.M.M.Z.M.Z.M.Z.Z.Z.Z.C.J.J.J.J.P.J.P.L.J.S.x.C b 5 1 : q c ( z.J.J.L.H.L.L.L.G.H.G.L.G.G.G.G.G.n.b.G.n.G.o.o.o.n 1 $ ",
"+ & v ;.w.r.M.M.M.M.M.Z.M.M.Z.Z.J.J.C.J.C.J.J.J.J.J.n.f.` b p 4 : w u ( e.J.J.J.H.J.G.J.G.G.G.S.G.G.G.G.G.G.n.G.b.n.W.o.o.C 1 $ ",
"+ % v ;.w.r.M.M.M.M.M.C.M.M.Z.Z.B.C.C.C.J.J.J.J.J.J.n.a.G f 6 6 - w h K z.B.J.J.J.J.J.G.G.S.G.G.J.S.G.v.G.v.v.n.n.b.!.o.o.C ; $ ",
"+ & v %.w.e.r.M.M.M.M.M.M.Z.M.M.B.B.B.C.B.J.B.J.J.J.n.f.C f 6 4 > w h K e.B.J.J.G.S.G.G.S.S.S.S.S.S.G.n.n.v.G.n.v.n.G.o.o.n 1 $ ",
"+ % v %.w.r.M.M.M.M.M.M.M.B.Z.M.B.B.B.B.B.J.B.J.n.J.c.x.B f 6 1 - w i K e.B.J.n.J.S.S.S.S.S.S.n.n.n.n.v.v.v.v.G.v.o.F.o.o.n * $ ",
"+ % v %.;.e.r.M.M.M.M.M.M.M.M.M.B.B.B.B.B.B.B.B.B.n.c...C 5 6 6 & 7 i K t.z.c.J.S.S.n.n.S.n.n.n.n.n.v.n.v.n.o.H.G.H.o.o.o.n 1 $ ",
"+ & x %.;.e.z.z.z.z.z.M.z.M.M.M.B.B.B.M.B.B.B.B.J.c.c.a.B p 6 1 & , i K e.z.M.B.J.n.n.n.n.n.n.n.c.n.S.S.n.n.v.S.o.H.f.o...b 4 @ ",
"O + x +.8.e.r.r.r.r.z.r.r.z.r.z.r.r.r.z.z.r.z.M.e.l.a.6.N p 6 = - , i v t.r.l.l.n.c.c.c.c.c.n.J.x.a.x.S.o.n.o.o.n.o.x.o.o.f $ @ ",
"O + v x M.9.+.w.w.-.-.-.-.-.-.-.-.4.4.4.4.t.t.-.E c.{ o.b 6 6 * & , i K 4.R A.~ n.c.........c.........o...o.o.....( x.j.C n $ $ ",
"O % v x N H _ +.+.+.+.+.) &.&.&.*.*.*.*.........A B G y.V 5 6 = & , y v t.c S R ............................| | ..| c t n n $ $ ",
"O % h H c c J K ( ( J ( ( ( ( ( ( ( ( ( _ _ ( _ J B ( E j 0 4 = & , r v _ J c J ( ( ( ( ( ( ( ( ( ( G B G G B B B B n 5 B 6 4 @ ",
"O % , > ; ; ; , ; : : ; e e e , t 5 t t t u 5 t t t t 5 r 0 2 = & , w t r r u t t t t t 5 t 5 5 t t 5 5 5 5 5 5 5 5 5 5 4 ; $ @ ",
"O O O O + + + > > + > > > > ; ; ; ; ; ; ; ; ; ; 5 ; ; ; > : - & & > > > ; ; ; ; 5 ; ; 5 ; ; ; ; ; ; ; ; ; # # # $ # @ o o @ $ @ ",
"X X X X             o o o o o o o o > o o # O O o O O O O O O O O o o o o o o O o # o o o o o o o o o o o o o o o o   . .       "
};
