/* XPM */
static char *result[] = {
/* columns rows colors chars-per-pixel */
"64 64 231 2 ",
"   c #030001",
".  c #0C0204",
"X  c #0C060A",
"o  c #130C0D",
"O  c #140709",
"+  c #19110D",
"@  c #150C12",
"#  c #190D16",
"$  c #141213",
"%  c #1A1314",
"&  c #151419",
"*  c #1C151A",
"=  c #1C1A1C",
"-  c #18181A",
";  c #0E0F13",
":  c #231C1D",
">  c #23181D",
",  c #1E1C22",
"<  c #241E22",
"1  c #281E22",
"2  c #241F28",
"3  c #1F2021",
"4  c #242224",
"5  c #2B2325",
"6  c #25242A",
"7  c #2C262A",
"8  c #2B2A2D",
"9  c #28282B",
"0  c #30272B",
"q  c #312A2D",
"w  c #312527",
"e  c #38312E",
"r  c #2C2C32",
"t  c #2C2731",
"y  c #332E32",
"u  c #332F3A",
"i  c #353134",
"p  c #3A3435",
"a  c #3D3837",
"s  c #35343B",
"d  c #3B353B",
"f  c #3C393D",
"g  c #43363B",
"h  c #433C3C",
"j  c #4A3B3E",
"k  c #413436",
"l  c #3A3644",
"z  c #3E3C43",
"x  c #3D3B4A",
"c  c #373340",
"v  c #423D43",
"b  c #4C3D42",
"n  c #423E4D",
"m  c #433740",
"M  c #513F46",
"N  c #444145",
"B  c #4A4445",
"V  c #45434B",
"C  c #49454D",
"Z  c #4B494C",
"A  c #534245",
"S  c #54434A",
"D  c #5C464B",
"F  c #5C494D",
"G  c #55494D",
"H  c #454352",
"J  c #494653",
"K  c #4D4B53",
"L  c #4B4A59",
"P  c #524D54",
"I  c #5B4C54",
"U  c #524E5A",
"Y  c #5A4C57",
"T  c #535156",
"R  c #5D5155",
"E  c #54525A",
"W  c #5D525A",
"Q  c #5E5A5E",
"!  c #624A4F",
"~  c #614E56",
"^  c #645355",
"/  c #6C555B",
"(  c #6B5A5C",
")  c #665259",
"_  c #72595D",
"`  c #71575D",
"'  c #5B5766",
"]  c #5F5A70",
"[  c #655B65",
"{  c #785D62",
"}  c #635E75",
"|  c #64636C",
" . c #6C656B",
".. c #6F6A6C",
"X. c #696365",
"o. c #7D6164",
"O. c #726B6C",
"+. c #76686A",
"@. c #6D6B72",
"#. c #67637B",
"$. c #69657D",
"%. c #6D6C7A",
"&. c #686374",
"*. c #746474",
"=. c #736D73",
"-. c #7B6978",
";. c #747075",
":. c #74737B",
">. c #7A747A",
",. c #7A7679",
"<. c #806266",
"1. c #836E7B",
"2. c #806B77",
"3. c #837273",
"4. c #8C757B",
"5. c #887679",
"6. c #91777D",
"7. c #917A7D",
"8. c #6C6981",
"9. c #6B6780",
"0. c #7B7B83",
"q. c #787887",
"w. c #777390",
"e. c #897683",
"r. c #957C83",
"t. c #917B87",
"y. c #817C98",
"u. c #84838B",
"i. c #878389",
"p. c #9A8B8C",
"a. c #8C8C93",
"s. c #888596",
"d. c #938C96",
"f. c #94939B",
"g. c #99959B",
"h. c #9B908F",
"j. c #A59B9C",
"k. c #AA9B9D",
"l. c #A49597",
"z. c #978CA7",
"x. c #9C9CA4",
"c. c #9B96A7",
"v. c #9C96BB",
"b. c #9188A8",
"n. c #A493A5",
"m. c #AC9BA3",
"M. c #A69BA8",
"N. c #A59BB7",
"B. c #AAA1A5",
"V. c #A5A3AB",
"C. c #ABA3AC",
"Z. c #A1A0A6",
"A. c #B4A5AC",
"S. c #B4A6AC",
"D. c #ACAAB3",
"F. c #AEAABC",
"G. c #AAA4B8",
"H. c #B3A5B3",
"J. c #B9A6B3",
"K. c #B4ABB4",
"L. c #B9ACB4",
"P. c #B3A6BC",
"I. c #B5A9BB",
"U. c #BBABBB",
"Y. c #B9A7B8",
"T. c #B6B5BB",
"R. c #BCB4BD",
"E. c #B9B8BF",
"W. c #B8B0B6",
"Q. c #C4B9BF",
"!. c #9F99C2",
"~. c #A19BC3",
"^. c #AAA4C7",
"/. c #BCADC4",
"(. c #B5ABC9",
"). c #B5B2C3",
"_. c #BDBCC3",
"`. c #BDB2CB",
"'. c #BDB8C7",
"]. c #AEA9D1",
"[. c #B1ACD3",
"{. c #BEB7D7",
"}. c #C1B5C3",
"|. c #C3BCC5",
" X c #C1B4CC",
".X c #C5BCCA",
"XX c #C9BEC9",
"oX c #C2B6D3",
"OX c #C5BBD4",
"+X c #C4BDDB",
"@X c #C2C1C7",
"#X c #C5C3CB",
"$X c #CBC2CC",
"%X c #C9C9CE",
"&X c #CBC5D1",
"*X c #CDCAD3",
"=X c #C7C3DD",
"-X c #CDC9DD",
";X c #C7C4D9",
":X c #D2CBD6",
">X c #D4CDDB",
",X c #D2C8D5",
"<X c #D5D3DB",
"1X c #D8D5DE",
"2X c #DAD9DE",
"3X c #D2D2D6",
"4X c #D0C6CF",
"5X c #CAC5E2",
"6X c #CCC7E3",
"7X c #D2CDE3",
"8X c #D2CDE9",
"9X c #D5D2E3",
"0X c #DAD4E4",
"qX c #DCDAE4",
"wX c #D6D2EA",
"eX c #DAD5EB",
"rX c #DEDAEC",
"tX c #DDDBF1",
"yX c #E1DFE5",
"uX c #E1DDEC",
"iX c #E1DDF2",
"pX c #E3E2E6",
"aX c #E5E4EC",
"sX c #EAE8EE",
"dX c #E5E2F2",
"fX c #E9E6F1",
"gX c #ECEBF3",
"hX c #EDECF9",
"jX c #F2F2F5",
"kX c #FCFCFE",
"lX c #F6F5F9",
/* pixels */
"X.:.,.,.,.0.0.i.i.u.a.a.a.f.f.g.Z.Z.C.D.D.T.T.E._._.@X@X#X#X%X%X#X@X#X@X@X_.E.E.T.D.D.V.Z.x.x.f.a.a.a.u.u.0.0.0.0.0.:.:.%.@.@.' ",
"Z @.u.u.u.a.a.g.g.g.Z.V.D.W.T._.@X$X%X3X3X3X2XyXpXpXpXsXaXsXpXsXpXsXpXpXpXyX2X2X<X3X*X%X@X@XE.F.D.V.Z.x.x.a.a.s.u.0.0.q.q.0.| H ",
"B T ,.Z.V.C.D.K.T.E._.@X%X3X3X2X2XyXyXpXsXsXsXsXjXjXjXjXjXjXjXjXlXjXjXjXjXsXsXsXaXaXpXqXqX2X3X3X%X@X@X_.T.F.G.V.V.x.c.c.f.%.L H ",
"B T @.K.K.@X%X*X3X3X3X2X2X2X2X2XyXyXyXuXpXsXsXsXpXsXsXsXfXgXfXfXsXsXsXsXsXsXaXaXdXyXyXrXqXeX9X9X8X9X7X-X-X-X;X;X;X+X'.F.^.%.L x ",
"N Z ;.,.g.D.).>X:X>X>X>X3X<X2X0XqXqXqXyXrXyXyXyXpXyXuXuXuXuXuXuXuXrXrXuXrXrXrXeXeXeX0XwXwX9X9X9X9X-X7X-X6X-X-X-X6X'.D.F.y.8.H x ",
"N Z ;.O.i.@.M.>X:X>X<X7X2X0X0X0X0XeXeXuXrXrXrXpXrXuXiXuXuXiXiXiXiXiXiXiXtXiXtXiXiXiXtXiXtXtXtXuXtXtXtXeXtXeXeXwXwX).Q q.w.8.H x ",
"N Z O.a.O.i.*X.XC.A.H.A.A.H.H.H.H.H.H.H.K.H.D.D.I.K.K.Y.I.I.K.U.I.I.K.K.I.I.I.I.I.I.I.U.T.P.T.K.F.I.I.K.P.I.H.P.6XwXx.y.v.%.L x ",
"N Z O.g.V..X-X[ 0 q q 0 7 w q 8 q q 0 5 0 q e 8 8 5 0 0 0 0 7 1 7 0 q q q 5 w 8 q q 7 5 5 8 8 8 r 9 5 8 8 q 0 w O.qXtX5X~.%.H x ",
"N Z ..g.V.&XF.t 9 r r 9 - - r r 9 9 3 & 9 r r r 3 $ 9 r r r 6 & 4 r 8 r 9 & 3 r r r r - - r r 8 r , - 9 r 9 r 3 8 #XrX+X~.$.H x ",
"N Z ..g.F.>XF.r y i s r 3 3 s i s s 3 3 s s s s 6 3 r s i s 9 , 9 s s a r 3 4 s s r s 3 3 s s r s 4 3 r s r u 3 e #XtX5X^.$.L x ",
"h Z ..M._.1XF.r s s s i 3 3 s s s s 3 3 s s s s 6 - i s s f r - 8 f s f i = 4 s s s s 3 3 s s s s 3 3 i s s s 6 e #XrX6X].$.H x ",
"h B ..B..XqXF.s s f z s 3 4 z f z z 6 3 f z z z 9 - s z z z r , r N z z s = 9 N N z s 3 3 s N z z 6 3 s z s z r i .XrX6X[.9.J x ",
"h B ..V.#XrXF.c N N Z N 3 9 Z V Z V 6 3 V Z Z Z r - z Z Z K s - i K Z K z , 8 Z Z Z Z 3 6 V Z V Z r , z C V V u p .XtX5X[.%.H x ",
"N B O.V.#XuX).z Z K K V 3 r T K T K 6 3 K L T T r 3 V E T E z = f E T T V 3 r E E L L 3 6 K T K T r 3 V U K K s p .XtX5X[.$.H x ",
"N B O.V.#XaXF.z K K T V 4 r T Z T K r 4 K T E E i - V E T E x - f E T E V , r E E L T 6 9 Z E L E r 3 Z E K L c s #XeX6X[.8.H x ",
"h B O.Z.#XaX).z Z Z K N 6 8 Z Z K J 9 4 Z Z Z K s - N K K P l = s K K T V , r K K K K 6 9 Z K K L r 3 V K J K s a $XtX6X[.8.H x ",
"a B O.B.%XsX).c N N C v 2 6 V N C N 6 : N V V C r - f C C C s , u K n C l = 8 C C C n 2 4 V J n V r 4 z J n C u p &XwX5X[.9.H x ",
"f B O.B.@XsX).f g f h s : 4 v g v f 2 = f v h v 6 * p v m v r * q m v v s = 5 v m m l , 4 m m m z 6 = d m l v t d &XwX5X[.9.n x ",
"a B ..Z.#XfX).s p p d i , < p p d i 2 > p d d d 6 % q d s f t * w a d d i = < d d d d , > p d d d 2 = y d d d 6 a &XwX+X[.9.H x ",
"a B ..Z..XdX).u q y p q * : i i p y = * y p y p 4 % q p p p 7 & 5 p y p y = < p i i p = = y p y p < = q p u i 2 f &XwX5X[.9.n x ",
"p N ..B..XaX'.u q q q 7 % : e q q q : * 0 y 0 y < & 5 q q y 2 & 4 y q y 7 & < q q y q = = 0 q t y = * 7 q q y < z ;X8X+X[.9.n x ",
"a N ..B..XaX).y 5 w q 5 % % 8 w q 5 = + w 0 0 0 > % 5 7 0 0 1 % : q 0 0 5 % : 7 0 7 7 * * w 0 0 0 = % 5 0 7 0 > g 5X8X+X].9.n x ",
"a h O.m.'.aX'.7 : : : : o O 1 : : : @ O : : > 1 % . : > 1 1 > o > : : 1 > o > : > 1 1 X O 1 1 1 1 # @ > 1 > 5 @ f *X5X{.].9.n x ",
"a h  .B.#XrXdXd.p e p p 5 5 p e p p 0 > p p q p q > q p e y q > w p y y q 1 5 y y y p 2 w q e e y 1 1 y y y q d D.dX5X{.].9.n x ",
"a h O.j.D.#X*XpX3X:X:X3X3X3X3X3X>X3X<X<X1X<X1X<X<X1X1X1X0X1X1X<X1X2XqXqXqXqXqXqX0XuX0XyX0XyXuX0XyXyXyXuXyXyX0XuXhXwX;X(.^.$.x x ",
"a N O.,.C.f.M.|.|.|.@X.X@X#X4X4X&X:X,X,X:X:X<X<X1X1X0XyX0XyXyXuXyXuXuXaXuXuXaXaXdXiXfXdXdXdXdXiXiXiXiXiXiXiXiXiXdX`.M.`.w.9.x x ",
"a h O.3._ ( j.W.L.L.W.R.R.Q.Q.Q.|.|.|..X$X$X$X$XXX&XXX,X,X>X,X,X>X>X>X>X7X>X7X7X8X7X8X5X>X8X7X8X7X7X6X8X6X6X6X6X8X{.[ W w.9.x l ",
"p h ..j.p.h.B.B.B.A.S.S.S.S.S.S.L.L.L.W.L.R.L.Q.}.}.}.}.}.}.}.}.}. X X X X X X X X X XoX X X X X X[. X[. X(.].].].(.N.b.~.} n x ",
"a h ( +.3.3.3.3.3.3.5.5.5.7.7.7.7.7.7.7.7.7.7.7.r.r.7.7.r.r.6.r.r.r.r.r.r.r.r.e.t.e.e.e.e.e.e.e.1.e.-.-.-.-.-.-.*.*.*.*.*.U n l ",
"p B ^ ^ R ^ ^ ^ ^ ( ( ( _ _ _ _ o._ { <.<.<.<.<.<.<.<.<.<.<.<.<.<.<.<.<.<.{ <.{ { { ` { ` ` ) ` / / ) ~ ~ ~ ~ Y Y Y Y Y Y Y n l ",
"h B A A A F F F ! F R F ! ^ ^ ^ ^ / / / ( ( _ _ ` ` _ _ _ _ _ ` ` ` ` ` ` ` / / ` ) ) ` ~ ~ ~ ~ ~ ~ ~ M Y Y Y M Y M M S J M M x ",
"a k h h h h h h j j j A B j A A A A A A A D A D D D ! D ! ! ! ! D D D D D D D M D D M M M M M M M M M M b b b b n m b m m m m l ",
"T K Z T T T E E E Q Q Q Q ' X.X.|  . ...O.=.=.;.;.>.,.:.>.>.>.>.e.-.>.>.:.;.;.;.@.@.@.@. .&.| | | [ ' ' ' ' E E E E E L L L L L ",
"X.@.X.| X.| ....@.@.;.:.,.0.,.0.u.u.u.a.a.a.f.f.f.f.x.x.x.x.Z.M.M.c.x.x.x.x.c.c.c.f.a.a.s.u.u.0.q.0.0.:.:.8.%.@.&.&.| } | | | ' ",
"Z ,.0.;.:.u.d.d.f.g.Z.Z.V.D.K.T.E.E.@X@X#X%X:X:X3X3X<X2X0X2X2X2XqXqX2X2X1X<X3X3X:X*X&X&X#X@X_.).F.D.D.V.x.x.f.f.a.s.u.q.%.%.| H ",
"Z Q f.g.Z.T.T.|.@X%X%X3X2XqXyXpXpXsXgXjXlXlXlXlXkXkXkXkXkXkXkXkXkXkXkXkXkXkXkXlXlXlXlXhXgXgXaXaXpXqX1X-X*X#X{.'.).F.G.Z.x.s.L x ",
"Z T ,._.|.|.@X@X%X*X*X3X>X<X<X2XqXqXpXpXaXaXaXfXfXfXgXfXfXgXgXgXgXgXgXgXgXgXgXgXgXfXfXfXdXdXdXrXtXtXrXwXwX9X7X6X6X=X=X6X{.w.L H ",
"B Z ;.B.D.R..X@X#X$X$X%X&X:X:X>X3X>X:X>X>X7X>X0X9X<X0X0X0X0XwX0XwX0XwXwXwXwXwX8XwXwX8XwXwX8X8X8X8X8X8X8X8X8X8X8X8X8X;X'.].8.L H ",
"B Z ,.,.g.c.n.Q.R.R.'.Q.Q.}.|.|.}..X.X.X.X.X XOX.X XOX.XOXOXOXOXOXOXOX+XOX+X+X+X+X+X=X+X=X=X=X-X5X;X5X5X5X5X5X5X8X).a.F.y.w.L H ",
"N B ,.3.-.*.l.S.J.S.A.A.J.J.S.K.Y.J.Y.Y.Y.Y.U.Y.U./.Y./.U./././.}. X/. X X X X X X XoX XoX{.oXoX{.{.OX{.{.OX{.OX{.].| %.y.8.L x ",
"N B O.j.i.j.E.5.T R R R G G T R R W P G R W W W P P R W W W E P Y W W ~ W P Y W W W W P P R W E E Y P E W E W P i.{.G.b.!.8.L n ",
"B B ,.j.B.E.j.e 9 8 8 9 & - r 8 r 9 & & 9 9 r r - ; 6 r 8 r 3 ; < r r r 9 ; - r r r 6 & & 8 r 8 r - $ 6 r 9 r 3 e K.oX(.~.9.L n ",
"B B ;.j.B.|.d.y z z z f 4 9 z z v z 9 4 z x z z r , s z N N s , u N z N c 3 9 N z z z 6 6 z N z v 9 4 f x z x r w B. X^.!.9.H n ",
"h Z O.j.S.@Xz.u z z z z 6 9 N x N z 9 6 N N V V r 3 f V N V s , y V N V z 3 r N V V x 6 9 x N z V 9 4 f V x N r q B.`.^.!.9.L x ",
"h B O.B.W.$Xz.s N n N z 6 9 V N V N 9 4 N N V Z r , z C N C c - i V V V x 3 8 C V V N 6 6 N V V C r 6 z C N H u y m.}.^.v.#.H x ",
"h B O.k.W.&Xc.s N N V z 4 9 V n V x t 3 N V V V r = f H C J c , i J V J x 3 9 Z J C H , 9 x H H H 9 3 z H V C u y m.}.^.v.#.H x ",
"h B O.B.R.,Xc.s N N N z 6 9 V N V N 9 3 N V V Z t = f C V J c , i Z C C x 3 9 V V V V 6 4 N C V V r 3 z C N V u y m./.~.~.} H x ",
"h B O.B.R.,Xn.l N v N z 3 9 V N N N 6 3 N N N V r = f V N V s - r V V V z = 9 V V V N 6 4 z C N V r = f V n n u y A./.~.v.9.n x ",
"h B O.B.R.,XM.c m z v d , 5 v f v m 4 : z v v v 7 * p N v b s - y v v N d , 5 v v v l 2 < f n m n 6 > d m v n r i C.^.N.v.} n m ",
"a B O.j.R.>XM.u p d d d - < a d k d , = p d f f 2 % y f s g r & 7 f f g u - 4 f f d d , > d f d f 2 = y l d g 7 p C.P.N.v.} n x ",
"a B O.j.R.>XM.y q q p 8 % : i y y y = = i q p y < $ 8 p y p 7 & 5 p y u 7 & : i p y y - = q p y u 2 % 8 u y y 2 p H.P.N.v.} n x ",
"a h O.B.W.:XN.y 8 q q 5 % % q q q 8 * + q q q q , o 5 q q q 2 @ : q 7 y 7 # > 0 t 0 q & % 8 0 0 7 = % 5 0 7 7 < p H.G.N.b.} n l ",
"a h O.j.W.3XN.8 5 5 5 4 o + 5 5 5 5 # O 5 5 5 5 * . : 5 5 5 < X : 5 5 5 1 X * 5 1 5 5 # % 5 5 w 5 # @ 1 5 5 5 * p H.^.v.b.} n l ",
"a h O.j.S.3XN.7 : : < > o o < 1 1 : $ . : 1 1 1 & . > 5 : 1 > . + 5 : 1 < O + 1 1 1 1 X + : : : 1 @ O : 1 : 4 @ p H.P.n.b.] x c ",
"a h O.j.L.4XD.7 : : : : X X > : > : o . : : : : # . % > : : % . + : > : > . O > > > < . . > > > < X . = = : : o p H.P.z.y.] n l ",
"e a X.j.S.3XG.< % % * & . . > % * * X   % > % > O   @ : > * +   O : % : %   . * = * *   . % * > * X . + = % : X p I.~.z.b.' x c ",
"e h X.j.L.$X'.' > + + % % o % % + + > + + $ % % + $ @ % + % # + o % % % @ $ o % > + + $ o % % % % o + @ % % # 1 ,.'.N.z.s.' n c ",
"a k X.k.S.}.*X<X@XT.R.E.#X_.E.E.E.Q.@X_.E.E.E.T._.@XR.R.R.R.R.XX_.T.T.W.T.@XE.T.U.U.W._.|.T.T.T.T._..X_.R.Q.U.oXyX Xv.b.s.' m c ",
"e a X.h.C.D.k.Q.XX$X$X$X$X4X$X$X4X4X4X4X%X4X,X:X,X,X<X<X>X>X0X>X>X0X0X0X0X0X0XuXrXrXuXuXuXuXuXuXuXiXuXiXiXiXiXiXwX(.M.G.w.' l l ",
"a a X.O.M.s.p.k.l.l.k.k.k.k.B.k.m.m.m.S.S.S.S.S.S.L.L.L.U.U.U.U./.Q.R.}.}.}.}.}. X}. X X X'. X`.`. X/.`.`.`. XoXoXc.d.U.} ' l c ",
"e k X.5.^ ( p.h.h.l.h.l.l.l.l.l.l.l.k.l.k.k.k.k.m.k.m.m.m.m.m.m.m.m.m.m.m.m.n.m.m.n.m.n.n.m.n.n.n.n.n.n.y.n.n.y.n.y.[ M } ' l c ",
"e a ^ 3.{ 3.O.3.3.3.3.3.3.4.4.4.4.4.4.7.4.6.6.6.6.6.6.7.6.6.6.6.6.6.6.6.6.6.4.e.4.1.4.1.4.1.1.1.1.2.2.-.2.*.e.*.2.-.*.[ *.U l c ",
"e a h j j j j j A A A A A D A D D D D ! ! D ! ! ! ! ! ! ! ! ! ! ! ! ! ! ! ! ! ! ! D ! D D D D D S S M A M M M M M b M b b m m u ",
"e a e a k e k k k k k k k k k k k j k k j j j j j j j j j j b b b b b j b b j b b j m b m m m g g g g g k m k g u m u k c k u u "
};
