/* XPM */
static char *result[] = {
/* columns rows colors chars-per-pixel */
"64 64 147 2 ",
"   c #050404",
".  c #090706",
"X  c #060A02",
"o  c #0B0A06",
"O  c #070608",
"+  c #080708",
"@  c #0D0C0B",
"#  c #110D06",
"$  c #110F0C",
"%  c #0E1306",
"&  c #0E110A",
"*  c #121307",
"=  c #121907",
"-  c #1A1A07",
";  c #13120C",
":  c #1A150C",
">  c #151A0C",
",  c #1A1B0D",
"<  c #100F10",
"1  c #151412",
"2  c #191714",
"3  c #171912",
"4  c #1B1A14",
"5  c #191718",
"6  c #1D1C1A",
"7  c #211E0E",
"8  c #211D15",
"9  c #211E1C",
"0  c #152108",
"q  c #1C220D",
"w  c #1F290D",
"e  c #1D2213",
"r  c #1E2018",
"t  c #232315",
"y  c #2A2416",
"u  c #242B14",
"i  c #2B2B15",
"p  c #23221D",
"a  c #2A261D",
"s  c #25291B",
"d  c #2B2B1C",
"f  c #312C1C",
"g  c #263011",
"h  c #273019",
"j  c #2D331D",
"k  c #32341D",
"l  c #353A1F",
"z  c #252421",
"x  c #292623",
"c  c #272921",
"v  c #2C2A25",
"b  c #2D2B2A",
"n  c #312D25",
"m  c #312E2B",
"M  c #2E3122",
"N  c #2F3028",
"B  c #343325",
"V  c #393525",
"C  c #353A24",
"Z  c #3A3D24",
"A  c #34322D",
"S  c #3A362D",
"D  c #363A2B",
"F  c #3B3A2C",
"G  c #302F30",
"H  c #363431",
"J  c #393632",
"K  c #3D3A34",
"L  c #3E3C39",
"P  c #413C22",
"I  c #40372F",
"U  c #413C2E",
"Y  c #423D35",
"T  c #413E3A",
"R  c #364121",
"E  c #3F4323",
"W  c #3F422C",
"Q  c #3E4234",
"!  c #42432C",
"~  c #49452F",
"^  c #444B2C",
"/  c #48492D",
"(  c #444234",
")  c #4B4634",
"_  c #464934",
"`  c #4A4A35",
"'  c #45423C",
"]  c #4A453C",
"[  c #4D4A3D",
"{  c #524D3E",
"}  c #4D513A",
"|  c #53533C",
" . c #59563E",
".. c #575D3E",
"X. c #464441",
"o. c #494642",
"O. c #4D4A44",
"+. c #4F4C49",
"@. c #524D44",
"#. c #524E4A",
"$. c #555145",
"%. c #585345",
"&. c #55514C",
"*. c #5A554C",
"=. c #5E594D",
"-. c #575450",
";. c #5A5651",
":. c #5D5A53",
">. c #5E5B59",
",. c #615B4D",
"<. c #625D54",
"1. c #625E59",
"2. c #5E614C",
"3. c #66604E",
"4. c #666155",
"5. c #6A6354",
"6. c #65625C",
"7. c #6A655C",
"8. c #6E685E",
"9. c #726B5E",
"0. c #676460",
"q. c #6A6661",
"w. c #6D6963",
"e. c #726D64",
"r. c #786F60",
"t. c #726E69",
"y. c #777163",
"u. c #7B7366",
"i. c #7F7864",
"p. c #75716A",
"a. c #79746C",
"s. c #7D786F",
"d. c #7A7671",
"f. c #7E7972",
"g. c #80796D",
"h. c #827D75",
"j. c #827E79",
"k. c #878076",
"l. c #888075",
"z. c #86827A",
"x. c #8B857D",
"c. c #8B8781",
"v. c #8E8982",
"b. c #938D83",
"n. c #989187",
"m. c #A59E93",
"M. c #AAA398",
/* pixels */
"A m p < 6 4 8 D I [ J ' <.w.:.' >.w.:.K ;.#.-.&.z 4 1 1 6 @ @ 2 z A 9 z x d 2 $ .   $ ; p > f ` n - # 1 , 2 a A 6 2 1 @   @ v K ",
"] J b z d , d ] K { @.@.@.a.w.&.1.X.' ' G J G G J 6 & > 6 @ 4 z 4 1 2 o 6 6 6 2 4 8 6 p 8 a V n a ; . 2 6 6 + 2 6 6 9 1 < x H D ",
"K D D K C d d v m =.7.w.&.#.O.w.w.L L O.x z G b J v o % o B ' z v H ] V B Y 9 p ) ~ ! F b v 4 * $ 4 . $ z A 6 < < 6 b 6 $ 2 p 9 ",
"C F ` j j r k B K o.1.<.K b T ' L +.T H L X.b x v L e O 4 ( Y v v b ] #.*.<.S *.,.,.g.r.Y p ; ; @ @ . o 2 x b r 1 6 6 6 1   @ v ",
"v R C 4 u d D F K m z z 6 ' T L X.H O.X.X.X.O.x x +.] t j ' v b G 8 9 J <.<.a.T Y $.$.$.B c m z $     @ 6 J ] ' H b 9 z 9 5 z J ",
"s C g p M W $.A K A 2 2 9 v 2 H z 1 L 6 x J -.X.b v L ! K O.J X.o.J a x m T ,.%.T J I ] =.9.,.K H 8 < < m ] ~ ` x G G 6 9 6 v 6 ",
"A s s F R [ <.&.@.Y b x z @ 1 A G 9 6 z 1 b z H x H b K O.-.1.j.1.K Y m 9 9 8 H ] #.l.h.x.w.@.' L G 6 2 x B u e 5 R G z r G T b ",
"S v Y ` ( ( @.Y Y S v v p @ 5 6 6 1 < z 9 O O 1 J K ' #.=.v.z.j.w.X.@.,.T 9 n @.H [ h.t.h.:.T ' b G G b 1 + @ @ < 1 z J X.' Q K ",
"Z F @.[ Y s 8 A ] O.' 8 + . . .     + + 2 1 1 @ 2 8 n ;.s.x.v.j.d.g.T n [ 8 Y &.o.-.-.#.t.;.J X.B K K ' 9 .     @ 9 D D D M Q ' ",
"q t a x d o d @.J n A : $ o X $ ;     @ 6 x A v z 4 @.w.<.;.s.w.#.1.<.T Y Y ] <.p.-.T <.0.#.J ] f I | ! m z 1 2 G J D h r h r s ",
"o & , w * 3 ' Y n S ' v p = * o & * 2 8 5 5 @ 9 T ] #.*.b T H T ] m I @.1.@.Y T x H X.T O.o.L #.F F $.%.*.' T o.G z 6 r 3 r h > ",
"@ s u e 4 v F 1 t K A A x 4 = , : t 4 9 1   1 v #.*.#.J J T 9 x G H H o.a.$.[ m x T t.0.O.*.#.T Y @.,.&.e.] ( ~ N Q Q 9 3 e q + ",
"z M K B 3 4 q - d z S p 8 v 8 8 9 n a Y F n n Y *.*.z 9 6 9 z b x z x ' #.H J J m o.#.O.*.1.f.1.J O.;.b H e.5.` ] =.=.o.K M 6 1 ",
"> e ( ' k ; q q = > 2 p m Y Y V P f %.<.@.@.S m T @.b z G x @ O 9 z @ z H S x m @.a.<.h.b.x.v.c.a.<.<.#.m m S o.8.:.:.;.o.h 5 & ",
"O 5 p c f 8 @   @ > t V [ <.4.{ %.Y @.I T =.I m ] ] m x +.G 1 1   ; 5 z x n J ,.e.a.d.e.7.1.O.q.j.g.X.H L L Y x p p p 5 c 3 6 @ ",
"6 z A A 8 >   < c ] [ X.[ K Y ' n n Y *.w.@.S J m x m H x z H b p < m n 6 a @.w.o.#.1.&.T @.] J n #.X.6 K H x c m > * , 3 < v r ",
"r B y d P n v V ! &.&.X.O.] o.<.Y 7 I ] I x n a z v 6 1 $ H -.+.m a z z a m 1.w.#.-.m T ] Y Y H O.G G ;.m b p > S z * > @ 1 2 6 ",
"1 k j u , d `  .` K 6.a.q.T o.=.,.Y I 2 $ 1 2 m T H $ @ 8 x 9 b H x ; > 1 m ] <.a.0.m x m J Y T -.L m w.>.O.S & 2 1 o r 2 ; 9 1 ",
"1 @ , = ; j ! O.v O.d.c.p.#.[ Y ] 5.T I V 7 f H T I J m m z 6 @ z m : - y H ;.-.Y H ] H m 9 @ 1 T L 9 x J x x * * @ o , B r 3 4 ",
"1       @ 6 B p A H +.H #.e.1.%.%.[ [ %.@.I m m 2 < S I z @ 1 1 1 a : , t v v x 5 9 2 1 9 m 6 2 b x 9 5 @ b t ; < @     > @ 2 p ",
"+   O 5 z z d c ' J L X.+.1.w.7.$.%.I Y [ U S 9 8 8 z b 9 $ : 1 9 : : > 8 V n $ @ $ . $ 9 J H ;.1.&.T K -.-.[ H A 6 @ O + 1 6 1 ",
"1 O + 1 4 b C ] X.;.o.J S T 7.e.*.T I @.[ x 2 8 x A b A n : o o # * ; ; V ,.[ z 6 1 4 9 S b b H t.0.0.w.c.f.-.-.8.K z A H z 1 6 ",
"1 + @ < v d E ] T X.H z b *.X.o.T n 8 A A 8 7 A X.T X.L T V y y > o o ; S *.*.T H Y J p A z 6 X.1.;.1.t.#.1.-.J +.6.[ D K K b < ",
"1 9 6 p J [ K Y z 6 L X.K T T 2 2 9 # 8 : # f S K O.O.J O.<.<.U 9 o ; a [ Y Y ;.7.1.,.m +.X.' 1.@.] #.T G T 1.J x ' W e Z _ J 5 ",
"6 9 6 6 z N D M 4 1 b z 1 @ 1 ; 9 7 # # o # S <.] x H T *.T $.{ 8 ; n I r.@.o.q.c.v.t.>.q.H O.X.v b ' ' J b b #.z X.D > V C c b ",
"z < 5 9 1 4 d , p 4 @       o o # . 7 :   : n 4 8 9 v H H I @.Y 8 : p { ,.;.;.7.0.&.>.-.6.+.x 9 H L +.H p + @ x x H ' s F W v 9 ",
"6 6 < 6 p v h h p t p p 8 p s & + @ o . . o y 8 n G 6 < . 1 n V a $ 4 { ,.,.w.w.O.L &.+.;.;.Q O.-.#.H b z H L H b 6 A ] ' W c 6 ",
"@ & 1 b b M e q = B K p x M j 5 @ 2 .   . 8 B ( T b 9 9 7 o 8 8 4 . 9 V T T -.T J 6 b 6 9 G J -.&.L J 6 z ;.6.>.&.p 1 v d u b z ",
"b 6 6 b A u 0 & > j s w q r 3 @ $ 1 5 + + : k S J m n T @.@.{ I 9 8 V ] ] @.O.z z x O.+.+.0.+.9   b L 1 J m T 7.,.Y p [ U r z J ",
"X.Q T D r s u w < > % = % @       @ a c 1 + t , Y @.O.1.p.1.t.<.` / ) Y v ] n z 5 X.0.0.X.>.-.b 1 6 9 9 L o.L z m B 8 n d c ( O.",
"&.K ] v z M e @   O X             1 x D a 5 v f ' H O.t.h.1.X.:.*.@.] S X.;.J m >.0.X.X.-.-.+.L z L b b 6 2 9 p m ' q p B $.:.w.",
":.! ! D v j 3 1 6 + & 1 1 3 1 + + x V S A S } %.;.<.w.d.w.a.j.-.@.{ T %.X.+.T O.0.G G X.L L #.+.L >.L 1 5 5 @ z n { _ ' &.X.H L ",
"K ;.=._ j R Q _ D z 1 v L b 9 6 9 A %.w.w.w.-.+.t.t.&.+.>.-.+.O.@.7.e.1.H z 9 z b x 6 G 9 5 G X.9 H L z 5 z $ $ z J &.,.-.G 9 z ",
"G J o.F j h } y.2.Q x p 6 9 z 6 H | o.+.+.O.L -.&.G 9 b G b J L I @.p.w.T z     5 T v 9 5 @ H T 5 x X.5 5 H x 8 A @.#.-.w.t.T G ",
"p.6.-.@.R Z ' +.>.[ A m A &.K b Q [ H H N X.+.Q G 9 1 6 5 r b 6 $ 6 J T b z   + b X.z H 5 2 1 x 2 + < < < I $.@.*.q.p.1.<.<.;.t.",
"z.v.w.2.| @.X.G ] =.( ' } K K ` $.:.O.G 5 +.+.G 0.L z &.q.>.+.L 2 6 6 5 <   + 1 9 x z 5 m z @ < 6 9 z z . 8 T o.;.,.t.h.-.-.0.h.",
"Q O.>.w.&.X.X.L J $.| ..^ s M ,.&.+.+.b 5 x 9 z L +.>.z.f.c.t.+.T m 1 $ ; ; < @ 2 9 x b G b 5 < z 9 m a $ ; v b z J q.#.X.1.+.+.",
"O.>.d.f.d.w.d.>.' &.#.F r d ' #.[ ' A 2 @ < @ 6 O.w.>.X.H >.>.+.w.#.T K x S ' z z z z T b J 9 . 1 L S # # 8 8 4 b X.o.G z b G G ",
"X.-.>.X.-.>.o.w.d.;.$.( w % 6 z z 6 2 1 3 6 z L t.w.L 6 9 b X.X.#.1.w.O.' 1.w.-.6 5 G J -.1.T 8 9 L O.x # # 8 v L T b v z 5 I o.",
"5 6 x b J z b L >.O.A F 4 > p n 2 ; v , & z X.t.>.L G G +.;.>.w.q.z.k.#.K w.X.z 5 + z J J m b T T z Y S : : 7 9 G L G v 9 @ 6 b ",
"b 6 1 b +.-.X.x 2 z A 3 : q V H v A V v F L ;.;.z 9 L +.>.X.X.6.z.z.p.' 9 b b 5 8 2 2 @ . @ 2 A m Y T @.y n 8 9 9 < 5 H 8   < 6 ",
"x < 1 b X.&.X.x + @ & $ $ t A n A J ' ' H K ;.b J L b G G b z b o.L 1.;.8 2 z m v 2 8 n m 2 . @ : n n n T @.n : 2 < @ 9 J b b z ",
"6 z H b 5 6 9 z 8 * 2 @ # 7 F x S $.=.$.b L X.v J 6 H +.6 O < 1 2 z #.7.I x 9 : 8 2 x J T x 5 8 I T T I ,.,.Y # 1 7 9 x X.O.T < ",
"6 b z 5 O < 1 J B f p + . - i k ' %.<.a.6.>.X.z < 1 L L 6 b x b z 1 z 7.<.S 8 : : 4 4 5 5 8 8 I @.9.5.9.@.Y Y n 7 8 I X.L K z 5 ",
"9 6 m 4 @ @ z ] ] D 6       = u s K <.;.+.1.-.H < z +.b G J L J L b K &.<.S v f y : . 8 A n : f I I T 8.r.$.@.@.f i n p < 2 v z ",
"z n 8 2 3 4 z 6 v D d @   O $ > r ' :.6.w.+.H x 6 6 6 1 x b r z J J p 6 A O.8 n @.) n ] 8.5.,.T v 8 a A T O.I *.U i k t 5 H O.m ",
"4 9 3 $ # 3 6 > - > c p   o u 3 d [ L O.X.J &.q.X.z b L X.z 6 1 2 z 1 6 x [ I 9 n r.e.<.r.g.r.@.Y { 8.w.,.$.S @.] d v 4 x m m 6 ",
"+ $ 8 : o o ; * o @ 6 4   + e = d #.O.-.z J q.>.>.O.X.X.b 1 + + @ < < < p n n 8 8 m S Y T 1.h.7.g.j.m.M.b.h.%.V S p ; o : 1 .   ",
": o # 8 8 : ; 1   + 3 z B W M , t ' ' b z J b A z z m -.&.J 6 1 $ 2 $ # # v S v 9 n ' @.J ;.a.o.e.m.n.j.h.x.9.,.U y 7 ; . o : # ",
"# o : y p 9 y V v z J E | 8.Q % 3 A r + @ 6 6 p 2   z L b X.X.b 9 x : : 9 n ] I V @.8.e.7.w.<.K Y o.e.r.w.x.g.<.{ @.Y t 8 o o * ",
"O o # # o . 3 j F ( | 5.9.9.K > t 6 , 1 5 @ o + @ @ b m 6 z 6 A @.I : $ I <.7.Y @.<.p.e.e.s.<.x T G A I X.#.<.<.,.*.@.Y p 2 1 @ ",
". .         @ t v V ! 4.8.5.' p n , t S 9 3 4 @ @ < K L z 6 6 J X.,.a y { *.@.[ ,.9.#.<.:.<.=.O.G H x 5 z L I T %.r.7.V 8 9 9 2 ",
"< @ 5 1 + + p b m U $.$.) { *.$.Y 8 : e o s c - r K L X.+.L H v o.@.] H T Y I x I Y J T J J x J T O.b 9 @ 9 v I 6.x.5.:.S z p p ",
"x z x 9 5 5 1 z B F @.A J n n ,.,.y y d s S > = m &.6.w.-.H L J 5 a I H 5 1 n 4 2 n v 5 H T o.o.<.Y O.T < 5 1 z O.e.f.7.,.V m r ",
"6 p 5 < 9 < < 5 f E n z Y <.9.,.<.U D ' K V s K ' K b J J b 1 v A *.a.X.J A z : 7 9 . $ H ;.,.#.1.1.g.d.K 2 9 G #.6.&.' 4.C H v ",
"2 5 2 9 6 @ @ @ > i @.*.,.r.<.] T ) / ] _ F B m p 1 1 H o.G 6 H e.t.t.J 6 z 1 # y 8 $ 4 9 9 b J T &.T T -.m m o.#.O.K J K ( p x ",
"1 6 b b 5 1 O 5 6 c +.6.6.8.$.@.7.{ %.,.Y ~ d o 1 9 L X.L X.9 x T H J J z z 8     o * d S F x T ] >.+.T &.J b T ' K L Y ] Y v c ",
"z b z 9 6 6 z 6 b A } q.x.4.s.x.0.=.<.T [ 4.%.B w p b 2 6 z 2 5 < m X.G z m x #   . # f Y ] *.#.o.H ' ;.O.b 1 v v A p 9 a v ] ' ",
"J H z < < 6 b x A ( &.f.z.q.s.x.>.L #.%.<.<.#.Y C A b 2 6 < 5 1 2 < $ 9 z 8 8 : .   2 8 { *.1.T O.*.w.t.&.z 1 O + $ 2 2 @ $ H Y ",
"N x b 5 1 6 6 9 K =.w.t.w.6.L J O.H n Y %.w.$.@.$.' H 6 + 5 z 9 b a 9 x I [ S 8 o   2 n [ m K T ;.+.#.o.-.x $ + ; * , t 2 . 2 9 ",
"c v 5 6 b z 6 b J *.q.1.1.>.A 6 T A J =.y.e.7.g.e.O.z 9 H J G L 1.:.J T #.<.#.I 2 o a V f 8 9 m J p 1 b m z & > > % o   1 . @ 4 ",
"H K 5 b ' L z z x H z v A A H 9 L #.p.l.7.7.p.' &.o.J A T 6.0.0.-.X.6 z O.o.Y f 3 2 a $ a Z c 1 @       ; z r = * ; @   .   @ , ",
"r N x H ' A 1 p n S 2 2 4 x K b o.7.#.a.>.w.6.z 2 2 p v H X.;.L J z 8 9 z Y n : ; @ o 8 F B ( 2 @ o o ; ; o 1               . 1 ",
"v 5 5 z 4 ; , y B ( ] 9 n z X.4.y.b.&.+.#.&.6.J   1 1 @ < L L z L v z K m Y n ;   @ ; 6 u 4 p 4 # ; @ : , e 6 2 + @ 1 .     ; 9 "
};
