/* XPM */
static char *result[] = {
/* columns rows colors chars-per-pixel */
"64 64 81 1 ",
"  c #010101",
". c #060508",
"X c #0D0D0D",
"o c #110E0C",
"O c #12100F",
"+ c #151313",
"@ c #191615",
"# c #1B1917",
"$ c #15111A",
"% c #1C171D",
"& c #1D1A1C",
"* c #201E1D",
"= c #23211D",
"- c #1D1722",
"; c #1E1A21",
": c #221C23",
"> c #241D2A",
", c #222122",
"< c #292625",
"1 c #2B2927",
"2 c #27212A",
"3 c #2B262C",
"4 c #2D2A2C",
"5 c #322C2C",
"6 c #34312E",
"7 c #2B2432",
"8 c #2E2A31",
"9 c #322C33",
"0 c #342C39",
"q c #382F3C",
"w c #363334",
"e c #393435",
"r c #373836",
"t c #3E3834",
"y c #3A353A",
"u c #3D3A3B",
"i c #413C3E",
"p c #44413E",
"a c #382E45",
"s c #3C3143",
"d c #3F3940",
"f c #3E3249",
"g c #423744",
"h c #443E42",
"j c #423748",
"k c #443948",
"l c #463953",
"z c #4B3E52",
"x c #464244",
"c c #494447",
"v c #4C4847",
"b c #474248",
"n c #4B4649",
"m c #4E4A4C",
"M c #514C4F",
"N c #534E51",
"B c #555254",
"V c #585456",
"C c #5A5658",
"Z c #5C5A5B",
"A c #605F5F",
"S c #605F60",
"D c #626161",
"F c #6E666F",
"G c #6D696B",
"H c #706F6E",
"J c #71706E",
"K c #716E71",
"L c #747373",
"P c #797479",
"I c #7E7C7D",
"U c #838282",
"Y c #8C878D",
"T c #908D8D",
"R c #928F93",
"E c #929392",
"W c #9D9C9D",
"Q c #A4A3A4",
"! c #A8A8A7",
"~ c #ADACAB",
"^ c #BFC0BF",
/* pixels */
"   +,,,,,*,,,,,,*,,,,,=,,,,,**,,,,,,,,,,,,,,,,,*,,,,,,,,,#,,OX..",
"  XxBBBZZBZBBZBBVVZZCCZCZVZZZZZZZVZZZBZZZCZBVVVZVBBBBBBBZBBZrX..",
" OrmBBBBBBBBBBBBVVVVBBBBBBBBBZBVBBBBBBBBVVVNBBBBBBBBMBBMMMBvr1X ",
"+6rZAZZASSZSSSDDAAASDDDDDDDDDDDDDDDDDDDDSSSSSDSSSSSSSSSSSSSZr11O",
"<*4CCCVZZBZZZZZZCACCCACAZZAZZZZZZZZZZZZZSACSAZAZZZSZZZZZZZZZ4;,,",
"*&1BBBBBBBBBBBBBVVVVVVVVZZVVZVCCZZZZZZZBCCCCCCCCZZBZBZZBCCBB8;;-",
"**1BBBvxBDSBZBBBCVVCVVVCBVZZVCCCVZZBZBZZCCCCCCCCBZBBvBBZCCZB4&;;",
"*#4BBvrBW^!vvBZBVVVVCVCVZBBVCCCCZVBZBZZBCCCCCCVCBBLELxrBCBBB8;;;",
"=#4Bm66vLEHprbBBVVVVVVVVCVVVCCVVBVVVCCCCCCCCCCCNvrMTWB88NCCB7-;;",
"=*1Bx,66rLIZb8vBNVVVVVVVVVCVVVCVBZVZCCCCCCVCCCVupBBMmx4,dCCB8;;&",
"*#1Br#<6MI!!m,uZVVBBVVVVVVVVVVVVVVVVCBCBCVVCVVN9pJUHha0-8BCB4;;;",
"**1Bp+<6rZIH7,uBNVBBNVNVVVVVVVVVVVVVCBCCVVVVVCM<6BIGd3;$3BBB4;;;",
"*#1Bv#+6rral7>bBBBBBVBVBVVBVBVVVVVBCCBBCVVCBBCN<*tvAx8;-8CBB8&;;",
"*#1MBwO#,887>aBBBBBBBBBBNVBBVVBVVBCBCBCBBVBCBBCq#=6rfa;-dBBB3-;;",
"=#1BMb1&$;,>8bBNBBNBBBBBBBBBBVBBBBBCBBBBVBBBCCVM1@#:7>;8bNBB4&;;",
"**1MMmu4,,28uMNBBNBBNBBBBBBBBBBBBBBBBBBCBBBBBBBVn5::>27rmBNN8;;;",
"*#1MNMvrr44rvNBMBBBBNBBNBBBBBBBBNVNVNVVNBBBBBBBBNb93315iMNNN8-:%",
"=#1MMMmprrrbmNMBBMBBNBNBMBBBBBBNVVNVVNVVBBVVBBBBVNhw9eybMVBN3*;:",
"*#1MMMMmvvvMNBBMMMNNNNBNMBBBNBBBNVVNNVVNBBzCBBBBVNMcghcMNBNN3%:%",
"*#1BMMMMMMMBNNmBBMNNNBNNBMBNBNNBNNNNVNNVBBBBBBBNNBBNNNNNNNBN4;;;",
",#1mMMMMMMMMMBMBMBBMNBNNNNNNNBBNVNVNNBBVNNBNBBNBNBBNNNBBBNNN8&;;",
",#1MmMMMMMMMMMMMMMMBNNNNBNNBNNNBNNNNVNzCNBNNNNNBBNNBNBNNNNNM3-;;",
"##1MMMvMMMMMMMMMMMMMBMMBBMBNNNNNNNNNNNVNNBBNBNNNNNNNNNNNNNNM3&;;",
",#1mmvMMMvMMMMMMMMMMMNMMMNMMBNNNNVNNNNNNNNNNNNNNNNNBNNNNNNNN8;;;",
"##1MmmMMmmMMMMMMMMMBMMNNNMBMNNNNNNNNNNNNNNNNMNNNNNNNNNNNNNNM7-;;",
",#1vmmmmmMmmvMMMMMMMMMMMMMMMNNMNNNNNNNNNNNNNNMMNNNNMNNMNNMMM7;,;",
",#1MmmmmmMMmmMMMMMMMMMMMMBMMMMNNNMMMMMNNNNMNNNNNMNMMNMNMNMNM3&;;",
"##1mmmmmmmMmMmMmmmMMMMMNMMMMMMMNNMNMNNMNNNNNNNNNzMNMMNMNMMMM3;;&",
",#1vmmmmmmmmmmmMmMmMMmMMMMNMMMMMNMMMMNMNMNMNMMMMBNMMMMMMMMMM3-;;",
"*#1mmvmmmmmmmmMmMmMmMmmNMMmMmNMMMMMMMMMMMMMMNNMMMNNNMMMMMMMM8-;;",
"##1mvvmvvmvmmmmmvMMmmmMvmMMMMMMmMMMMMMMMMMMMMMMzMMMMMMMMmMmM4;;;",
"*#1vmvvmmmmmmmmmMvmMMmmMMvmMmMMMmMmMMMMMMMMMMMMMMMMMMMMmMmmm4;;;",
"**1nnnMnmmmmmnmmmmmmmMmmmNmNmNmNmMmMMMMMNmNmNMmMMMmMMmMNmmmm7::-",
"##1nnnnnnvnvmmmvmmmmmmmMmmmmmmmmMmMMmmMmmNmmmmMMmMmmmmmmMmmM7*-*",
"*@1cnnnnnnmnvmmmvmmmmmMmmmmmmmmmmzMmmMmmmmmMmNmMmmmmmMmmmMmz3%:;",
"*#1vvMnvmnnmvnnnnmmmvmvMmmmmmNmmmMMmmmmmmzMmmmmmMmNmmmMMmmmM7;;;",
"##1nvvvnnnvmmnvmvvmmmmmvmmmmmvmmmmmmMmMmmMmMmmmmmmmmmMmmmmmm3%;;",
"##1vcncnnnnnnnnmmmvzvmzvmmmmmmmmmmmmmmMmmmmmmmmmmmmmmmmmmmmm3;;;",
"##1bvcvcnvnnvnmnzmvvmmvvvmnmmmmmmmmmmmmzmmmmmmmmMmMmmmzmnmmm3;;;",
"*@1vnccnncnnnnnnvvmvvmvzmnmnnmnmmmmmmmmmmmmmmmmmzmmmmmmmnmmm3;;;",
"##<vcvccnnnvnnnvvnnnnmnnnmmvmmnmnnmmnmmnmmmmmmmmmnmmnmnmmmmn7-;;",
"*#<cccvchvnnncnvnnnnnvnmmnnnnnmnmmnzmnnmmnmnnmmnmmnmmnmnmnnn7-;;",
"&#1cccccnnvcccncnnnnmvnnmnnnmnnnnmnnmmmnmmnmmmnmnmmnmnnmmmmm3;;;",
"&#<ccccchvcvvncnnvvnnnnnnnnnnnmnnmnnnnnmnnmnvzmmmnmbmmmmbnnn3;:;",
"##1cbxcvcccchvhvcnvcnnnnnncvmnnmmcmnnmnmnmnmnnnnnnmnnnnnnnnn3-;;",
"##1xccbxccccnnnnccnnnccnnnvnnnnvcmnnnnnmvznmnmmnnnnnmnmnnmnn3;:;",
"##<xxccxccnnnzhnvcccnnncnnnnnnnnnnnnnnnnnnnnnnmnnnmnnnnnnnnn7;:;",
"=#1xxxxccchpvpnnhvcccccnnnhnnnnvnnnnnnnnnnnnnnnnnnnzmnnnnnnn7;;;",
"##1cxcxxvMBMvxnxzvvhvvvvzvvznnvvvcmvnnpznnnnnnnmnnNZCVmnnnbn7-;;",
"##1pxcpvBDDZZvxxvhhvpzhvpvvvvvzpcvzhnnvvhnnnnnnhnNCLUSbxbbnn3-;;",
"##<xxprrrG!ImBnxhvzvvvnvpzhvzpnncnnnnnvvmnmnnhvncxK~~Ih9ynnn7;,;",
"##<xxr6t66GTmrbxvvpvnhzpvvvhnhvnvcnnhvzvmhhnnmniruvmNmy><dnb3;;;",
"*#<xp<6MnxyMx8rxvhvhmppzvznzpvnhhhnnpvnvnzvhnzvi1156iii0;9nb3;;;",
"##<xp*=MShdff38hvphvzmpmvpnhhvccnnhvznvhhmnnnnvi==6pMHKg$8nn3;;;",
"##1xp&#6BMlzf>7hvzpzppvivhnvncccnhnnhnvvznvhnhmi*=6pNCN7$wvb8;>;",
"##<xx,O1wbmfa>8xivpvpvmihvhnccccnnnhnnhvphvnnhnh<O155ij-;ybb7;;;",
"#@<hhe@O:397>>ehvimimizihvvvzvvmhnnnhnnnvvzhvnhmi*+%:>>:8hbb3;;;",
"**<hhi5*@@%*>9gcpiivimvizhhpphhpnhhvnhnhhvpvpznnhe:*::>2wgbb3;:;",
"##1hhie2::,>5tibMzizmmivpvvzvhzinnzvnnhnvzvhnzpvhiq3><<8whnn7;:;",
"#@,iiie3<2115yiiiiiiiiiviiiivikiihiihhhhhhhkivcihge53328quhh7;;;",
"oO+*::**:*::::::::<:<::<1:2::::::::><:>:>>2>:>>>>>>::::::>>2;---",
" OO#%%%%%%%%%%%&%%%%%%%%*%%%%::%%-*-*--*%%%**-*%**:*:::::::-;--.",
"  o*%*%%*%%%*%&%:%%:%%%%%%:%%-:-:%%*--*-%:--:--:-:*::%:%:;::--. ",
"   +%%**%%&%%%%*%%%%%:%:%:%**%%%*%--**-*:-**%:-*:-*::%::;:;;;.  "
};
