/* XPM */
static char *result[] = {
/* columns rows colors chars-per-pixel */
"64 64 139 2 ",
"   c #171315",
".  c #191517",
"X  c #1B161A",
"o  c #1E191C",
"O  c #211C1E",
"+  c #26211E",
"@  c #1C1720",
"#  c #1F1921",
"$  c #231D23",
"%  c #251E29",
"&  c #262123",
"*  c #2A2425",
"=  c #2E2926",
"-  c #27202A",
";  c #2B242C",
":  c #2E292C",
">  c #312B27",
",  c #322D2C",
"<  c #35312E",
"1  c #38332E",
"2  c #2E2533",
"3  c #2F2931",
"4  c #302735",
"5  c #332B34",
"6  c #382F36",
"7  c #302739",
"8  c #352C3A",
"9  c #392F3B",
"0  c #353233",
"q  c #393433",
"w  c #3C3936",
"e  c #37313A",
"r  c #3B333B",
"t  c #3D3B3B",
"y  c #413B36",
"u  c #40373F",
"i  c #423D3D",
"p  c #45413E",
"a  c #48403F",
"s  c #352B41",
"d  c #3A2F45",
"f  c #3D3342",
"g  c #3F3941",
"h  c #3E324A",
"j  c #413546",
"k  c #443D42",
"l  c #493E45",
"z  c #42364E",
"x  c #463D49",
"c  c #4A3E4C",
"v  c #493B54",
"b  c #4B3E59",
"n  c #464243",
"m  c #4A4544",
"M  c #4C4946",
"N  c #474149",
"B  c #4C454B",
"V  c #4D4A4B",
"C  c #514B45",
"Z  c #51464D",
"A  c #524C4D",
"S  c #54504E",
"D  c #5A534F",
"F  c #4E4452",
"G  c #4F4B50",
"H  c #514753",
"J  c #544C53",
"K  c #53455C",
"L  c #554C59",
"P  c #594D5A",
"I  c #555252",
"U  c #5A5455",
"Y  c #5B5857",
"T  c #5B545A",
"R  c #5E5A5B",
"E  c #60565D",
"W  c #615C5D",
"Q  c #63605F",
"!  c #564663",
"~  c #5B4A63",
"^  c #5E4C69",
"/  c #5C5261",
"(  c #635662",
")  c #635D62",
"_  c #61526B",
"`  c #6C5F6B",
"'  c #6C5F71",
"]  c #656263",
"[  c #696565",
"{  c #6A6867",
"}  c #666068",
"|  c #6C6669",
" . c #6D6A6B",
".. c #706966",
"X. c #716C6D",
"o. c #72706F",
"O. c #6C6370",
"+. c #716770",
"@. c #726D71",
"#. c #786E75",
"$. c #776A79",
"%. c #757273",
"&. c #797576",
"*. c #787877",
"=. c #777678",
"-. c #7B7679",
";. c #7D7B7B",
":. c #817D7E",
">. c #81817F",
",. c #7F7D80",
"<. c #837D81",
"1. c #848282",
"2. c #898686",
"3. c #898887",
"4. c #8C868D",
"5. c #8C8B8B",
"6. c #908E8E",
"7. c #91908F",
"8. c #938C93",
"9. c #949392",
"0. c #9A9499",
"q. c #9F9C9C",
"w. c #A49F9C",
"e. c #A0A09E",
"r. c #A29DA1",
"t. c #A6A4A3",
"y. c #A8A8A7",
"u. c #A8A7A8",
"i. c #ACACAB",
"p. c #B0ACB0",
"a. c #B4B3B3",
"s. c #BDBCBD",
"d. c #C2BFBD",
"f. c #C5C6C5",
"g. c #C9C9C7",
"h. c #CACACA",
"j. c #D4D3D2",
"k. c #D8D6D8",
"l. c #DAD9D9",
/* pixels */
"U I Y R Q Q ] {  . .o.o.o.o.%.%.%.o.o. . .{ } ] R Y I I I G I V V V V n V V V V V G I I Y Y Y R Q ] ] ] [ ] Q ] ] ] ] ] / R Y Y ",
"R Q Q ] {  .o.%.*.*.;.>.>.>.1.>.1.;.;.;.=.%.o. .{ ] ] R R R Y Y I I G G I Y Y I Y Q ] { {  .o.%.*.*.*.>.:.:.*.*.;.;.=.%.o. .{ ] ",
"R Y Y Y W [ {  .%.*.*.;.:.1.1.1.<.<.<.;.=.%.@. .{ } ] R ] / / Y I G G G I I I I Y Y R Q {  .o.%.*.*.>.>.:.1.:.:.;.;.;.=.%.o.{ ] ",
"T I I I Y R ] [ { o.o.%.&.*.*.=.-.-.&.#.%.@.O.| } } / R Q / I G G G V V V I V V S D Y R Q ] {  .o.o.=.*.&.&.:.&.=.%.#.X.O.{ ] / ",
"T G I I Y *.;.[ { X.o.%.%.&.&.-.-.-.;.;.} X. .| ] R R R R / L  .o.I V V V V V V S D Y o.1.{ { X.o.o.%.&.&.-.-.&.=.>.{  .{ } ) / ",
"S G S S ] l.a.G W ..X.X.@.%.&.&.=.{ s.s.m J O.) ] / / R / Y { h.y.t t V V V V V S D I a.k.R Y {  .o.@.%.%.&.&.{ e.j.) n } ) R I ",
"G G S V S ;.9.X.m ..{ X.X.@.@.%. .D | ) 3 0 } [ R R R / R L R 7.] Y t t n M V V A A M @.8.1.k ] { X.o.%.#.%.#.U Q O.t 3 I / I I ",
"G V S p 1 M p.<.5 { | ..X.X.X.#.] t R 2.{ - / ) / R / R R G V I o.*.0 t n M M V A M 6 y 3.p.3 W { { ..X.X.@.X.a V ,.;.3 B ] I G ",
"V A A i = a ` j r [ [ ......X.@.` 1 D #.L % ) ) / / / T L G w M } G % g n n M N V V * y ( K 2 W [ [ | ..X.@.@.y M { ' % J ) J V ",
"M M V A = % j 8 B ] Q [ | | | | @.i $ f 8 f ) ) R R R T T I t ; z d 8 g i n M M M S 1 + 9 s k ) Q ] | | | ..@.Z $ r d 8 P T I V ",
"m M M A i = ; 6 D W Q ] ] [ | | ..) e 4 8 l ( W R R T T I G G 8 3 3 0 g i n n m M S M : : , M W W [ [ | | | | | m : 4 k T T J m ",
"m M M A C y y i Y W ] ] [ | | | [ | T k k J W / / T T U L L G N 8 3 g g p p p m M V V p 0 w D W W ] ] [ [ | | | ) l i B T I A m ",
"i i p m a i i a D J U D U E E E W R T A B L T L I J J F G G N N g g g t e t t i p p m p i p A J U U U E E E E E W L B J J B l i ",
"$ & & + * * = ; % * : ; : : : : 5 4 5 8 9 8 9 9 8 8 8 9 8 8 s 7 7 7 2 3 & $ + + + + & * * * * ; = : : : 5 , , 5 5 5 8 4 4 : - - ",
"& & O & O $ $ * ; * ; : : : 4 : 5 4 4 8 8 9 7 7 8 8 8 8 s 8 s 7 3 3 ; - $ $ + & + & + & & * * * % ; : ; : 3 5 5 5 5 4 5 ; ; & & ",
"O O O o O O O O O O $ $ $ $ % % % - - % 2 - 2 ; ; - 2 - - ; - % - % # # o X X X X o o o O O O O O $ $ % $ % % % % % % $ $ O o O ",
"w w w t t t n N M M M V V V G V V V V B N N n n t k t t t t t 0 0 0 3 3 0 0 t 0 0 t t p n n m M C V V V V V V B n n t t t t t 0 ",
"] ] ] { o.%.*.;.>.>.2.3.5.5.5.5.7.5.3.2.1.>.*.*.o.o. .{ { { ] R I I I I I Y R Q ] { o.o.%.*.>.>.2.2.5.5.5.5.5.3.;.*.o.{ ] ] ] ] ",
"Y Y Y ] Q {  .o.%.&.-.:.>.1.1.1.1.,.1.,.;.=.=.o. .{ ] ] R R R L I V V V V V S I Y R ] {  .o.o.&.;.;.:.<.<.1.<.;.=.o. .] ] R Y Y ",
"V V V V S I Y R Q Q Q [ { {  .X.X.X. .| | { ] / / R L L L I G G V n n n t n n n V V S I D Y W Q ] [ | { X.|  . .{ ] / R I I G V ",
"V V S V S Y Y R W Q [ [ | ..X... .O. .|  .{ } / / R Y L U P J A V V n n p p n M V S S I R W W Q ] [ [ ....| .. . .{ { ] R T G V ",
"V V V V Y 1.5.Q W W Q [ [ [ | |  . .1.1.R / ] ] / T U T P I P >.>.I N n p n n M V V S *.9.{ Y Q W ] [ ..| ..| { *.7.] / ) Y I V ",
"V M V V Y Q a.Q I W W ] [ [ [ ..| ] j.t.I G ) / / T U P U G [ s.e.G t N p p n n M C Y S t.<.B W Q Q [ [ | [ | R p.h.R V R Y I G ",
"V M M p Q ;.] N i W W W ) ) W ` W I 1.5.a.e R / T U P I L G Y ] o.R 3 t p p n n M n C >.[ I r Y W W W [ ` ] ` V &.,.s.L N / J V ",
"B M B q m 2.E v 5 W W W W W ) | U w c X.@.% L / T L L J J B i D =.L ; n n n i n M p 1 >.| K 4 I W W W W W ` ) y c T <.4 c T J A ",
"M m V y = Z _ v r Y Y Y W W W [ R = u J v 2 T T T L J J J B 5 a / b 7 n n t t n m a + a ~ ! 5 U U W W W W W ] 0 0 Z K 2 B T J B ",
"m m m m * * 8 4 m U Y E E W W W ) y O 9 8 j T T L J J F F F e - s s e n n g i n p M < + 9 7 r U U W E W W W ) A $ 5 8 9 J L V B ",
"m n n m w * : 6 C D U U Y Y R E E E u 5 8 m L L L J J G J G B r 3 0 t N n t p p p m p : = , i U U D Y E W W W E m 5 5 j J J B m ",
"n n a m p 1 0 w A A U U Y E E W E E J l k B P T L L J J F J F N r r g N k k i p p a a q 1 q m U D U Y U Y E T W P m i l A J B m ",
": * = + = = = = , , , 6 , 6 6 6 6 r 9 9 8 9 f f r r 9 d 9 9 9 8 8 4 5 3 ; * * * = + = = * = : , , 6 6 6 6 6 e r r 9 8 8 9 5 5 , ",
"O O O O O O O $ $ $ $ & $ % * % ; ; ; 2 2 2 2 2 2 2 2 2 2 2 2 2 2 2 - - $ & o o O O O O O $ $ + $ & $ $ % ; ; ; ; ; 2 2 ; ; $ $ ",
"o o X O o O O O O $ $ & $ * % * * - ; % ; ; ; ; 2 ; ; % - ; - ; - - - $ $ o o o o O O O O O $ O $ & $ & % * % % - ; - ; % $ O o ",
"w t t p p n M M M V V S G I D D S S S G G V V N n n n n n n n t p t t 0 0 0 0 t t i p p n M V C V S S I D I I S S G V N n p t 0 ",
"Q ] { { o.%.;.;.>.2.5.7.7.9.9.0.9.9.9.9.5.3.>.>.*.=.=.=.;.=.%.%.o.} ] Q R Y R Q Q {  .%.*.;.1.>.5.5.7.7.9.0.9.9.7.7.3.;.=.{ ] ] ",
"I I Y Q R ] {  .o.o.*.-.;.;.>.:.>.>.>.;.;.=.%.X. . . . . . .[ [ R Y U I S V V I Y Y Q Q {  .o.o.*.*.*.;.:.>.:.:.;.=.o.{ ] R I I ",
"n n p M V V V D I Y Y R R Q W W ) ] / ] / R / T T L T T U L L G V N n g p p p n p M M V V S I Y Y R R Q W ) ) ) R R P I V M M n ",
"n M M M A Q { R Y Y W W W Q Q Q ] ) X.X.{ / Q R / R T T T T T [ Q G n n t p p n M M M R [ W U Y Y R W W ] ] ] ) { o./ I V V N M ",
"p p p M R i.a.Q I Y D E W W W W ) [ u.a./ U R R R U T T T U [ a.u.I i i p p p p p M S 7.f.%.I Y Y R W W W W W ) 5.f.%.V S V N M ",
"n M p M M &.8.J M U Y Y E E W W E Y 5.8.g g R T T U L T U L Y w.4.g t t t p p p a M m Q 0.| k U Y Y R R W W W D *.r.T e J A V N ",
"M n p p < a L B r U D U U E E W I w i H N 0 L U P I T L J Z i l T N 0 p p p p p p p < y A K 8 A D Y Y T E W T i y B J 5 k I V V ",
"M p m q < Q :.L 5 D I U U Y Y E Z 1 E &.( 5 J U U L U L P m q S %./ 3 i i i i i n i * D :.| 2 V D U U U Y E T 0 C | <.7 x P Z B ",
"n p p t + < B d r D A U J U U E Y , , c d r J P J L J J L B , , v d 8 n k i i i p a + = c z 8 A D J U U U Y E w & i v 4 Z J V B ",
"M n n n , O % 4 a A A A U U U U T m % % 5 l A J J J J J J J g % 2 3 r g i y i i p p w + % * w A Z J D J U U U A : % 4 r H J Z B ",
"n i p p w , , , m A A A A J J U P A i 6 r m J J A J J J J Z B g 4 r t g u t t i p p y < : , y A A A D J U J U P B 6 r u B J B m ",
"l l p p i 1 < q m Z A A J A J J J Z c w u B Z J J J J J F G F x r r r g t t t y i i p q < 1 p M A A A D J J U J Z k g l H H Z B ",
"; : * + & & $ = * * * : : : , 4 , 4 : : : : 4 , 3 3 5 3 8 5 3 7 3 2 2 2 ; ; - - & + + + & * * = = : ; : : , 5 5 4 3 2 2 4 5 4 2 ",
"- $ O o o o O O o O O $ $ $ $ $ $ $ % % % % % % - - - - - - - ; - % % % % $ $ # o o o o o O O o O O $ $ $ % % % - ; - 2 % 2 ; % ",
"# o o o . o X o o o o o O O o o O O o O o $ O O # # - # $ # # # $ # # # @ X X X o . . o . o X o o o O O # o O o $ o # # $ % $ $ ",
"t t t t p i q t M V V S S V V V V V V n i n N V V V M n m M n n t 0 0 0 0 0 0 0 0 w t t t w M V V V I G I I D S V V t p M n n t ",
"{ { ] { o.o.o.*.>.>.5.5.7.7.5.3.2.3.3.1.>.1.2.1.>.1.1.>.>.1.>.;.o.] R / Y Y Y Y Q ] { o. .o.;.1.2.5.7.9.9.9.9.9.7.3.;.*.;.;.%.o.",
"] Q ] {  .o.%.&.>.>.3.5.5.7.5.5.2.2.2.2.3.2.1.1.1.1.>.>.;.:.:.*.o.{ ) Y Y I U Y R ] {  .o.=.*.:.1.3.5.7.6.9.9.7.7.5.2.>.;.%. .{ ",
"M m m M M V S D I I D Y Y Q R R W W T W R T T T T T T T P T T L I G N n n k i n p n M V V S D D U Y Y R W W W W / W R P I G V N ",
"n n m M a M M A D J D U U T Y R T E T T P T U P T I T P I P L J L G N N k n t p p p M M M V A A U U U E E U E T T T T P I F V B ",
"M n p m C  .o.Y A A D U U Y Y T R T %.&.W T U U U L I P I L U %.o.L G N k n p p p M M Q %.) A D D D U Y U E E E  .;.} T T J G B ",
"m N p p Y y.s.] A A A U A U U T T ] q.i.] G T L L J P L L J } y.a.] N N n n p p p p S 5.h.-.I Z A U U U D U U T 5.a.;.V T L J B ",
"N m n n p Y 1.J n A A A U U P U I I j.w.T r U P I L J G J B ] s.e.@.t N M m p p p p p C :.) k A A A A J U U U M a.d.| e J P J V ",
"m m l y q m K ! r A A A A J I U B p 2.| K 4 H P L L H H F B M &.( L 3 N N l p i p i 1 a C ^ d m A A Z D J U J q &.;.P 8 x P J H ",
"B l m < 1 ..$.K 8 M Z A Z D D J M > D P ! 4 H P J L H F F N 1 H ! K 8 x N N n i a y = W &._ 8 m A A A Z A D J , m P ^ s x P J Z ",
"c l i i O > c 8 w C Z A A Z Z J J & , b s 9 J J H K F F F F : 2 h 7 s x l k k i i i = O x d 5 M C A A A A J U w $ v j 4 H J H H ",
"l i i i , O $ : i m M B A A A Z J c * % 4 j H H J F F F F F x ; - 2 g x j k k y y i q O O ; y m m M A A Z Z Z A : % % j B H F B ",
"n l i i y , , 1 i C B Z A A Z D J H l u r x K L H L H H F F F j r 9 f x k k i t y i y 1 , < u C Z Z A A A Z J Z l u u j F H Z B ",
", : = , = $ * = , 0 0 6 0 e e r r 9 5 5 8 9 r h f f f f f d 9 9 8 8 8 7 8 3 : : : , : & * * , 5 0 0 6 q r 9 r r 6 5 5 5 9 9 6 5 ",
"X . . . . O . O O . o o o o O O $ $ $ $ % % - % - - % ; % % % % % % % # # @ o X o . . . X O X O . O O o X @ @ o $ $ $ @ $ o o X ",
"                . . . X X . o o X @ o $ @ o # # # # # # # @ @ @ @ @ @ @ X X . . .           . . X . .   . . . . .   . .         "
};
