/* XPM */
static char *result[] = {
/* columns rows colors chars-per-pixel */
"64 64 100 2 ",
"   c #070706",
".  c #080807",
"X  c #0D0D0B",
"o  c #100F0E",
"O  c #0F100E",
"+  c #11110F",
"@  c #141413",
"#  c #191916",
"$  c #171718",
"%  c #1C1C1B",
"&  c #1F201F",
"*  c #21211E",
"=  c #1E1E21",
"-  c #1F2020",
";  c #242423",
":  c #272826",
">  c #2A2A26",
",  c #272729",
"<  c #272828",
"1  c #2D2D2B",
"2  c #2F302E",
"3  c #32322D",
"4  c #2F2F30",
"5  c #2F3030",
"6  c #343433",
"7  c #383734",
"8  c #373834",
"9  c #3A3A35",
"0  c #363738",
"q  c #373839",
"w  c #3C3C3B",
"e  c #3F403D",
"r  c #404037",
"t  c #43433C",
"y  c #48483F",
"u  c #3E3F40",
"i  c #3F4041",
"p  c #444443",
"a  c #474847",
"s  c #4B4B43",
"d  c #474748",
"f  c #474849",
"g  c #4B4C4C",
"h  c #4F504F",
"j  c #515147",
"k  c #54544B",
"l  c #59594E",
"z  c #4E4E50",
"x  c #4F5052",
"c  c #535354",
"v  c #575857",
"b  c #5C5C52",
"n  c #565658",
"m  c #575859",
"M  c #5B5B5B",
"N  c #626256",
"B  c #65655A",
"V  c #6A6A5D",
"C  c #5E5F61",
"Z  c #5F6061",
"A  c #636364",
"S  c #6D6D62",
"D  c #676769",
"F  c #67686A",
"G  c #6B6B6C",
"H  c #706F61",
"J  c #727264",
"K  c #74746A",
"L  c #79796D",
"P  c #6E6F71",
"I  c #6F7073",
"U  c #737374",
"Y  c #7C7C71",
"T  c #767779",
"R  c #77787D",
"E  c #7A7B7C",
"W  c #838377",
"Q  c #858579",
"!  c #7E7E81",
"~  c #7F8081",
"^  c #838385",
"/  c #868689",
"(  c #87888B",
")  c #8B8B8D",
"_  c #909084",
"`  c #8D8D91",
"'  c #8F9092",
"]  c #929294",
"[  c #959699",
"{  c #97989A",
"}  c #9A9B9D",
"|  c #9D9EA1",
" . c #A2A3A5",
".. c #A6A6A9",
"X. c #AAAAAE",
"o. c #AFB0B3",
"O. c #B3B3B5",
"+. c #B6B7B9",
"@. c #BABBBD",
"#. c #C0C0C4",
/* pixels */
";   g T 9 w g d z n 6 q K p j j % , I 7 > 7 p j M G ] A 1 , g A 7 l Q H H V j * @ c c p w w p s c n c p 2 ; # 8 p t Y S k l s t ",
"X % D w 3 3 ; % q M ; B g t l j * % M 1 g t 7 3 > 3 ) ^ N U / w t W H H H B 3 . w c 3 7 % M M 3 t 9 q q t w p c 1 b b s j s t 7 ",
"X g g 1 A t w * $ z 1 t t s g s % @ n , s k k y % = E g 2 3 G t > l V H V t o > k 3 J j + k c t J B l s y 9 * p 4 + # ; ; > > $ ",
", A 3 c b w t > @ g 3 w t p p t # % c * 2 7 9 > X k A r B * ; D 3 7 B B j @ * s 3 L L y @ p c t B H V V V N * & p 6 1 % # @ X X ",
"P g > b s p w > @ 4 : w p s j s % % M ,   o o o % M t B J s # r D * t j * + t 6 b _ l j $ q p t V J H V V l 3 + A A A A M z u c ",
"! M & w s t 9 ; . 0 ; ; w s t w % @ D A n g n v P M 7 H V V y @ k c * ; o 8 1 w Q l l y + 0 k r H H V N b l ; # g > > 4 6 6 q f ",
"1 U 4 ; w 7 * X + n g @ o * 3 ; . , F D I D Z v ^ G 3 b V V V 9 $ v w X w g 3 J k r 2 @ X p v w B N l l y 9 @ # q 7 s y s t 9 * ",
"O g G $ # @ . & p u f c 1 @ o X @ k 6 2 3 3 3 % w D : r b V B k * : c p G 3 * > # o + ; 6 T D > y y 3 * # O X 3 e 9 j l b l k w ",
"* @ P v = $ w p , 1 % : p g 1 % f u 2 k p k y % + P v @ * r j y > o c c G F ; + : w c D E ] ) 6 o X + $ 1 w g U p 2 j b b b j t ",
"X & F P n A z = g M 9 7 ; : w x v : l s s r & o 0 T A c : $ @ $ X ; g 1 3 N T T ^ ^ ^ U v e A E x C A A G n x v v ; p l k j s 2 ",
"; v p = $ x x ; g t t p t 7 % 4 g % : 1 1 @ o w F c : c K z 6 6 p G 9 y y > 3 A ] E g 9 9 * % ( ] F k w 4 ; $ o g 4 7 j p t ; o ",
"x 6 7 l o 4 U , 3 p p s s s 3 @ p : o o . @ f G u 6 w # ; P | G C ! c > B N * % E v > l s % ; E u 3 3 1 : # o = U c # 9 r # X % ",
"1 p S s % + x 6 1 w t s s s > o h D n z p C G t t L t @ , ) E ^ | ^ { 9 s V y @ M ^ > 9 9 + 6 c 3 N r # X @ d / } ~ 6 $ @ X 1 g ",
"j S p 6 ;   n p X : 9 t p w @ * f 3 3 7 d ^ v # b l $ + P E > ( @.| +.T > l k * $ E v @ + . z g 1 * . @ 0 C ! P e 4 c 4 o g x 4 ",
"B t 7 1 o + n E q X @ : 1 % X q 6 s p 6 @ w ^ 9 % ; X u E 1 ; ` #.( F  .t 7 3 X # U | M 7 * z 1 X @ q M I C w 4 t & % c G h ; p ",
"> 6 > X X x G A ( A : X X o : w 9 S k j r @ p ~ 1   1 U s $ 4 / o.M ; E E # X 3 G ) D v F U P 6 d E ` U p ; s N l 7 @ ; P 6 + % ",
"@ X X o c G 4 $ , g U F n x z 6 q b b l j 9 + c E q T M ; # p } X.j ; 7 [ v A / P e 9 7 > , A ! ..` h 3 q M B j t 6 X , x F n 4 ",
"x 4 = C G , 7 6   % ` ` p : p g ; k N b b b 9 $ z E F 6 t + g  ./ t r $ M  .( c 9 B K j r @ : ) A 6 w N N y 7 w 7 % + 0 ; ; p M ",
"6 g c F 1 6 j %   M { 0 7 > @ v 4 t b N b l l 1 % z w t s . v | E w j $ w T e s Y H k s 3 X 1 T 3 % s k y y e 6 : . , 6 3 t : ; ",
"1 @ w D & 6 ; . : R c 9 S t + w w 3 k l l l l t @ q 9 w > @ d [ U r j o p k e Y b j j 7 o % M n A d @ ; 9 7 2 ; + X 0 , l j p p ",
"p ; + n 7 X X $ F D : B b w ; $ f * * > 9 t y r @ 0 6 & $ $ c ( A r r X x f s k j s 4 o % c w ; 1 M c % o o + + o 6 7 6 M s k j ",
"t ;   f ! w % C ! 1 % 7 w 8 ; X u w : $ + o @ # X 6 g - $ ; R ^ p y > @ n 6 s s p 3 o $ g 7 t B 7 % 7 v g u 4 e p M 4 3 s k k s ",
"3 o & G F A G ( ^ p * X + @ X $ p g v x d p 1 ; 1 g p g d C I ) 6 % o * z : 7 9 1 X $ a 6 w K N k > o F M , 1 4 % q f $ 3 y a t ",
"o @ A n ; @ C ! [ ` E D q * @ p w 2 7 3 6 9 w M M 7 t 9 9 9 6 A v 0 1 w g ; @ * o @ e 4 9 J l k j * @ c 3 j s w ; @ M 7 o @ ; 1 ",
"@ M M ; t + p P p p c ! ) T G p w Y b j s 3 + w g t L b b p ; X x T w 1 w f 1 + % g 1 6 H l l b p + 6 M 7 B j t ; o n T A w @ X ",
"D A 1 N B X p U 1 t 3 1 6 e G 6 B B b b l t + g w t j l j t > X x g 3 y 2 : 1 p n 7 w A j c l l 9 . g g t N s t @ = A q a F M g ",
"E 6 s L 9 o p G 6 j j s * $ c 7 k k b b k 7 X p 6 s b b l p % $ n 4 b B l p : = g ; k j g k k k ; @ n q b b s 6 X q e 6 3 : 7 M ",
"F t 7 s 9 o u A 1 t s s * = c 1 y j v j s > @ g : * t j j 9 X 4 c 1 c N N N s @ 1 0 % u p y r 3 o > d 1 N k y * X h 1 k b j 2 @ ",
"d C ; t 1 . 7 n & ; 7 3 @ 1 c @ @ * 3 9 7 + % G g $ + ; 9 > X u p 7 N N V N k 3 @ p * % % + o o @ p g % 7 t r @ & c 7 V b b j # ",
"& C 4 + X % M ^ s @ X o X u U A q * o o X O g T ] ! g % X X X u 1 s l N N N k p @ 1 7 o % , 0 p a c I q @ & ; . q s 7 b b N l 3 ",
"X p c q s c j h M v c 1 w g w n P G A 6 1 p g 1 c ) } ! p @ = p 1 g g k b l l s % @ A G D x t 3 3 > 7 z d ; . X v w @ > r j j 9 ",
"+ ; P C p t p r 2 6 e x g 1 1 1 2 7 p g F A 2 9 > : v ) [ T E g 3 s t a j j j 9 o 1 M ) T & , l k s 3 % q A d d T F p * o # * 1 ",
"o u 9 9 V Y J b k y # 1 g 3 j k k p 9 & 1 D 4 j l y > 4 c I } q + % * 1 3 9 9 % @ w ; p } C # y b k k y * : G z 4 u G P v 7 & + ",
"s s 9 Q L V N l k j % * g 2 k b N N b 3 + M 9 j B V b 9 $ ; ! G 6 = % @ X o X o 4 6 3 # v } h # y l l l 1 @ x 3 t r 3 3 p M M g ",
"G d t V b l j r > #   > h 1 j b N N l 9 o c p j V B b t $ % P E E A n n h g t p q t N 9 # M ] p * p k j % ; g t K B V l r 2 1 w ",
"3 d 3 y 3 * o o + % u G G ; 9 k b b l t o w w r l j t & . w f % , 4 , q p f n A 4 N V b 9 @ M E 3 & s t @ 1 t s H V H V B l t % ",
"* f @ o o @ 3 d M D P A U p * j l l p r # 4 t * % @ o X , C C 4 o % > 4 > * @ g e j N N b 3 @ A E 4 ; 3 o w 9 s b N N b k j t * ",
"@ u 0 k v I P A c p 6 > ; A 1 3 s j t 9 @ , v ; 3 > 4 a U ] ` ) M % o ; 7 4 o w w y b b l s ; ; p c : $ $ g 3 > 1 > > ; * # + X ",
"u A ) ..T f 7 6 6 y l y $ 6 f @ % % # @ . , d p f w 1 w ' [ ] X.X.] a @ @ & X q 7 1 t p t r 7 % $ U T % % g ; $ % % $ $ ; , 4 9 ",
"z ) [ o.A % # w l j l y 4 + p g ; * ; ; 4 w 6 y y s ; @ ! I p U  .| | C : o   6 3 . o + + o + @ X 4 / E M ^ ! T P J n M C d M B ",
"6 D p E ..' t @ o > 3 3 * o e M u w t 7 c p r J l b r . f / 1 ; p U ` { ' M ; 0 F c 0 q 7 6 1 4 4 p E n p } / g p t r w 9 3 2 * ",
"6 g 3 , e E G M w @ o o o > f 7 y y t * , h 4 s g a t & $ ^ M : , , d ! O...` P c M M x f p d c n ) v 1 # g T > j b b N N l r # ",
"q w k l 9 % 6 ! ^ U F n n A 3 H L B N 9 @ z 4 t j k t 3 . g ! , 7 7 * 4 M ' +.c 7 7 1 3 3 2 > # ; U r j 7 @ T s w V V H B l r @ ",
"u 7 p s s % @ T  ...M t A v 9 H B B b y @ 6 7 9 N l p r % % G f % 7 6 : $ e ^ 9 S b t g p 9 t $ , U 9 k y # w U > k V V B j 2 o ",
"p , > y 3 . u ] +.P 2 @ p M r N B N k s % & p 6 b p p y 1 X g T ; . X @ X % c w b p s s p 9 3 o q C 7 l s 7 + M s 1 k l y > X @ ",
"n c # % + % A ] ' r k * e n t l b N l s : o p 4 t q 9 1 @   6 / n p 6 0 4 c p 4 t 9 7 7 3 > & o 1 p 7 k t 2 X 9 M # # ; @ o 1 s ",
"% n M % @ f / } c t B o p f 2 s p k k s 6 + 7 7 = % X . X ; C c 6 p 6 7 q x u X X o   X X X   @ c q 3 7 & o @ C U C u @ $ 6 p 1 ",
"o , ) ) T ^ ] G 4 t 7 o 6 a 2 s p s p t 1 o % w + % 4 u x E ^ , q 7 6 4 * @ h a u q u p p g h M E 1 % @ X 6 F I c p A U M q 3 t ",
"+ 3 ) T k M X.I % o + . 0 u 1 e w w > @ X @ w U D n g g ! ' ( 0 1 t t w 1 O w G M v c c g g g p F g o ; D ( D 3 t 3 # K p t S j ",
"o 6 ^ d * # C  .E A 0 q U d o % % X o % 6 g p M U 1 ; + A ` | P > w w 6 6 @ ; 4 3 1 > 3 7 3 3 % % G A ` ] h 3 B L r @ M e k l 9 ",
"o f ! 9 ; $ T { A k p d A U e ; @ ; 4 p w 6 ; & A 1 3 @ 4 [ | | g 1 s 9 $ X 1 1 s s p c s j j 9 @ 1 R ^ 9 t Y H k 1 # h w y j 7 ",
"+ M T 3 % % ! M 2 r ; o 1 T n M G A 6 1 t b t o c w 1 > X P | [ E > 7 @ O 1 A 0 ; t k s s j y w * $ C 4 7 B N y > + * b > 7 p > ",
"@ P A * @ c ) p l b $ @ D u % % C d ; s B b j # 6 g > r @ 4 / ( } 0 o 6 h g s u ; 1 7 1 ; * % @ X @ A 6 @ # * + o 4 v T t @ > & ",
"= E n @ : ] U 3 M 7 o 1 M 1 7 . p P : w s l k > % f 1 s 3 $ F ] } / D G p 2 * 6 a @ + + @ % % 1 6 g ! U v 1 @ 4 v v t 3 D g + o ",
"f ( s X A ` 7 & 4 * o p 6 t l @ % E 3 9 k k p ; @ w 1 ; * . p ' X.O.A 6 s J r + g M M c c c g M D ^ M 7 x M F G a 7 j 3 & x c % ",
"E | n c }  .A : @ . 1 C 7 M s 4 @ D t > r 3 % X % A v $ * * s } ) p s M b B l % 4 G g 6 6 6 6 * 1 / g 3 > % E v 9 W L N 9 & w F ",
"]  .' K c G ( ( F k F s a B s t o p A % @   @ u A F E ~ A l D  .M 9 L l t B b % 1 p 7 l l s t * * ^ t j s o c C 9 J H H N r @ s ",
"D M t s t 3 1 t c P ^ w s k l j # ; G ; ; c u w t * P T 9 9 & B ] > j H V V l % 1 p s H H B s # 4 G 3 b j # 4 F 3 N H V N j 1 + ",
"k 3 l L H b b t 2 % M p ; t k s ; @ G I P M w 9 9 + c M t H > * ) v > V H N j # 1 e y V V B s + 7 G w B b > % D t j V B j 2 @ @ ",
"c 4 3 b B B N N l # 4 M * p s t & + A M 6 q B J s @ p g j V j @ p ^ 3 > 9 9 7 + 1 t y V V N y o 0 C 9 B N t o j g 9 k 9 @ o > t ",
", z ; 9 l l b b k 2 @ c > @ $ @ X : g > j D B l y + g k y V l 9 @ F A ; @ @ @ X 4 6 p B B l 9 X d n t V b j + p M ; * o * q p 4 ",
"+ 4 d % 7 t s s t 1 . 4 M 6 4 2 4 x , @ > > 7 t 9 + p g y B k * X c ] Z b b g g F w 9 l b k 3 X c g t V b j % 1 U : % u q 3 7 2 ",
": O g p o @ * : ; o + d h w t p w n M 0 ; @ O @ @ X g k 9 j > X 0 U k 6 t t t w g c * ; 9 r ; X h a 2 s j j ; @ P G n f 9 b V t ",
"6 X 1 E v 4 % + o @ w 7 : 7 t 7 % : ! / U B z 6 : % C v ; * + 6 D p j L b l s 3 + p k * + @ @ % M g @ # * 1 % @ M g 1 k L H k t "
};
