/* XPM */
static char *result[] = {
/* columns rows colors chars-per-pixel */
"64 64 160 2 ",
"   c #070707",
".  c #090907",
"X  c #070709",
"o  c #080708",
"O  c #07080A",
"+  c #0C0C0C",
"@  c #110E0C",
"#  c #0B0C11",
"$  c #0F1011",
"%  c #141415",
"&  c #181716",
"*  c #191816",
"=  c #15161A",
"-  c #17181A",
";  c #1B1A1A",
":  c #201F1F",
">  c #22201E",
",  c #1E1E22",
"<  c #201F21",
"1  c #1E2025",
"2  c #1E2029",
"3  c #232223",
"4  c #292726",
"5  c #2B2927",
"6  c #26272A",
"7  c #292729",
"8  c #27292C",
"9  c #2A2A2B",
"0  c #312F2D",
"q  c #2F302E",
"w  c #32312E",
"e  c #39352F",
"r  c #2D2E32",
"t  c #302F31",
"y  c #2E3135",
"u  c #2F3238",
"i  c #333334",
"p  c #393634",
"a  c #3B3836",
"s  c #34353B",
"d  c #38373A",
"f  c #35383D",
"g  c #3B3A3C",
"h  c #433D34",
"j  c #423E3D",
"k  c #44403D",
"l  c #333542",
"z  c #373843",
"x  c #3C3C43",
"c  c #32364A",
"v  c #363A4C",
"b  c #3B3D4B",
"n  c #323650",
"m  c #353950",
"M  c #3A3D52",
"N  c #353B5B",
"B  c #383C5A",
"V  c #403F42",
"C  c #3E4047",
"Z  c #3F414C",
"A  c #3E4154",
"S  c #3E425B",
"D  c #3C4264",
"F  c #434143",
"G  c #484544",
"H  c #4C4945",
"J  c #44444B",
"K  c #49474A",
"L  c #4D4B4C",
"P  c #544D46",
"I  c #524E4D",
"U  c #594E49",
"Y  c #55514E",
"T  c #5B534C",
"R  c #5F594F",
"E  c #424454",
"W  c #464955",
"Q  c #4D4D53",
"!  c #444758",
"~  c #464B5E",
"^  c #4C4E5B",
"/  c #514F53",
"(  c #514F59",
")  c #4F5057",
"_  c #4F505C",
"`  c #545254",
"'  c #5A5554",
"]  c #5E5954",
"[  c #53535C",
"{  c #59575A",
"}  c #5C595C",
"|  c #62574B",
" . c #655A4D",
".. c #695C4E",
"X. c #625A54",
"o. c #625D5B",
"O. c #6D6355",
"+. c #66615C",
"@. c #6A635C",
"#. c #726555",
"$. c #72675C",
"%. c #71695F",
"&. c #404566",
"*. c #474D63",
"=. c #4B4E63",
"-. c #4A4F6A",
";. c #4E5164",
":. c #4D526B",
">. c #535563",
",. c #585761",
"<. c #565864",
"1. c #5B5B63",
"2. c #53556B",
"3. c #56596B",
"4. c #5A5C6B",
"5. c #494E74",
"6. c #474E78",
"7. c #484E7B",
"8. c #4D5273",
"9. c #4D547D",
"0. c #525672",
"q. c #545974",
"w. c #5B5E71",
"e. c #50567C",
"r. c #53597C",
"t. c #595F7A",
"y. c #615F63",
"u. c #605F69",
"i. c #5F6066",
"p. c #5F606C",
"a. c #5D6175",
"s. c #5D627B",
"d. c #646264",
"f. c #6B6563",
"g. c #6D6867",
"h. c #63626B",
"j. c #69666C",
"k. c #6C696C",
"l. c #726663",
"z. c #736B65",
"x. c #736C6A",
"c. c #7D7261",
"v. c #636473",
"b. c #666870",
"n. c #6C6C74",
"m. c #62657A",
"M. c #65687D",
"N. c #696B7A",
"B. c #716D74",
"V. c #707274",
"C. c #797574",
"Z. c #74757C",
"A. c #4D5484",
"S. c #515984",
"D. c #585F81",
"F. c #5A6181",
"G. c #596188",
"H. c #646A83",
"J. c #696D85",
"K. c #828487",
/* pixels */
"k.f.d.d.f.l.h.v.@.@.+.d.y.u.o.f.v.h.v.m.m.H.N.n.s.m.v.n.x.x.g.b.N.M.H.H.v.v.m.H.J.N.N.J.N.x.B.n.C.C.g.z.x.k.N.N.g.j.M.N.g.d.@.I ",
"1./ ` K t s i t w p i i W L H J i w i i u i i s L ` [ W i i s s i f u s =.^ ` Q f l c u f f f a R X.T H i s f f e p s f P Q I a ",
"1.>.,.g o + + + + @ + % [ Q Y z . + + + + + + = [ | ] x O # # # # # O = 2.{ X.F + + + @ + @ + % o.+.] a + + + + + @ + % ] ` ' g ",
"3.>.1.x = 9 8 7 5 7 4 9 [ ` [ g & 4 5 4 8 9 5 r { T } x - 9 8 8 8 9 9 r 3.] X.k - 9 9 5 5 9 4 w X.T ' V - 9 9 8 7 9 8 q } I ' C ",
"q.;.,.x = 9 9 8 9 9 5 r [ ` ' a % 4 5 5 8 8 5 r 0._ <.x - 9 5 5 9 5 5 r q.o.o.j * q 9 9 9 5 5 i o.Y { a = 9 9 9 9 9 5 w } Y ` C ",
"<.^ <.x , i i r u i i s [ Q ` g ; i w i i i i s q.` [ C 3 i i p i s i l q.{ } G > p i p p i i g ,.` ' j 3 d i i s i i g 1.) ` j ",
"1.` [ ` w.s.t.m.v.s.d.1.' I I ^ 1.o.o.1.p.p.y.v.q.Y ' 2.F.d.1.1.h.h.v.m.3./ ` ' d.a.s.h.d.+.f.h.3.` ' ' u.h.@.f.v.h.h.M.3.[ ' j ",
",.` [ [ -.-.=.:.` =.-.~ Q Y I Q W L Y ~ Q Q / =.:.` ] ,.8._ ` ` _ [ [ >.;.[ ' ' ` [ :.:.;.` Y [ 2.[ ' I U U T [ ` ' ) ;.2.` ' k ",
"[ ^ >._ 2.0.2.>.' [ 2.2.` ` Q ` _ [ ' <.0.e.r.0.:.[ ' ] 1.3.' } { } o.,.8.' ' [ } o.1.q.3.3.} 3.[ ' | X.X.] X.} ,.} 1.q.>.>.{ V ",
",.5.9.! f c f s i s s g T ` ;.K s f i f c c c c *.;.[ L f f p p s d z x [ { [ L f a g z f f g l ^ ' ' P p g p p f x c l -.8.q.V ",
"3.5.A.N O # + + # # O % R Y [ x O + + + + # + % ^ ^ 3.x O + @ + # # + = 3.;.} j O # + # + + + $ [ ` ' j . + + + + $ + % e.0.1.H ",
"2.=.8.N , 8 8 8 5 9 8 r X.Y [ x ; 5 8 9 7 8 7 9 ` =.0.C - 9 5 4 9 9 5 r a.:.q.Z = 9 9 9 9 9 8 y q.>.} V * 9 9 7 7 9 5 i 1.>.X.H ",
"[ ^ 2.v = 8 9 9 9 9 5 q } ` } g % 9 9 9 9 9 5 y >.-.:.x % 8 q q 9 9 5 i } _ 0.m = 9 9 9 9 9 5 q 2.2.2.x % 9 9 9 0 9 9 0 } ( ' G ",
"{ ~ >.x 1 i i i p i u f 3.;.>.V , s i i i i y i <.L >.F : u u i a i i g d.;.:.=.9 s i p i p y f } ( q.V < s i i i i i d } { } F ",
">.-.;.` o.N.p.d.%.c.v.s.4.[ X.T d.p.p.d.d.d.p.p.' U Y ` +.p.i.d.x.x.g.g.w.=.3.N.V.h.h.v.m.V.b.s.<.>.2.( y.h.u.d.j.f.@.f.o.' o.G ",
"2.;.:.Q W ;.) )  ...[ ~ [ } o.] T Y ) I Y ) ) ) Y T T ) Q ^ ) ) ' ] ' _ ;.>.b.[ Q [ Y ` _ [ { _ 5.8.[ ` L ` P I Y ` ( ( ( ( } E ",
"3._ ;._ ;.0.e.2.o.y.<.{ >.( >.{ ' { ,.{ >.,.` { ` Y Y Y [ 3.>.<.} } } [ ) _ _ ;.1.4.1.X.' } } <.0.:.e.3.1.{ ' ] } ] } } 2.[ 3.E ",
"3.*.>.J u n n f s v f s ( [ >.W i s i s s s i p I Y Y Q s f z a d f i p K p.K.Q f g g p p i s z -.8.e.*.z p i f f i p f ` [ 2.F ",
"3.*.:.z O $ + + O # o % 2.( 2.b + # @ # + + + % ' ) ' V . @ @ $ + @ O % L } V.z + + + + + + + % 2.~ 2.M O + + + + + O % ' ` X.K ",
"<._ _ z , 8 9 9 9 9 9 0 1.2.3.b = 8 8 6 8 8 7 t { ) [ F * 5 5 5 q 9 8 q ' H ) j * 9 9 5 4 4 5 9 } / 2.x - 9 9 9 5 5 5 i o.' o.K ",
"<.;._ z $ 8 9 9 9 9 9 y 1.2.0.M = 8 9 5 8 8 5 t { ;.[ F % 5 9 5 5 q 5 q ` L [ x * 9 q 9 4 9 4 q X.Y ] x = 9 9 9 5 5 7 w X.Y ] K ",
"{ ;._ f 2 u d a s i i f u.` 2.B 2 s t i u i i f } _ ' F : p i i w i q i ] _ 4.J > i i i p i p p X.Y R k 1 i y i s p p a O.T { W ",
"[ *.=.) i.h.Z.Z.4.t.w.s.3.[ >.2.F.F.1.u.p.D.t.F.2.) Y ' @.@.y.p.f.@.} o.] _ 2.2.d.h.h.m.v.h.h.+.o.' Y Y i.f.f.p.k.v.j.h.1./ <.E ",
"} ;._ I P ) ' ;.*.Q ' ' 2.8.0.2.` =.^ / ( -.-.5.:._ [ ` Y P Q _ _ ) ) Q ) [ ;.;.` [ [ ;._ ` / Y T T ' ` ) T R ' [ ` ;.^ [ >.2.V ",
"} [ ` I } #.O.@.1.X.X.X.' 2.:.>.[ [ 1.,.2.{ 1.r.2.( / ` ] ' { ,.q.2.' [ [ [ 8.2.3.{ 1.1.} 1.} } } ' 2.[ ] ] X.o.q.3.,.,.[ ;.+.K ",
"{ ' [ A i h h k a g p p Y [ :.W i p i f f g d d Q >.[ H p e p i f i i s Q >.2.W s s s g z v l g ` [ 1.H s p p a f m v x ` ` ] K ",
"2.) >.Z o + @ @ # O o % ' _ 8.v o + + + O # + % >.>.2.g . + # O + + O $ ` ` <.x o + + + + + + % [ [ o.j o + + + + + # $ } ` Y G ",
"<.) ` z = 5 9 9 9 5 7 0 [ ) <.M = 8 5 5 9 5 4 9 2.=.<.b = 9 9 8 5 5 4 9 } R o.k ; 9 7 9 9 9 5 i o...X.k * 5 4 8 4 9 8 r 3.) ' F ",
"{ P ' x = 5 5 5 9 9 4 9 ,._ [ v = r 7 7 9 0 5 q <.=.8.b % 9 5 5 9 9 4 9 ' | X.j & 9 7 9 9 9 5 i +...X.h % 5 9 5 9 9 9 y 3.' ` C ",
"3.Y Y C 1 u w i p i u s [ ^ _ x : i t i w i w p y.-.0.V 3 i i i i i 0 d 1.| X.k : p p i s i i g d.} o.g , i e p y i u a s.:.{ F ",
"e.) I Y 1.p.1.1.d.d.1.d.[ ^ _ ` o.o.o.f.d.d.o.@.o.^ :.{ d.d.1.h.u.u.o.m.4.' ' ' f.%.d.u.h.h.v.v.w.[ 3.` d.d.+.p.i.@.h.b.3.8.2.Z ",
"q.) Y _ ` Q Q L P I ` L I ` ` ` I L / I P L L T T / >.[ ` ^ [ ` ^ Q Q =.<.{ X.[ ` ' ' [ / ` ^ [ 2.2.2.` ) ` _ ;._ ) I L ` 2.S.S ",
"r.) _ [ } ,.[ [ ' ' { ' [ Q ` ` ' ' { ] [ [ ` R R Y _ { ,.} ' ] { [ <.r.3.{ X.{ 1.1.1.,.{ y.1.3.3.{ ` ` ,.,.3.e.2.{ { ' ` ' A.D ",
"e.;.:.W s l i i s d i i W ` ` K p p d i i i i p P ) :.Q g s p p i i l c :.,.X.P g g z g p j z d ;.{ ' L d z l n l l s f Q [ q.D ",
"S.6.8.b o # + + + + @ % [ Q ' g   + + # + + + % ` _ 8.C . + O # + + + = 3.{ X.j o + + @ + + + % } [ [ V o $ # # # # O % [ [ 3.D ",
"3.:.3.M - 8 8 8 7 7 7 9 ` I [ V * 5 5 9 5 9 8 9 <.^ q.F - 9 9 9 9 9 8 t y.X.X.j * 0 7 7 7 9 9 t o.| } V = 8 9 9 8 8 9 r y.` [ A ",
"2.) [ b = 8 8 5 9 9 7 9 ` I [ x % 9 5 9 9 9 9 q [ 8.q.k , 8 8 9 9 7 7 t ,.{ X.g % 0 7 9 9 9 7 t O.X.X.V = 9 7 7 8 9 5 y 3._ [ F ",
"S.) ' M 2 u u u i i i g 2./ ' F > e p i y p e g y.;.3.G , s u i i i p g u.;.{ j : p i i i d i a $.X.' j < t i t u i u f r.>.' V ",
"0.Y Y 3.N.h.d.h.a.w.p.a.<.[ ' ' @.O.$.f.a.4.g.C.d.[ [ { D.D.t.m.m.g.l.f.u.,.( { h.y.v.v.h.v.m.v.o.' ' I 1.1.y.y.p.v.v.s.4.[ [ F ",
"2.) [ :.` P I P _ ~ ^ Q [ [ I U Y P U Y ` ~ ;.[ ' >.[ ` =.7.;.-.:.[ U ' ' ,.( >.` / / [ ` ( [ <.[ ' I / Q Q Q Q ) ) [ [ [ } [ C ",
"3.L / ) ' R '  .} 2.[ } ' [ ` ' ' ' R ] { <.8.8.[ :.:.T } q.<.<.3.} X.X.} ' { / } ' o.o.{ 1.o.u.>.` I [ [ [ [ [ ` ' ] } ' ' >.C ",
"2.I Y K p e e p p g i d Q [ ` H s i p p z f c c :.8.:.P p s l f s p p p ' } } L d p g V d z a x [ ` ` L i i l l i i i a ) [ >.C ",
"0.Q ' h o + + + O # O % [ =.2.j O + + @ + # O $ :.8.2.g . + + # # + o % 1.} o.b o # + @ # + O % ,.[ 2.j + + O # + @ + % [ [ >.C ",
"3.=.2.z - 9 5 5 8 r 8 8 2.~ 2.b = 5 4 5 9 9 8 y 8.:._ g * 9 8 9 9 9 5 9 1.} ' V - 8 9 8 9 9 7 t ,.) ,.k & 7 8 8 8 9 8 9 <.) <.A ",
"<.-.q.C = 9 9 5 5 9 5 r :._ [ x % 5 5 8 5 9 9 y 2.=._ z % 4 5 8 9 9 5 9 w.[ } x = 9 9 9 9 9 7 t } ' } g % 9 9 5 8 5 5 y 2._ 8.A ",
"<.=.<.A 2 s i p i i u f q._ <.x : i i p i i i s 9.*.) g 1 p i u u i i s 3.[ { x , i t s i s i d } ` } F , i i i r r i i ,.;.8.S ",
"q.;.[ ;.a.s.h.@.d.h.d.4.3.:.<._ } +.o.@.d.h.d.h.q.-.^ Q } +.d.4.a.p.p.v.,.[ / ` w.w.a.p.m.m.j.j.,.( [ [ u.u.4.h.w.q.a.d.2.;.;.C ",
"q._ [ _ :.:.;.) ` [ Q I R } [ [ Q L L I ) Q _ L ~ =.^ ;.Q L H H Q Q Q [ ` ` ` [ ( *.=.;.-.;./ ( ( >.>.[ [ ^ / ) _ ~ _ ` ;.:._ k ",
"q.;.>.<.q.r.r.2.} } } ] | | Y [ } ' ` } } [ >.` ^ ^ Q [ 2.>.` ` <.[ [ { ` ` ` ` 3.2.3.3.4.,.,.} ` [ >.>.3.{ { 2.:.2.[ 3.[ [ [ k ",
"3.:.:.~ c c l c z a f s Y T T Q p i s d g i s i W ^ Q J u f i u s f l f Q L ` G s s f l g z f g Q ` [ ~ l f l l c f i l W [ { k ",
"4.:.q.b + # # $ + @ + % ` I ` g o + + + + O O $ _ Q ` z O + + O O # O % } ` ` g . + # # + + + % ' ` >.b O # + # o # o % ` Y ' k ",
"h.<.3.j - 8 8 8 8 9 9 y [ ) 2.x = 6 8 7 4 4 6 r [ L [ z = 8 6 7 8 8 8 0 } Y ' x & 6 8 9 9 9 4 y } Y ` x = 9 5 9 8 8 8 9 ' I ' G ",
"g.f.u.h & 9 9 8 8 9 5 i [ _ 3.b = 9 8 8 9 7 7 0 ] I ' f % 8 8 6 8 8 8 t ] T ' g % 9 9 9 8 8 8 w } T X.j & 5 5 9 9 8 6 r [ ' ' k ",
"f.z.j.K < p i i u i i a d.` { J < s u u t t t i ' P L a , u r r r r r d } Y ' g : i u s i i u f 1.' X.F , i u i s u r i <.' X.F ",
"w.h.z.y.4.a.F.F.F.a.u.g.+.` [ 2.w.w.u.w.y.,.y.u.[ K L Q <.4.3.} ,.w.3.u.} L I ` y.h.p.m.m.G.D.s.3.[ [ >.s.a.a.w.f.i.p.i.} ` ' F ",
"A.;.l.y.' ` _ :.:.;.[ [ ` ` ;.>.-.*./ ~ Q L I U Q L Q Q ~ =.^ L L W Q Q ' ` / ` Q ) [ ;.0.5.-.( >.[ >.[ [ ^ [ ^ ' I Q Q I I ` F ",
"0.:.} [ o.+.1.q.q.3.<.2.>.[ -.0.w.;.[ >.( / ( I Q W Q Q ` >.>.' [ _ [ ' ' ` ` [ ,.1.,.3.3.4.,.4.2.[ [ [ } } ,.} ] [ >._ _ ) ) C ",
"q.-.;.K p a g z z z f l =.:.-.&.l u s u i i i i Q ` Y J t i s p u s i p I ;.[ K f l f l s x l l =.[ 2.Q a p s s p s l l ;._ [ C ",
"0.=.:.x . + O + + # + % 2.=.8.x X # # # + + o $ ( / ` s X O O + + + O % ' _ } j o + + + # + # % >.' } F o + + + + + + % :.;.>.C ",
"q.:.2.v ; 5 8 5 5 9 6 r 1.>.:.v = 8 6 8 6 6 6 7 [ ^ [ d = 9 7 6 8 6 8 0 } _ ' j = 8 8 8 8 9 8 t >.` ,.C ; 9 8 6 8 8 6 8 3._ >.C ",
"2._ :.v = 9 9 9 9 5 6 r ,.' 2.v = 6 6 8 6 6 6 8 Q Q ~ f % 7 9 5 8 8 6 t ,.` [ F & 9 9 8 8 5 5 w { ` ,.C = 9 8 8 6 6 6 r ;.) ' F ",
"<.;.8.v , u u i i i y f ,.' :.v , u r r t r r u [ L ^ x ; w e i i i r i 3.[ [ F < p i i u y i f } ` ;.x ; i u u y y y s { ) ` g ",
"1.:.8.[ v.w.h.h.v.j.j.j.o.' 2.8.D.m.w.u.w.u.w.w.>.^ =.;.<.u.@.h.4.m.4.h.h.<.} [ h.k.m.s.h.d.d.d.1.[ <.,.h.h.a.a.d.h.h.h.} Y ' k ",
"S z z f d f f g g g a p a g f z l z s s s l l l i f f l l f g i i f s d a f z x f f z l l f f i f f f g s f u l s f g i f p a y "
};
