/* XPM */
static char *result[] = {
/* columns rows colors chars-per-pixel */
"64 64 55 1 ",
"  c gray6",
". c #10100F",
"X c #0F0F11",
"o c #0F1010",
"O c #131313",
"+ c #181816",
"@ c #161618",
"# c #17191A",
"$ c #1C1C1C",
"% c #1E1F21",
"& c #201F20",
"* c #1F2022",
"= c #232324",
"- c #282726",
"; c #292826",
": c #25262A",
"> c #27282B",
", c #2A2B2C",
"< c #31302F",
"1 c #272830",
"2 c #2D2E33",
"3 c #2F3034",
"4 c #2F303A",
"5 c #323234",
"6 c #383737",
"7 c #3A3937",
"8 c #323439",
"9 c #37393D",
"0 c #3C3C3D",
"q c #403F3E",
"w c #42403E",
"e c #373942",
"r c #3C3D43",
"t c #373A48",
"y c #3C3D49",
"u c #403F40",
"i c #3F4045",
"p c #3F414A",
"a c #424142",
"s c #484643",
"d c #4D4B46",
"f c #43444A",
"g c #4C4B4C",
"h c #504C46",
"j c #514E4B",
"k c #50504F",
"l c #454754",
"z c #464954",
"x c #4C4D52",
"c c #4C4E59",
"v c #504F50",
"b c #4F5157",
"n c #525153",
"m c #595652",
"M c #515359",
/* pixels */
"rgxczxxgxcMcxgbcnmnkbxbxgbgcccMvnczgdgxggnkxxgxbgbkxkggbxggkkggq",
"2r9er0r00rrr000000q000r0700rrrrrrr0066r77u0000000000q7706007960,",
"200r0rreri0a0ri0rer0irr000rr0rrr00076000riwui000www070070776067<",
"2069rerrr0q0e000ieer0r070rir000ir0070700rwwir00ww0wu0w70q600000<",
"50q77rrerrrrr000reer0err0uwa00w0uu00trrrrr00r0qq700770000007000,",
"5w7770eriripe99ii0e9er0rrwa0i0riu0rr09rrri000uw000007660iu760703",
"5wwq0rraaiiiruiii00u0r070ai000rr00u00r0raa0rruwui0iu0070iqu00ua5",
"----::::>>::--::3iua0900i0wi00rrwq0u0r0aau0rr0w5==--===--=-=--=-",
"OXOXOXOOOO.OoOOo2rrre000awai0qrrwu0wau0ww0000002..O......O..O.OO",
"$$%$$%$$$$$$$$%@2rryr0000wa00r0yaiwwai000w007003O&&$*$$&$$&$&$&&",
"$$$#$$$$$$$$$%$@2rryrr0w0wwr00rriu0ww000iwq09003+&$$$++$$$$$$$$$",
"$$$%#$#$$$$$$$$@2ieeyer0qww00rri00wwarr00uw0i00<+&$$$$$$$$$$$$$$",
"$$$$#####%$$$$$@2reyyis00wu00rrrr0wwa0uw00u0iri3O$$$+$&&$$$$&+&$",
"$$&$%#%$$$#$$%%@4rrryrrriai0rrrriur00000wwi0yre2+$$*$$$$$$$$+&$$",
"$$$#%##$$##$$$$O2yyrrrrrrawrryprrrr0rr00swiiyrr2O++$+$$++$+++++$",
"&&:&%=&==&=%&==$2rrerer0r00ryryyrpr70ww0r00iprp2$====*=&**&&=&==",
"yzxxlzxxgggzxggg000099iur00rrrrrri09000urwwirirrxxgggggsgffgggg0",
"4yeyer0000rrr0900r076ri0000iyrrrri000ii0iw0u0rire0r000900999800,",
"5uerryr00rrrrr0r000000i0000rrrrrr000eiu0rau0i0w0i900u00i099690r3",
"5uyyruqq000000r0700000r0090ii00000000000w0a0ra00r0r0009r9r0669r3",
"4ryyuuuuu0900rrr00000007000urr79900070uq00000000900000999096709<",
"5r9eruuau0000rrr00w0rr000000rr7000000uqui00000009r000090re970972",
"8ryyuauu0iw00rrr0rurr090000ri0000q007q0uwwuww0070r0r0u0090009902",
"4yyyuuuuu000rerr0ryyyrr00uurr000007q000uds0w00r0090r0q090ei066r3",
"4yyyrrauq0eyrrer0eyyyyraar00ri0r00000rr0gf0w70000000000690r060r2",
"5eyyerrrrrrurrreerryyyyrraw00er000900i0irr0000w00000000009609902",
"euafryfyryyarprrr9errrrtriarir0009eui00iirr0aww0r0aa00rqrr9r0ru5",
":>;>:1>>>1>,::::3000reryrrrrrrr00iiq0ii0yr0ww0w6=-;>==-==:::=:::",
"OXXXXXXoOOOXOOoX100000yyyrrrrrr000u09rierru0q0a,.OOO..O.XOXXOOOX",
"%%%%%%$%%%$%$%%@2r0000ryrrrrr00000000ii000r00qq<@$$$$$$$$%$$$%$$",
"%%@@%#%$$#%#$%$@,rpi00rrrrrrr00r0u00000000rr00q,O$$$$$#$$$$#$#$$",
"%@%%##$%$%#%$#$@2ririryyyr9rr0r0i0ri099ir0rr00u,+$$$$$$$$$$$#$$$",
"$$&$$#$&*$*$$%$@2faeryyrrr0rrrrr00reee0ia0rrr0a,#$$$+$$$$$$$$$$$",
"$$$*$$$&$$**$$$#2i090ryry000ryrqu0i909q0r0rr0wa<@$$$$$$$+$$$$+$$",
"#$+$##+*$$$$$#$#2i090rr0rr0rryr0u0ei99quirrqw0a,+$$+$$#$+$$$###$",
"&========**:**=$3pr099r000rrr0rr098eiiu0aarr00r<$-&&&***&&&$%&&&",
"ubxggggkMMbbxzcbiyrr00rr00rrrrrr90ueei0iwqrrir0rdgdgggggggzlllz0",
"3iu000qiiiiieieiryi0w00rrrriyi009990ee0irrru00qw000wq700000rrtr<",
"3i00qquipifae0uiyrrrr00rr0ryrr0ri9999iiiaarrq000rauwwq00000r0re4",
"3iiuuswaiifiiuwwia0rrrrrr0ryrpiri99i8iauwwaai0rarau0000rwarr77r2",
"3irruiaiiiireiuiiyrrrrrrasiriapriee9sniswqriirq00qwwwrr0wwq070r3",
"60rr0uuuiifieuiirpyr0ar0wg0eriireiiiwfrwarrrr0qrrqww00rrwsqq00r3",
"5iriqq0uu0rii0000ryrrrtyr0r90u00eiiew0iaayrqqu0qr00u00rrwhw079r4",
"3iir700uww0reiiirrrrryryyrrer0rriipiwq00arrr0qqqr0000wriu0w00003",
"<00i77qqwwwieriiprrrrrrrtrrrrii00iir0uiryuyrur0qq00wu000r00r00r2",
"<u0qq0uqq7wutrrfpyrryrttr09iiai0uairirriuuurrurq000000u0r00000e3",
"<wuiwwwwqqwipiifrerr0irr700saawu0iirirriauaa0ruqauaarwaaar00r0r5",
"-;::;;;:;;---:>>4ryrrr000000swwwui00rrrrrraaa0q5=--;--->:--=-::=",
"OOO..OO....O..O.3pieie00q900w000rr0yprririqww0u<.OOO.OOOOO+.OOOO",
"$$$$&$*&&*$&&&*+4ppiii00i990rr000rrttieie00quu0<+$$$&&&$&++$$$$$",
"$#$$$$&$$+&$$$&+1ppi9070i99ir00rrerypiree000q0u,.$*$$&&$$$+$$#$$",
"$$$$$*+$&&&+#$$O3pi0i970009ia00rtyrtpeeee00q700<+&$$&$$$&$$$$$$$",
"$$$#$&&$$$*$$$$#3ii0000000eiasaptrryyreei00u000,+&$$$$&$$$$$$$$$",
"$$$$&$$*$&&$$$*#6gi009iu000i0sapyyyrtipr00q0w00<+&$&&$+&$$$*$$$$",
"$$$$+$$++$$$#$$@3su00i0irrri0iryittiepii090ww00,.$$$$$$$##$$$$##",
"=***====*==*==:$3i00090wa0rrrtrtryerire00i0ui0u<$&&=&=&&*****=**",
"rxgggjkzzxggcbnbiiw00q0awii0repeeyiirru00rr0u00sgkgzgggzzlzcbggi",
"5000ru00eu0uiiwuuwuq0quwawuueeyrriuii0u00rrrrq0www0rr0009eeir0i3",
"5rr7arrr00i00ifuuiuuu0uwws0ue9rffuuuw000rriau00asw0r00009e0ir0i5",
"5rr0au0ee00i0iiuiiiiui0wsw0iaiigdruuu0iirrr0w0rwww0rr0000rerirf6",
"3rr0ar0ee70r0iarpeii0i0qwwuu0iiiii07000ii00uii0u0ww0r9979re9eyi0",
"3000u00rerr070frpeii0i0qw7q000eyri00000qr000rr0ui0u0090990r0rri0",
"5a0qw0rrrri00iaaprffiiiqwqq0iutiiriu0000000aaiiiaw0urr90ur0ripi3",
">>>;;>:,>,,>;,,,,>,31,<;,>,->11111>2>>:;;>>,,>>><<;;>>>->>>>>1>:"
};
