/* XPM */
static char *result[] = {
/* columns rows colors chars-per-pixel */
"92 92 25 1 ",
"  c #000008",
". c gray12",
"X c #434343",
"o c #535353",
"O c #69615B",
"+ c gray39",
"@ c #756E68",
"# c #777777",
"$ c #FB6700",
"% c #827B74",
"& c #FF9747",
"* c gray53",
"= c #928B84",
"- c #9B8E82",
"; c #979797",
": c #9F9891",
"> c #A89B8F",
", c #ACA49E",
"< c #B9A897",
"1 c #B2A599",
"2 c #BBBBBB",
"3 c #C1AF9F",
"4 c #C8C1BB",
"5 c #FFDBBB",
"6 c None",
/* pixels */
"66666666666666666666666666666666666666666666666666666666666666666666666666666666666666666666",
"66666666666666666666666666666666666666666666666666666666666666666666666666666666666666666666",
"66666666666666666666666666666666666666666666666666666666666666666666666666666666666666666666",
"66666666666666666666666666666666666666666666666666666666666666666666666666666666666666666666",
"66666666666666666666666666666666666666666666666666666666666666666666666666666666666666666666",
"66666666666666666666666666666666666666666666666666666666666666666666666666666666666666666666",
"66666666666666666666666666666666666666666666666666666666666666666666666666666666666666666666",
"66666666666666666666666666666666666666666666666666666666666666666666666666666666666666666666",
"66666666666666666666666666666666666666666666666666666666666666666666666666666666666666666666",
"66666666666666666666666666666666666666666666666666666666666666666666666666666666666666666666",
"66666666666666666666666666666666666666666666666666666666666666666666666666666666666666666666",
"66666666666666666666666666666666666666666666666666666666666666666666666666666666666666666666",
"66666666666666666666666666666666666666666666666666666666666666666666666666666666666666666666",
"66666666666666666666666666666666666666666666666666666666666666666666666666666666666666666666",
"66666666666666666666666666666666666666666666666666666666666666666666666666666666666666666666",
"66666666666666666666666666666666666666666666666666666666666666666666666666666666666666666666",
"66666666666666666666666666666666666666666666666666666666666666666666666666666666666666666666",
"66666666666666666666666666666666666666666666666666666666666666666666666666666666666666666666",
"66666666666666666666666666666666666666666666666666666666666666666666666666666666666666666666",
"66666666666666666666666666666666666666666666666666666666666666666666666666666666666666666666",
"66666666666666666666666666666666666666666666666666666666666666666666666666666666666666666666",
"66666666666666666666666666666666666666666666666666666666666666666666666666666666666666666666",
"66666666666666666666666666666666666666666666666666666666666666666666666666666666666666666666",
"66666666666666666666666666666666666666666666666666666666666666666666666666666666666666666666",
"66666666666666666666666666666666666666666666666666666666666666666666666666666666666666666666",
"66666666666666666666666666666666666666666666666666666666666666666666666666666666666666666666",
"66666666666666666666666666666666666666666666$66666666666666666666666666666666666666666666666",
"66666666666666666666666666666666666666666$6$$$$$$6$66666666666666666666666666666666666666666",
"66666666666666666666666666666666666666666$$$$$$$$$$66666666666666666666666666666666666666666",
"66666666666666666666666666666666666666666$$&&&&&$$$6$66$$$6666666666666666666666666666666666",
"66666666666666666666666666666666666666666$&&&&&&&$$$$$$$$66666666666666666666666666666666666",
"666666666666666666666666666666666666666$$$&&&&&&&&$&&&&$$$$666666666666666666666666666666666",
"66666666666666666666666666666666$$$66666$&&&55&&&&&&&&&$$$$666$$6666666666666666666666666666",
"666666666666666666666666666666$66$$$$6$$$$&&555&&&&&&&$$$$$6$$$66666666666666666666666666666",
"666666666666666666666666666666$$$$&&$$$&&&&&555&&&5555&&&&&&&$$66666666666666666666666666666",
"6666666666666666666666666666$666$$&&&&&&&&555555&&5555&&&&&$$$$66666666666666666666666666666",
"6666666666666666666666666666$$$&&&&&&&&&&555555555555555&&&$66666666666666666666666666666666",
"666666666666666666666666666666$&$&&&&&5555::,5555,::555&&&$$$$666666666666666666666666666666",
"666666666666666666666666666666$$$$&55&5555==:5555:==5555&&$$$$$66666666666666666666666666666",
"6666666666666666666666666666666$$$&5555555@=:5555:=@55555&&&$$$$$$66666666666666666666666666",
"66666666666666666666666666666666$$&&555555@=:5555:=@5555&&&&$$$66666666666666666666666666666",
"666666666666666666666666666666666$&&&&5555@@=5555=@@55555&&&&&$66666666666666666666666666666",
"6666666666666666666666666666$$6$$$&&&55555+o++++++o+555555&&&&$66666666666666666666666666666",
"66666666666666666666666666666$$$&&&&555555++++##++++5555&&&&$$666666666666666666666666666666",
"6666666666666666666666666666666$$&&&555555+########+5555&&&$$6666666666666666666666666666666",
"666666666666666666666666666666$$&&&&&555oooooooooooooo55&&&&$$666666666666666666666666666666",
"666666666666666666666666666666$$&&&&5&55o-<<3<<<<<3<-@5&&&$$$$666666666666666666666666666666",
"66666666666666666666666666666$$$$$$&&&&o+=111---->11=%o$$&$$$$$66666666666666666666666666666",
"66666666666666666666666666666666$6$$$$$o+::@@@@@@@@::%o$$$$6$6666666666666666666666666666666",
"666666666666666666666666666666666666$$$o+::o o##o o**+@@6$$666666666666666666666666666666666",
"66666666666666666666666666666666666666@o+::#;;;;;;**=+@@666666666666666666666666666666666666",
"66666666666666666666666666666666666666@oo:=====::::==@@@666666666666666666666666666666666666",
"6666666666666666666666666666666666666@@o#=====:::=====oo@66666666666666666666666666666666666",
"6666666666666666666666666666666666666@oo#====::::=====oo@66666666666666666666666666666666666",
"6666666666666666666666666666666666666@oo#===:%%%%=====oo@66666666666666666666666666666666666",
"666666666666666666666666666666666666O@o@===oooooooo#=#oo@O6666666666666666666666666666666666",
"666666666666666666666666666666666666Ooo%==@ oo##oo o==%ooO6666666666666666666666666666666666",
"66666666666666666666666666666666666XOXo===:;;o##o;;#=:=oXOX666666666666666666666666666666666",
"66666666666666666666666666666666666XXXX##::::,,,,===::#XXOX666666666666666666666666666666666",
"6666666666666666666666666666666666.XXXX#*:::=======::=#XXXXo66666666666666666666666666666666",
"6666666666666666666666666666666666.XXXX+#:::=====::::=+XXXX.66666666666666666666666666666666",
"6666666666666666666666666666666666.XXXX++oooooooooooo++XXX..66666666666666666666666666666666",
"6666666666666666666666666666666666..XXXooooo;;22;;oooooXX...o6666666666666666666666666666666",
"666666666666666666666666666666666....XXXooo###;;###oooXXX....o666666666666666666666666666666",
"66666666666666666666666666666oooo....XXXXoo+######+ooXXX.....ooo6666666666666666666666666666",
"66666666666666666666666666ooooXXX.....XXXoo+oooooo+ooXX......XXXoooo666666666666666666666666",
"6666666666666666666666666o#===@@oX.....XXooooooooooooXX.....Xooo====@66666666666666666666666",
"666666666666666666666666o##,44,=ooX....XXoooo;22;ooooXX....Xoo#;44,==o6666666666666666666666",
"66666666666666666666666o##;;;;;;#oXXX..Xooo###;;###oooX...XXo#;;;;;;##o666666666666666666666",
"6666666666666666666666oo#;;;#;;;;#oXXXXXooo+######+oooXXXXXo#;;;;#;;;#oo66666666666666666666",
"6666666666666666666666o+######;;;##oXXXXooo+oooooo+oooXXXXo##;;;######+o66666666666666666666",
"666666666666666666666Xo+##+oo###;##oXXXoooooo;22;ooooooXXXo##;###oo+##+oX6666666666666666666",
"666666666666666666666Xo+#+oooo######oooooooo#;;;;#oooooooo######oooo+#+oX6666666666666666666",
"666666666666666666666Xoo+oooXoo####+o+oooo++##;;##++oooo+o+####ooXooo+ooX6666666666666666666",
"666666666666666666666XXooooXXXo++#+++++ooo++######++ooo+++++#++oXXXooooXX6666666666666666666",
"666666666666666666666oXXoXXXoXoo++++++oooo++oooooo++oooo++++++ooXoXXXoXXo6666666666666666666",
"66666666666666666666oooooooooXXoo++++oooooooooooooooooooo++++ooXXooooooooo666666666666666666",
"6666666666666666666ooo#;;;#ooooXoo+++ooo++++oooooo++++ooo+++ooXoooo#;;;#ooo66666666666666666",
"666666666666666666oo##;;2;#;;oooXXo++ooo++++++++++++++ooo++oXXooo;;#;2;;##oo6666666666666666",
"666666666666666666o+##;;######oooXXooooo++++######++++oooooXXooo######;;##+o6666666666666666",
"666666666666666666o+++oooooo####ooXXoXXo++++######++++oXXoXXoo####oooooo+++o6666666666666666",
"66666666666666666ooo;;;;;oooo##++ooXXXXo++++######++++oXXXXoo++##oooo;;;;;ooo666666666666666",
"6666666666666666ooo#;;2;;;#ooo+++++++XXo++++oXXXXo++++oXX+++++++ooo#;;;2;;#ooo66666666666666",
"6666666666666666o##;;;oo#;;#ooo++++++XXo+oXXXXXXXXXXo+oXX++++++ooo#;;#oo;;;##o66666666666666",
"666666666666666oo+##ooooo####oo++++++XXoXXXXXXXXXXXXXXoXX++++++oo####ooooo##+oo6666666666666",
"66666666666666oo+++oooooooo##+XX++++oXXXXXXXXXXXXXXXXXXXXo++++XX+##oooooooo+++oo666666666666",
"6666666666666ooo++ooo;##oooo#++Xo+oooXXXXXXXXooooXXXXXXXXooo+oX++#oooo##;ooo++ooo66666666666",
"6666666666666ooooo;;2;###ooooo++XooooXXXXXooooooooooXXXXXooooX++ooooo###;2;;ooooo66666666666",
"666666666666ooo+#;;;;;#+++++oo++XXoooXXXXooooooooooooXXXXoooXX++oo+++++#;;;;;#+ooo6666666666",
"666666666666ooo+#;##ooooo++++oX++XXoXXXXooooooooooooooXXXXoXX++Xo++++ooooo##;#+ooo6666666666",
"666666666666ooo++#ooooooo+++++XoooXXXXXooooooooooooooooXXXXXoooX+++++ooooooo#++ooo6666666666",
"666666666666ooooooooooXooo++++XooooXXXXooooooooooooooooXXXXooooX++++oooXoooooooooo6666666666"
};
