/* XPM */
static char *result[] = {
/* columns rows colors chars-per-pixel */
"92 92 21 1 ",
"  c #0B171F",
". c gray12",
"X c #132733",
"o c gray20",
"O c #7B3323",
"+ c #1B374B",
"@ c #23475F",
"# c #2B5777",
"$ c #434343",
"% c #535353",
"& c #777777",
"* c #8B3F2B",
"= c #A7573B",
"- c #B76743",
"; c #DF8F5B",
": c #FFB373",
"> c #336B8B",
", c #438BB7",
"< c #4B9FCF",
"1 c #53AFE3",
"2 c None",
/* pixels */
"22222222222222222222222222222222222222222222222222222222222222222222222222222222222222222222",
"22222222222222222222222222222222222222222222222222222222222222222222222222222222222222222222",
"22222222222222222222222222222222222222222222222222222222222222222222222222222222222222222222",
"22222222222222222222222222222222222222222222222222222222222222222222222222222222222222222222",
"22222222222222222222222222222222222222222222222222222222222222222222222222222222222222222222",
"22222222222222222222222222222222222222222222222222222222222222222222222222222222222222222222",
"22222222222222222222222222222222222222222222222222222222222222222222222222222222222222222222",
"22222222222222222222222222222222222222222222222222222222222222222222222222222222222222222222",
"22222222222222222222222222222222222222222222222222222222222222222222222222222222222222222222",
"22222222222222222222222222222222222222222222222222222222222222222222222222222222222222222222",
"22222222222222222222222222222222222222222222222222222222222222222222222222222222222222222222",
"22222222222222222222222222222222222222222222222222222222222222222222222222222222222222222222",
"22222222222222222222222222222222222222222222222222222222222222222222222222222222222222222222",
"22222222222222222222222222222222222222222222222222222222222222222222222222222222222222222222",
"22222222222222222222222222222222222222222222222222222222222222222222222222222222222222222222",
"22222222222222222222222222222222222222222222222222222222222222222222222222222222222222222222",
"22222222222222222222222222222222222222222222222222222222222222222222222222222222222222222222",
"22222222222222222222222222222222222222222222222222222222222222222222222222222222222222222222",
"22222222222222222222222222222222222222222222222222222222222222222222222222222222222222222222",
"22222222222222222222222222222222222222222222222222222222222222222222222222222222222222222222",
"22222222222222222222222222222222222222222222222222222222222222222222222222222222222222222222",
"22222222222222222222222222222222222222222222222222222222222222222222222222222222222222222222",
"22222222222222222222222222222222222222222222222222222222222222222222222222222222222222222222",
"22222222222222222222222222222222222222222222222222222222222222222222222222222222222222222222",
"22222222222222222222222222222222222222222222222222222222222222222222222222222222222222222222",
"22222222222222222222222222222222222222222222222222222222222222222222222222222222222222222222",
"22222222222222222222222222222222222222222222222222222222222222222222222222222222222222222222",
"22222222222222222222222222222222222222222222222222222222222222222222222222222222222222222222",
"22222222222222222222222222222222222222222222222222222222222222222222222222222222222222222222",
"22222222222222222222222222222222222222222222222222222222222222222222222222222222222222222222",
"22222222222222222222222222222222222222222222222222222222222222222222222222222222222222222222",
"22222222222222222222222222222222222222222222222222222222222222222222222222222222222222222222",
"22222222222222222222222222222222222222222222222222222222222222222222222222222222222222222222",
"22222222222222222222222222222222222222222222222222222222222222222222222222222222222222222222",
"22222222222222222222222222222222222222222222222222222222222222222222222222222222222222222222",
"22222222222222222222222222222222222222222222222222222222222222222222222222222222222222222222",
"22222222222222222222222222222222222222222222222222222222222222222222222222222222222222222222",
"22222222222222222222222222222222222222222222222222222222222222222222222222222222222222222222",
"22222222222222222222222222222222222222222222222222222222222222222222222222222222222222222222",
"22222222222222222222222222222222222222222222222222222222222222222222222222222222222222222222",
"22222222222222222222222222222222222222222222222222222222222222222222222222222222222222222222",
"222222222222222222222222222222222222222>>>22222>>>222222222222222222222222222222222222222222",
"22222222222222222222222222222222222222X###22222###X22222222222222222222222222222222222222222",
"22222222222222222222222222222222222222X+++22222+++X22222222222222222222222222222222222222222",
"22222222222222222222222222222222222222X+++22222+++X22222222222222222222222222222222222222222",
"22222222222222222222222222222222222222X+++22222+++X22222222222222222222222222222222222222222",
"22222222222222222222222222222222222222XXXX22222XXXX22222222222222222222222222222222222222222",
"22222222222222222222222222222222222222XXXX22222XXXX22222222222222222222222222222222222222222",
"22222222222222222222222222222222222222XXXXXXXXXXXXX22222222222222222222222222222222222222222",
"22222222222222222222222222222222222222XXXX@###@XXXX22222222222222222222222222222222222222222",
"22222222222222222222222222222222222222XXX@#,,,#@XXX22222222222222222222222222222222222222222",
"22222222222222222222222222222222222222XXX#,<<<,#XXX22222222222222222222222222222222222222222",
"22222222222222222222222222222222222222XXX@XXXXX@XXX22222222222222222222222222222222222222222",
"22222222222222222222222222222222222222X+XXXXXXXXX+X22222222222222222222222222222222222222222",
"22222222222222222222222222222222222222X+Xo$$$$$oX+X22222222222222222222222222222222222222222",
"222222222222222222222222222222222222222X.$%&%%%$.X222222222222222222222222222222222222222222",
"22222222222222222222222222222222222222X@$$%&%%%$$@X22222222222222222222222222222222222222222",
"22222222222222222222222222222222222222X@o$%&%%%$o@X22222222222222222222222222222222222222222",
"22222222222222222222222222222222222222X@.o%%%%$o.@X22222222222222222222222222222222222222222",
"2222222222222222222222222222222222222X++$%%&%%%$$++X2222222222222222222222222222222222222222",
"2222222222222222222222222222222222222X+$$%&&%%%$$$+X2222222222222222222222222222222222222222",
"2222222222222222222222222222222222222XXo$%&&%%%$$oXX2222222222222222222222222222222222222222",
"222222222222222222222222222222222222XXX.o$%%%%$$o.XXX222222222222222222222222222222222222222",
"222222222222222222222222222222222222XXX.#########.XXX222222222222222222222222222222222222222",
"222222222222222222222222222222222222XX>>,,<1<,,,>>#@XX22222222222222222222222222222222222222",
"22222222222222222222222222222222222XX>>,,<111<,,,>#@XX22222222222222222222222222222222222222",
"22222222222222222222222222222222222X@>>>,,<1<,,>>###@X222*--22222222222222222222222222222222",
"22222222222222222222222222222222222X@@XXXXXXXXXXXXX@@X22*----=222222222222222222222222222222",
"22222222222222222222222222222222222X@X+@@######@@@+X+X22*--::-222222222222222222222222222222",
"22222222222222222222222222222222222XX+@##>>>>>>##@++XX2*---;:-=22222222222222222222222222222",
"22222222222222222222222222222222222X+@@##>>>>>>##@@@XX2*-;-;---22222222222222222222222222222",
"2222222222222222222222222222222222X+@@@##>>>>>>##@@@+XX*-;--;;-=2222222222222222222222222222",
"2222222222222222222222222222222222X@@@@##>>>>>>##@@@+XX*-;;;;;-=2222222222222222222222222222",
"222222222222222222222222222222222++@@@@##>>>>>>##@@+++X*-;;;;;-=2222222222222222222222222222",
"222222222222222222222222222222222+@@@@X#>>>>>>>##XX+++XO-;;;;;--=222222222222222222222222222",
"22222222222222222222222222222222++@@@@ #>>>>>>>##X+++++X-;;;--;-=222222222222222222222222222",
"22222222222222222222222222222222+@@@@@ #>>>>>>>>#X+++++X-;;;;;;;-=22222222222222222222222222",
"22222222222222222222222222222---+@@@@X #>>>>>>>>#XXX++++X;;;;;;;-==2222222222222222222222222",
"2222222222222222222222222222-;;++@@@@X @>>>>>>>>@  X++++X-;;;;;----===2222222222222222222222",
"222222222222222222222222222-:;;++XXX   @XXXXXXXX@     +++X-;;;-;;;;----=22222222222222222222",
"22222222222222222222222222-::;;++   ++++#++++++++#++++ +++X-;;;;;;;;;;;-=2222222222222222222",
"2222222222222222222222222-;::;;+@  @#,,,#,111111,+,,##@ ++X--;;;;;;;;;;;--=22222222222222222",
"2222222222222222222222222-;;;;-+@ @##>>>#>>>>>>>>#>>###  ++--;;;;;::;;;;;;--2222222222222222",
"222222222222222222222222O--;---+@ @##>>>+#>>>>>>#+#####  ++O--;;;;;;:::;;;;-=222222222222222",
"222222222222222222222222OO----+++ @#####+########X#####  ++O---;;;;;;:::;;;;-=22222222222222",
"22222222222222222222222-;OO--- ++ @####@X@######@X@####  ++OO---;;;;;;:::;;;;=22222222222222",
"2222222222222222222222-;;-OOO     @#@+++X+++++++++X++@#   ++O---;;;;;;:::::;;-=2222222222222",
"222222222222222222222-;;;;-OO      #++++X+++++++++X+++#   ++OO---;;;;;;:::::;-=2222222222222",
"22222222222222222222-;::;;--O      @+++XXXXXXXXXXXXXX+@    ++OO----;;;;:::::;;==222222222222",
"22222222222222222222-;::;;;-O        XXXXXXXXXXXXXXXXX     ++OO-----;;;::::::;-=222222222222",
"22222222222222222222-;;;;;-OO                              ++OOO-----;;;::::::-=222222222222",
"22222222222222222222-;;;--OOO    ++@@                      ++OOOO-----;;::::::-=222222222222"
};
