/* XPM */
static char *result[] = {
/* columns rows colors chars-per-pixel */
"48 48 220 2 ",
"   c #000006",
".  c #010109",
"X  c #090E0F",
"o  c #061805",
"O  c #101016",
"+  c #0B2B00",
"@  c #0A2606",
"#  c #0E3202",
"$  c #113404",
"%  c #133B05",
"&  c #153E0A",
"*  c #183412",
"=  c #2B2D0D",
"-  c #2E3716",
";  c #1C1C21",
":  c #37373A",
">  c #28282C",
",  c #4A1B11",
"<  c #5B2103",
"1  c #672806",
"2  c #552D27",
"3  c #622927",
"4  c #174308",
"5  c #19450A",
"6  c #1B4C0B",
"7  c #154007",
"8  c #1F510E",
"9  c #1D4710",
"0  c #20520F",
"q  c #29491D",
"w  c #274815",
"e  c #384C1D",
"r  c #225511",
"t  c #255A14",
"y  c #295E16",
"u  c #285416",
"i  c #3B5E16",
"p  c #294B0E",
"a  c #2A6017",
"s  c #2D641A",
"d  c #2F681B",
"f  c #316A1E",
"g  c #3A661D",
"h  c #2F4727",
"j  c #2E4726",
"k  c #355828",
"l  c #3C5B32",
"z  c #38482A",
"x  c #356E21",
"c  c #3B6B2D",
"v  c #356626",
"b  c #367122",
"n  c #3A7626",
"m  c #3C742A",
"M  c #3D7A29",
"N  c #3B7927",
"B  c #366B29",
"V  c #4A5010",
"C  c #62571C",
"Z  c #71440D",
"A  c #49691C",
"S  c #5D6A1D",
"D  c #6A6611",
"F  c #465926",
"G  c #42583B",
"H  c #715C2C",
"J  c #446B24",
"K  c #4D6628",
"L  c #596828",
"P  c #447328",
"I  c #427F2D",
"U  c #487528",
"Y  c #5A6C31",
"T  c #457D33",
"R  c #487D37",
"E  c #587B33",
"W  c #527029",
"Q  c #687B27",
"!  c #7B772D",
"~  c #667838",
"^  c #726B2C",
"/  c #4B4C4B",
"(  c #434842",
")  c #4C5A47",
"_  c #515D4C",
"`  c #504E50",
"'  c #545454",
"]  c #5B5B5B",
"[  c #79524F",
"{  c #5B6A56",
"}  c #687D43",
"|  c #62695F",
" . c #797744",
".. c #646364",
"X. c #6C6C6C",
"o. c #767676",
"O. c #6A7B64",
"+. c #A53B00",
"@. c #FF3A3A",
"#. c #8A5415",
"$. c #BB4900",
"%. c #866D12",
"&. c #88650E",
"*. c #B97F19",
"=. c #856827",
"-. c #B87824",
";. c #DF7932",
":. c #EF7A27",
">. c #807D49",
",. c #FD6350",
"<. c #42802E",
"1. c #468632",
"2. c #4B8534",
"3. c #498935",
"4. c #4E8D3A",
"5. c #488938",
"6. c #528E3B",
"7. c #5C8B3B",
"8. c #578535",
"9. c #53913E",
"0. c #5E933F",
"q. c #50802D",
"w. c #6A8C3C",
"e. c #788B35",
"r. c #7B923A",
"t. c #6C8226",
"y. c #588B43",
"u. c #569542",
"i. c #599544",
"p. c #5B9947",
"a. c #5E9B4A",
"s. c #5C934A",
"d. c #6B9A45",
"f. c #629E4C",
"g. c #649644",
"h. c #799946",
"j. c #749A57",
"k. c #77894C",
"l. c #6BA14F",
"z. c #77A24D",
"x. c #65A151",
"c. c #6BA259",
"v. c #7AA654",
"b. c #B98318",
"n. c #978724",
"m. c #888A37",
"M. c #9E8635",
"N. c #9D8D37",
"B. c #899D3F",
"V. c #AE9B36",
"C. c #DA911C",
"Z. c #CA832A",
"A. c #DC9622",
"S. c #C98A30",
"D. c #E79B25",
"F. c #F49D23",
"G. c #F7AB33",
"H. c #EEAA35",
"J. c #888D45",
"K. c #879C43",
"L. c #929C45",
"P. c #979A4A",
"I. c #9B9E55",
"U. c #908E41",
"Y. c #A59D45",
"T. c #85A34D",
"R. c #99A34A",
"E. c #8AA857",
"W. c #9DAC5A",
"Q. c #99A854",
"!. c #94B25E",
"~. c #8FB05A",
"^. c #A7A749",
"/. c #A5AA51",
"(. c #ABB45B",
"). c #B6B458",
"_. c #B7AB4F",
"`. c #8AB462",
"'. c #9BB563",
"]. c #A5BA67",
"[. c #B8BA66",
"{. c #C0954B",
"}. c #CBB754",
"|. c #C2AF50",
" X c #F8B844",
".X c #D0B86C",
"XX c #BDC167",
"oX c #BACA73",
"OX c #FBC04D",
"+X c #F9C555",
"@X c #C8C56A",
"#X c #D8C768",
"$X c #D2CC74",
"%X c #D9CE75",
"&X c #D7D57D",
"*X c #CACE76",
"=X c #FCD368",
"-X c #EDD372",
";X c #FBE17F",
":X c #939394",
">X c #BF8D88",
",X c #C08F89",
"<X c #EFBDB6",
"1X c #EADF84",
"2X c #FAE485",
"3X c #FBEA8E",
"4X c #FBEE95",
"5X c #F3EA92",
"6X c #FBF09C",
"7X c #FBF097",
"8X c #EEE389",
"9X c #FCF2A6",
"0X c #FCF4B5",
"qX c #F2C4B8",
"wX c #FDF6C7",
"eX c #FEFADC",
"rX c #FEFBE8",
"tX c #FFFFFD",
"yX c #FFFDF3",
"uX c None",
/* pixels */
"uXuXuXuXuXuXuXuXuXuXuXuXuXuXuXuXuXuXuXuXuXuXuXuXuXuXuXuXuXuXuXuXuXuXuXuXuXuXuXuXuXuXuXuXuXuXuXuX",
"uXuXuXuXuXuXuXuXuXuXuXuXuXuXuXuXuXuXuXuXuXuXuXuXuXuXuXuXuXuXuXuXuXuXuXuXuXuXuXuXuXuXuXuXuXuXuXuX",
"uXuXuXuXuXuXuXuXuXuXuXuXuXuXuXuXuXuXuXuXuXW g 0 0 6 6 uXuXuXuXuXuXuXuXuXuXuXuXuXuXuXuXuXuXuXuXuX",
"uXuXuXuXuXuXuXuXuXuXuXuXuXuXuXuXuXuXuX^.L.r.e.g f f f a t uXuXuXuXuXuXuXuXuXuXuXuXuXuXuXuXuXuXuX",
"uXuXuXuXuXuXuXuXuXuXuXuXuXuXuXuXP.&XoX`.f.6.1.b x 3.3.u.3.x y 6 uXuXuXuXuXuXuXuXuXuXuXuXuXuXuXuX",
"uXuXuXuXuXuXuXuXuXuXuXuXuXuXW /.@X~.l.a.p.3.1.<.I 1.3.x.x.a.1.y r 5 uXuXuXuXuXuXuXuXuXuXuXuXuXuX",
"uXuXuXuXuXuXuXuXuXuXuXuXuXuXg &X&X'.v.a.p.1.1.1.3.1.3.x.x.a.3.n a r uXuXuXuXuXuXuXuXuXuXuXuXuXuX",
"uXuXuXuXuXuXuXuXuXuXuXuXuX5 A ^.8X(.l.v.f.6.1.I M 1.u.i.4.x x a t r 6 uXuXuXuXuXuXuXuXuXuXuXuXuX",
"uXuXuXuXuXuXuXuXuXuXuX5 g Q Q U w.r.R.h.w.0.3.<.<.3.4.I b s a a y t 6 8 6 uXuXuXuXuXuXuXuXuXuXuX",
"uXuXuXuXuXuXuXuXuXuXuXg Y.e.A 1.5.p.0./.B.e.q.N n M x M 5.4.u.4.N b d a 8 uXuXuXuXuXuXuXuXuXuXuX",
"uXuXuXuXuXuXuXuXuXuX5 R._.d.k C M.~ M.=.i b Q A t t y e ^ N.} M.C v 3.f a 6 uXuXuXuXuXuXuXuXuXuX",
"uXuXuXuXuXuXuXuXuXuX6 [.#Xy., +.:.2 ;.$.1 n.Y.z.i.n y < $.:.2 :.+., k b a 6 uXuXuXuXuXuXuXuXuXuX",
"uXuXuXuXuXuXuXuXuXuXuXW.1X[. .#.Z.H S.#.C e.Y c.c.c v = #.-.H -.Z e 5.x t uXuXuXuXuXuXuXuXuXuXuX",
"uXuXuXuXuXuXuXuXuXuXuXuXQ.-X[.(.W.].].d.I E q R R * B n x y.s.M n M s u uXuXuXuXuXuXuXuXuXuXuXuX",
"uXuXuXuXuXuXuXuXuXuX8 6 J ~ L m.J.P.E.j.y.4.T s.s.T y.y.m t 9 9 % % 4 6 6 6 uXuXuXuXuXuXuXuXuXuX",
"uXuXuXuXuXuXuXuXm m v P ~ u r u q k..XqX>X[ X X X X [ >X<Xj.o 4 8 6 7 5 r a r 6 uXuXuXuXuXuXuXuX",
"uXuXuXuXuXuXuXE 7.9.3.K.P.2.I n y [..X,.3 2 . . . . 2 , @.H @ a b b t 0 n <.M a 6 uXuXuXuXuXuXuX",
"uXuXuXuXuXuX~ Q.`.l.d.).T.u.i.3.b ~ -X{.J.} c c c c } K H - 9 m 3.1.n a b 1.p.i.d 6 uXuXuXuXuXuX",
"uXuXuXuXuX% e.[.`.f.K.).v.g.x.a.N v [..XR.T.].j.j.{ B u t & y m a.a.1.f a N p.i.b 5 + uXuXuXuXuX",
"uXuXuXuX% + W $XQ.d.R.}.E.l.a.g.I v u E U.^ ^ V = o o @ @ 8 B M a.u.<.r 8 N 1.b r # + % uXuXuXuX",
"uXuXuX6 5 7 w L.$X*X).-X'.j.6.4.1.f 0 8 0 6 % p 4 4 4 6 8 8 s 1.4.<.f 4 8 f b 0 % # 7 5 6 uXuXuX",
"uXuXuX6 a x u C e.h.B.$X$XT.g.1.n f t 6 6 6 6 6 6 6 6 6 6 t s n M f t % r d a 5 % r x a 6 uXuXuX",
"uXuX6 y t.n.V.H.H.n.n.V.%X].v.y.P J f P y 6 6 6 6 6 6 9 6 6 t y d s 6 % t a 6 5 8 x 1.I a 6 uXuX",
"uXuX8 S D.G.OX2X2X XG.D.#X%X/.E.K.m.8.8.x t 6 6 6 6 t a a 8 8 r a a 5 6 6 l O.| _ ) c m f 6 uXuX",
"uX6 A A.OX2X4X7X4X4X;X XD.|.^.V.Y.h.q.n d d a 8 8 d d s s s 0 & % 6 6 5 6 O.:Xo.X...| ) y 5 6 uX",
"uXuXb.G.2X7X4X0X9X4X4X-XG.%.p N._.h.2.N N b d a a d n N N N a % + % % l { :X:Xo.....| ..) k uXuX",
"uXuXb.=X7XwXrXyXyXrX0X4XOX&.+ C }.h.9.9.p.3.<.x f <.3.a.a.5.s % @ + l X.o.o.] ; ; : ] ...._ uXuX",
"uXuX X3X9XyXtXtXtXtXeX6X;XH.V F -XR.6.9.x.x.0.b x u.x.x.u.<.a % + @ uXX.../ O   . . : ...._ uXuX",
"uXuX X4X0XyXtXtXtXtXrX9X2XG.uXF ).(.8.<.4.u.9.N M 4.u.9.<.f a % + uXuX....:   . .   ; ...._ uXuX",
"uXuXS.=X4XeXtXtXtXtXwX3X+XF.uXuXk.1XR.w.N b b b b x b b f a 8 % uXuXuX....:   . .   ; ...._ uXuX",
"uXuXb. X3X6X6XwX0X6X6X2XG.uXuX$ ~ %X}.R.e.P a a a a a a r 8 5 # + uXuX] ' / ; .   O ( ' ] G uXuX",
"uXuXD D.=X3X7X4X4X6X2X+XC.uXuXK $XXX/.K.t.g 8 6 6 6 6 t t f r 4 $ uXuXG ` ' / > > ( ' ' / 9 uXuX",
"uXuX8 D D. X=X7X3X=X XA.D uXuX~ ).'.v.y.b s a a a a a b 4.i.b 4 + uXuXq ) ' ' ' ' ' ' / j 6 uXuX",
"uXuXuXq =.Z.S.OX XZ.b.D uXuX+ Y %X].d.1.1.I f a s f <.1.1.<.a 6 % + uXuXq ( ` ` ` ` ` ( w uXuXuX",
"uXuXuXuXq h F %.%.z q uXuXuX9 ).^.m.E n n n f 0 0 b N N b t 8 8 5 % uXuXuXq h h h h h j uXuXuXuX",
"uXuXuXuXuXuXuXuXuXuXuXuXuX@ Y }.w.P P g 0 0 u 8 6 0 0 8 0 0 y t 5 $ + uXuXuXuXuXuXuXuXuXuXuXuXuX",
"uXuXuXuXuXuXuXuXuXuXuXuXuXuXP.Q.w.P 3.1.a u d 6 0 s t s I 1.s 6 6 + uXuXuXuXuXuXuXuXuXuXuXuXuXuX",
"uXuXuXuXuXuXuXuXuXuXuXuXuXK U.I.k.w.<.i.3.m x r 0 f N 3.i.I a 6 4 % + uXuXuXuXuXuXuXuXuXuXuXuXuX",
"uXuXuXuXuXuXuXuXuXuXuX- *X[.$XR.8.U r d x f a d s s f f a r 0 u t y 6 $ + uXuXuXuXuXuXuXuXuXuXuX",
"uXuXuXuXuXuXuXuXuXuXY I.(.T.g.6.I f 0 0 0 s a d f s s 0 0 0 a x I <.f 8 7 # uXuXuXuXuXuXuXuXuXuX",
"uXuXuXuXuXuXuXuXuXuXE.5Xd.4.6.i.4.M N N N b d d d d n N n N M 4.p.9.N t 8 % uXuXuXuXuXuXuXuXuXuX",
"uXuXuXuXuXuXuXuXuXuXP.XXy.P 6.x.x.p.3.3.3.1.b d d b 1.3.3.3.a.f.x.4.N s 6 % uXuXuXuXuXuXuXuXuXuX",
"uXuXuXuXuXuXuXuXuXuXJ.W.q.x N 3.u.4.3.9.1.1.N d d n 1.1.9.4.6.u.3.N f 0 4 + uXuXuXuXuXuXuXuXuXuX",
"uXuXuXuXuXuXuXuXuXuXL P.8.d d n N 1.1.3.3.3.n d d n 3.3.1.1.<.n n d t 6 % + uXuXuXuXuXuXuXuXuXuX",
"uXuXuXuXuXuXuXuXuXuXuX! ~ y 0 a s f N <.1.I f d d f I 1.<.N f d a 0 6 % + uXuXuXuXuXuXuXuXuXuXuX",
"uXuXuXuXuXuXuXuXuXuXuXuXL A 5 8 8 t a s d f d d d d d d s y y 6 6 5 % + uXuXuXuXuXuXuXuXuXuXuXuX",
"uXuXuXuXuXuXuXuXuXuXuXuXuXuX% % 4 5 6 6 r d d d d d a u 6 6 6 4 % % uXuXuXuXuXuXuXuXuXuXuXuXuXuX",
"uXuXuXuXuXuXuXuXuXuXuXuXuXuXuX+ # $ % 6 5 8 0 s a 0 8 6 6 % $ # + uXuXuXuXuXuXuXuXuXuXuXuXuXuXuX"
};
