/* XPM */
static char *result[] = {
/* columns rows colors chars-per-pixel */
"48 48 149 2 ",
"   c #000006",
".  c #010109",
"X  c #090E0F",
"o  c #061604",
"O  c #061708",
"+  c #0F0F15",
"@  c #101016",
"#  c #072800",
"$  c #0B2B00",
"%  c #0D230C",
"&  c #0E3202",
"*  c #103404",
"=  c #133A05",
"-  c #153D0A",
";  c #13330B",
":  c #183412",
">  c #2E2B0C",
",  c #2D3416",
"<  c #1C1C22",
"1  c #222228",
"2  c #29292D",
"3  c #2C2C30",
"4  c #323236",
"5  c #3C3C3E",
"6  c #431B0A",
"7  c #53161C",
"8  c #5B2103",
"9  c #4E242A",
"0  c #5A3523",
"q  c #164107",
"w  c #174308",
"e  c #19450A",
"r  c #1C4C0B",
"t  c #1F510E",
"y  c #1F4B10",
"u  c #1A4310",
"i  c #20520F",
"p  c #224D13",
"a  c #244918",
"s  c #28491E",
"d  c #334A1C",
"f  c #225511",
"g  c #255A14",
"h  c #295E16",
"j  c #235319",
"k  c #29541A",
"l  c #2A6017",
"z  c #2D641A",
"x  c #2F681B",
"c  c #316A1E",
"v  c #2F4627",
"b  c #2D4824",
"n  c #344520",
"m  c #304B27",
"M  c #33492C",
"N  c #35522C",
"B  c #39552F",
"V  c #365B28",
"C  c #3D4A39",
"Z  c #395630",
"A  c #3D5C33",
"S  c #306320",
"D  c #346E21",
"F  c #36632C",
"G  c #3C6C2D",
"H  c #367122",
"J  c #3A7626",
"K  c #3B7927",
"L  c #3B7329",
"P  c #3D7A29",
"I  c #3D6B31",
"U  c #71440D",
"Y  c #635A1D",
"T  c #42503E",
"R  c #42583B",
"E  c #775F21",
"W  c #6A5931",
"Q  c #4D6528",
"!  c #417F2D",
"~  c #457D32",
"^  c #487D37",
"/  c #756622",
"(  c #726531",
")  c #6E743F",
"_  c #657C3D",
"`  c #444445",
"'  c #444B42",
"]  c #4B4C4B",
"[  c #495745",
"{  c #4A5C45",
"}  c #4E5C4A",
"|  c #4B5149",
" . c #515D4C",
".. c #504E50",
"X. c #545454",
"o. c #575758",
"O. c #5C5C5C",
"+. c #79524F",
"@. c #5A6A56",
"#. c #5F605F",
"$. c #5E6A5A",
"%. c #60635F",
"&. c #636E5F",
"*. c #646364",
"=. c #6C6C6C",
"-. c #6F706F",
";. c #6C7B66",
":. c #757475",
">. c #787778",
",. c #7A797A",
"<. c #A53B00",
"1. c #FF3A3A",
"2. c #865110",
"3. c #BC4900",
"4. c #B87824",
"5. c #DF7932",
"6. c #EF7A27",
"7. c #42802E",
"8. c #468632",
"9. c #498635",
"0. c #468936",
"q. c #498935",
"w. c #4A8538",
"e. c #4D8D3A",
"r. c #538639",
"t. c #508F3C",
"y. c #53913F",
"u. c #568D42",
"i. c #5A8E41",
"p. c #558149",
"a. c #569442",
"s. c #599545",
"d. c #5A9846",
"f. c #5C934A",
"g. c #5E9B4A",
"h. c #629F4E",
"j. c #628C55",
"k. c #6B8D56",
"l. c #65A151",
"z. c #6BA259",
"x. c #7C8977",
"c. c #9F8635",
"v. c #C08336",
"b. c gray56",
"n. c #828082",
"m. c #959496",
"M. c #C08F89",
"N. c #EFBDB6",
"B. c None",
/* pixels */
"B.B.B.B.B.B.B.B.B.B.B.B.B.B.B.B.B.B.B.B.B.B.B.B.B.B.B.B.B.B.B.B.B.B.B.B.B.B.B.B.B.B.B.B.B.B.B.B.",
"B.B.B.B.B.B.B.B.B.B.B.B.B.B.B.B.B.B.B.B.B.B.B.B.B.B.B.B.B.B.B.B.B.B.B.B.B.B.B.B.B.B.B.B.B.B.B.B.",
"B.B.B.B.B.B.B.B.B.B.B.B.B.B.B.B.B.B.B.B.B.r r r t r r B.B.B.B.B.B.B.B.B.B.B.B.B.B.B.B.B.B.B.B.B.",
"B.B.B.B.B.B.B.B.B.B.B.B.B.B.B.B.B.B.B.f h c H x x D D g g B.B.B.B.B.B.B.B.B.B.B.B.B.B.B.B.B.B.B.",
"B.B.B.B.B.B.B.B.B.B.B.B.B.B.B.B.r l D 9.a.9.8.H D 0.8.a.w.D h r B.B.B.B.B.B.B.B.B.B.B.B.B.B.B.B.",
"B.B.B.B.B.B.B.B.B.B.B.B.B.B.r i h 8.g.l.l.w.8.7.7.8.q.l.l.g.8.h t r B.B.B.B.B.B.B.B.B.B.B.B.B.B.",
"B.B.B.B.B.B.B.B.B.B.B.B.B.B.i x J q.g.l.l.0.8.q.q.8.w.l.l.g.0.J l f B.B.B.B.B.B.B.B.B.B.B.B.B.B.",
"B.B.B.B.B.B.B.B.B.B.B.B.B.r i g l D D t.s.y.8.P K q.a.s.e.H c l g f r B.B.B.B.B.B.B.B.B.B.B.B.B.",
"B.B.B.B.B.B.B.B.B.B.B.r r r g l l l x J 7.q.w.8.7.q.r.7.H z l l l g r t r B.B.B.B.B.B.B.B.B.B.B.",
"B.B.B.B.B.B.B.B.B.B.B.i z c J 8.e.a.e.w.K H K L K P H K q.t.a.e.P H x l i B.B.B.B.B.B.B.B.B.B.B.",
"B.B.B.B.B.B.B.B.B.B.r h c w.V Y c.) c./ d l g g g f l d / c.@.c.Y V w.c h r B.B.B.B.B.B.B.B.B.B.",
"B.B.B.B.B.B.B.B.B.B.r h H F 6 <.6.0 5.3.8 h H s.s.J l 8 3.6.U v.<.6 F H h r B.B.B.B.B.B.B.B.B.B.",
"B.B.B.B.B.B.B.B.B.B.B.g c w.n U 4.W v.2.> x I z.z.G S > 2.v.W 4.U n w.D g B.B.B.B.B.B.B.B.B.B.B.",
"B.B.B.B.B.B.B.B.B.B.B.B.g c K K ! s.u.D H G : ^ ^ : G H Q u.s.! K K c f B.B.B.B.B.B.B.B.B.B.B.B.",
"B.B.B.B.B.B.B.B.B.B.r r r w = = w r k ~ i.r.8.f.f.^ r.i.~ h r e = = q r r r B.B.B.B.B.B.B.B.B.B.",
"B.B.B.B.B.B.B.B.r i h f e = r i ; O k.N.M.+.X X X X +.M.N.k.O - t r = e g l f r B.B.B.B.B.B.B.B.",
"B.B.B.B.B.B.B.r l P ! J t g D J h % ( 1.7 9   . . . 9 7 1.( % l J c g t H ! P l r B.B.B.B.B.B.B.",
"B.B.B.B.B.B.r z s.s.8.J l J 0.q.L O , / Q _ G G I G _ Q E , e J q.q.J x J 8.d.a.x r B.B.B.B.B.B.",
"B.B.B.B.B.$ e D d.d.K l c w.g.g.J i - j j F p.j.j.p.F j j - h J d.g.q.c l K d.s.H e $ B.B.B.B.B.",
"B.B.B.B.= $ & f H 8.K t i 7.a.g.~ x p ; % o o o o o o % * f x ~ h.y.! f t J 9.H f & $ = B.B.B.B.",
"B.B.B.r e w & = i D c t - D ! e.8.D f r r w w w w w e r r i z 9.e.7.c w t c D t = $ e e r B.B.B.",
"B.B.B.r h D f = e l x f = f c P J x g r r r r r r r r r r g x H ! c g * t x l r - f D l r B.B.B.",
"B.B.r h ~ 8.x f r r l g e r z x l g r r r r r r r r r r r r f l c l r = g l t r i x 8.! h r B.B.",
"B.B.r D K L @.$.$. .A r r w r h f r t l l g r r r r g l l i y f h h e e r I *.@. .} G K c r B.B.",
"B.r r l G x.n.>.=.*.%.B r e r - = i l x x x z t t z z x x l f = = r r r r ;.m.,.=.*.%.{ g r r B.",
"B.B.e k ;.m.b.=.*.*.*.%.N = - $ = z K K K H x l l z J K K J z = $ = = Z @.b.m.:.*.*.*.*.{ N B.B.",
"B.B.j &.:.:.] < 1 ` O.*.%., $ $ = x e.g.g.q.7.c H 7.0.h.g.e.z = $ $ C =.,.:.o.1 @ ` o.*.*. .B.B.",
"B.B.{ *.*.5 .   . @ ] *.*.#.# $ = l 7.a.l.l.a.D c a.l.l.a.7.l = $ # B.=.*.] @     X 5 *.*.} B.B.",
"B.B.[ *.*.<         4 *.*.B.B.$ = h c 7.y.s.t.P P e.a.y.! x l = $ B.B.*.*.4         < *.*.} B.B.",
"B.B.T o.*.<   . .   4 *.X.B.B.B.= i z c H c H H H H H H x z t = B.B.B.*.*.4   . .   < *.*.} B.B.",
"B.B.M X.X.` @   . < ] X.] B.B.$ & e t i h l l g l l g l f t e & & B.B.O.X.] <     + ` X.O.R B.B.",
"B.B.r ] X.X.` 2 3 ] X.X.' B.B.* w f c g g r r r r r r g g D i e * B.B.' X.X.] 2 2 ` X.X.] y B.B.",
"B.B.r m X.X.X.X.X.X.X.' s B.B.$ = J s.q.H z h h z h z c r.s.H w $ B.B.s | X.X.X.X.X.X.] b r B.B.",
"B.B.B.a ' ......] X.' s B.B.$ = r h 7.9.9.! c z z c 7.9.8.! l r * $ B.B.s ' ......X...' a B.B.B.",
"B.B.B.B.s v v m v v b B.B.B.* r i i h H K K c i i c J K H g i i r = B.B.B.s v m v v v s B.B.B.B.",
"B.B.B.B.B.B.B.B.B.B.B.B.B.$ & r f z i i t i i t t i i i i f h g r * $ B.B.B.B.B.B.B.B.B.B.B.B.B.",
"B.B.B.B.B.B.B.B.B.B.B.B.B.B.$ r r l 9.~ z i z t i z i l 8.8.z r e $ B.B.B.B.B.B.B.B.B.B.B.B.B.B.",
"B.B.B.B.B.B.B.B.B.B.B.B.B.$ = = r h ! a.9.! c i i c K q.s.! h r q * $ B.B.B.B.B.B.B.B.B.B.B.B.B.",
"B.B.B.B.B.B.B.B.B.B.B.$ * r h h f i f l c c z h z z c H h f i f h h r * $ B.B.B.B.B.B.B.B.B.B.B.",
"B.B.B.B.B.B.B.B.B.B.& w t c ! ! D x i i i x x x c z z i i i z D ! ! c t w & B.B.B.B.B.B.B.B.B.B.",
"B.B.B.B.B.B.B.B.B.B.= r g J y.s.t.! J K K H x x x x J K K K P e.a.y.K g r = B.B.B.B.B.B.B.B.B.B.",
"B.B.B.B.B.B.B.B.B.B.= r x J e.l.l.d.q.9.9.9.H x x J 8.q.q.q.d.h.l.y.J z r = B.B.B.B.B.B.B.B.B.B.",
"B.B.B.B.B.B.B.B.B.B.$ w i c K q.a.t.q.y.7.q.K x z J q.7.y.e.t.a.q.K c i e $ B.B.B.B.B.B.B.B.B.B.",
"B.B.B.B.B.B.B.B.B.B.$ = r g x K K 7.q.9.q.q.K z x J q.8.9.9.7.J J x g r = $ B.B.B.B.B.B.B.B.B.B.",
"B.B.B.B.B.B.B.B.B.B.B.$ = r i z z c K 7.8.! c x x c ! 7.8.J c x z i e = $ B.B.B.B.B.B.B.B.B.B.B.",
"B.B.B.B.B.B.B.B.B.B.B.B.$ * r r t g h z x x x x x x c c l h g t r r * $ B.B.B.B.B.B.B.B.B.B.B.B.",
"B.B.B.B.B.B.B.B.B.B.B.B.B.B.= = w r r r i x z x x c z i r r r e = = B.B.B.B.B.B.B.B.B.B.B.B.B.B.",
"B.B.B.B.B.B.B.B.B.B.B.B.B.B.B.$ $ * = r r i i z z i i r r = * $ $ B.B.B.B.B.B.B.B.B.B.B.B.B.B.B."
};
