/* XPM */
static char *result[] = {
/* columns rows colors chars-per-pixel */
"48 48 220 2 ",
"   c #000006",
".  c #010109",
"X  c #090E0F",
"o  c #061805",
"O  c #101016",
"+  c #0B2B00",
"@  c #0A2606",
"#  c #0E3202",
"$  c #113404",
"%  c #133B05",
"&  c #153E0A",
"*  c #183412",
"=  c #2B2D0D",
"-  c #2E3716",
";  c #1C1C21",
":  c #37373A",
">  c #28282C",
",  c #4A1B11",
"<  c #5B2103",
"1  c #672806",
"2  c #552D27",
"3  c #622927",
"4  c #174308",
"5  c #19450A",
"6  c #1B4C0B",
"7  c #154007",
"8  c #1F510E",
"9  c #1D4710",
"0  c #20520F",
"q  c #29491D",
"w  c #274815",
"e  c #384C1D",
"r  c #225511",
"t  c #255A14",
"y  c #295E16",
"u  c #285416",
"i  c #3B5E16",
"p  c #294B0E",
"a  c #2A6017",
"s  c #2D641A",
"d  c #2F681B",
"f  c #316A1E",
"g  c #3A661D",
"h  c #2F4727",
"j  c #2E4726",
"k  c #355828",
"l  c #3C5B32",
"z  c #38482A",
"x  c #356E21",
"c  c #3B6B2D",
"v  c #356626",
"b  c #367122",
"n  c #3A7626",
"m  c #3C742A",
"M  c #3D7A29",
"N  c #3B7927",
"B  c #366B29",
"V  c #4A5010",
"C  c #62571C",
"Z  c #71440D",
"A  c #49691C",
"S  c #5D6A1D",
"D  c #6A6611",
"F  c #465926",
"G  c #42583B",
"H  c #715C2C",
"J  c #446B24",
"K  c #4D6628",
"L  c #596828",
"P  c #447328",
"I  c #427F2D",
"U  c #487528",
"Y  c #5A6C31",
"T  c #457D33",
"R  c #487D37",
"E  c #587B33",
"W  c #527029",
"Q  c #687B27",
"!  c #7B772D",
"~  c #667838",
"^  c #726B2C",
"/  c #4B4C4B",
"(  c #434842",
")  c #4C5A47",
"_  c #515D4C",
"`  c #504E50",
"'  c #545454",
"]  c #5B5B5B",
"[  c #79524F",
"{  c #5B6A56",
"}  c #687D43",
"|  c #62695F",
" . c #797744",
".. c #646364",
"X. c #6C6C6C",
"o. c #767676",
"O. c #6A7B64",
"+. c #A53B00",
"@. c #FF3A3A",
"#. c #8A5415",
"$. c #BB4900",
"%. c #866D12",
"&. c #88650E",
"*. c #B97F19",
"=. c #856827",
"-. c #B87824",
";. c #DF7932",
":. c #EF7A27",
">. c #807D49",
",. c #FD6350",
"<. c #42802E",
"1. c #468632",
"2. c #4B8534",
"3. c #498935",
"4. c #4E8D3A",
"5. c #488938",
"6. c #528E3B",
"7. c #5C8B3B",
"8. c #578535",
"9. c #53913E",
"0. c #5E933F",
"q. c #50802D",
"w. c #6A8C3C",
"e. c #788B35",
"r. c #7B923A",
"t. c #6C8226",
"y. c #588B43",
"u. c #569542",
"i. c #599544",
"p. c #5B9947",
"a. c #5E9B4A",
"s. c #5C934A",
"d. c #6B9A45",
"f. c #629E4C",
"g. c #649644",
"h. c #799946",
"j. c #749A57",
"k. c #77894C",
"l. c #6BA14F",
"z. c #77A24D",
"x. c #65A151",
"c. c #6BA259",
"v. c #7AA654",
"b. c #B98318",
"n. c #978724",
"m. c #888A37",
"M. c #9E8635",
"N. c #9D8D37",
"B. c #899D3F",
"V. c #AE9B36",
"C. c #DA911C",
"Z. c #CA832A",
"A. c #DC9622",
"S. c #C98A30",
"D. c #E79B25",
"F. c #F49D23",
"G. c #F7AB33",
"H. c #EEAA35",
"J. c #888D45",
"K. c #879C43",
"L. c #929C45",
"P. c #979A4A",
"I. c #9B9E55",
"U. c #908E41",
"Y. c #A59D45",
"T. c #85A34D",
"R. c #99A34A",
"E. c #8AA857",
"W. c #9DAC5A",
"Q. c #99A854",
"!. c #94B25E",
"~. c #8FB05A",
"^. c #A7A749",
"/. c #A5AA51",
"(. c #ABB45B",
"). c #B6B458",
"_. c #B7AB4F",
"`. c #8AB462",
"'. c #9BB563",
"]. c #A5BA67",
"[. c #B8BA66",
"{. c #C0954B",
"}. c #CBB754",
"|. c #C2AF50",
" X c #F8B844",
".X c #D0B86C",
"XX c #BDC167",
"oX c #BACA73",
"OX c #FBC04D",
"+X c #F9C555",
"@X c #C8C56A",
"#X c #D8C768",
"$X c #D2CC74",
"%X c #D9CE75",
"&X c #D7D57D",
"*X c #CACE76",
"=X c #FCD368",
"-X c #EDD372",
";X c #FBE17F",
":X c #939394",
">X c #BF8D88",
",X c #C08F89",
"<X c #EFBDB6",
"1X c #EADF84",
"2X c #FAE485",
"3X c #FBEA8E",
"4X c #FBEE95",
"5X c #F3EA92",
"6X c #FBF09C",
"7X c #FBF097",
"8X c #EEE389",
"9X c #FCF2A6",
"0X c #FCF4B5",
"qX c #F2C4B8",
"wX c #FDF6C7",
"eX c #FEFADC",
"rX c #FEFBE8",
"tX c #FFFFFD",
"yX c #FFFDF3",
"uX c None",
/* pixels */
"uXuXuXuXuXuXuXuXuXuXuXuXuXuXuXuXuXuXuXuXuXuXuXuXuXuXuXuXuXuXuXuXuXuXuXuXuXuXuXuXuXuXuXuXuXuXuXuX",
"uXuXuXuXuXuXuXuXuXuXuXuXuXuXuXuXuXuXuXuXuXuXuXuXuXuXuXuXuXuXuXuXuXuXuXuXuXuXuXuXuXuXuXuXuXuXuXuX",
"uXuXuXuXuXuXuXuXuXuXuXuXuXuXuXuXuXuXuXuXuX6 6 6 8 g W uXuXuXuXuXuXuXuXuXuXuXuXuXuXuXuXuXuXuXuXuX",
"uXuXuXuXuXuXuXuXuXuXuXuXuXuXuXuXuXuXuXt t x x s b e.r.N./.uXuXuXuXuXuXuXuXuXuXuXuXuXuXuXuXuXuXuX",
"uXuXuXuXuXuXuXuXuXuXuXuXuXuXuXuX6 s x 1.u.3.3.b x 1.6.f.!.oX&XL.uXuXuXuXuXuXuXuXuXuXuXuXuXuXuXuX",
"uXuXuXuXuXuXuXuXuXuXuXuXuXuX6 8 y I a.x.x.3.1.<.<.1.3.p.f.l.~.@X/.K uXuXuXuXuXuXuXuXuXuXuXuXuXuX",
"uXuXuXuXuXuXuXuXuXuXuXuXuXuXr s n 3.a.x.x.3.1.3.3.1.3.p.x.v.!.&X&XJ uXuXuXuXuXuXuXuXuXuXuXuXuXuX",
"uXuXuXuXuXuXuXuXuXuXuXuXuX6 r t s v b 4.u.u.1.M M 1.4.d.l.z.].8XR.A 6 uXuXuXuXuXuXuXuXuXuXuXuXuX",
"uXuXuXuXuXuXuXuXuXuXuX6 6 8 t y a a s b I 4.1.1.<.3.0.l.h.B.r.w.U t.Q i 5 uXuXuXuXuXuXuXuXuXuXuX",
"uXuXuXuXuXuXuXuXuXuXuX0 y d x M 4.u.4.3.n b M m N q.e.B.^.d.p.3.1.P e.V.g uXuXuXuXuXuXuXuXuXuXuX",
"uXuXuXuXuXuXuXuXuXuX6 y x 1.k C M.~ M.^ e y t t A Q g e =.M.~ N.C k d.|.R.6 uXuXuXuXuXuXuXuXuXuX",
"uXuXuXuXuXuXuXuXuXuX6 y b v , +.:.2 ;.$.< y b i.z.^.n.1 $.C.2 :.+., y.@X[.6 uXuXuXuXuXuXuXuXuXuX",
"uXuXuXuXuXuXuXuXuXuXuXt f 5.e Z -.H b.#.= v c c.c.E e.C #.;.H S.#. .[.1XW.uXuXuXuXuXuXuXuXuXuXuX",
"uXuXuXuXuXuXuXuXuXuXuXuXt f N n 1.s.y.c b n * R T e E I d.].'.!.(.}.&XW.uXuXuXuXuXuXuXuXuXuXuXuX",
"uXuXuXuXuXuXuXuXuXuX6 6 6 4 % & 7 9 u R y.8.R s.y.R 2.y.j.E.P.J.m.L ~ J 8 6 uXuXuXuXuXuXuXuXuXuX",
"uXuXuXuXuXuXuXuX6 0 y r 4 % 6 0 7 o j.<X>X[ X X X X [ >XqX.X>.q u 0 u ~ P v m m uXuXuXuXuXuXuXuX",
"uXuXuXuXuXuXuX6 s M <.b 8 t b n y @ ^ @., 2 . . . . 2 3 ,..X.Xw n T 2.P.K.3.4.0.E uXuXuXuXuXuXuX",
"uXuXuXuXuXuX6 s u.p.1.n s n 1.1.B 9 - H J } l c c c } J.Y.-X~ B 5.u.9.T.).d.l.`.Q.Q uXuXuXuXuXuX",
"uXuXuXuXuX+ 5 x i.p.N a f 1.f.a.N y & u q B } c.j.].K.Q.@X[.J m a.x.g.j.).T.f.`.[.e.% uXuXuXuXuX",
"uXuXuXuX% + # r b 1.N 8 r <.9.a.M v 8 $ @ o o = F H ! J.~ u d I f.a.l.E.}.R.0./.$XY + % uXuXuXuX",
"uXuXuX6 6 4 # % r x f 6 4 f <.4.5.s r 6 6 4 4 4 p % 5 0 6 r x 1.5.6.z.'.-X_.*X$XP.w 7 5 6 uXuXuX",
"uXuXuX6 a f r % 4 s d r % t f M n s r 6 6 6 6 6 6 6 6 6 8 r s n 1.g.E.$X$XK.h.e.C u f y 6 uXuXuX",
"uXuX6 y <.1.f r 6 8 y t % 6 s f a t 6 6 6 6 6 6 6 6 6 y m v J M w.v.].%XV.n.n.H.H.V.n.t.a 6 uXuX",
"uXuX6 x M c ) _ { | l 6 5 5 y a r 8 8 y a t 6 6 6 6 t x 8.8.m.K.E./.%X#XA.G.OX;X2X+XG.D.S 8 uXuX",
"uX6 6 y ) ] ..X.o.:XO.0 6 6 6 & 7 8 s d d d s 8 0 s d d n 1.r.I.N.^.|.D.OX;X4X4X7X4X2X+XA.V 8 uX",
"uXuXk ) ........o.:X:X{ l % % + % a n N N b d a y f b N n 8.h._.N.p %.G.;X4X4X9X0X7X6X2XG.b.uXuX",
"uXuX_ ....] : ; ; ] o.o.X.z @ + % s 4.f.a.3.<.x f <.3.a.u.7.h.}.C @ &.OX3X0XrXyXyXeXwX6X=Xb.uXuX",
"uXuX) ....: X . . O / ..X.uX@ + % s <.9.x.x.9.b f i.x.x.9.8.B.-XF V H.2X7XeXtXtXtXtXrX9X3XOXuXuX",
"uXuX_ ....;   . .   : ....uXuX+ % a f I 9.9.9.M M 4.0.4.<.7.(.).F uXG.2X9XrXtXtXtXtXyX0X3X XuXuX",
"uXuX_ ....;   . . . : | ..uXuXuX% 8 s d x x b b b b b N 7.R.1XJ.uXuXF.+X3XwXtXtXtXtXeX4X=XS.uXuX",
"uXuXG ] ' ( O   . ; / ' ] uXuX# # 5 8 0 a a a a a d P e.P.}.%XE # uXuXH.2X7X6X0XwX6X6X3XOXb.uXuX",
"uXuX6 / ` ' ( > > / ' ' ( uXuX# 5 0 x t r 6 6 6 6 8 g Q R.(.[.$XL uXuXC.+X2X7X4X4X4X3X=XF.D uXuX",
"uXuX6 j / ` ' ' ' ' ' / q uXuX# % n i.4.x s y a a y a b u.v.'.[.~ uXuXD A. X=X2X5X=XOXD.D 6 uXuX",
"uXuXuXw G ` ` ` ` ` ( q uXuX+ % 6 s <.1.1.I x a s f <.1.1.d.(.%XY + uXuXD *.Z. XOXS.;.=.w uXuXuX",
"uXuXuXuXj j h h z h j uXuXuX% 5 8 6 t b n n x r 8 x n n P q.m.^.).9 uXuXuXq z %.%.F h q uXuXuXuX",
"uXuXuXuXuXuXuXuXuXuXuXuXuX+ # 6 t a r r 8 0 r 6 6 r r 8 k J P w.}.L + uXuXuXuXuXuXuXuXuXuXuXuXuX",
"uXuXuXuXuXuXuXuXuXuXuXuXuXuX+ 6 6 a 1.T a t s 0 0 s t s T 3.U g.W.J.uXuXuXuXuXuXuXuXuXuXuXuXuXuX",
"uXuXuXuXuXuXuXuXuXuXuXuXuX+ $ 4 6 y I u.3.N f 0 0 x M 3.i.<.w.w.I.J.K uXuXuXuXuXuXuXuXuXuXuXuXuX",
"uXuXuXuXuXuXuXuXuXuXuX+ $ 6 a t r r r a x f s a s s f f a t U w.Q.$X[.$Xw uXuXuXuXuXuXuXuXuXuXuX",
"uXuXuXuXuXuXuXuXuXuX# 4 8 f <.<.x s r 0 r s s d s s s r 0 0 d I 7.g.T.(.I.Y uXuXuXuXuXuXuXuXuXuX",
"uXuXuXuXuXuXuXuXuXuX% 6 t n 9.p.4.N N N N n s d d f b N N N M 4.u.u.8.d.5XQ.uXuXuXuXuXuXuXuXuXuX",
"uXuXuXuXuXuXuXuXuXuX% 6 s N 4.x.x.p.3.3.3.1.n d s b 1.3.3.3.p.f.f.4.M 7.[.P.uXuXuXuXuXuXuXuXuXuX",
"uXuXuXuXuXuXuXuXuXuX+ 4 0 f M 3.9.9.4.9.1.3.N s s N 3.1.9.4.9.u.5.M x 2.'.J.uXuXuXuXuXuXuXuXuXuX",
"uXuXuXuXuXuXuXuXuXuX+ % 8 t s n N <.1.1.1.3.N s s N 3.1.1.1.<.N n d d 8.P.L uXuXuXuXuXuXuXuXuXuX",
"uXuXuXuXuXuXuXuXuXuXuX+ % 6 8 s s f N <.<.I f s f f <.1.1.n f s a r s ~ ! uXuXuXuXuXuXuXuXuXuXuX",
"uXuXuXuXuXuXuXuXuXuXuXuX+ # 6 6 8 t a s f f f d s d d f a y t 8 6 6 V L uXuXuXuXuXuXuXuXuXuXuXuX",
"uXuXuXuXuXuXuXuXuXuXuXuXuXuX% % 5 5 6 5 0 f f s s f s r 6 6 6 5 7 % uXuXuXuXuXuXuXuXuXuXuXuXuXuX",
"uXuXuXuXuXuXuXuXuXuXuXuXuXuXuX+ # $ % 6 6 0 0 s a 0 0 6 6 % $ + + uXuXuXuXuXuXuXuXuXuXuXuXuXuXuX"
};
