/* XPM */
static char *result[] = {
/* columns rows colors chars-per-pixel */
"48 48 233 2 ",
"   c #000005",
".  c #000006",
"X  c #000107",
"o  c #000306",
"O  c #000207",
"+  c #020707",
"@  c #030B06",
"#  c #000008",
"$  c #03030A",
"%  c #020608",
"&  c #04040C",
"*  c #05050C",
"=  c #090E0D",
"-  c #0A0E0F",
";  c #051305",
":  c #051106",
">  c #051504",
",  c #0D0D14",
"<  c #16161C",
"1  c #17171D",
"2  c #151919",
"3  c #191C1E",
"4  c #1A1D1F",
"5  c #0A2701",
"6  c #092004",
"7  c #0A2800",
"8  c #0C2804",
"9  c #0E2A08",
"0  c #0D3002",
"q  c #0F3403",
"w  c #103403",
"e  c #103503",
"r  c #103603",
"t  c #103304",
"y  c #103407",
"u  c #123A05",
"i  c #133B05",
"p  c #143D06",
"a  c #143C07",
"s  c #143D07",
"d  c #153D07",
"f  c #143E06",
"g  c #143709",
"h  c #15350A",
"j  c #16380B",
"k  c #1A1A20",
"l  c #1B1B20",
"z  c #1C1C21",
"x  c #1C1C22",
"c  c #1C2020",
"v  c #1D2121",
"b  c #2A3729",
"n  c #2C2C30",
"m  c #2C2C31",
"M  c #2D2D32",
"N  c #303332",
"B  c #303333",
"V  c #164207",
"C  c #164108",
"Z  c #164208",
"A  c #174208",
"S  c #164209",
"D  c #174209",
"F  c #174309",
"G  c #18430A",
"H  c #184709",
"J  c #194709",
"K  c #19450B",
"L  c #1B470C",
"P  c #1C450F",
"I  c #184809",
"U  c #19480A",
"Y  c #1A480A",
"T  c #1A490B",
"R  c #1A4A0A",
"E  c #1A4A0B",
"W  c #1B4A0B",
"Q  c #1B4B0B",
"!  c #1C4C0B",
"~  c #1C4D0B",
"^  c #1B480C",
"/  c #1C490D",
"(  c #1C4A0C",
")  c #1D490F",
"_  c #1C4C0C",
"`  c #1C4D0C",
"'  c #1D4D0C",
"]  c #1D4D0D",
"[  c #1D4E0D",
"{  c #1E4F0D",
"}  c #1E4C0E",
"|  c #1E4C0F",
" . c #1F500E",
".. c #1F510E",
"X. c #1F4C10",
"o. c #20520F",
"O. c #20530F",
"+. c #21530F",
"@. c #214F12",
"#. c #234E15",
"$. c #244E16",
"%. c #28451E",
"&. c #215311",
"*. c #215410",
"=. c #225410",
"-. c #225511",
";. c #235611",
":. c #245713",
">. c #245812",
",. c #245813",
"<. c #255913",
"1. c #265B13",
"2. c #265914",
"3. c #265A14",
"4. c #265B14",
"5. c #275B14",
"6. c #275D14",
"7. c #285D15",
"8. c #295E16",
"9. c #295F16",
"0. c #285918",
"q. c #2A6017",
"w. c #2A6117",
"e. c #2B6117",
"r. c #2B6018",
"t. c #2B6218",
"y. c #2C6318",
"u. c #2C6319",
"i. c #2C631A",
"p. c #2C6418",
"a. c #2D6419",
"s. c #2D641A",
"d. c #2D651A",
"f. c #2E651A",
"g. c #2E661A",
"h. c #2E661B",
"j. c #2F661B",
"k. c #2F671B",
"l. c #2E621D",
"z. c #2F671C",
"x. c #2F661D",
"c. c #2F681B",
"v. c #30681B",
"b. c #30681C",
"n. c #30691C",
"m. c #30681D",
"M. c #30691D",
"N. c #316A1D",
"B. c #326B1E",
"V. c #326A1F",
"C. c #336C1F",
"Z. c #2E5720",
"A. c #325327",
"S. c #336B20",
"D. c #346D20",
"F. c #346E20",
"G. c #356F21",
"H. c #396F27",
"J. c #3C662D",
"K. c #367022",
"L. c #367023",
"P. c #377123",
"I. c #387324",
"U. c #397526",
"Y. c #3A7526",
"T. c #3A7527",
"R. c #3A7626",
"E. c #3B7727",
"W. c #3B7628",
"Q. c #3D752A",
"!. c #3C7928",
"~. c #3D7829",
"^. c #3D7929",
"/. c #3D7A29",
"(. c #3D7A2A",
"). c #3F7B2B",
"_. c #3F7C2B",
"`. c #40463F",
"'. c #404F3B",
"]. c #407B2C",
"[. c #407A2D",
"{. c #407D2D",
"}. c #407E2C",
"|. c #417E2D",
" X c #417F2D",
".X c #437E2F",
"XX c #3E3E40",
"oX c #414044",
"OX c #434245",
"+X c #444447",
"@X c #4A4A4C",
"#X c #4E4E4F",
"$X c #4C5C46",
"%X c #535552",
"&X c #545F50",
"*X c #5A595B",
"=X c #556151",
"-X c #5C605B",
";X c #5D645B",
":X c #5E635C",
">X c gray39",
",X c #646464",
"<X c #666667",
"1X c #42802E",
"2X c #448130",
"3X c #458031",
"4X c #448230",
"5X c #448330",
"6X c #458231",
"7X c #458331",
"8X c #458432",
"9X c #478433",
"0X c #478733",
"qX c #488734",
"wX c #498635",
"eX c #478833",
"rX c #488834",
"tX c #498835",
"yX c #498935",
"uX c #4A8837",
"iX c #4C8C38",
"pX c #4D8C39",
"aX c #4E8D3A",
"sX c #52913E",
"dX c #549040",
"fX c #559041",
"gX c #569142",
"hX c #559441",
"jX c #589744",
"kX c #5D9B49",
"lX c #63A04F",
"zX c #64A050",
"xX c None",
/* pixels */
"xXxXxXxXxXxXxXxXxXxXxXxXxXxXxXxXxXxXxXxXxXxXxXxXxXxXxXxXxXxXxXxXxXxXxXxXxXxXxXxXxXxXxXxXxXxXxXxX",
"xXxXxXxXxXxXxXxXxXxXxXxXxXxXxXxXxXxXxXxXxXxXxXxXxXxXxXxXxXxXxXxXxXxXxXxXxXxXxXxXxXxXxXxXxXxXxXxX",
"xXxXxXxXxXxXxXxXxXxXxXxXxXxXxXxXxXxXxXxXxXxXxXxXxXxXxXxXxXxXxXxXxXxXxXxXxXxXxXxXxXxXxXxXxXxXxXxX",
"xXxXxXxXxXxXxXxXxXxXxXxXxXxXxXxXxXxXxXxXxXxXxXxXxXxXxXxXxXxXxXxXxXxXxXxXxXxXxXxXxXxXxXxXxXxXxXxX",
"xXxXxXxXxXxXxXxXxXxXxXxXxXxXxXxXxXxXxXxXxXxXxXxXxXxXxXxXxXxXxXxXxXxXxXxXxXxXxXxXxXxXxXxXxXxXxXxX",
"xXxXxXxXxXxXxXxXxXxXxXxXxXxXxXxXxXxXxXxXxXxXxXxXxXxXxXxXxXxXxXxXxXxXxXxXxXxXxXxXxXxXxXxXxXxXxXxX",
"xXxXxXxXxXxXxXxXxXxXxXxXxXxXxXxXxXxXxXxXxXxXxXxXxXxXxXxXxXxXxXxXxXxXxXxXxXxXxXxXxXxXxXxXxXxXxXxX",
"xXxXxXxXxXxXxXxXxXxXxXxXxXxXxXxXxXxXxXxXxXxXxXxXxXxXxXxXxXxXxXxXxXxXxXxXxXxXxXxXxXxXxXxXxXxXxXxX",
"xXxXxXxXxXxXxXxXxXxXxXxXxXxXxXxXxXxXxXxXxXxXxXxXxXxXxXxXxXxXxXxXxXxXxXxXxXxXxXxXxXxXxXxXxXxXxXxX",
"xXxXxXxXxXxXxXxXxXxXxXxXxXxXxXxXxXxXxXxXxXxXxXxXxXxXxXxXxXxXxXxXxXxXxXxXxXxXxXxXxXxXxXxXxXxXxXxX",
"xXxXxXxXxXxXxXxXxXxXxXxXxXxXxXxXxXxXxXxXxXxXxXxXxXxXxXxXxXxXxXxXxXxXxXxXxXxXxXxXxXxXxXxXxXxXxXxX",
"xXxXxXxXxXxXxXxXxXxXxXxXxXxXxXxXxXxXxXxXxXxXxXxXxXxXxXxXxXxXxXxXxXxXxXxXxXxXxXxXxXxXxXxXxXxXxXxX",
"xXxXxXxXxXxXxXxXxXxXxXxXxXxXxXxXxXxXxXxXxXxXxXxXxXxXxXxXxXxXxXxXxXxXxXxXxXxXxXxXxXxXxXxXxXxXxXxX",
"xXxXxXxXxXxXxXxXxXxXxXxXxXxXxXxXxXxXxXxXxXxXxXxXxXxXxXxXxXxXxXxXxXxXxXxXxXxXxXxXxXxXxXxXxXxXxXxX",
"xXxXxXxXxXxXxXxXxXxXxXxXxXxXxXxXxXxXxXxXxXxXxXxXxXxXxXxXxXxXxXxXxXxXxXxXxXxXxXxXxXxXxXxXxXxXxXxX",
"xXxXxXxXxXxXxXxXxXxXxXxXxXxXxXxXxXxXxXxXxXxXxXxXxXxXxXxXxXxXxXxXxXxXxXxXxXxXxXxXxXxXxXxXxXxXxXxX",
"xXxXxXxXxXxXxXxXxXxXxXxXxXxXxXxXxXxXxXxXxXxXxXxXxXxXxXxXxXxXxXxXxXxXxXxXxXxXxXxXxXxXxXxXxXxXxXxX",
"xXxXxXxXxXxXxXxXxXxXxXxXxXxXxXxXxXxXxXxXxXxXxXxXxXxXxXxXxXxXxXxXxXxXxXxXxXxXxXxXxXxXxXxXxXxXxXxX",
"xXxXxXxXxXxXxXxXxXxXxXxXxXxXxXxXxXxXxXxXxXxXxXxXxXxXxXxXxXxXxXxXxXxXxXxXxXxXxXxXxXxXxXxXxXxXxXxX",
"xXxXxXxXxXxXxXxXxXxXxXxXxXxXxXxXxXxXxXxXxXxXxXxXxXxXxXxXxXxXxXxXxXxXxXxXxXxXxXxXxXxXxXxXxXxXxXxX",
"xXxXxXxXxXxXxXxXxXxXxXxXxXxXxXxXxXxXxXxXxXxXxXxXxXxXxXxXxXxXxXxXxXxXxXxXxXxXxXxXxXxXxXxXxXxXxXxX",
"xXxXxXxXxXxXxXxXxXxXxXxXxXxXxXxXxXxXxXxXxXxXxXxXxXxXxXxXxXxXxXxXxXxXxXxXxXxXxXxXxXxXxXxXxXxXxXxX",
"xXxXxXxXxXxXxXxXxXxXxXxXxXxXxXxXxXxXxXxXxXxXxXxXxXxXxXxXxXxXxXxXxXxXxXxXxXxXxXxXxXxXxXxXxXxXxXxX",
"xXxXxXxXxXxXxXxXxXxXxXxXxXxXxXxXxXxXxXxXxXxXxXxXxXxXxXxXxXxXxXxXxXxXxXxXxXxXxXxXxXxXxXxXxXxXxXxX",
"xXxXxXxXxXxXxXxXxXxXxXxXxXxXxXxXxXxXxXxXxXxXxXxXxXxXxXxXxXxXxXxXxXxXxXxXxXxXxXxXxXxXxXxXxXxXxXxX",
"xXxXxXxXxXxXxXxXxXxXxXxXxXxXxXxXxXxXxXxXxXxXxXxXxXxXxXxXxXxXxXxXxXxXxXxXxXxXxXxXxXxXxXxXxXxXxXxX",
"xXxXxXxXxXxXxXxXxXxXxXxXxXxXxXxXxXxXxXxXxXxXxXxXxXxXxXxXxXxXxXxXxXxXxXxXxXxXxXxXxXxXxXxXxXxXxXxX",
"xXxXxXxXxXxXxXxXxXxXxXxXxXxXxXxXxXxXxXxXxXxXxXxXxXxXxXxXxXxXxXxXxXxXxXxXxXxXxXxXxXxXxXxXxXxXxXxX",
"xXxXxXxXxXxXxXxXxXxXxXxXxXxXxXxXxXxXxXxXxXxXxXxXxXxXxXxXxXxXxXxXxXxXxXxXxXxXxXxXxXxXxXxXxXxXxXxX",
"xXxXxXxXxXxXxXxXxXxXxXxXxXxXxXxXxXxXxXxXxXxXxXxXxXxXxXxXxXxXxXxXxXxXxXxXxXxXxXxXxXxXxXxXxXxXxXxX",
"xXxXxXxXxXxXxXxXxXxXxXxXxXxXxXxXxXxXxXxXxXxXxXxXxXxXxXxXxXxXxXxXxXxXxXxXxXxXxXxXxXxXxXxXxXxXxXxX",
"xXxXxXxXxXxXxXxXxXxXxXxXxXxXxXxXxXxXxXxXxXxXxXxXxXxXxXxXxXxXxXxXxXxXxXxXxXxXxXxXxXxXxXxXxXxXxXxX",
"xXxXxXxXxXxXxXxXxXxXxXxXxXxXxXxXxXxXxXxXxXxXxXxXxXxXxXxXxXxXxXxXxXxXxXxXxXxXxXxXxXxXxXxXxXxXxXxX",
"xXxXxXxXxXxXxXxXxXxXxXxXxXxXxXxXxXxXxXxXxXxXxXxXxXxXxXxXxXxXxXxXxXxXxXxXxXxXxXxXxXxXxXxXxXxXxXxX",
"xXxXxXxXxXxXxXxXxXxXxXxXxXxXxXxXQ xXQ Q Q Q Q Q Q Q xXQ Q Q xXxXxXxXxXxXxXxXxXxXxXxXxXxXxXxXxXxX",
"xXxXxXxXxXxXxXxXxX` E E R R Q Q Q Q Q Q W Q Q Q Q Q _ ! ' ' ' [ ] U E xXxXxXxXxXxXxXxXxXxXxXxXxX",
"xXxXxXxXxXxXxX{ -.8.+.o.-.:.` Q Q E R [ o.Q E E R [ 7.=.f.d.z.M.r.L o.9.-.[ xXxXxXxXxXxXxXxXxXxX",
"xXxXxXxXxXxX>.q.k.k.q.y.C.m.[ W o.<.<.q.g.3.<.<.<.q.g.3.<.u.C.G.j.k.k.P.b.m.&.xXxXxXxXxXxXxXxXxX",
"xXxXQ A t ( B._./.s...S.;.H.[.*.u.C. X6X4X X_. X7X~.B.b.9.*.l.Q.=.-.-.M.u.i.f.q.k.k.q.[ xXxXxXxX",
"xXxXI D 2.7.b.B.B.k.f.j.*.L.T.-.g.R.9XgXdX).N.).dXfX2XR.c.=.@.W.z.a.w.a.k.g.b.k.k.v.k.p.Z.xXxXxX",
"xXxXA.X.Q _ >.<.<.<.<.>. .o.` V.E.B.k.k.k.k.k.k.k.k.k.k.k.I.S.Q q.a.o.-.<.<.3.h.q.<.6.J.=X$.xXxX",
"xXxX:X&Xb y F S Z K / H Z C L uXhX7X|.}. X!.b.k.G.|.}.}.1XtXqX0.} d p T ) G K | ^ P $X;X-X#.xXxX",
"xXxX+X<XoX4 v v c N '.g p 5.(.aXlXkXiXiX0XeXR.n.5XrXrXpXsXzXjX8X{.} q h `.- o % % 2 *X,X:X#.xXxX",
"xXxX* n @X,X>X>X>X>X>X%.V <.x.R..X].).wX0XrXE.c.Y. XyXsX X3X^.E.U.,.Q j %XOXm & # XX#XM B xXxXxX",
"xXxXxXxX, z k k l l l = > f R ;.1.O.t.b.F.K.B.k.g.B.K.D.M.e.O.4.;.Q s 8 3 x k $ # 1 < . xXxXxXxX",
"xXxXxXxXxX  . . . . . # + 5 f ! Y U ' ` [ q.k.v.v.k.q.[ ` ' U Y ~ a ; O . . . xXxXxXxXxXxXxXxXxX",
"xXxXxXxXxXxXxXxX# # # # # @ 5 u i J Q Q Q { <.<.<.<.{ Q Q Q J i 9 : # # xXxXxXxXxXxXxXxXxXxXxXxX",
"xXxXxXxXxXxXxXxXxXxXxX# # # @ 7 0 e w w w w q q q q w w w w r 6 X xXxXxXxXxXxXxXxXxXxXxXxXxXxXxX"
};
