/* XPM */
static char *cobrahit01695478007[] = {
/* columns rows colors chars-per-pixel */
"64 64 24 1 ",
"  c None",
". c #000008",
"X c #0B2B00",
"o c #731F00",
"O c #1B4B0B",
"+ c #2F671B",
"@ c #434343",
"# c #535353",
"$ c gray39",
"% c #777777",
"& c #9B0000",
"* c #FE0000",
"= c #AF4F00",
"- c #EB6300",
"; c #FF7F23",
": c #FF7373",
"> c #478733",
", c #67A353",
"< c #FFAF6F",
"1 c #8BC377",
"2 c #979797",
"3 c #FF9797",
"4 c #FFBFBF",
"5 c #FFFFFE",
/* pixels */
"                                                                ",
"                          OOOOOOOOO                             ",
"                      OOOOOO++++OOOOOO                          ",
"                    OOOOO+>>>>>+++++OOOO                        ",
"                   OO++>>>,,>>>++>>>>>+OOO                      ",
"                  OO++>>,,,,>>>>+>>>,,>>>OO                     ",
"                  O+++>>,,,,>>>>>>>>,,,,>++O                    ",
"                 OOOOOO>>>,,>>>>>>>>,,,,>>+OO                   ",
"               OOOO++++OO>>>,>>+>>>>,,>>>>++OO                  ",
"              OO++++>>>++++>>>>>+>>,>>>OOOO++O                  ",
"              O+++>>>,,>>>>++>>>>>>>>++++++OOOO                 ",
"              O++>,.o=;1,,>>++OO>>>++>>>>>>++OOOO               ",
"              O++>.o=-<.;=o.+O++OO++>>,,1,,+++++OO              ",
"              O++>,.o=;.<-=o++>,++O+.o=;.;=>>>+++O              ",
"               O++>>>>,.;=o.+>,1,>++o=-<.<-o.,>++O              ",
"                OX+++++11,++>..>1,>+.o=;.;==o.>++O              ",
"                 OXXOOO++O+>>++,>..>++,11,>o.,>++O              ",
"                    XXXOO+>>>>,,,++>>+O++++>>>++O               ",
"             OOXXXOOOO.XXXXOOOOO,,>>>>+OOOOOOOOO                ",
"           OOO+OOXO+++O.>5443...OOOOOXXXXXXXXXO                 ",
"          OO+>++OO+>>++.>::........3445>.XOOOO                  ",
"         OO>>>>>O+>>>>+.>**..........::>.O+++OXXXOO             ",
"       XXO+>>>+OO>>,,>+..>&..........**>.++>>+XOO+OO            ",
"     OXXXOO+>>+OO+>,,>+O.>>.:........&>.O+>>>>OO++>+O           ",
"    OOOOXXOO+++OX+>>,>>+OX>>5:.....:.>>X++>,,>+O>>>>OO          ",
"    OO++OXXO+++OXO+>>>>++..>>>>>..:5>>X.++>,,>+++>>,>OO         ",
"   OO+>>>+OOO+++OX++>>++OO.+>,11>>>>>.O++>>,>>>+++>,,>OO        ",
"   O+>>>OOOOOO+OOO+++++++OO..+>>11,>+.OOO>>>>+>OO+>>,>+OX       ",
"  OO+>++%%%%$$OOOOO+++++OOOOXXXX.....OO+++>>+++OO+>>>+OXX       ",
"  OO+++2%%%$$$$OOOXO+OOOO++++OOOXXXXOOOO+++++++XO++++OOXX       ",
"  OOO+222%$$$$$$OOOOOXOO+++++++OOOO++++OO++++OOXO+++OOXXOXO     ",
"  OOO%%22%$$$$$$$XOOXXO++++++++OO+++++++OOO++OOX+++OOXXO+OOO    ",
"  OO%%%$@...@#$$$$XXXXO+>>>>>+++O++++++++OXOOOXOO+OOOO+>>+OO    ",
"  O$$$$@.....@$$$$XXXXO+>,,,>>>++++>>>>>+OXXOOOOOO%%OOOO>>+OO   ",
"  O$$$$.......$$$$ XXXO+>>,,,,>++>>>,,,>+OXXXXOOOO22%$$$+>>+O   ",
"  O#$$$.......$$$#  XXO++>>,,,>++>,,,,>>+OXXX  OO222%%$$$+>+OO  ",
"  O##$$.......$$##   XO+++>>>>>>+>,,,>>++OXXX  %%%22%$$$$$O+OO  ",
"  O@###@.....@###@   XXO++++++++>>>>>>+++OXX  $%%%$@%$$$$$$OOO  ",
"  OO####@...@####@  XXXOOO++++++++++++++OOX   $%$$@....@#$$$$O  ",
"  OO@###########@O  XOOO+OOOOOOO++++++OOOXX   $$$$......@$$$$O  ",
"   OO##########@O   XOO+>+++OOOOOOOOOOO+OXXX  $$$$.......$$$$O  ",
"    O@########@O    XXO>,,>+++++OOOO+++>+OOX  $$$$.......$$$$O  ",
"     O@@@@@@@@O    XXOO+>>>>>++++++++>,,>OOX  $$##@......$$$$O  ",
"      OOOOOOOO    XXOO+O++>>>>+O+++>>>>>+OXX  @####@....@$$$$O  ",
"                  XOOO+OO++++++OO+>>>>++OOOXX O@####...@###$$O  ",
"                  XXOOO+OOOOOOOOO++++++OO+OOXX O############OO  ",
"                  XXOOO+>>+OO++OOOOOOOOO++OOOX  O@#########@OO  ",
"                  XXOOO+>,,>+++OO++OO+>>+OOOXX   O@@######@OO   ",
"                  XXOOO++>>>>>+OO+++>,,>+OOOXX      @@@@@#@O    ",
"                 XXOXOOOOO+++O++O+>>>>>++OOOXX           @O     ",
"               XXXO++++++OOOO+++++O+++OOOOOXOXX                 ",
"               XOO++>>+++++++++++++OOOO++++++OXXX               ",
"              XOOO+>>>>>++++++++++++++++++>>++OOX               ",
"              XOO++>,,,>>>>>>>++++++++++>>>>>+OOOX              ",
"              XOO++>>,,,,>>>>>>+++>>>>>>>,,,>++OOX              ",
"              XXOO++>>>,>>,>>>>++>>>>>>,,,,>>++OOX              ",
"              XXOO+++>>>>>>>>>>++>>>>,>>,>>>++OOXX              ",
"               XXOOO++++>>>>>>>++>>>>>>>>>>+++OOXX              ",
"                XXOOO+++++>>>>+++>>>>>>>++++OOOXX               ",
"                 XXOOOOO++++++++++>>>>+++++OOOXX                ",
"                  XXOOOOOOOO++++++++++++OOOOOXX                 ",
"                    XXXOOOOOO+++++++OOOOOOOOXX                  ",
"                     XXXXXXXOOOO+++OOOOOOXXX                    ",
"                           XXXXXXOOOOOXXXXX                     "
};
