/* XPM */
static char *cobrahit41695478007[] = {
/* columns rows colors chars-per-pixel */
"64 64 10 1 ",
"  c None",
". c #000008",
"X c #0B2B00",
"o c #1B4B0B",
"O c #2F671B",
"+ c #434343",
"@ c #535353",
"# c gray39",
"$ c #478733",
"% c #67A353",
/* pixels */
"                                                                ",
"                                                                ",
"                                                                ",
"                                                                ",
"                                                                ",
"                                                                ",
"                                                                ",
"                                                                ",
"                                                                ",
"                                                                ",
"                                                                ",
"                                                                ",
"                                                                ",
"                                                                ",
"                                                                ",
"                                                                ",
"                                                                ",
"                                                                ",
"                                                                ",
"                                                                ",
"                                                                ",
"                                                                ",
"                                                                ",
"                                                                ",
"                                                                ",
"                                                                ",
"                                                                ",
"                                                                ",
"                                                                ",
"                                                                ",
"                                                                ",
"                                                                ",
"                                                                ",
"                                                                ",
"                                                                ",
"                                                                ",
"                                                                ",
"                                                                ",
"                                                                ",
"                                                                ",
"                                                                ",
"                                                                ",
"                                                                ",
"                                                                ",
"                                                                ",
"                         ooooooooo                              ",
"                    ooooooooooooooooooooo                       ",
"            ooooooooooooooooooooooooooooooooooo                 ",
"         oooOooooooooooooooooooooooOoOOOOOOOXooOooo             ",
"        ooOOOOOOO$OoooooooOOooooooOOoOOOO$OOOOOOOOoo            ",
"       oOOOOOOoOOOooooOOOOOOOOOOOOOOOooOOOOOOOO$OO$oo           ",
"   ooXXoO$$$Ooo$oo%$oOOO$$$$$$$$$$OOOOOoo%oooooOOoOOOOOOOoo     ",
"  ooXOOOOOOOOOOOoO$$oOO$$%%%$OO$%%%$$OOoX$$OOOOOOOOOOOOOOOOo    ",
"  ooooooOOOOOOOOoOoooOOOOOOOOOOOOOOOOOOOOooOOOoOOOOOOOOOOOO#o   ",
"  o#oooooooooooooooo$$$OOOOOOOOOOOOOOOO$$ooOOoooooooOOoooO##o   ",
"   ###.ooooooooooXoX$%$$$$$$$OOOO$$$$$$$$$XoXXoooooooooo####o   ",
"   ###.......#XXXoO$$%%%$$$$$$OO$$$$$$%%%$$$oXXX#.......####o   ",
"  ..###########ooOO$$$%$$%$$$$OO$$$$%$$%$$$$OooX@+.....+@@##o   ",
"   ...#########XXoooOOOOOO$$$$OOOO$$$$OOOOOOoooX####...##...    ",
"     ............XoooOooOOOOOOOOOOOOOOOOooOoooXX...........     ",
"       ..........XXoooooooooOOOOOOOOoooooooooX......            ",
"          ........XXooXooooooOOOOOOooooooXooX....               ",
"             ......XXXooooooooooooooooooooX....                 ",
"               .....XXXXXXXXXXXXXXXXXXXXXX..                    "
};
