/* XPM */
static char *result[] = {
/* columns rows colors chars-per-pixel */
"48 48 144 2 ",
"   c #000006",
".  c #010108",
"X  c #010808",
"o  c #030E05",
"O  c #061D01",
"+  c #091E07",
"@  c #0A1E0B",
"#  c #051406",
"$  c #0F0F15",
"%  c #180B13",
"&  c #101016",
"*  c #0A2304",
"=  c #0B2C00",
"-  c #0E260A",
";  c #0F3203",
":  c #103504",
">  c #133B06",
",  c #0F2810",
"<  c #112510",
"1  c #2B3C15",
"2  c #353312",
"3  c #1C1C22",
"4  c #29292D",
"5  c #222228",
"6  c #2C2C30",
"7  c #323236",
"8  c #3C3C3E",
"9  c #431B0A",
"0  c #52151B",
"q  c #5B2103",
"w  c #4D242A",
"e  c #58302E",
"r  c #5A3423",
"t  c #164207",
"y  c #174208",
"u  c #19460A",
"i  c #1B4B0B",
"p  c #1F500E",
"a  c #1F4B10",
"s  c #20520F",
"d  c #234D14",
"f  c #254C19",
"g  c #28491E",
"h  c #225511",
"j  c #255A13",
"k  c #295E16",
"l  c #29541A",
"z  c #2A6017",
"x  c #2D651A",
"c  c #2F681B",
"v  c #30641B",
"b  c #316A1E",
"n  c #264620",
"m  c #2F4727",
"M  c #2C4A25",
"N  c #344520",
"B  c #324A2A",
"V  c #35522C",
"C  c #375B28",
"Z  c #39552F",
"A  c #3D4B39",
"S  c #3D5B34",
"D  c #336323",
"F  c #346E21",
"G  c #37612C",
"H  c #3C6E2B",
"J  c #367123",
"K  c #3A7626",
"L  c #3E7A2A",
"P  c #3D712C",
"I  c #3F6333",
"U  c #3F7A30",
"Y  c #5E5618",
"T  c #73460F",
"R  c #6E5E1B",
"E  c #42543D",
"W  c #69562E",
"Q  c #417E2D",
"!  c #716531",
"~  c #444445",
"^  c #444B42",
"/  c #4B4C4B",
"(  c #4A5C45",
")  c #4E5C4A",
"_  c #4A5447",
"`  c #515D4C",
"'  c #504E50",
"]  c #545454",
"[  c #5C5C5C",
"{  c #575758",
"}  c #466240",
"|  c #486140",
" . c #5A6A55",
".. c #5E6A5A",
"X. c #707641",
"o. c #62695F",
"O. c #646364",
"+. c #6C6B6C",
"@. c #6D7769",
"#. c #747475",
"$. c #797879",
"%. c #943612",
"&. c #A53B00",
"*. c #FE3939",
"=. c #895412",
"-. c #BC4900",
";. c #977E2A",
":. c #BA7C2B",
">. c #DF7932",
",. c #EF7A27",
"<. c #BF6163",
"1. c #43812E",
"2. c #468532",
"3. c #498635",
"4. c #498935",
"5. c #4A8538",
"6. c #4E8D3A",
"7. c #518C3E",
"8. c #52903E",
"9. c #538D40",
"0. c #569442",
"q. c #5A9645",
"w. c #5A9846",
"e. c #5F9C4B",
"r. c #5C914C",
"t. c #619E4D",
"y. c #728752",
"u. c #66A252",
"i. c #68A453",
"p. c #6C8364",
"a. c #759F69",
"s. c #7C8977",
"d. c #AA9143",
"f. c #85957F",
"g. c gray56",
"h. c #828082",
"j. c #959496",
"k. c #B18084",
"l. c #8EA486",
"z. c #D3AB9E",
"x. c #FFA3A3",
"c. c #FFD0D1",
"v. c #FFEAEB",
"b. c None",
/* pixels */
"b.b.b.b.b.b.b.b.b.b.b.b.b.b.b.b.b.b.b.b.b.s s h s s s b.b.b.b.b.b.b.b.b.b.b.b.b.b.b.b.b.b.b.b.b.",
"b.b.b.b.b.b.b.b.b.b.b.b.b.b.b.b.b.i s z F K L c c L K c z s i b.b.b.b.b.b.b.b.b.b.b.b.b.b.b.b.b.",
"b.b.b.b.b.b.b.b.b.b.b.b.b.b.b.i i F L 7.e.4.2.J J 4.4.e.9.L F i i b.b.b.b.b.b.b.b.b.b.b.b.b.b.b.",
"b.b.b.b.b.b.b.b.b.b.b.b.b.b.i h c 2.u.i.u.4.2.2.2.4.4.u.i.t.2.b h i b.b.b.b.b.b.b.b.b.b.b.b.b.b.",
"b.b.b.b.b.b.b.b.b.b.b.b.b.i h x K 4.0.e.u.4.2.4.2.2.4.u.e.0.5.L x h i b.b.b.b.b.b.b.b.b.b.b.b.b.",
"b.b.b.b.b.b.b.b.b.b.b.b.b.i s h j k c 3.7.0.4.K L 4.0.6.3.c k h h h i b.b.b.b.b.b.b.b.b.b.b.b.b.",
"b.b.b.b.b.b.b.b.b.b.b.i h p k F F F b J L 2.4.3.2.2.2.L J F c F x k s s i b.b.b.b.b.b.b.b.b.b.b.",
"b.b.b.b.b.b.b.b.b.b.b.h x F L 4.0.t.q.6.L b J c c J F L 6.0.u.0.1.K J c h b.b.b.b.b.b.b.b.b.b.b.",
"b.b.b.b.b.b.b.b.b.b.i k F 5.N T :.W :.=.2 l j x x j k 2 =.:.W :.T N 5.F k i b.b.b.b.b.b.b.b.b.b.",
"b.b.b.b.b.b.b.b.b.b.i k J C 9 &.,.r >.-.q v Q i.u.2.z q -.>.r ,.&.9 G J k i b.b.b.b.b.b.b.b.b.b.",
"b.b.b.b.b.b.b.b.b.b.b.j F 3.C Y ;.X.d.R 1 D M r.r.M D 1 R d.X.;.Y C 4.b h b.b.b.b.b.b.b.b.b.b.b.",
"b.b.b.b.b.b.b.b.b.b.b.b.s j F b F 2.U b Q L f 6.6.f U L D U 2.J b F j h b.b.b.b.b.b.b.b.b.b.b.b.",
"b.b.b.b.b.b.b.b.b.b.b.b.b.> ; ; > t t j F J 2.9.9.2.J J j t t > ; ; > b.b.b.b.b.b.b.b.b.b.b.b.b.",
"b.b.b.b.b.b.b.b.b.b.b.b.b.= = b.o + S l.l.p.- - - - p.l.l.S * = b.= = b.b.b.b.b.b.b.b.b.b.b.b.b.",
"b.b.b.b.b.b.b.b.b.b.i : = : u u @ X a.v.c.k.. . . . k.c.v.a.o : u y : = : i b.b.b.b.b.b.b.b.b.b.",
"b.b.b.b.b.b.b.b.i s z h y y c b h + y.x.<.% . . . . % <.x.y.* j b c y y h z h i b.b.b.b.b.b.b.b.",
"b.b.b.b.b.b.b.i z L 1.J s b 2.1.J , ! *.0 w         w 0 *.! < F 2.2.b p J 1.L x i b.b.b.b.b.b.b.",
"b.b.b.b.b.b.i z q.w.2.K z L w.w.K u 1 %.W z.e X X e z.W %.1 > U q.w.L x K 1.w.q.x i b.b.b.b.b.b.",
"b.b.b.b.b.= u F q.w.L k b 2.w.t.L z u G Q r.r.0.0.t.0.Q C u x Q t.w.4.b x K w.q.J u = b.b.b.b.b.",
"b.b.b.b.> = : h J 2.K s h L 2.8.4.F s @ < n S } } S 1 < @ h F 3.8.1.K s p K 2.J p ; = > b.b.b.b.",
"b.b.b.i i t = > s F b p t x F 1.L b z y * O O O O O O * y k c L 1.J c t p b b s > ; y u i b.b.b.",
"b.b.b.i z F h : i k x h > s x b c k i h h s u i i i i s s p z c c c h > s b z i : h F k i b.b.b.",
"b.b.i z 1.2.b s i i z k u > s x j s j c c z j i i j c c c k s j z z t t j z p i h c 2.Q z i b.b.",
"b.b.i F K P  .....` S i i u i u > k b c c c c h h c c c c c k > i p i i i E o. .` ) H L b i b.b.",
"b.i i k H s.h.$.+.O.o.Z i u t = > x 2.4.4.1.J b c F L 6.6.3.z : = t u i i @.j.$.+.O.o.E k i i b.",
"b.b.i l @.j.g.+.O.O.O.[ V : = * > x 4.e.u.q.7.b F 6.q.u.e.4.x > = = b.}  .g.j.#.O.O.O.O.( V b.b.",
"b.b.l ..#.#./ 3 5 ~ [ O.[ E * = > z K 4.t.i.0.J J 0.i.e.4.K z > = * b.#.$.#.{ 5 & ~ [ O.O.` b.b.",
"b.b.( O.O.8 X .   & / O.O.b.b.= > j c K 1.1.1.L L 2.Q 2.K c k > = b.O.+.O./ $   . X 8 O.O.) b.b.",
"b.b._ O.O.3   . .   7 O.O.b.b.b.: i h z x b x b b x x b z h i ; b.b.b.O.O.7   . .   3 O.O.) b.b.",
"b.b.E [ O.3     .   7 O.] b.b.= = u j p h s s s p p h h p h i = = b.b.O.O.7   . . . 3 O.O.( b.b.",
"b.b.B ] ] ~ &     3 / ] ' b.b.: i v 4.K x s s s s s s z F 4.c i : b.b.[ { / 3     $ ~ ] [ E b.b.",
"b.b.i / ] ] ~ 4 4 / ] ] ^ b.b.= t F 0.6.L J b x b x K L 7.0.F y = b.b.E ] ] / 4 4 ~ ] ] / d b.b.",
"b.b.i B ] ] ] ] ] ] ] ^ g b.= ; i p c L 2.1.K h j K 2.2.L b h u ; = b.g _ ] ] ] ] ] ] / m i b.b.",
"b.b.b.f ^ ' ' ' / ] ^ g b.b.; u j h p z x x z p i z z z k s h j i ; b.b.g ^ ' ' ' ' ' ^ f b.b.b.",
"b.b.b.b.g m m m m m g b.b.= : i p c c x i i j i i j i p z F z p i : = b.b.g m m B m m g b.b.b.b.",
"b.b.b.b.b.b.b.b.b.b.b.b.b.= = i i x 4.q.Q c b s h b v Q w.4.z i i = = b.b.b.b.b.b.b.b.b.b.b.b.b.",
"b.b.b.b.b.b.b.b.b.b.b.b.b.b.= t u j J 1.Q Q J p s J L 2.2.F k i > = b.b.b.b.b.b.b.b.b.b.b.b.b.b.",
"b.b.b.b.b.b.b.b.b.b.b.b.b.b.= : > i j j x c z j j z c z j j i : : = b.b.b.b.b.b.b.b.b.b.b.b.b.b.",
"b.b.b.b.b.b.b.b.b.b.b.b.= = y j z z z h p h j c x j h h h k z k k t = = b.b.b.b.b.b.b.b.b.b.b.b.",
"b.b.b.b.b.b.b.b.b.b.b.b.: i k K 2.K b c z x c c c x x z x F K 2.K k i : b.b.b.b.b.b.b.b.b.b.b.b.",
"b.b.b.b.b.b.b.b.b.b.b.; u s x 4.0.0.2.K K L K b b K K L L 1.0.0.4.x s u = b.b.b.b.b.b.b.b.b.b.b.",
"b.b.b.b.b.b.b.b.b.b.b.= u h b 2.w.i.e.8.4.2.4.F J 4.4.4.8.e.u.e.2.b j u ; b.b.b.b.b.b.b.b.b.b.b.",
"b.b.b.b.b.b.b.b.b.b.b.= : i z J 1.6.q.4.8.4.4.F J 2.4.8.4.q.4.2.J z i : = b.b.b.b.b.b.b.b.b.b.b.",
"b.b.b.b.b.b.b.b.b.b.b.b.; u s k J K L 2.4.4.2.J J 2.4.2.2.L K J k s u = b.b.b.b.b.b.b.b.b.b.b.b.",
"b.b.b.b.b.b.b.b.b.b.b.b.b.= y i j x c J 1.2.1.b F 2.2.Q F v x j i t = b.b.b.b.b.b.b.b.b.b.b.b.b.",
"b.b.b.b.b.b.b.b.b.b.b.b.b.b.= u i p s z z c b c c b c z k p p i t ; b.b.b.b.b.b.b.b.b.b.b.b.b.b.",
"b.b.b.b.b.b.b.b.b.b.b.b.b.b.b.; : > i i i p z c c z i i i i > > ; b.b.b.b.b.b.b.b.b.b.b.b.b.b.b.",
"b.b.b.b.b.b.b.b.b.b.b.b.b.b.b.b.= = ; : t i j c c j i u : : = = b.b.b.b.b.b.b.b.b.b.b.b.b.b.b.b."
};
