/* XPM */
static char *result[] = {
/* columns rows colors chars-per-pixel */
"48 48 178 2 ",
"   c #000106",
".  c #010109",
"X  c #0B040D",
"o  c #0B1B0D",
"O  c #071608",
"+  c #0C0B12",
"@  c #151A19",
"#  c #350005",
"$  c #250E17",
"%  c #0B2C01",
"&  c #0D240C",
"*  c #0F3203",
"=  c #113604",
"-  c #133B06",
";  c #193D0E",
":  c #14350D",
">  c #0E2710",
",  c #132912",
"<  c #1C3C14",
"1  c #1B3119",
"2  c #3D2107",
"3  c #312C1C",
"4  c #2E3B17",
"5  c #1C1C21",
"6  c #28282B",
"7  c #2F2F32",
"8  c #313134",
"9  c #363639",
"0  c #3A3A3C",
"q  c #441B0A",
"w  c #451016",
"e  c #4F2105",
"r  c #40240A",
"t  c #453A1D",
"y  c #5A272D",
"u  c #5D3822",
"i  c #164007",
"p  c #174208",
"a  c #19450A",
"s  c #1C4C0C",
"d  c #184907",
"f  c #1F500E",
"g  c #1D4414",
"h  c #1F4C11",
"j  c #20520F",
"k  c #224B14",
"l  c #26481B",
"z  c #225511",
"x  c #255913",
"c  c #295E16",
"v  c #2B561C",
"b  c #2A5D1A",
"n  c #2A6017",
"m  c #2D641A",
"M  c #2F681D",
"N  c #30641E",
"B  c #316A1D",
"V  c #2C4922",
"C  c #264B21",
"Z  c #354520",
"A  c #36472C",
"S  c #2E5221",
"D  c #2F5C20",
"F  c #365B29",
"G  c #335527",
"H  c #3D4939",
"J  c #394B33",
"K  c #3F5937",
"L  c #336223",
"P  c #3A6224",
"I  c #356E21",
"U  c #37612C",
"Y  c #367123",
"T  c #3A7526",
"R  c #3C7827",
"E  c #3B7528",
"W  c #3E7A2A",
"Q  c #5C4C15",
"!  c #5E5618",
"~  c #73460F",
"^  c #745010",
"/  c #414E3C",
"(  c #44593D",
")  c #42533C",
"_  c #644429",
"`  c #654935",
"'  c #596B25",
"]  c #437429",
"[  c #417E2D",
"{  c #4C742B",
"}  c #447C33",
"|  c #487838",
" . c #646139",
".. c #726531",
"X. c #647A30",
"o. c #76733E",
"O. c #3E3E40",
"+. c #454545",
"@. c #444B41",
"#. c #4C4C4C",
"$. c #475342",
"%. c #495C43",
"&. c #4E5C4A",
"*. c #465A40",
"=. c #505D4B",
"-. c #535353",
";. c #5D5D5D",
":. c #585758",
">. c #794E4D",
",. c #7E5C4D",
"<. c #4D6445",
"1. c #516949",
"2. c #5F625E",
"3. c #567A49",
"4. c #646364",
"5. c #6C6D6C",
"6. c #686D66",
"7. c #6E726C",
"8. c #737373",
"9. c #777A76",
"0. c #9B3C00",
"q. c #943512",
"w. c #B7220D",
"e. c #A53B00",
"r. c #FF3A3A",
"t. c #9F4906",
"y. c #B04800",
"u. c #967E2A",
"i. c #BD7C28",
"p. c #CD762B",
"a. c #D6782B",
"s. c #EB7926",
"d. c #814248",
"f. c #B0696C",
"g. c #FF6061",
"h. c #42812F",
"j. c #468632",
"k. c #498535",
"l. c #478833",
"z. c #4A8936",
"x. c #4B8539",
"c. c #4D8C39",
"v. c #528E3C",
"b. c #578534",
"n. c #52903E",
"m. c #568445",
"M. c #569442",
"N. c #599645",
"B. c #5B9847",
"V. c #5E9B4A",
"C. c #5C9749",
"Z. c #718F4E",
"A. c #619E4D",
"S. c #699948",
"D. c #729C4F",
"F. c #629B51",
"G. c #6A9A51",
"H. c #698855",
"J. c #63A04F",
"K. c #66A252",
"L. c #6DA65A",
"P. c #71AB5E",
"I. c #82903E",
"U. c #849342",
"Y. c #929D4F",
"T. c #8B9E51",
"R. c #B38D7F",
"E. c #A0AF7F",
"W. c #858584",
"Q. c #888B87",
"!. c #899087",
"~. c #908F91",
"^. c #989798",
"/. c #BC8885",
"(. c #BCA69B",
"). c #C4B498",
"_. c #E9B5B1",
"`. c None",
/* pixels */
"`.`.`.`.`.`.`.`.`.`.`.`.`.`.`.`.`.`.`.`.`.`.`.`.`.`.`.`.`.`.`.`.`.`.`.`.`.`.`.`.`.`.`.`.`.`.`.`.",
"`.`.`.`.`.`.`.`.`.`.`.`.`.`.`.`.`.s `.s s x x x s s s s `.`.`.`.`.`.`.`.`.`.`.`.`.`.`.`.`.`.`.`.",
"`.`.`.`.`.`.`.`.`.`.`.`.`.`.`.s s s z I W [ h.B n n n f s s `.`.`.`.`.`.`.`.`.`.`.`.`.`.`.`.`.`.",
"`.`.`.`.`.`.`.`.`.`.`.`.`.`.s z B [ z.N.J.z.l.T I j.j.c.W c z s `.`.`.`.`.`.`.`.`.`.`.`.`.`.`.`.",
"`.`.`.`.`.`.`.`.`.`.`.`.`.s z m W z.K.K.J.z.j.j.W l.z.K.A.M.W x f `.`.`.`.`.`.`.`.`.`.`.`.`.`.`.",
"`.`.`.`.`.`.`.`.`.`.`.`.`.s f z x W c.B.A.c.j.j.l.l.z.K.K.K.z.T j s `.`.`.`.`.`.`.`.`.`.`.`.`.`.",
"`.`.`.`.`.`.`.`.`.`.`.s j j n I B x c [ z.M.l.W [ l.c.V.M.W E B n j `.`.`.`.`.`.`.`.`.`.`.`.`.`.",
"`.`.`.`.`.`.`.`.`.`.`.z m I R z.M.j.E E E W l.j.W l.n.j.R n x x x z s `.`.`.`.`.`.`.`.`.`.`.`.`.",
"`.`.`.`.`.`.`.`.`.`.s c I x.Z ~ i.T.S.b.E B m n h.j.T E j.W l.j.B x s f s `.`.`.`.`.`.`.`.`.`.`.",
"`.`.`.`.`.`.`.`.`.`.s c Y U q e.s._ a.t.r x n B x x m P X.U.Z.Z.] Y B n j `.`.`.`.`.`.`.`.`.`.`.",
"`.`.`.`.`.`.`.`.`.`.`.x B k.F ! u.t a.y.e N x.L.x.M x e y.a.u s.^ F k.B n s `.`.`.`.`.`.`.`.`.`.",
"`.`.`.`.`.`.`.`.`.`.`.`.s z B I Y H.Y.' v L 1 m.P.x.N 2 t.a.u a.0.q U Y c s `.`.`.`.`.`.`.`.`.`.",
"`.`.`.`.`.`.`.`.`.`.`.`.`.- * p p n M M h.h.I N.} , I N ] D.S.b.Q Z x.I x `.`.`.`.`.`.`.`.`.`.`.",
"`.`.`.`.`.`.`.`.`.`.`.`.`.`.s - & * - z N N E } C.} } j.B x x x m I c x `.`.`.`.`.`.`.`.`.`.`.`.",
"`.`.`.`.`.`.`.`.s s x s - - c m h o 3.(.R.,.O o v b P P v ; = = = = i `.`.`.`.`.`.`.`.`.`.`.`.`.",
"`.`.`.`.`.`.`.s z Y W B j c [ [ I > o.g.y +   . . . >./._.H.O - s s p `.`.`.`.`.`.`.`.`.`.`.`.`.",
"`.`.`.`.`.`.= j W l.[ I x h.M.M.T o t w.# . . . . .   w r...& n T Y p = p j s `.`.`.`.`.`.`.`.`.",
"`.`.`.`.- % = s M j.T s z W V.V.R a , { 3 d.X . .   X # q.4 g Y l.z.m s m I N s `.`.`.`.`.`.`.`.",
"`.`.`.s s s * = s B B s - I z.M.j.I a g x.).` o   $ f.A E : x R V.V.R x W l.k.x s `.`.`.`.`.`.`.",
"`.`.`.s N W m i s x m x - z T j.W I h O v c.A.F.C  .E.| < ; M h.A.n.h.B B [ A.c.x s `.`.`.`.`.`.",
"`.`.s M j.[ D v k k c x a z M I I M x p & < x.M.L.F.[ l & j m l.c.h.R n z R n.B.Y s % `.`.`.`.`.",
"`.`.s B Y | 7.7.6.2.%.s s s x m c c f z s : - - o o O & d x N T [ B B s f Y h.W x = % `.`.`.`.`.",
"`.`.s x | Q.W.8.4.4.4.( s p s h p s c M m m x s - - d x x f x m B n x - f M M z p % - - `.`.`.`.",
"`.`.d F 9.~.Q.4.;.4.4.4.) p a % - x M M B B m j j b m B m n j j n c d - x m j a * a v d s `.`.`.",
"`.`.S 6.8.4.7 + + 9 ;.4.4.A % % - n j.z.z.h.Y m x N B Y Y B n - - s p i f D G s f I [ n s `.`.`.",
"`.`.&.4.4.7 . .   X +.4.4.$.% % - m k.A.K.N.v.Y B R j.M.M.z.N - % = a s d 1.W.<.K K W h.c s `.`.",
"`.`.*.4.4.@         8 4.;.`.`.% - n T z.A.K.n.Y I n.J.K.B.j.m - % % `.k F Q.^.9.5.4.1.W I s `.`.",
"`.`./ :.;.6   . . . 9 4.-.`.`.`.- x B T h.h.[ [ R n.J.B.j.I n - % % `.7.9.W.W.8.4.4.4.%.x s h `.",
"`.`.V -.-.#.5 . . 6 -.-.#.+.`.% % p x c B B m B T T T T I m x - % `.`.8.5.4.8 9 8 #.;.4.%.G `.`.",
"`.`.s @.-.-.#.O.0 -.-.-.H `.`.* p s x j j j j j n m m N x j d * `.`.`.4.4.0       + #.4.4.=.`.`.",
"`.`.s l -.-.-.-.-.-.-.H k `.`.= s N k.Y n j j j f s s z f m s = % `.`.4.4.8   .     5 4.4.&.`.`.",
"`.`.`.l H #.#.#.#.#.H l `.`.`.% p I M.v.[ Y m B x x x B [ v.I s = `.`.4.;.O.X   .   5 4.4.&.`.`.",
"`.`.`.`.l l l l l l l `.`.`.% a x x N R l.h.Y x m B [ h.z.v.B i % `.`.-.-.-.9 .   X O.4.4.&.`.`.",
"`.`.`.`.`.`.`.`.`.`.`.`.`.% - s j x j c n m n j j Y [ [ T n s s - % a A -.-.#.5 @ 9 -.-.:.( `.`.",
"`.`.`.`.`.`.`.`.`.`.`.`.`.% % s s c B n f s x s s x x x x f x x s - `.`.J -.-.-.-.-.-.-.#.h `.`.",
"`.`.`.`.`.`.`.`.`.`.`.`.`.`.% s s m z.B.[ N B j j c j j Y R m j a * `.`.`.A #.-.-.-.-.#.V s `.`.",
"`.`.`.`.`.`.`.`.`.`.`.`.`.% % p d x B [ h.[ I j j B I l.B.z.n s s % `.`.`.`.`.+.+.+.#.@.l `.`.`.",
"`.`.`.`.`.`.`.`.`.`.`.`.% * s z x x j j x x n m c B T R Y c j s p * % `.`.`.`.`.`.`.`.`.`.`.`.`.",
"`.`.`.`.`.`.`.`.`.`.`.* - j B [ T B B x x n m B B n j j j x n n c z - % % `.`.`.`.`.`.`.`.`.`.`.",
"`.`.`.`.`.`.`.`.`.`.`.p s c [ v.n.h.Y Y Y Y B B m B m m n N B [ j.I z a = `.`.`.`.`.`.`.`.`.`.`.",
"`.`.`.`.`.`.`.`.`.`.% p z m h.B.K.B.n.l.l.j.[ B m Y R T R W z.M.M.h.n f p `.`.`.`.`.`.`.`.`.`.`.",
"`.`.`.`.`.`.`.`.`.`.% * s x Y j.v.V.n.n.c.l.j.Y B h.z.z.z.M.J.K.M.[ m j i % `.`.`.`.`.`.`.`.`.`.",
"`.`.`.`.`.`.`.`.`.`.`.% i z c Y h.h.l.z.l.l.l.I Y l.l.c.n.z.M.z.h.B x s % % `.`.`.`.`.`.`.`.`.`.",
"`.`.`.`.`.`.`.`.`.`.`.`.* a s x m M T h.l.j.[ B I l.l.j.l.j.R T B x j - % `.`.`.`.`.`.`.`.`.`.`.",
"`.`.`.`.`.`.`.`.`.`.`.`.`.% a s j j m B I I B m B R j.j.W Y m m x s - % `.`.`.`.`.`.`.`.`.`.`.`.",
"`.`.`.`.`.`.`.`.`.`.`.`.`.`.* i i s s s f n B N m B B n n x f f s - % `.`.`.`.`.`.`.`.`.`.`.`.`.",
"`.`.`.`.`.`.`.`.`.`.`.`.`.`.`.% % = - - - s x x B B x s s s a - - % `.`.`.`.`.`.`.`.`.`.`.`.`.`.",
"`.`.`.`.`.`.`.`.`.`.`.`.`.`.`.`.`.`.`.`.% = * = p j s s i * * % `.`.`.`.`.`.`.`.`.`.`.`.`.`.`.`."
};
