/* XPM */
static char *result[] = {
/* columns rows colors chars-per-pixel */
"48 48 122 2 ",
"   c #000006",
".  c #010109",
"X  c #061604",
"o  c #0B1F07",
"O  c #0A160C",
"+  c #0B1B0B",
"@  c #0C0C12",
"#  c #101016",
"$  c #19191F",
"%  c #0B2C00",
"&  c #0C2309",
"*  c #132C0E",
"=  c #0E3203",
"-  c #113604",
";  c #133B06",
":  c #13340A",
">  c #15380A",
",  c #122212",
"<  c #152814",
"1  c #1C3B15",
"2  c #1C1C21",
"3  c #242429",
"4  c #2A2A2D",
"5  c #2E2E31",
"6  c #313135",
"7  c #3B3B3D",
"8  c #154007",
"9  c #174308",
"0  c #19450A",
"q  c #1C4C0C",
"w  c #1F510E",
"e  c #1F4316",
"r  c #1F4B10",
"t  c #20520F",
"y  c #234A16",
"u  c #26481B",
"i  c #28491E",
"p  c #225511",
"a  c #265A13",
"s  c #295E16",
"d  c #2A6017",
"f  c #2D651A",
"g  c #2F681B",
"h  c #30651F",
"j  c #31691D",
"k  c #2F4727",
"l  c #2C4922",
"z  c #33452D",
"x  c #344B2C",
"c  c #2E5222",
"v  c #2F5A24",
"b  c #325726",
"n  c #315E21",
"m  c #35522B",
"M  c #3B4F34",
"N  c #3D4939",
"B  c #3B5332",
"V  c #3E5A35",
"C  c #316421",
"Z  c #356D21",
"A  c #38652C",
"S  c #367022",
"D  c #397525",
"F  c #3C7827",
"G  c #3C752A",
"H  c #3E7B2B",
"J  c #42543D",
"K  c #435B3B",
"L  c #417E2D",
"P  c #426A34",
"I  c #49733A",
"U  c #3E3E40",
"Y  c #434344",
"T  c #444B41",
"R  c #4C4C4C",
"E  c #485544",
"W  c #4A5D44",
"Q  c #4D524C",
"!  c #4E5C4A",
"~  c #505D4C",
"^  c #504E50",
"/  c #545454",
"(  c #575758",
")  c #5C5C5C",
"_  c #547E48",
"`  c #596655",
"'  c #5E665C",
"]  c #61645F",
"[  c #616C5D",
"{  c #605F61",
"}  c #636364",
"|  c #686D66",
" . c #686768",
".. c #6A6B6A",
"X. c #6C716B",
"o. c #737373",
"O. c #737A71",
"+. c #787778",
"@. c #7B7B7B",
"#. c #42812E",
"$. c #468632",
"%. c #488435",
"&. c #498935",
"*. c #4E8D3A",
"=. c #508C3C",
"-. c #51903D",
";. c #558F42",
":. c #569442",
">. c #5A9746",
",. c #5B9847",
"<. c #5F974C",
"1. c #5E9C4A",
"2. c #609D4C",
"3. c #608954",
"4. c #63A04F",
"5. c #66A252",
"6. c #868586",
"7. c gray55",
"8. c #8A9087",
"9. c #908F91",
"0. c #959596",
"q. c None",
/* pixels */
"q.q.q.q.q.q.q.q.q.q.q.q.q.q.q.q.q.q.q.q.q.q.q.q.q.q.q.q.q.q.q.q.q.q.q.q.q.q.q.q.q.q.q.q.q.q.q.q.",
"q.q.q.q.q.q.q.q.q.q.q.q.q.q.q.q.q.q.q.q.q.q.q.q.q.q.q.q.q.q.q.q.q.q.q.q.q.q.q.q.q.q.q.q.q.q.q.q.",
"q.q.q.q.q.q.q.q.q.q.q.q.q.q.q.q.q.q.q.q t d d d d d d p r q.q.q.q.q.q.q.q.q.q.q.q.q.q.q.q.q.q.q.",
"q.q.q.q.q.q.q.q.q.q.q.q.q.q.q.q.q a d L &.$.$.Z Z $.$.&.H s a q q.q.q.q.q.q.q.q.q.q.q.q.q.q.q.q.",
"q.q.q.q.q.q.q.q.q.q.q.q.q.q.q.q a H :.1.5.&.$.F H $.$.5.1.:.H a q q.q.q.q.q.q.q.q.q.q.q.q.q.q.q.",
"q.q.q.q.q.q.q.q.q.q.q.q.q.q.w d D &.5.5.4.&.&.&.&.$.&.5.5.5.&.D d w q.q.q.q.q.q.q.q.q.q.q.q.q.q.",
"q.q.q.q.q.q.q.q.q.q.q.q.q.q a s j F L :.1.*.&.#.$.$.*.1.:.H F Z s p q q.q.q.q.q.q.q.q.q.q.q.q.q.",
"q.q.q.q.q.q.q.q.q.q.q.q.q q t a a p d F $.=.&.F F &.-.$.F d p a a p q q q.q.q.q.q.q.q.q.q.q.q.q.",
"q.q.q.q.q.q.q.q.q.q.q.q s d j #.$.&.$.#.D G L $.#.$.D D H $.$.$.D j d s q q.q.q.q.q.q.q.q.q.q.q.",
"q.q.q.q.q.q.q.q.q.q.q s d j D L =.<.;.-.$.S Z Z C Z S &.*.:.<.;.G D j f s q q.q.q.q.q.q.q.q.q.q.",
"q.q.q.q.q.q.q.q.q.q.q s a a a a p 9 ; C &.$.*.:.:.*.$.$.C ; ; a a a s d d q q.q.q.q.q.q.q.q.q.q.",
"q.q.q.q.q.q.q.q.q.q.q.s j h h j f * C S C , , , , , < C S C < f h h j j s q.q.q.q.q.q.q.q.q.q.q.",
"q.q.q.q.q.q.q.q.q.q.q.p s f j j j * G $.< O , , , , O < &.H , g j j d s w q.q.q.q.q.q.q.q.q.q.q.",
"q.q.q.q.q.q.q.q.q.q.q.q.q q q q y + 1 L v D $.$.&.$.F v #.e : p q q q q q.q.q.q.q.q.q.q.q.q.q.q.",
"q.q.q.q.q.q.q.q.q.q.q.q.q.q.q.q.= : : f #.&.*.-.*.*.&.#.f > q = q.q.q.q.q.q.q.q.q.q.q.q.q.q.q.q.",
"q.q.q.q.q.q.q.q.q.q.q ; % ; w p : y q & 1 A _ 3.3._ A 1 + r a 9 p w ; = ; w q.q.q.q.q.q.q.q.q.q.",
"q.q.q.q.q.q.q.q.q a g s q q S D d d a > & X X X X X X & ; p a d D Z q q a j a q q.q.q.q.q.q.q.q.",
"q.q.q.q.q.q.q.w Z $.$.F p S $.$.D p q q q 9 9 9 9 9 9 q q q w D &.&.Z p F $.$.Z q q.q.q.q.q.q.q.",
"q.q.q.q.q.q.q C 1.1.$.Z f H 1.1.F w q w p w q q q q w w w q w D ,.1.H j Z $.1.2.Z q q q.q.q.q.q.",
"q.q.q.q.q = 9 Z *.:.F s f $.:.1.S q a g f f a q w a d g g a w a ;.:.$.f a j G G d q q q q.q.q.q.",
"q.q.q.w 0 = > y Z &.F q t Z #.*.j a j g g j f p t j j j j j a 8 H #.S p q P [ ` ~ ! n C a q q.q.",
"q.q.q j Z P X.X...} W r q a j L f d &.*.*.#.S g j j #.*.*.$.f ; C C d w x @.0.@...} ' W a q q q.",
"q.q.q a I 8.6.o.} } } W q t f g a f $.1.5.>.*.S S *.>.5.1.&.d ; p f w V ..0.0.o.} } } } E m q.q.",
"q.q.q b O.9.6.} ) ] ] } J > q d r d D &.1.5.:.S S :.5.2.&.D d ; a s 9 ' +.o./ 3 2 7 ) } } ~ q.q.",
"q.q.c | o.} 5 @ @ 7 ) } } B 9 ; ; a g D #.#.#.H H #.#.#.D f s ; ; w x } ..R #   . . U } } ! q.q.",
"q.q ! } } 5 .   . . Y } } M = % - 0 a d g j f j g j g g d a 0 = % = x { } 6   . .   2 } } ! q.q.",
"q.q.E } } $         6 } } z % % % q a w t t t t t t t p q a q % % % T ) } 6 .   .   2 } } ~ q.q.",
"q.q.R ) ) 3   . . . 7 ] / R % % ; a #.j h t t q q t t f Z H s 0 = % q.) ( R 2 .   # Y / ) K q.q.",
"q.q.x Q / R 2 . . 4 / / R q.q.% ; w #.$.S f g t t g f S &.$.q q ; q.q.R ^ / R 5 4 Y / / R q q.q.",
"q.q.r T / / R 7 U ^ / ^ N q.q.q.; Z >.-.S j f t t h j S -.>.Z q q.q.q.l R / / / / / / R k q q.q.",
"q.q.q i / / / / / / / N y q.q.% 9 d #.$.$.#.j t t j #.$.$.#.d 8 = q.q.q.i T ^ ^ ^ ^ / T y q.q.q.",
"q.q.q.y N R R R R R N y q.q.q.- t q s Z F F S t t S D F Z a w t = q.q.q.q.i k k k k k i q.q.q.q.",
"q.q.q.q.y i u y i u y q.q.q.q.% q d w t p t p q q p p w p q s a = q.q.q.q.q.q.q.q.q.q.q.q.q.q.q.",
"q.q.q.q.q.q.q.q.q.q.q.q.q.q.% ; q q w f f f f t w f f f p q q q ; % q.q.q.q.q.q.q.q.q.q.q.q.q.q.",
"q.q.q.q.q.q.q.q.q.q.q.q.q.q.- q q p Z S s s g t p g s s g g p q q ; q.q.q.q.q.q.q.q.q.q.q.q.q.q.",
"q.q.q.q.q.q.q.q.q.q.q.q.q.% = 0 q f &.>.H f j t w j f H >.*.d q 0 = % q.q.q.q.q.q.q.q.q.q.q.q.q.",
"q.q.q.q.q.q.q.q.q.q.q.q.q.q.% q w a g #.#.H g w q C F #.#.g a q q % q.q.q.q.q.q.q.q.q.q.q.q.q.q.",
"q.q.q.q.q.q.q.q.q.q.q.q.q.% ; ; w a t w a a a a a a a a t p a t 8 = % q.q.q.q.q.q.q.q.q.q.q.q.q.",
"q.q.q.q.q.q.q.q.q.q.q.% % ; a s g g f d d d g g j j d d s f j f s a ; % % q.q.q.q.q.q.q.q.q.q.q.",
"q.q.q.q.q.q.q.q.q.q.q.- 0 p Z #.$.$.S S Z S j g g j S S S S $.&.$.Z p 9 - q.q.q.q.q.q.q.q.q.q.q.",
"q.q.q.q.q.q.q.q.q.q.q.9 w d #.:.1.,.-.&.$.&.L j j #.$.$.&.-.,.2.:.#.d q 9 q.q.q.q.q.q.q.q.q.q.q.",
"q.q.q.q.q.q.q.q.q.q.% 8 t f L :.,.1.-.-.*.$.$.S S $.$.*.-.-.1.,.:.L f w ; % q.q.q.q.q.q.q.q.q.q.",
"q.q.q.q.q.q.q.q.q.q.% % q a j #.$.L $.$.&.$.&.S S $.$.&.&.$.#.#.#.j s q = % q.q.q.q.q.q.q.q.q.q.",
"q.q.q.q.q.q.q.q.q.q.q.% ; t s j Z g F L $.$.L j j #.$.$.#.D j Z j a t ; % q.q.q.q.q.q.q.q.q.q.q.",
"q.q.q.q.q.q.q.q.q.q.q.q.% ; q a a w d g Z S g g g j S S j d t a a q ; % q.q.q.q.q.q.q.q.q.q.q.q.",
"q.q.q.q.q.q.q.q.q.q.q.q.q.% ; q q 0 w w w d g g j g d q q q q q q ; % q.q.q.q.q.q.q.q.q.q.q.q.q.",
"q.q.q.q.q.q.q.q.q.q.q.q.q.q.% ; ; 0 q q q w a a a a w q q q 0 ; ; = q.q.q.q.q.q.q.q.q.q.q.q.q.q.",
"q.q.q.q.q.q.q.q.q.q.q.q.q.q.q.q.= - = 8 q 0 q 0 q 0 q q 8 = - = q.q.q.q.q.q.q.q.q.q.q.q.q.q.q.q."
};
