/* XPM */
static char *result[] = {
/* columns rows colors chars-per-pixel */
"48 48 114 2 ",
"   c #000006",
".  c #010109",
"X  c #051604",
"o  c #0C0C12",
"O  c #101016",
"+  c #19191F",
"@  c #0C2D00",
"#  c #0C2309",
"$  c #0E3202",
"%  c #113504",
"&  c #133C05",
"*  c #163A0A",
"=  c #1C3613",
"-  c #1C3B12",
";  c #213F16",
":  c #213919",
">  c #1C1C21",
",  c #242429",
"<  c #2A2A2E",
"1  c #273721",
"2  c #2D3D27",
"3  c #2F3F2A",
"4  c #2E2E31",
"5  c #2E3330",
"6  c #313034",
"7  c #343438",
"8  c #3B3B3D",
"9  c #154206",
"0  c #164008",
"q  c #19450A",
"w  c #1C4C0C",
"e  c #1F510E",
"r  c #1F4B10",
"t  c #20520F",
"y  c #214F11",
"u  c #25481A",
"i  c #235511",
"p  c #265A14",
"a  c #295E16",
"s  c #265019",
"d  c #2A6017",
"f  c #2D651A",
"g  c #30661F",
"h  c #316A1D",
"j  c #2D4A23",
"k  c #34452E",
"l  c #33482C",
"z  c #2E5222",
"x  c #325726",
"c  c #315E21",
"v  c #35522B",
"b  c #374731",
"n  c #384832",
"m  c #3E5A35",
"M  c #326026",
"N  c #356E21",
"B  c #356329",
"V  c #367022",
"C  c #3A7526",
"Z  c #3D752B",
"A  c #3D7A29",
"S  c #42543D",
"D  c #435B3B",
"F  c #417F2D",
"G  c #426A34",
"H  c #49733A",
"J  c #3F3F41",
"K  c #434343",
"L  c #434B40",
"P  c #4D4D4D",
"I  c #485544",
"U  c #4A5D44",
"Y  c #4F524F",
"T  c #4E5C4A",
"R  c #505D4C",
"E  c #504F50",
"W  c #535353",
"Q  c #565A55",
"!  c #585C57",
"~  c #575758",
"^  c #5C5C5C",
"/  c #596655",
"(  c #5E665C",
")  c #61645F",
"_  c #616C5D",
"`  c #646364",
"'  c #686D66",
"]  c #6A6A6A",
"[  c #6C716B",
"{  c #737373",
"}  c #737A71",
"|  c #787778",
" . c #7B7B7B",
".. c #42812E",
"X. c #468632",
"o. c #498336",
"O. c #478833",
"+. c #498935",
"@. c #4E8C3A",
"#. c #508E3C",
"$. c #51903D",
"%. c #558F41",
"&. c #569442",
"*. c #599745",
"=. c #5B9748",
"-. c #5E9C4A",
";. c #639E4F",
":. c #66A352",
">. c #868586",
",. c gray55",
"<. c #8A9087",
"1. c #908F91",
"2. c #959596",
"3. c None",
/* pixels */
"3.3.3.3.3.3.3.3.3.3.3.3.3.3.3.3.3.3.3.3.3.3.3.3.3.3.3.3.3.3.3.3.3.3.3.3.3.3.3.3.3.3.3.3.3.3.3.3.",
"3.3.3.3.3.3.3.3.3.3.3.3.3.3.3.3.3.3.3.3.3.3.3.3.3.3.3.3.3.3.3.3.3.3.3.3.3.3.3.3.3.3.3.3.3.3.3.3.",
"3.3.3.3.3.3.3.3.3.3.3.3.3.3.3.3.3.3.3.3.3.3.3.3.3.3.3.3.3.3.3.3.3.3.3.3.3.3.3.3.3.3.3.3.3.3.3.3.",
"3.3.3.3.3.3.3.3.3.3.3.3.3.3.3.3.3.3.3.3.3.3.3.3.3.3.3.3.3.3.3.3.3.3.3.3.3.3.3.3.3.3.3.3.3.3.3.3.",
"3.3.3.3.3.3.3.3.3.3.3.3.3.3.3.3.3.3.3.3.3.3.3.3.3.3.3.3.3.3.3.3.3.3.3.3.3.3.3.3.3.3.3.3.3.3.3.3.",
"3.3.3.3.3.3.3.3.3.3.3.3.3.3.3.3.3.3.3.3.3.3.3.3.3.3.3.3.3.3.3.3.3.3.3.3.3.3.3.3.3.3.3.3.3.3.3.3.",
"3.3.3.3.3.3.3.3.3.3.3.3.3.3.3.3.3.3.3.3.3.3.3.3.3.3.3.3.3.3.3.3.3.3.3.3.3.3.3.3.3.3.3.3.3.3.3.3.",
"3.3.3.3.3.3.3.3.3.3.3.3.3.3.3.3.3.3.3.3.3.3.3.3.3.3.3.3.3.3.3.3.3.3.3.3.3.3.3.3.3.3.3.3.3.3.3.3.",
"3.3.3.3.3.3.3.3.3.3.3.3.3.3.3.3.3.3.3.3.3.3.3.3.3.3.3.3.3.3.3.3.3.3.3.3.3.3.3.3.3.3.3.3.3.3.3.3.",
"3.3.3.3.3.3.3.3.3.3.3.3.3.3.3.3.3.3.3.3.3.3.3.3.3.3.3.3.3.3.3.3.3.3.3.3.3.3.3.3.3.3.3.3.3.3.3.3.",
"3.3.3.3.3.3.3.3.3.3.3.3.3.3.3.3.3.3.3.3.3.3.3.3.3.3.3.3.3.3.3.3.3.3.3.3.3.3.3.3.3.3.3.3.3.3.3.3.",
"3.3.3.3.3.3.3.3.3.3.3.3.3.3.3.3.3.3.3.3.3.3.3.3.3.3.3.3.3.3.3.3.3.3.3.3.3.3.3.3.3.3.3.3.3.3.3.3.",
"3.3.3.3.3.3.3.3.3.3.3.3.3.3.3.3.3.3.3.3.3.3.3.3.3.3.3.3.3.3.3.3.3.3.3.3.3.3.3.3.3.3.3.3.3.3.3.3.",
"3.3.3.3.3.3.3.3.3.3.3.3.3.3.3.3.3.3.3.3.3.3.3.3.3.3.3.3.3.3.3.3.3.3.3.3.3.3.3.3.3.3.3.3.3.3.3.3.",
"3.3.3.3.3.3.3.3.3.3.3.3.3.3.3.3.3.3.3.3.3.3.3.3.3.3.3.3.3.3.3.3.3.3.3.3.3.3.3.3.3.3.3.3.3.3.3.3.",
"3.3.3.3.3.3.3.3.3.3.3.3.3.3.3.3.3.3.3.3.3.3.3.3.3.3.3.3.3.3.3.3.3.3.3.3.3.3.3.3.3.3.3.3.3.3.3.3.",
"3.3.3.3.3.3.3.3.3.3.3.3.3.3.3.3.3.3.3.3.3.3.3.3.3.3.3.3.3.3.3.3.3.3.3.3.3.3.3.3.3.3.3.3.3.3.3.3.",
"3.3.3.3.3.3.3.3.3.3.3.3.3.3.3.3.3.3.3.3.3.3.3.3.3.3.3.3.3.3.3.3.3.3.3.3.3.3.3.3.3.3.3.3.3.3.3.3.",
"3.3.3.3.3.3.3.3.3.3.3.3.3.3.3.3.3.3.3.3.3.3.3.3.3.3.3.3.3.3.3.3.3.3.3.3.3.3.3.3.3.3.3.3.3.3.3.3.",
"3.3.3.3.3.3.3.3.3.3.3.3.3.3.3.3.3.3.3.3.3.3.3.3.3.3.3.3.3.3.3.3.3.3.3.3.3.3.3.3.3.3.3.3.3.3.3.3.",
"3.3.3.3.3.3.3.3.3.3.3.3.3.3.3.3.3.3.3.3.3.3.3.3.3.3.3.3.3.3.3.3.3.3.3.3.3.3.3.3.3.3.3.3.3.3.3.3.",
"3.3.3.3.3.3.3.3.3.3.3.3.3.3.3.3.3.3.3.3.3.3.3.3.3.3.3.3.3.3.3.3.3.3.3.3.3.3.3.3.3.3.3.3.3.3.3.3.",
"3.3.3.3.3.3.3.3.3.3.3.3.3.3.3.3.3.3.3.3.3.3.3.3.3.3.3.3.3.3.3.3.3.3.3.3.3.3.3.3.3.3.3.3.3.3.3.3.",
"3.3.3.3.3.3.3.3.3.3.3.3.3.3.3.3.3.3.3.3.3.3.3.3.3.3.3.3.3.3.3.3.3.3.3.3.3.3.3.3.3.3.3.3.3.3.3.3.",
"3.3.3.3.3.3.3.3.3.3.3.3.3.3.3.3.3.3.3.3.3.t t t i e e 3.3.3.3.3.3.3.3.3.3.3.3.3.3.3.3.3.3.3.3.3.",
"3.3.3.3.3.3.3.3.3.3.3.3.3.3.3.3.3.w t a N C C N h C A h f e w 3.3.3.3.3.3.3.3.3.3.3.3.3.3.3.3.3.",
"3.3.3.3.3.3.3.3.3.3.3.w e w e w r f N @.-.+.+.C C +.+.-.@.N f w w w w w t 3.3.3.3.3.3.3.3.3.3.3.",
"3.3.3.3.3.3.3.3.3.3.e p p p f d f r q s B B B c M B B B u 0 w f f f p a p t 3.3.3.3.3.3.3.3.3.3.",
"3.3.3.3.3.3.3.3.w p g p q r V V a f i * # X X X X X X # * i p f C N w q p f p w 3.3.3.3.3.3.3.3.",
"3.3.3.3.3.3.3.e N X.X.A i N +.O.V i w e t q q w w q w t w w e V X.X.N i A X.X.N w 3.3.3.3.3.3.3.",
"3.3.3.3.3.3.w h -.-.X.V g A -.-.V t g +.+.X.X.A A X.X.+.Z p i V -.-.F f N X.-.-.N w w 3.3.3.3.3.",
"3.3.3.3.w $ 0 h @.&.C a f O.&.-.N f +.-.:.*.@.N N @.=.:.-.O.f t #.*.X.f a g Z Z f w w w 3.3.3.3.",
"3.3.3.e q $ * i N o.C w i N F @.h d A +.=.;.$.h h *.;.*.+.C f & Z ..V i w D _ / R U c h i w 3.3.",
"3.3.w h h G [ { ] ` U w w p h F f p V V d a f e t f a a V C a & g h d t v  .2.| ] ` ) U a w w 3.",
"3.3.w p H <.>.{ ] ` ` D w i f f d p i t p p p p i p p p t t p q i f t D ] 2.2.{ ` ` ` ` U v 3.3.",
"3.3.w x } 1.>.` ^ ` ` ` S % w a p h f d a d f h h h d a a f h w i a 9 ( { { ^ , > 8 ! ` ` R 3.3.",
"3.3.z ' { ` 4 o o 7 ^ ` ` k & e f V f f f f f h f h h f h f V p w & 3 ] ] P o   . . 8 ` ` T 3.3.",
"3.w T ` ` 4 . .   o K ` ! : % y $.@.A C C A V h h h C C C C +.C w % = Q ] 4   . .   > ` ` T 3.3.",
"3.3.I ` ` >         6 n = % p C $.;.$.+.+.+...h h ..+.+.@.*.-.$.C h & = k 6 . . .   > ` ` T 3.3.",
"3.3.P ~ ^ , . .   . < u 9 i N X.+.*.@.$.@.+.X.V V +.O.@.$.+.*.+.O.F i 9 = S > .   O K ~ ^ D 3.3.",
"3.3.l Y W P >   . 4 1 9 w d ..*.$.O.O.O.O.O.O.N h +.X.X.X.O.O.$.*...d w 9 3 P 4 < K W W P w 3.3.",
"3.3.r L W W P 8 J W k & i f A *.$.O.O.O.O.X.X.V V X.O.X.O.O.O.&.*.F f e & 3 W ~ ~ W W P j w 3.3.",
"3.3.w j P P E W P W 2 @ w p h ..X.F O.O.X.O.X.V V +.X.+.X.O.....F h a w @ 3 E P P P W P u 3.3.3.",
"3.3.3.3.3.K K K K K 1 @ & t a h V f C F O.X.F h h F O.X.F C g h h p t & @ 1 K K K K 3.3.3.3.3.3.",
"3.3.3.3.3.3.3.3.3.3.3.3.@ & w i p e f f N V h f f h V V h f t p p w & @ 3.3.3.3.3.3.3.3.3.3.3.3.",
"3.3.3.3.3.3.3.3.3.3.3.3.3.@ & w w q e w e f f f h f d e w w w w w & @ 3.3.3.3.3.3.3.3.3.3.3.3.3.",
"3.3.3.3.3.3.3.3.3.3.3.3.3.3.@ & & q q w w e i p p t e w w w q & & @ 3.3.3.3.3.3.3.3.3.3.3.3.3.3.",
"3.3.3.3.3.3.3.3.3.3.3.3.3.3.3.3.$ % $ 9 w w w w w w w w 9 $ $ $ 3.3.3.3.3.3.3.3.3.3.3.3.3.3.3.3."
};
