/* XPM */
static char *result[] = {
/* columns rows colors chars-per-pixel */
"48 48 151 2 ",
"   c #000207",
".  c #010109",
"X  c #000808",
"o  c #061C02",
"O  c #091E07",
"+  c #041007",
"@  c #0A0A12",
"#  c #19191F",
"$  c #082002",
"%  c #072900",
"&  c #0C2C00",
"*  c #0C230E",
"=  c #0E3202",
"-  c #113504",
";  c #133B06",
":  c #12320A",
">  c #193F0D",
",  c #112510",
"<  c #142812",
"1  c #3D2107",
"2  c #3E220F",
"3  c #2C3717",
"4  c #373017",
"5  c #1C1C21",
"6  c #252529",
"7  c #2A2A2D",
"8  c #2F2F32",
"9  c #303034",
"0  c #3A3A3C",
"q  c #53161C",
"w  c #4F2105",
"e  c #4F252B",
"r  c #5D3822",
"t  c #58302E",
"y  c #154007",
"u  c #164208",
"i  c #18440A",
"p  c #1C4C0C",
"a  c #184A07",
"s  c #1F500E",
"d  c #1A4210",
"f  c #20520F",
"g  c #234B15",
"h  c #26481B",
"j  c #28481D",
"k  c #225411",
"l  c #255A13",
"z  c #295E16",
"x  c #2A561C",
"c  c #2C5C1C",
"v  c #2A6017",
"b  c #2D641A",
"n  c #2F681C",
"m  c #30631E",
"M  c #316A1D",
"N  c #264620",
"B  c #2C4A22",
"V  c #2D5220",
"C  c #35562A",
"Z  c #3D4939",
"A  c #3C5A36",
"S  c #356223",
"D  c #3A6224",
"F  c #356E21",
"G  c #3B6E2C",
"H  c #367122",
"J  c #3A7626",
"K  c #3C7827",
"L  c #3B7529",
"P  c #3E7A2A",
"I  c #3D6C30",
"U  c #414E3C",
"Y  c #41563B",
"T  c #46593F",
"R  c #624226",
"E  c #69552D",
"W  c #566F29",
"Q  c #447428",
"!  c #417E2D",
"~  c #57712B",
"^  c #45653A",
"/  c #467A36",
"(  c #487F37",
")  c #487339",
"_  c #726531",
"`  c #647A30",
"'  c #3E3E40",
"]  c #424244",
"[  c #444C41",
"{  c #4C4C4C",
"}  c #4E5C4A",
"|  c #475841",
" . c #515D4C",
".. c #535353",
"X. c #565B54",
"o. c #5C5C5C",
"O. c #585758",
"+. c #744C4B",
"@. c #466240",
"#. c #5D655B",
"$. c #60645E",
"%. c #636363",
"&. c #696A69",
"*. c #686D66",
"=. c #6D726B",
"-. c #687165",
";. c #737273",
":. c #797B79",
">. c #737A71",
",. c #863A03",
"<. c #993A00",
"1. c #943612",
"2. c #FF3A3A",
"3. c #9E4906",
"4. c #B04800",
"5. c #D57522",
"6. c #D9772E",
"7. c #D07A2E",
"8. c #E67724",
"9. c #42812F",
"0. c #458532",
"q. c #488534",
"w. c #498935",
"e. c #4D8C39",
"r. c #578534",
"t. c #518E3C",
"y. c #52903E",
"u. c #569442",
"i. c #5B9545",
"p. c #5B9947",
"a. c #5E9B4A",
"s. c #718F4E",
"d. c #619E4D",
"f. c #729C4F",
"g. c #698955",
"h. c #6A9A50",
"j. c #63A04F",
"k. c #66A252",
"l. c #788474",
"z. c #73AD60",
"x. c #82903E",
"c. c #849342",
"v. c #8C8C8C",
"b. c #868586",
"n. c #899087",
"m. c #908F91",
"M. c #979697",
"N. c #BB8784",
"B. c #D3AB9E",
"V. c #E9B5B1",
"C. c None",
/* pixels */
"C.C.C.C.C.C.C.C.C.C.C.C.C.C.C.C.C.C.C.C.C.C.C.C.C.C.C.C.C.C.C.C.C.C.C.C.C.C.C.C.C.C.C.C.C.C.C.C.",
"C.C.C.C.C.C.C.C.C.C.C.C.C.C.C.C.C.C.C.C.C.C.C.C.C.C.C.C.C.C.C.C.C.C.C.C.C.C.C.C.C.C.C.C.C.C.C.C.",
"C.C.C.C.C.C.C.C.C.C.C.C.C.C.C.C.C.C.C.p k v v v v v v k s C.C.C.C.C.C.C.C.C.C.C.C.C.C.C.C.C.C.C.",
"C.C.C.C.C.C.C.C.C.C.C.C.C.C.C.C.p l v ! w.0.0.H F 0.0.e.P v k p C.C.C.C.C.C.C.C.C.C.C.C.C.C.C.C.",
"C.C.C.C.C.C.C.C.C.C.C.C.C.C.C.p l P u.a.k.w.0.P P w.w.k.d.u.P l p C.C.C.C.C.C.C.C.C.C.C.C.C.C.C.",
"C.C.C.C.C.C.C.C.C.C.C.C.C.C.s v J w.k.k.k.w.0.w.w.q.w.k.k.j.w.J v p C.C.C.C.C.C.C.C.C.C.C.C.C.C.",
"C.C.C.C.C.C.C.C.C.C.C.C.C.p l z M K ! u.a.e.q.9.9.0.e.a.u.! K F z l p C.C.C.C.C.C.C.C.C.C.C.C.C.",
"C.C.C.C.C.C.C.C.C.C.C.C.p p k k l k v K 0.t.w.P P 0.t.0.J v k l l k p p C.C.C.C.C.C.C.C.C.C.C.C.",
"C.C.C.C.C.C.C.C.C.C.C.p z z M 0.0.0.0.9.K J 9.9.0.9.J J ! 0.q.9.H M v z p C.C.C.C.C.C.C.C.C.C.C.",
"C.C.C.C.C.C.C.C.C.C.p z M 0.G ~ x.s.c.` S m z f k z b S ` c.s.s.W G 0.n z p C.C.C.C.C.C.C.C.C.C.",
"C.C.C.C.C.C.C.C.C.C.p z H I 2 <.8.r 6.4.w z M ( q.n z w 4.6.r 8.<.2 I H z p C.C.C.C.C.C.C.C.C.C.",
"C.C.C.C.C.C.C.C.C.C.C.z H / 4 ,.5.R 7.3.1 m ( z.z.( m 1 3.5.R 5.,.4 / F z C.C.C.C.C.C.C.C.C.C.C.",
"C.C.C.C.C.C.C.C.C.C.C.f z J P Q r.h.f.Q M F < / / < F M Q f.h.r.Q P K z f C.C.C.C.C.C.C.C.C.C.C.",
"C.C.C.C.C.C.C.C.C.C.C.C.p p p p p l l M 9.9.( d.d.! 0.0.M l l f p p p p C.C.C.C.C.C.C.C.C.C.C.C.",
"C.C.C.C.C.C.C.C.C.C.C.C.C.C.C.C.& = > x D D c m c x C D V > - & C.C.C.C.C.C.C.C.C.C.C.C.C.C.C.C.",
"C.C.C.C.C.C.C.C.C.C.p ; = - s k : X g.V.N.+.  . . X +.N.V.g.o i k k - = ; p C.C.C.C.C.C.C.C.C.C.",
"C.C.C.C.C.C.C.C.p z M z p p H J c * _ 2.q e . . . . e q 2._ , v J H a i z M z p C.C.C.C.C.C.C.C.",
"C.C.C.C.C.C.C.p H 9.9.K f M w.w.J * 3 1.E B.t X X t B.E 1.3 d L w.w.M l K 9.0.H p C.C.C.C.C.C.C.",
"C.C.C.C.C.C.p M d.a.9.H M P d.a.L p u S Q i.i.u.u.i.i.Q S d c J a.a.! m H 9.d.a.M p C.C.C.C.C.C.",
"C.C.C.C.C.& u m t.y.J l n w.y.a.! F k O , N A ^ @.A N , $ k n 9.d.y.0.n l K y.y.M u & C.C.C.C.C.",
"C.C.C.C.; & - p M 9.J f f F ! e.q.F f i : $ o o o o $ : i k v w.e.9.H f s J 9.n p = & ; C.C.C.C.",
"C.C.C.p p p - - p M M p ; b M ! J n l p p p p a a p i p p k b L P M b ; p M M p - - p p p C.C.C.",
"C.C.C.s M J c i a l M l ; p b m n z p l l f p p p p k l l s l b M b f - l M x p i b L M p C.C.C.",
"C.C.p n 0.9.m l g g z l p ; p b p s v m n b z s s v b n b v s f v z u ; l z k g k c 0.9.n p C.C.",
"C.C.p M J ) -.=.*.$.| s p p i ; ; z H H H H n l l b F H H H z ; u p p p a ^ :.=.#.#.^ G M s C.C.",
"C.C.p l ) n.b.;.%.%.%.T p u : & ; b w.i.y.9.J M M J q.u.u.w.v ; & - ; p x l.M.:.%.$.%. .x p C.C.",
"C.C.p C >.m.v.%.o.%.%.%.Y = & & ; v 0.p.k.j.y.H H u.a.k.p.w.v ; & & C.$.-.v.m.&.o.%.%.%.#.A C.C.",
"C.C.V *.;.$.8 @ @ 0 o.%.%.X.% & ; v H 9.p.j.y.K J u.a.p.0.H v ; & % C.;.;.&.' @ @ 7 ..%.%.} C.C.",
"C.C. .%.%.8 . . . @ ' %.%.C.C.& ; f n H J J J J J J J J H b l ; & C.%.&.%.] X . . . 8 %.%. .C.C.",
"C.C.| %.%.# . . . . 9 %.o.C.C.C.= i f l b b n b n v n n l s u = C.C.C.%.%.9 . . .   # %.%.} C.C.",
"C.C.U O.o.6 . . . . 0 %...C.C.& - p b f f s p p p p p k k v p = & C.C.%.%.0 . . . . 6 o.%. .C.C.",
"C.C.j ....{ # . X 7 { ..{ C.C.- p H y.! M l l l l l l n 9.y.F p - C.C.O.O.{ 7 . . # { ..O.C C.C.",
"C.C.p [ ....{ ' ' { ..{ U C.C.& u m e.w.9.K M m b M K 9.e.t.m u & C.C.Z ......] ' { ....[ p C.C.",
"C.C.p B ..............Z h C.& - p f b J 9.9.H f f J 9.9.H b p p ; & C.g [ { ..........{ j p C.C.",
"C.C.C.g Z { { { { { Z g C.C.- p l l f l l l l p s k k z l s z l p - C.C.g Z { { { { { Z g C.C.C.",
"C.C.C.C.g h h h j j g C.C.& = p p n L H f f z f f v f f H J b p p - & C.C.g h h h h h g C.C.C.C.",
"C.C.C.C.C.C.C.C.C.C.C.C.C.C.& p p b 0.p.0.H H s f M H w.p.0.b p i & C.C.C.C.C.C.C.C.C.C.C.C.C.C.",
"C.C.C.C.C.C.C.C.C.C.C.C.C.& - ; p f z H K J n l z M J K H z f a u - & C.C.C.C.C.C.C.C.C.C.C.C.C.",
"C.C.C.C.C.C.C.C.C.C.C.& & - l z v v l s f k v M n v k f f l z b z l - & & C.C.C.C.C.C.C.C.C.C.C.",
"C.C.C.C.C.C.C.C.C.C.C.= p k H 0.K H b b b b n b b n b b b b H K 9.H l i - C.C.C.C.C.C.C.C.C.C.C.",
"C.C.C.C.C.C.C.C.C.C.C.u p v 9.u.i.w.J K J K J n n J K J J P w.u.u.9.v p u C.C.C.C.C.C.C.C.C.C.C.",
"C.C.C.C.C.C.C.C.C.C.& u f n ! u.j.d.u.w.w.w.9.M M 9.w.w.w.u.j.j.u.! n s u & C.C.C.C.C.C.C.C.C.C.",
"C.C.C.C.C.C.C.C.C.C.& & p l M 9.w.p.w.y.e.w.0.H H 0.0.e.y.w.p.w.9.M l p & & C.C.C.C.C.C.C.C.C.C.",
"C.C.C.C.C.C.C.C.C.C.C.& ; s z M K K 0.w.0.0.w.H H 0.w.0.w.0.J J M z k ; & C.C.C.C.C.C.C.C.C.C.C.",
"C.C.C.C.C.C.C.C.C.C.C.C.& ; p l b b H K w.9.K M M K 9.0.P H n b k p ; & C.C.C.C.C.C.C.C.C.C.C.C.",
"C.C.C.C.C.C.C.C.C.C.C.C.C.& ; p s p z v b M M b n M M b v l s p p ; & C.C.C.C.C.C.C.C.C.C.C.C.C.",
"C.C.C.C.C.C.C.C.C.C.C.C.C.C.& ; ; i p a p l M M b M z p p p p ; - = C.C.C.C.C.C.C.C.C.C.C.C.C.C.",
"C.C.C.C.C.C.C.C.C.C.C.C.C.C.C.C.& = - u a s f f f f s a ; = = & C.C.C.C.C.C.C.C.C.C.C.C.C.C.C.C."
};
