/* XPM */
static char *result[] = {
/* columns rows colors chars-per-pixel */
"48 48 111 2 ",
"   c #000006",
".  c #010109",
"X  c #071F02",
"o  c #081F02",
"O  c #0A0A12",
"+  c #19191F",
"@  c #082003",
"#  c #0C2C00",
"$  c #0E3202",
"%  c #113604",
"&  c #133B06",
"*  c #113108",
"=  c #1B3D11",
"-  c #1C1C21",
";  c #25252A",
":  c #2A2A2D",
">  c #2E2E31",
",  c #303034",
"<  c #373739",
"1  c #3A3A3D",
"2  c #154007",
"3  c #174209",
"4  c #194509",
"5  c #1C4C0C",
"6  c #1F510E",
"7  c #1D4211",
"8  c #20520F",
"9  c #224B14",
"0  c #24441E",
"q  c #29451F",
"w  c #26491B",
"e  c #284A1D",
"r  c #225411",
"t  c #255913",
"y  c #295E16",
"u  c #2A571B",
"i  c #2A591A",
"p  c #2A6017",
"a  c #2E651A",
"s  c #2F681B",
"d  c #316A1D",
"f  c #2B4920",
"g  c #33442D",
"h  c #364A2F",
"j  c #36562B",
"k  c #38552F",
"l  c #354331",
"z  c #374831",
"x  c #384A32",
"c  c #3F443D",
"v  c #3D4939",
"b  c #3F5737",
"n  c #356425",
"m  c #356E21",
"M  c #386A27",
"N  c #3B6E2A",
"B  c #367022",
"V  c #3A7626",
"C  c #3B7827",
"Z  c #3B7728",
"A  c #3E7A2A",
"S  c #3E6331",
"D  c #405738",
"F  c #435B3B",
"G  c #417F2D",
"H  c #416A33",
"J  c #3E3E40",
"K  c #424244",
"L  c #444B41",
"P  c #4C4C4C",
"I  c #485345",
"U  c #4E514D",
"Y  c #4E5B4B",
"T  c #515D4D",
"R  c #4F4F52",
"E  c #535353",
"W  c #575C55",
"Q  c #5C5C5C",
"!  c #4C6145",
"~  c #50644A",
"^  c #4F7D40",
"/  c #56774B",
"(  c #56784B",
")  c #5A6157",
"_  c #5F635E",
"`  c #61665F",
"'  c #605F60",
"]  c #646464",
"[  c #6B6C6B",
"{  c #757475",
"}  c #777976",
"|  c #787B77",
" . c #787879",
".. c #43812F",
"X. c #468632",
"o. c #4A8635",
"O. c #478833",
"+. c #498935",
"@. c #4E8D3A",
"#. c #518E3C",
"$. c #52903E",
"%. c #569342",
"&. c #599745",
"*. c #5B9847",
"=. c #5E9B49",
"-. c #619D4D",
";. c #67A353",
":. c #878687",
">. c #8D8D8D",
",. c #959694",
"<. c None",
/* pixels */
"<.<.<.<.<.<.<.<.<.<.<.<.<.<.<.<.<.<.<.<.<.<.<.<.<.<.<.<.<.<.<.<.<.<.<.<.<.<.<.<.<.<.<.<.<.<.<.<.",
"<.<.<.<.<.<.<.<.<.<.<.<.<.<.<.<.<.<.<.<.<.<.<.<.<.<.<.<.<.<.<.<.<.<.<.<.<.<.<.<.<.<.<.<.<.<.<.<.",
"<.<.<.<.<.<.<.<.<.<.<.<.<.<.<.<.<.<.<.<.<.<.<.<.<.<.<.<.<.<.<.<.<.<.<.<.<.<.<.<.<.<.<.<.<.<.<.<.",
"<.<.<.<.<.<.<.<.<.<.<.<.<.<.<.<.<.<.<.<.<.<.<.<.<.<.<.<.<.<.<.<.<.<.<.<.<.<.<.<.<.<.<.<.<.<.<.<.",
"<.<.<.<.<.<.<.<.<.<.<.<.<.<.<.<.<.<.<.<.<.<.<.<.<.<.<.<.<.<.<.<.<.<.<.<.<.<.<.<.<.<.<.<.<.<.<.<.",
"<.<.<.<.<.<.<.<.<.<.<.<.<.<.<.<.<.<.<.<.<.<.<.<.<.<.<.<.<.<.<.<.<.<.<.<.<.<.<.<.<.<.<.<.<.<.<.<.",
"<.<.<.<.<.<.<.<.<.<.<.<.<.<.<.<.<.<.<.<.<.<.<.<.<.<.<.<.<.<.<.<.<.<.<.<.<.<.<.<.<.<.<.<.<.<.<.<.",
"<.<.<.<.<.<.<.<.<.<.<.<.<.<.<.<.<.<.<.<.<.<.<.<.<.<.<.<.<.<.<.<.<.<.<.<.<.<.<.<.<.<.<.<.<.<.<.<.",
"<.<.<.<.<.<.<.<.<.<.<.<.<.<.<.<.<.<.<.<.<.<.<.<.<.<.<.<.<.<.<.<.<.<.<.<.<.<.<.<.<.<.<.<.<.<.<.<.",
"<.<.<.<.<.<.<.<.<.<.<.<.<.<.<.<.<.<.<.<.<.<.<.<.<.<.<.<.<.<.<.<.<.<.<.<.<.<.<.<.<.<.<.<.<.<.<.<.",
"<.<.<.<.<.<.<.<.<.<.<.<.<.<.<.<.<.<.<.<.<.<.<.<.<.<.<.<.<.<.<.<.<.<.<.<.<.<.<.<.<.<.<.<.<.<.<.<.",
"<.<.<.<.<.<.<.<.<.<.<.<.<.<.<.<.<.<.<.<.<.<.<.<.<.<.<.<.<.<.<.<.<.<.<.<.<.<.<.<.<.<.<.<.<.<.<.<.",
"<.<.<.<.<.<.<.<.<.<.<.<.<.<.<.<.<.<.<.<.<.<.<.<.<.<.<.<.<.<.<.<.<.<.<.<.<.<.<.<.<.<.<.<.<.<.<.<.",
"<.<.<.<.<.<.<.<.<.<.<.<.<.<.<.<.<.<.<.<.5 t t t t t t 5 <.<.<.<.<.<.<.<.<.<.<.<.<.<.<.<.<.<.<.<.",
"<.<.<.<.<.<.<.<.<.<.<.<.<.<.<.<.<.6 t m A A G m m G A A m t 6 <.<.<.<.<.<.<.<.<.<.<.<.<.<.<.<.<.",
"<.<.<.<.<.<.<.<.<.<.<.<.<.<.<.5 5 a Z %.=.@.+.m m +.@.*.%.Z a 5 5 <.<.<.<.<.<.<.<.<.<.<.<.<.<.<.",
"<.<.<.<.<.<.<.<.<.<.<.<.5 5 r t t r y Z ..$.O.G A X.@.X.Z p t t t r 5 5 <.<.<.<.<.<.<.<.<.<.<.<.",
"<.<.<.<.<.<.<.<.<.<.<.t t a Z G %.=.%.o...V d a a m m X.o.%.-.%.G Z a y t <.<.<.<.<.<.<.<.<.<.<.",
"<.<.<.<.<.<.<.<.<.<.<.y t t t t i r 9 Z +.O.#.%.&.@.X.+.V 9 9 i t t r a p <.<.<.<.<.<.<.<.<.<.<.",
"<.<.<.<.<.<.<.<.<.<.r t r r a a y 9 3 = 0 0 0 0 f 0 0 0 = 4 5 y a a r r t r <.<.<.<.<.<.<.<.<.<.",
"<.<.<.<.<.<.<.<.5 s m a 5 6 V A a p 6 3 * @ X X X X @ * & r r a Z Z 9 5 a B a 5 <.<.<.<.<.<.<.<.",
"<.<.<.<.<.<.<.r G @.o.A t V @.@.V r 5 5 5 5 5 5 5 5 5 5 5 5 6 V @.@.V t A X.@.X.r <.<.<.<.<.<.<.",
"<.<.<.<.<.<.5 B -.=.G m d ..-.=.C 6 6 t r r 5 5 5 5 r t t 5 6 B &.=.A m m A =.=.B 5 5 <.<.<.<.<.",
"<.<.<.<.5 $ % y X.@.V r p X.@.=.m 5 y s s a y 6 6 t a a d y 6 6 %.@.X.y t a n M u 9 6 6 5 5 <.<.",
"<.<.<.r 5 & f j H ^ N 6 6 a A +.d y m m B d d t r s m B d B p & N A s 6 5 ~ | [ _ ) S M t 5 <.<.",
"<.<.6 d B ( } } [ ] T 9 5 t d Z p p +.&.$...C d d C X.%.&.+.a & a d p 6 I :.,.| [ ] ] T u 5 <.<.",
"<.<.5 8 / ,.>.{ ] ] ] W 9 5 y a t p O.*.;.;.$.m m %.-.;.*.X.p & t p 5 ! { :.>.[ Q Q ] ] W D <.<.",
"<.<.5 F } :.} R P Q ' ] Y = 4 t 5 p B ..*.-.$.V V $.-.*.X.B p & r t 7 ] { [ K O O : E ] ] Y <.<.",
"<.<.k [ [ E -   . : W ] ] b 4 % & t a d C C V V C V C C d s t & $ 4 k ] ] K O       , ] ] Y <.<.",
"<.5 Y ] ] ;         J ] ] z $ # # 4 8 y a a a a a a a a t 8 3 $ # $ g ' ] >   .     + ] ] Y <.<.",
"<.<.I ' ] -         , ] Q l # # % 5 a 8 8 6 5 5 5 5 5 r 6 a 5 $ $ # P Q ] 1         ; Q ] T <.<.",
"<.<.P E Q > . .   O J Q E <.<.# & t ..C d t t 6 5 t t d C ..t 5 $ <.<.Q E R > .   - P E W k <.<.",
"<.<.f U E E : . O < E E P D <.# & y ..X...C d 8 8 d A ..O...t 3 # <.<.L R E R J J P E E L 5 <.<.",
"<.<.5 v E E E P P E E P h <.<.# 5 8 a V G ..B 8 8 B G G V p 8 5 % <.<.w D E E E E E E P q 5 <.<.",
"<.<.<.e P E E E E E P h <.<.<.* 8 5 8 d s a s 8 8 a a d p 6 6 8 % <.<.<.w v P P P P P v 9 <.<.<.",
"<.<.<.<.z P K P P P z <.<.<.$ 4 5 5 t d a a s 8 8 s a a t 8 5 5 4 # <.<.<.9 w w q w w w <.<.<.<.",
"<.<.<.<.<.<.<.<.<.<.<.<.<.<.% 5 5 t B d t t p 5 6 y t t d B t 5 5 & <.<.<.<.<.<.<.<.<.<.<.<.<.<.",
"<.<.<.<.<.<.<.<.<.<.<.<.<.# * 3 8 y 8 8 t t t t t t t t 8 8 t 8 & % # <.<.<.<.<.<.<.<.<.<.<.<.<.",
"<.<.<.<.<.<.<.<.<.<.<.# # & t y a d a y y p d d d s p p p a d a y t % # # <.<.<.<.<.<.<.<.<.<.<.",
"<.<.<.<.<.<.<.<.<.<.<.$ 4 t m ..O.X.B B m m d a a d m B B B O.O...B t 4 % <.<.<.<.<.<.<.<.<.<.<.",
"<.<.<.<.<.<.<.<.<.<.<.3 6 p ..%.=.=.$.X.O.X.G d d G X.X.O.$.=.=.%.G p 6 3 <.<.<.<.<.<.<.<.<.<.<.",
"<.<.<.<.<.<.<.<.<.<.# & 6 a G %.*.=.$.$.@.O.O.B B O.X.@.$.#.=.&.%.G a 6 2 # <.<.<.<.<.<.<.<.<.<.",
"<.<.<.<.<.<.<.<.<.<.# $ 5 t d ..X...O.O.O.O.O.m m O.X.+.+.X...X...d t 5 # # <.<.<.<.<.<.<.<.<.<.",
"<.<.<.<.<.<.<.<.<.<.<.# & 8 t d d s V ..X.X.G d d G O.X.G V s B d t r & # <.<.<.<.<.<.<.<.<.<.<.",
"<.<.<.<.<.<.<.<.<.<.<.<.# 2 5 t t 8 a s d B d a d d B d d p r t t 5 & # <.<.<.<.<.<.<.<.<.<.<.<.",
"<.<.<.<.<.<.<.<.<.<.<.<.<.# & 5 5 4 5 6 6 p s s a d p 6 5 5 5 4 5 & # <.<.<.<.<.<.<.<.<.<.<.<.<.",
"<.<.<.<.<.<.<.<.<.<.<.<.<.<.# & & 4 5 5 5 6 r t r t 6 5 5 5 5 % & $ <.<.<.<.<.<.<.<.<.<.<.<.<.<.",
"<.<.<.<.<.<.<.<.<.<.<.<.<.<.<.<.$ $ $ 2 5 5 5 5 5 5 5 5 2 $ % $ <.<.<.<.<.<.<.<.<.<.<.<.<.<.<.<."
};
