/* XPM */
static char *crate1695478288[] = {
/* columns rows colors chars-per-pixel */
"48 48 8 1 ",
"  c None",
". c #000008",
"X c #43130F",
"o c #5F1F17",
"O c #7B3323",
"+ c #974B33",
"@ c #C3734B",
"# c #DF8F5B",
/* pixels */
"                                                ",
"                                                ",
"                                                ",
"                                                ",
"                                                ",
"                                                ",
"                                                ",
"                                                ",
"                                                ",
"                                                ",
"                                                ",
"                                                ",
"           oooo    oooooooooooooooooo           ",
"          oXXXXooooXXXXoXXXXXXXXXXXXXo          ",
"         ooooooXXXXoooooooooooooooooooo         ",
"        oOOOOOOOOOOOOOOoOOOOOOOOOOOOOOOo        ",
"       o++++++@@##@@@@@o@@@@@@@@@+++++++o       ",
"      oooooooooooooooooooooooooooooooooooo      ",
"      o+@@+++++++++++++++++++++++++++++++o      ",
"      o+OOOOOOOOOOOOOOOOOOOOOOOOOOOOOOOO+o      ",
"      o+OOOOOOOOOOOOOOOOOOOO..OOOO...OOO+o      ",
"       o+OOOOOOOOOOOOOOOOOOOO.OOOOO.OOOO+o      ",
"       o+OOOOOOOOO.O...OOOOOO.OOOOO.OOOO+o      ",
"       o+OOOOOOOO..O.O.OOOO.....OO...OOO+o      ",
"       o+OOOOOOO.O.O.O.OOOO.....O.....OO+o      ",
"       o+OOOOOOO...O.O.OOOOO...OO.....OO+o      ",
"      o+OOOOOOOOOOOOOOOOOOOOOOOOOOOOOOO+o       ",
"      o+OO...OO..O.O...OOOOOOOOOOOOOOOO+o       ",
"      o+OOO..O.O.O.O..OOOOOOOOOOOOOOOOO+o       ",
"      o+OOOO.O.O.O.OOO.OOOOOOO....OOOOO+o       ",
"      o+OO...OO..O.O...OOOOOOO....OOOOO+o       ",
"      o+OOOOOOOOOOOOOOOOOOOOOO....OOOOO+o       ",
"      o+OO...O.O.O.OO.OOOOOOOO....OOOOOO+o      ",
"       o+O..OO.O...OO.OOOOO..........OOO+o      ",
"       o+OOO.O.O.O.OO.OOOOO..........OOO+o      ",
"       o+O...O.O.O.O...OOOOO........OOOO+o      ",
"       o+OOOOOOOOOOOOOOOOOOOO......OOOOO+o      ",
"      o+OOOOOOOOOOOOOOOOOOOOOO....OOOOOO+o      ",
"      o+OOOOOOOOOOOOOOOOOOOOOOO..OOOOOOO+o.     ",
"     .ooOOOOOOOOOOOOOOOOOOOOOOOOOOOOOOOOoo.     ",
"    ...oooooooooooooooooooooooooooooooooo....   ",
"    .........................................   ",
"      .....................................     ",
"        ................................        ",
"                                                ",
"                                                ",
"                                                ",
"                                                "
};
