/* XPM */
static char *d_table1695478289[] = {
/* columns rows colors chars-per-pixel */
"64 64 10 1 ",
"  c None",
". c #000008",
"X c gray20",
"o c #434343",
"O c #535353",
"+ c gray39",
"@ c #777777",
"# c gray53",
"$ c #979797",
"% c #A7A7A7",
/* pixels */
"                                                                ",
"                                                                ",
"                                                                ",
"                                                                ",
"                                                                ",
"                                                                ",
"                                                                ",
"                                                                ",
"                                                                ",
"                                                                ",
"                                                                ",
"                                                                ",
"                                                                ",
"                                                                ",
"                                                                ",
"                                                                ",
"                                                                ",
"                                                                ",
"                                                                ",
"                                                                ",
"                                                                ",
"                                                                ",
"                                                                ",
"                                                                ",
"                                                                ",
"                                                                ",
"                                                                ",
"                                                                ",
"                                                                ",
"                                                                ",
"                                                                ",
"                                                                ",
"                                                                ",
"                                                                ",
"                                                                ",
"                                                                ",
"            +++++++++++++++++++++++++++++++++++++++++++         ",
"           +@@@@@@@@@@@@@@@@@@@@@@@@@@@@@@@@@@@@@@@@@@++        ",
"          +#############################################+       ",
"         +##$$$$$$$$$$$$$$$$$$$$$$$$$$$$$$$$$$$$$$$$#####+      ",
"        +####$$$$$$$$$$$$$$$$$$$$$$$$$$$$$$$$$$$$$$$######+     ",
"        XXXXXXXoooooooooOOOOOOOOOOOOOOOOOOoooooooooXXXXXXXX     ",
"        XXXXXXXoooooooooOOOOOOOOOOOOOOOOOOoooooooooXXXXXXXX     ",
"        XXXXXXXXXXXXXXXXXXXXXXXXXXXXXXXXXXXXXXXXXXXXXXXXXXX     ",
"                            +++oooooo                           ",
"                            @++++++oo                           ",
"                            #@++++++o                           ",
"                            ##@+++++o                           ",
"                            ###@+++++                           ",
"                            ####@++++                           ",
"                            ##$##@+++                           ",
"                            ##%###@++                           ",
"                            ##%$###@+                           ",
"                            ##%%####@                           ",
"                            ##%%###@+                           ",
"                            ##%%###@o                           ",
"                            ##$%##@+o                           ",
"                     ##########$#@+o++++ooooo                   ",
"             .......#%%%%%%%%%$##oo+++++++oooo.......           ",
"            ........+###$%%%%%$##@+++++++ooooo........          ",
"            ........+++++@#####@++++++++++oooo........          ",
"            .........++++++++++++++++++++oooo.........          ",
"             ........................................           ",
"                .................................               "
};
