/* XPM */
static char *d_tree1695478289[] = {
/* columns rows colors chars-per-pixel */
"48 48 14 1 ",
"  c None",
". c #000008",
"X c #133B07",
"o c #5F1F17",
"O c #235B13",
"+ c #3B7727",
"@ c #434343",
"# c #535353",
"$ c gray39",
"% c #8B3F2B",
"& c #C3734B",
"* c #579343",
"= c #77B367",
"- c gray53",
/* pixels */
"                                                ",
"                                                ",
"                                                ",
"                      +******                   ",
"                    **=*++++*++                 ",
"                ***+=**++++++++++               ",
"               *****==*++++++++++               ",
"              **=*+**+=+++O+O+O++O              ",
"              ****+++***++OOOOOOOO              ",
"              +=***++++++++O++OOOO              ",
"            +**==++*+++++OOOOOOOOOXO            ",
"            ****=*+++OO++++OOOOOOOXXX           ",
"            **++**++OOO++OOOOOOOXOOXXX          ",
"            **++**++O+OOOOOOOOOOXOOXXX          ",
"           +****+++++OOOOOOOOXXXXXXXXX          ",
"           +*==****+++OOOOOOOOOXXXXXXX          ",
"           ++*==*++++++++OOOOOOXXXXXX           ",
"            +***+++++++O+++OOOOXXXXXX           ",
"             +**++++OO+OOOOOOOXOXXXXX           ",
"              +*++++OOOOOOOXXXXXXXX             ",
"               +**+OOOOOOOOOXXXXXXX             ",
"                +++OOOOOOOOOXXXXX               ",
"                ++++OOOOOOXOXXXXXX              ",
"                 +++++OOOXOXXXXXX               ",
"                  ++ OOOOXOXXXX                 ",
"                     oOOXXXXX#                  ",
"                     o&%oo###                   ",
"                     o&%oo##                    ",
"                      o&%%o#                    ",
"                      o&%oo#                    ",
"                      &o%oo#                    ",
"                      &%ooo#                    ",
"                      &%oo##                    ",
"                      &%%oo#                    ",
"                 @@$$$&%%%o#$$@@                ",
"               $@$$$$&%%o%oo#$$$$$              ",
"               $-$oo&&&%ooo###---$              ",
"               $----oo&%oooo#---@$              ",
"               .@@@@----------@@@.              ",
"               .$$@@@@@@@@@@@@@@@.              ",
"               .$$---$$$$$$$@@@@@.              ",
"               .$----$$$$$$$$@@@@.              ",
"               .$$---$$$$$$$@@@@@.              ",
"               .$----$$$$$$$@@@@@.              ",
"               .@$---$$$$$$$$@@@@.              ",
"                .@$$$$$$$$$@@@@@.               ",
"                 ....@@@@@@@....                ",
"                     .......                    "
};
