/* XPM */
static char *i_grenade1695478289[] = {
/* columns rows colors chars-per-pixel */
"32 32 13 1 ",
"  c None",
". c #000008",
"X c #133B07",
"o c #235B13",
"O c #2F671B",
"+ c #3B7727",
"@ c #535353",
"# c #478733",
"$ c #579343",
"% c #67A353",
"& c #77B367",
"* c gray53",
"= c #A7A7A7",
/* pixels */
"                                ",
"                                ",
"                                ",
"                                ",
"                                ",
"      @@@***===***@@            ",
"    @@@.............            ",
"   @@@.............             ",
"  @@....    @@...               ",
"  *@...    o@....######o##o     ",
"  *@..    oo@....&&%&&&o%&Oo    ",
"  *@.. ooooOOOOoO&%&&&&oO&#Ooo  ",
"  @@..ooOo$$#OOoO#&&&%%%o$$#Ooo ",
"  @@..O+#o$$$%%o%%&&&%%%o$$#+Oo ",
"  ....O+#$ooooooooooooooooo##+o ",
" &&&&&####o%%%$$o%%%%$$$o%#ooooX",
" &#####oo+o%%$$$o%%$$$$$o%%###oo",
" &ooooooX+o%#$$$o%$$$$$###%###oX",
" #ooooooX+o####$o%$$$$###o####oX",
" #ooooooX+o#####o#######Oo###+oX",
" #XXXXXXXOo+###Oo##OOOOOOo##+OoX",
"    oOOOOOoooOOOoooooooooo++oooo",
"    oOOOOo%##+oo%######+ooooOOoX",
"    Xooooo##++Oo###++++Oo#++ooX ",
"     Xoooo#+++Oo+#++++OoO++OooX ",
"     XXoooo++OOo++++OOOoO+OooX  ",
"    ...XXooOOooooOOOOOoOOOooX.  ",
"   ......XXooooooooooooOooXX... ",
"   ............................ ",
"     .........................  ",
"        ....................    ",
"                                "
};
