/* XPM */
static char *i_health1695478289[] = {
/* columns rows colors chars-per-pixel */
"32 32 15 1 ",
"  c None",
". c #000008",
"X c #133B07",
"o c #4F1713",
"O c #6B0000",
"+ c #6F2B1F",
"@ c #235B13",
"# c #3B7727",
"$ c #9B0000",
"% c #8B3F2B",
"& c #A7573B",
"* c #C3734B",
"= c #579343",
"- c #67A353",
"; c #DF8F5B",
/* pixels */
"                                ",
"                                ",
"                                ",
"                                ",
"                                ",
"                                ",
"                                ",
"                                ",
"                                ",
"                                ",
"                                ",
"                                ",
"         &&&&&&&&&&&&&&&&       ",
"        &****************&      ",
"       &***&&&&***;;;;;***&     ",
"      &*****;;;;;;;;;******&    ",
"     &***&&&***;;;*&&&&*****&   ",
"    &&&******************&&&&&  ",
"    ++%%%%&&&&%&&&&%%%&&&%%%+o  ",
"    +++%%%%%%%%%%%%%%%%%%%%++o  ",
"    ++++%%%%%%%%%%%%%%%%%++++o  ",
"   Xo++++++++++++++++++++OO++o  ",
"  @@@o$$$O$O==--=###@O$$$O@@@@@ ",
"  X@@@@@@@@##=-=###@@@#-#@@XX@@ ",
"   XXXX@@@#====##@@@X+++@@Xoo@X ",
"    ooo+X@@@@+++@@@X+%%+@oo++o  ",
"    o+++%%%%%%%@@XXXX%%%+++++o  ",
"   .o+++++%%%%%%%%%%%%+++++++o. ",
"  ...oo+++++++++++++++++++++o.. ",
"  ............................  ",
"    ........................    ",
"                                "
};
