/* XPM */
static char *cobrahit31695478007[] = {
/* columns rows colors chars-per-pixel */
"64 64 12 1 ",
"  c None",
". c #000008",
"X c #0B2B00",
"o c #1B4B0B",
"O c #2F671B",
"+ c #434343",
"@ c #535353",
"# c gray39",
"$ c #777777",
"% c #478733",
"& c #67A353",
"* c #979797",
/* pixels */
"                                                                ",
"                                                                ",
"                                                                ",
"                                                                ",
"                                                                ",
"                                                                ",
"                                                                ",
"                                                                ",
"                                                                ",
"                                                                ",
"                                                                ",
"                                                                ",
"                                                                ",
"                                                                ",
"                                                                ",
"                                                                ",
"                                                                ",
"                                                                ",
"                                                                ",
"                                                                ",
"                                                                ",
"                                                                ",
"                                                                ",
"                                                                ",
"                                                                ",
"                                                                ",
"                                                                ",
"                                                                ",
"                                                                ",
"                                                                ",
"                                                                ",
"                                                                ",
"                            oooooooo                            ",
"                         oooOOOOOOOOooo                         ",
"                      oooO%%%%%OO%%%%%Oooo                      ",
"              ooooooooo%%%&&%%%OO%%%&&%%%oooooooo               ",
"              oOOOOOOOOXXX%%%%%%%%%%%%XXXOOOOOOOOo              ",
"           oooOooXoOOOoOOo............oOOoOOOoXooOooo           ",
"          ooO%OOooO%%OOOooooXXXXXXXXoooooOO%%OooOO%Ooo          ",
"         oo%%%%%oO%%%%OooooooooooooooooooO%%%%Oo%%%%%oo         ",
"        oo%&&%%OOO%&&%Ooo%%%%%%%%%%%%%oooO%&&%OOO%%&&%ooo       ",
"       XoO%&&%OOO%%&&%oO%&&&%%%OO%%%&&&%OoO&&%%OOO%&&%Oooo      ",
"     ooXXoO%%%Ooo%%%&%oO%%&&&&%OO%&&&&%%Ooo&%%%ooOooooooooooo   ",
"    ooXXXooO%%OooOO%%%oOO%%&&&%OO%&&&%%OOoX%%OOooo$$$###OO%ooo  ",
"   oO%OO$$$$##ooooOO%%oO%%OooOOooOOooO%%OoX%OOOoo@**$$####oOoo  ",
"   oOOO*$$$####oooOOOOooooOOOooooooOOOooooXOOOoo@***$######ooo  ",
"   ooO***$######oooOOOOOOooooOOOOOOooooOOOXOOoo$$$**$########o  ",
"   oo$$**$#######XXoOoOOOOOOOOOOOOOOOOOOOOXOOoX$$$#+...+@####o  ",
"  oo$$$#+...+@####XoooOOOOOOOOOOOOOOOOOOOOoooX@$##+.....+####o  ",
"  o####+.....+####XXo%%%OOOOOOOOOOOOOOOO%%ooXX@###.......####o  ",
"  o####.......###XXoX%&%%%%%%%OOOO%%%%%%%%%XoXX###.......####o  ",
"  o@###.......#XXXoO%%&&&%%%%%%OO%%%%%%&&&%%%oXXX#.......####o  ",
"   @@##.......#XooOO%%%&%%&%%%%OO%%%%&%%&%%%%OooX@+.....+@@##o  ",
"   +@@@+.....+XoooO%%%%%%%%%%%%OO%%%%%%%%%%%%OoooX@+...+@@@@oo  ",
"   o@@@@+...+@XooOO%&&%%%%%%%%%OO%%%%%%%%%&&%OOooX@@@@@@@@@+oo  ",
"   o+@@@@@@@@@XooOO%%&%%%%%%%%%OO%%%%%%%%%&%%OOooX@@@@@@@@+oo   ",
"   oo@@@@@@@@@XXooOO%%%%%%%%%%%OO%%%%%%%%%%%OOooXX@@@@@@@@+o    ",
"      ++++++++XXooOOO%OO%%%%%%%OO%%%%%%%OO%OOOooXX+++++++       ",
"               XXoooOOOOOO%%%%OOOO%%%%OOOOOOoooXX               ",
"                XXoooOooOOOOOOOOOOOOOOOOooOoooXX                ",
"                 XXoooooooooOOOOOOOOoooooooooXX                 ",
"                  XXooXooooooOOOOOOooooooXooXX                  ",
"                    XXooooooooooooooooooooXX                    ",
"                     XXXXXooooooooooooXXXXX                     "
};
