/* XPM */
static char *cobrahit11695478007[] = {
/* columns rows colors chars-per-pixel */
"64 64 13 1 ",
"  c None",
". c #000008",
"X c #0B2B00",
"o c #1B4B0B",
"O c #2F671B",
"+ c #434343",
"@ c #535353",
"# c gray39",
"$ c #777777",
"% c #478733",
"& c #67A353",
"* c #8BC377",
"= c #979797",
/* pixels */
"                                                                ",
"                                                                ",
"                            oooooooo                            ",
"                         oooOOOOOOOOooo                         ",
"                      oooO%%%%%OO%%%%%Oooo                      ",
"                    ooo%%%&&%%%OO%%%&&%%%ooo                    ",
"                   ooOO%&&&&%%%%%%%%&&&&%OOoo                   ",
"                  ooOO%%&&&&%%%%%%%%&&&&%%OOoo                  ",
"                  oOOO%%%%&&%%%%%%%%&&%%%%OOOo                  ",
"                 oooooooo%%%&%%OO%%&%%%oooooooo                 ",
"               ooooOOOOOOOO%%%%%%%%%%OOOOOOOOoooo               ",
"              ooOOOO%%%%%%%OO%%%%%%OO%%%%%%OOOOOoo              ",
"              oOOO%%%&&*&&%%OOooooOO%%&&*&&%%%OOOo              ",
"              oOoooooooooO%%%%&&&&%%%%OooooooooOOo              ",
"              oOOOOOOOOXXX%%%%%%%%%%%%XXXOOOOOOOOo              ",
"              oOOOOOOOO.%%OO........OO%%.OOOOOOOOo              ",
"               oOOOOOOO.%%%..........%%%.OOOOOOOo               ",
"                ooOOOOO.O%%.O%%%%%%O.%%O.OOOOOoo                ",
"                 oXXXXo..O%%%%%%%%%%%%O.ooXXXXo                 ",
"                      XoXOO%%%%%%%%%%OOXOX                      ",
"             ooXXXoooo.OoX.O%&****&%O.XoOXooooXXXoo             ",
"           oooOooXoOOOoOOo............oOOoOOOoXooOooo           ",
"          ooO%OOooO%%OOOooooXXXXXXXXoooooOO%%OooOO%Ooo          ",
"         oo%%%%%oO%%%%OooooooooooooooooooO%%%%Oo%%%%%oo         ",
"        oo%&&%%OOO%&&%OooooooooooooooooooO%&&%OOO%%&&%ooo       ",
"       XoO%&&%OOO%%&&%OooOOOOooooooOOOOooOO&&%%OOO%&&%Oooo      ",
"     ooXXoO%%%Ooo%%%&%ooOOOOOOOooOOOOOOOooo&%%%ooOooooooooooo   ",
"    ooXXXooO%%OooOO%%%oOOOOOOOOooOOOOOOOOoX%%OOooo$$$###OO%ooo  ",
"   oO%OO$$$$##ooooOO%%oO%%%%%OOOOOO%%%%%OoX%OOOoo@==$$####oOoo  ",
"   oOOO=$$$####oooOOOOoO%&&&%%%OO%%%&&&%OoXOOOoo@===$######ooo  ",
"   ooO===$######oooOOOoO%%&&&&%OO%&&&&%%OoXOOoo$$$==$########o  ",
"   oo$$==$#######XXoOooOO%%&&&%OO%&&&%%OOoXOOoX$$$#+...+@####o  ",
"  oo$$$#+...+@####oooXoOOO%%%%%%%%%%%%OOOoXooo@$##+.....+####o  ",
"  o####+.....+####ooXXooOOOOOOOOOOOOOOOOooXXoo@###.......####o  ",
"  o####.......####XXXXXoooOOOOOOOOOOOOoooXXXXX@###.......####o  ",
"  o@###.......###@XXXXXoOooooooooooooooOoXXXX @###.......####o  ",
"   @@##.......##@@ XXXoO%OOOooooooooOOO%OooXX @#@@+.....+@@##o  ",
"   +@@@+.....+@@@+  XXoo%%%OOOOooOOOO%%%oooX   @@@@+...+@@@@oo  ",
"   o@@@@+...+@@@@+   Xoo%%%OOOOooOOOO%%%ooo    +@@@@@@@@@@@+oo  ",
"   o+@@@@@@@@@@@+o   Xo%&&%OOOOooOOOO%&&%oo    o@@@@@@@@@@+oo   ",
"   oo@@@@@@@@@@+o   XXoO%%%%%OOooOO%%%%%OoXX    o+@@@@@@@@+o    ",
"    o+@@@@@@@@+o    XoooOO%%%%OooO%%%%OOoooX     o++++++++o     ",
"     o++++++++o     XoOooOOOOOOooOOOOOOooOoX      oooooooo      ",
"      oooooooo      XXOOooooooooooooooooOOoX                    ",
"                   XXooooOOOOOOooOOOOOoooooXX                   ",
"                  XXoooooOOOOOOooOOOOOooooooXX                  ",
"                  XooooO%%OooOOooOOooO%%OooooX                  ",
"                  XXoooO%&&%OOOooOOO%&&%OoooXX                  ",
"                  XXoooOO%%%%%OooO%%%%%OOoooXX                  ",
"                  XXooooooOOOooooooOOOooooooXX                  ",
"                 XXoXoOOOooooOOOOOOooooOOOoXoXX                 ",
"               XXXoOOOOOOOOOOOOOOOOOOOOOOOOOOoXXX               ",
"               XooOO%%%%OOOOOOOOOOOOOOOO%%%%OOooX               ",
"              XoooO%%%&%%%%%%%OOOO%%%%%%%&%%%OoooX              ",
"              XooOO%&&&&&%%%%%%OO%%%%%%&&&&&%OOooX              ",
"              XooOO%%&%&%%&%%%%OO%%%%&%%&%&%%OOooX              ",
"              XXooOO%%%%%%%%%%%OO%%%%%%%%%%%OOooXX              ",
"              XXooOOO%OO%%%%%%%OO%%%%%%%OO%OOOooXX              ",
"               XXoooOOOOOO%%%%OOOO%%%%OOOOOOoooXX               ",
"                XXoooOooOOOOOOOOOOOOOOOOooOoooXX                ",
"                 XXoooooooooOOOOOOOOoooooooooXX                 ",
"                  XXooXooooooOOOOOOooooooXooXX                  ",
"                    XXooooooooooooooooooooXX                    ",
"                     XXXXXooooooooooooXXXXX                     "
};
