/* XPM */
static char *result[] = {
/* columns rows colors chars-per-pixel */
"32 32 90 1 ",
"  c #000006",
". c #05050C",
"X c #0C0C13",
"o c #1A1A1F",
"O c #0C2D00",
"+ c #0F280A",
"@ c #10290A",
"# c #0E3102",
"$ c #113604",
"% c #133B05",
"& c #15320C",
"* c #1B3D0F",
"= c #1B1B20",
"- c #2C2C2F",
"; c #333336",
": c #343438",
"> c #3A3A3C",
", c #174208",
"< c #19460A",
"1 c #1C4C0C",
"2 c #1F510E",
"3 c #204E0F",
"4 c #20520F",
"5 c #234D15",
"6 c #235512",
"7 c #265A14",
"8 c #295E16",
"9 c #275318",
"0 c #295A19",
"q c #2A6017",
"w c #2D641A",
"e c #31691D",
"r c #2F4A26",
"t c #32492B",
"y c #2F5223",
"u c #35562A",
"i c #3E4D39",
"p c #3F5737",
"a c #316220",
"s c #356E21",
"d c #367122",
"f c #3A7526",
"g c #3C752B",
"h c #3E7A2A",
"j c #404E3C",
"k c #405738",
"l c #43593C",
"z c #407D2C",
"x c #47623E",
"c c #427431",
"v c #457C33",
"b c #3E3E40",
"n c #414144",
"m c #4B4C4B",
"M c #465342",
"N c #495046",
"B c #4B5B46",
"V c #4C504B",
"C c #4F5D4A",
"Z c #50524F",
"A c #505C4C",
"S c #535353",
"D c #575B56",
"F c #575758",
"G c #5C5D5D",
"H c #506A46",
"J c #517246",
"K c #576751",
"L c #5A6157",
"P c #646364",
"I c #676668",
"U c #6C6D6C",
"Y c #717570",
"T c #757C73",
"R c #797979",
"E c #43822F",
"W c #458231",
"Q c #478833",
"! c #498835",
"~ c #4D8C39",
"^ c #518F3D",
"/ c #51903D",
"( c #569342",
") c #589644",
"_ c #5C9A48",
"` c #619E4D",
"' c #73876D",
"] c #848384",
"[ c #8D8C8D",
"{ c None",
/* pixels */
"{{{{{{{{{{{{{{{{{{{{{{{{{{{{{{{{",
"{{{{{{{{{{{{{{{{{{{{{{{{{{{{{{{{",
"{{{{{{{{{{{{{{{{{{{{{{{{{{{{{{{{",
"{{{{{{{{{{{{{{{{{{{{{{{{{{{{{{{{",
"{{{{{{{{{{{{{{{{{{{{{{{{{{{{{{{{",
"{{{{{{{{{{{{{{{{{{{{{{{{{{{{{{{{",
"{{{{{{{{{{{{{{{{{{{{{{{{{{{{{{{{",
"{{{{{{{{{{{{{{{{{{{{{{{{{{{{{{{{",
"{{{{{{{{{{{{{{{22{{{{{{{{{{{{{{{",
"{{{{{{{{{{{{wdfeefdq{{{{{{{{{{{{",
"{{{{{{{{{117f/~fh~/f711{{{{{{{{{",
"{{{{{{{67wfvvEEgfzEvvgw76{{{{{{{",
"{{{{{{{778w09ghvvgg90w787{{{{{{{",
"{{{{{4ww1ed71&+++@&16de1ww2{{{{{",
"{{{{2z~hw~~0<2<<<1117~~ef~c2{{{{",
"{{{#<W~ws^^77wq248w74v/ewcc722{{",
"{{79kHJ04dzqhzfqwdhh60f7uTULx01{",
"{{a']UPB57wq~`/ff(`~718uY[IGPAy{",
"{9KRS:SPM116d~/Eh(~s6<5AUbX=SIl{",
"{pIn. =GL*O,7wweeew7,O*DFX  ;Il{",
"{MG:  XFF&O1e722147e1#&GFo .>Gl{",
"{{ZmoX;Sm{O6zEs67shE6${VSm->SN5{",
"{{iSSmSmt{%4wff77ffw4%{{iZSSSt{{",
"{{rmmmNt{{,17we77ww42,#{{tttt{{{",
"{{{{{{{{{$<6w876678w6<${{{{{{{{{",
"{{{{{{{{#17w87qwwq78e7<#{{{{{{{{",
"{{{{{{{$1e!~hffeeffh~!s<${{{{{{{",
"{{{{{{{%4f__/~!ffQ~^_)f6%{{{{{{{",
"{{{{{{{#1whhEQQffQ!Ehhe1#{{{{{{{",
"{{{{{{{{$27qeffeeffe881${{{{{{{{",
"{{{{{{{{{$<,227ww721<<${{{{{{{{{",
"{{{{{{{{{{#$,<1221<,$#{{{{{{{{{{"
};
