/* XPM */
static char *result[] = {
/* columns rows colors chars-per-pixel */
"32 32 190 2 ",
"   c #000006",
".  c #060B0D",
"X  c #0B0B12",
"o  c #19191E",
"O  c #0D2E01",
"+  c #0E3102",
"@  c #123405",
"#  c #133C06",
"$  c #153909",
"%  c #1B1B20",
"&  c #353538",
"*  c #6A3A0A",
"=  c #43312F",
"-  c #164207",
";  c #174308",
":  c #19450A",
">  c #1C4C0C",
",  c #1F510E",
"<  c #1E4815",
"1  c #354005",
"2  c #20520F",
"3  c #224C14",
"4  c #344F11",
"5  c #225411",
"6  c #255913",
"7  c #295D16",
"8  c #2B5D1A",
"9  c #385818",
"0  c #324E0C",
"q  c #2A6017",
"w  c #2D641A",
"e  c #31691D",
"r  c #3E691F",
"t  c #2C4C25",
"y  c #334B2B",
"u  c #2D5A20",
"i  c #36572B",
"p  c #3F5737",
"a  c #3C4B37",
"s  c #356D21",
"d  c #3E6F25",
"f  c #3F6126",
"g  c #377123",
"h  c #3A7426",
"j  c #3C752B",
"k  c #3E7B2A",
"l  c #444818",
"z  c #43511C",
"x  c #46560C",
"c  c #62451D",
"v  c #45701F",
"b  c #486419",
"n  c #60620E",
"m  c #68661C",
"M  c #776617",
"N  c #70781D",
"B  c #4D4C24",
"V  c #465C23",
"C  c #445C3C",
"Z  c #495730",
"A  c #515B34",
"S  c #704C24",
"D  c #4C6126",
"F  c #536C28",
"G  c #44732A",
"H  c #407D2D",
"J  c #4C7C2E",
"K  c #427324",
"L  c #597828",
"P  c #49663C",
"I  c #457531",
"U  c #487A35",
"Y  c #527C30",
"T  c #5E7A31",
"R  c #64782E",
"E  c #717937",
"W  c #6C783A",
"Q  c #404042",
"!  c #454C43",
"~  c #4C4C4C",
"^  c #4C514B",
"/  c #525E4E",
"(  c gray33",
")  c #5B5B5B",
"_  c #555855",
"`  c #5C6359",
"'  c #636363",
"]  c #6C6B6C",
"[  c #767776",
"{  c #A3500E",
"}  c #8D6810",
"|  c #897213",
" . c #A17F1B",
".. c #965F2D",
"X. c #986F3F",
"o. c #877935",
"O. c #947029",
"+. c #B76621",
"@. c #A37F35",
"#. c #927D5A",
"$. c #B6736E",
"%. c #B57871",
"&. c #43812F",
"*. c #4A822F",
"=. c #458431",
"-. c #4A8635",
";. c #4A8936",
":. c #4E8C3A",
">. c #538D3C",
",. c #5D8B3A",
"<. c #5B8234",
"1. c #58903B",
"2. c #78802D",
"3. c #618E3F",
"4. c #6C8838",
"5. c #7A8937",
"6. c #79953D",
"7. c #4F8040",
"8. c #549240",
"9. c #5C9745",
"0. c #5E9B4A",
"q. c #588542",
"w. c #6C8740",
"e. c #798643",
"r. c #609C4B",
"t. c #679846",
"y. c #719D4A",
"u. c #7B9946",
"i. c #7EA34E",
"p. c #7AA654",
"a. c #9F8A2F",
"s. c #898233",
"d. c #92953D",
"f. c #87933C",
"g. c #AD8522",
"h. c #B88C32",
"j. c #A7873C",
"k. c #D59D2E",
"l. c #C7972B",
"z. c #DCA32F",
"x. c #D9A538",
"c. c #EBA22C",
"v. c #E5A939",
"b. c #888E45",
"n. c #829A44",
"m. c #8C9B46",
"M. c #8B9C4D",
"N. c #869446",
"B. c #909D4E",
"V. c #909449",
"C. c #9F9952",
"Z. c #9D8947",
"A. c #A29B45",
"S. c #8CA14A",
"D. c #92A54C",
"F. c #8AA859",
"G. c #95AD59",
"H. c #A6AA57",
"J. c #AAB45C",
"K. c #AFB153",
"L. c #B7B254",
"P. c #98B761",
"I. c #B2BA63",
"U. c #BCBC69",
"Y. c #ABBA63",
"T. c #D8B37C",
"R. c #E0AC63",
"E. c #B7C26B",
"W. c #F9C354",
"Q. c #F5C65A",
"!. c #CAC469",
"~. c #CAC871",
"^. c #D8C567",
"/. c #FAD269",
"(. c #FCDF7C",
"). c #FCE17F",
"_. c #8E8F8D",
"`. c #FCEA8C",
"'. c #FCEB93",
"]. c #FBEE98",
"[. c #FBF09B",
"{. c #FBF2A5",
"}. c #FCF4B3",
"|. c #FDF8C9",
" X c #FEFADC",
".X c #FDF8D2",
"XX c #FEFCEB",
"oX c #FFFFFD",
"OX c #FFFEF7",
"+X c None",
/* pixels */
"+X+X+X+X+X+X+X+X+X+X+X+X+X+X+X+X+X+X+X+X+X+X+X+X+X+X+X+X+X+X+X+X",
"+X+X+X+X+X+X+X+X+X+X+X+X+X+X+X+X+X+X+X+X+X+X+X+X+X+X+X+X+X+X+X+X",
"+X+X+X+X+X+X+X+X+X+X+X+X7 g j s K 3.S.!.+X+X+X+X+X+X+X+X+X+X+X+X",
"+X+X+X+X+X+X+X+X+X+X5 g 8.0.;.H &.:.0.p.Y.H.+X+X+X+X+X+X+X+X+X+X",
"+X+X+X+X+X+X+X+X+X, w k 1.r.;.=.*.;.9.p.E.~.r +X+X+X+X+X+X+X+X+X",
"+X+X+X+X+X+X+X+X> 5 q w g =.;.&.&.1.y.S.S.6.L b +X+X+X+X+X+X+X+X",
"+X+X+X+X+X+X+X5 w d J 1.1.h g s h <.5.f.1.J J d.F +X+X+X+X+X+X+X",
"+X+X+X+X+X+X+X6 j l { ..+.* w =.6.2.* +...{ B Y.B.+X+X+X+X+X+X+X",
"+X+X+X+X+X+X+X6 s f M E o.l u / q.R m j.Z.@.C.~.N.+X+X+X+X+X+X+X",
"+X+X+X+X+X+X+X> > , 5 u j q.I U U U w.D.B.b.b.4.5 +X+X+X+X+X+X+X",
"+X+X+X+X+X, q q > < 5 $ Z.%.= . X = $.T.e.7 8 T J j G +X+X+X+X+X",
"+X+X+X+X5 H :.k w H H < c S Z t t A #.R.4.H 8.u.D.r.F.5.+X+X+X+X",
"+X+X+XO > =.:.w s 8.8.w > < t P e.V.H.M.K >.r.p.K.t.P.N.@ +X+X+X",
"+X+X> # @ 5 g 6 5 H :.g , $ @ $ 3 4 9 5 g >.t.G.!.J.I.F # > +X+X",
"+X+X6 g 5 ; q 6 : w h w , > > > > > 6 8 s =.y.E.L.f.a.m K 6 +X+X",
"+X> s I C C P 5 : 5 7 5 5 6 , > > 2 d Y 4.u.J.^.k.x./.W.z.N > +X",
"+X, p ` ' [ _.P > : # 5 e e w 6 6 e e *.m.A.d.z.Q.`.[.'.(.v.n +X",
"+Xp ' ) Q & ] [ / @ O 6 ;.8.=.s e =.>.>.D.s.1 x.'.|. X.X}./. .+X",
"+XC ' Q .   % ' ] +XO 5 =.0.0.k H 0.9.>.K.e.} /.}.oXoXoX X`.v.+X",
"+XC ' &     X _ ' +X+ > w h k h h H *.u.!.D +XQ.{.XXoXOX|.`.l.+X",
"+Xy _ ~ o X & ( _ +X+ : 6 6 6 6 6 r 5.L.U.V +Xc.`.{.}.{.'.W.| +X",
"+X> a ( ~ ~ ( ~ y +X@ 7 =.s 6 6 6 q *.i.I.V.+X| v./.`.(.W.g.4 +X",
"+X+Xt ! ! ~ ! y +XO - 6 k &.k q q h *.,.J.V.@ +XM O.x.h.O.z +X+X",
"+X+X+X+X3 3 +X+X+X@ > 6 6 7 q 5 2 q q G <.H.z +X+X+Xx 4 +X+X+X+X",
"+X+X+X+X+X+X+X+X+XO : 7 =.j q 6 5 w j -.<.B.E +X+X+X+X+X+X+X+X+X",
"+X+X+X+X+X+X+X+X# , 5 5 w j g q q s j s Y m.J.H.+X+X+X+X+X+X+X+X",
"+X+X+X+X+X+X+X- 6 &.=.s 7 q w w w w q 7 g >.t.G.H.+X+X+X+X+X+X+X",
"+X+X+X+X+X+X+ : w ;.0.>.=.=.k e e k =.=.8.0.;.,.U.W +X+X+X+X+X+X",
"+X+X+X+X+X+X+X# 6 g ;.:.;.;.=.e e =.;.:.>.-.h J B.+X+X+X+X+X+X+X",
"+X+X+X+X+X+X+XO - 5 w g &.=.k e e k *.&.e w 7 L 5.+X+X+X+X+X+X+X",
"+X+X+X+X+X+X+X+X+ - > , q q e e w e q 6 2 > > D +X+X+X+X+X+X+X+X",
"+X+X+X+X+X+X+X+X+X+X+ # - , 6 q q 6 , ; # @ +X+X+X+X+X+X+X+X+X+X"
};
