/* XPM */
static char *result[] = {
/* columns rows colors chars-per-pixel */
"32 32 120 2 ",
"   c #000106",
".  c #04040C",
"X  c #071608",
"o  c #0B0B12",
"O  c #111210",
"+  c #19191E",
"@  c #210F17",
"#  c #0C2706",
"$  c #0C2E01",
"%  c #112E07",
"&  c #10290B",
"*  c #0E3102",
"=  c #113604",
"-  c #133B06",
";  c #113109",
":  c #183012",
">  c #173A11",
",  c #1B1B20",
"<  c #333336",
"1  c #343438",
"2  c #3A3A3E",
"3  c #613406",
"4  c #164207",
"5  c #174208",
"6  c #1A470B",
"7  c #1C4B0C",
"8  c #1F500E",
"9  c #1F4912",
"0  c #20520F",
"q  c #224C16",
"w  c #225412",
"e  c #255913",
"r  c #295E16",
"t  c #27521A",
"y  c #2A5F19",
"u  c #305E1E",
"i  c #2A6017",
"p  c #2D641A",
"a  c #2F681C",
"s  c #316A1E",
"d  c #2D4A23",
"f  c #324A2A",
"g  c #345823",
"h  c #325228",
"j  c #3A5C2E",
"k  c #3C4B37",
"l  c #3F4D3A",
"z  c #3E5436",
"x  c #3F5A36",
"c  c #316223",
"v  c #3F6227",
"b  c #346D21",
"n  c #3C6A21",
"m  c #396A2A",
"M  c #367123",
"N  c #397526",
"B  c #3C752A",
"V  c #3D7A2A",
"C  c #42451E",
"Z  c #4F551A",
"A  c #66401B",
"S  c #405738",
"D  c #445C3C",
"F  c #417D2D",
"G  c #44633A",
"H  c #49643F",
"J  c #457735",
"K  c #437A30",
"L  c #457638",
"P  c #547C32",
"I  c #7A6922",
"U  c #404043",
"Y  c #454C43",
"T  c #4C4C4C",
"R  c #4A5546",
"E  c #4A5D43",
"W  c #4D514B",
"Q  c #50524F",
"!  c #545354",
"~  c #555855",
"^  c #575758",
"/  c #5B5B5B",
"(  c #695956",
")  c #7C5F54",
"_  c #4C6943",
"`  c #576752",
"'  c #5C6359",
"]  c #605F60",
"[  c #646464",
"{  c #6B6C6B",
"}  c #747673",
"|  c #777678",
" . c #797979",
".. c #A24F0D",
"X. c #874229",
"o. c #97602D",
"O. c #8E7C31",
"+. c #837C3C",
"@. c #BA6823",
"#. c #A17C5E",
"$. c #BF5E63",
"%. c #43812F",
"&. c #458331",
"*. c #498635",
"=. c #4A8936",
"-. c #4E8C3A",
";. c #518F3D",
":. c #548044",
">. c #588343",
",. c #549240",
"<. c #589046",
"1. c #5E9C4A",
"2. c #609D4C",
"3. c #64A150",
"4. c #72856C",
"5. c #8B9E7E",
"6. c #838283",
"7. c #8E8F8D",
"8. c #EACAC5",
"9. c None",
/* pixels */
"9.9.9.9.9.9.9.9.9.9.9.9.9.e r r r r e 9.9.9.9.9.9.9.9.9.9.9.9.9.",
"9.9.9.9.9.9.9.9.9.9.9.i B -.&.V N &.-.B y 9.9.9.9.9.9.9.9.9.9.9.",
"9.9.9.9.9.9.9.9.9.8 i %.1.3.=.&.&.=.3.2.K i 8 9.9.9.9.9.9.9.9.9.",
"9.9.9.9.9.9.9.9.9.0 e s F ,.-.&.%.-.,.F s r w 9.9.9.9.9.9.9.9.9.",
"9.9.9.9.9.9.9.7 e i N V V V %.K %.F V V V M i e 8 9.9.9.9.9.9.9.",
"9.9.9.9.9.9.9.e b G I +.O.Z i a p i Z O.+.I v M e 9.9.9.9.9.9.9.",
"9.9.9.9.9.9.9.e n C ..o.@.3 p <.<.p 3 @.o...C B e 9.9.9.9.9.9.9.",
"9.9.9.9.9.9.9.9.r p K P P b c J L c n P P n c i 9.9.9.9.9.9.9.9.",
"9.9.9.9.9.9.9.9.9.= ; - e J B m m B L t - = = 9.9.9.9.9.9.9.9.9.",
"9.9.9.9.9.9.9.- * - ; X 7.8.(     ( 8.5.# 5 - $ - 9.9.9.9.9.9.9.",
"9.9.9.9.9.0 p r 6 p s > #.$.@     @ $.#.> b p 5 i p 8 9.9.9.9.9.",
"9.9.9.9.7 F ;.N p -.-.q A X.) O O ) X.A q -.-.a V -.V w 9.9.9.9.",
"9.9.9.$ 7 *.-.p b ;.,.s 9 g >.:.:.>.g q s ,.;.s p -.&.7 $ 9.9.9.",
"9.9.7 - = w N e w N %.M w # # : : & # 9 M %.N w e N w = - 6 9.9.",
"9.9.e b w 4 e r 5 e a r w e 8 6 6 8 e e r s i 5 e e 4 w M e 9.9.",
"9.8 b F _ E S e 6 6 7 w a s a e e a s a w 7 0 5 w H D D K b 8 9.",
"9.7 c 4.6.{ [ E q = % e =.;.%.s s %.,.=.e * - 7 G 7.| [ ' j q 9.",
"9.q ` | ! 1 ! [ R % $ w %.1.2.F V 2.1.%.w $ % { | { 2 U / [ x 9.",
"9.S { U .   , / [ 9.$ 8 a N F N V V V p 7 $ 9.{ [ ,   . U [ D 9.",
"9.z ] 1     o ^ / 9.$ 5 e e w e w w e e 5 $ 9.[ ~ o     1 [ D 9.",
"9.d Q T , o < ! T 9.= i *.s r e e e b *.p = 9.~ ! < o , T ~ f 9.",
"9.7 l ! Q T Q T f 9.- w B &.V i i V %.V w = 9.f T ! T Q ! k 7 9.",
"9.9.d Y Y Y Y f 9.* 6 e e r i 0 0 i e e e 7 = 9.f Y Y Y Y d 9.9.",
"9.9.9.9.q q 9.9.9.* 6 r &.N p e e p N &.r 6 * 9.9.9.q q 9.9.9.9.",
"9.9.9.9.9.9.9.9.9.$ - 0 b V N e e N V s 8 - $ 9.9.9.9.9.9.9.9.9.",
"9.9.9.9.9.9.9.9.9.- w w e w e i i e e e e q - 9.9.9.9.9.9.9.9.9.",
"9.9.9.9.9.9.9.9.4 e F &.M a p s s p s M %.%.e 4 9.9.9.9.9.9.9.9.",
"9.9.9.9.9.9.9.* 6 p =.1.,.*.&.N V %.=.;.1.=.p 6 * 9.9.9.9.9.9.9.",
"9.9.9.9.9.9.9.9.- e M =.-.=.=.N V =.-.-.=.M e - 9.9.9.9.9.9.9.9.",
"9.9.9.9.9.9.9.9.$ 5 w p M %.&.N N %.F M p w 5 $ 9.9.9.9.9.9.9.9.",
"9.9.9.9.9.9.9.9.9.$ 4 7 0 r i a a p e 0 7 5 $ 9.9.9.9.9.9.9.9.9.",
"9.9.9.9.9.9.9.9.9.9.9.* 4 4 8 p p 8 4 - * 9.9.9.9.9.9.9.9.9.9.9."
};
