/* XPM */
static char *result[] = {
/* columns rows colors chars-per-pixel */
"32 32 97 2 ",
"   c #000006",
".  c #05050C",
"X  c #0C0C13",
"o  c #1A1A1F",
"O  c #0C2E00",
"+  c #132F0D",
"@  c #0E3102",
"#  c #113504",
"$  c #133A05",
"%  c #16330C",
"&  c #163F08",
"*  c #1B3617",
"=  c #1C3C14",
"-  c #1D1D22",
";  c #2C2C2F",
":  c #333336",
">  c #363638",
",  c #3A3A3D",
"<  c #164007",
"1  c #174109",
"2  c #1A460A",
"3  c #1C4C0C",
"4  c #1F510E",
"5  c #1E4412",
"6  c #1E4810",
"7  c #20520F",
"8  c #214B14",
"9  c #24441D",
"0  c #274A1B",
"q  c #235512",
"w  c #255913",
"e  c #295E16",
"r  c #2A5B1A",
"t  c #2A6017",
"y  c #2D641A",
"u  c #30671E",
"i  c #316A1D",
"p  c #264421",
"a  c #2C4C24",
"s  c #304C26",
"d  c #33492C",
"f  c #2B5320",
"g  c #345429",
"h  c #395B2E",
"j  c #3C4B37",
"k  c #3F4B3B",
"l  c #3F5737",
"z  c #3E5C36",
"x  c #346D21",
"c  c #386D29",
"v  c #377123",
"b  c #3A7526",
"n  c #3C7529",
"m  c #3E7A2A",
"M  c #3F6233",
"N  c #42553C",
"B  c #44593D",
"V  c #417C2D",
"C  c #447C31",
"Z  c #404042",
"A  c #454C43",
"S  c #484F45",
"D  c #4B4B4C",
"F  c #4C514B",
"G  c #535253",
"H  c #565B55",
"J  c #585B57",
"K  c #5B5A5B",
"L  c #4C6644",
"P  c #4F6B46",
"I  c #4D7040",
"U  c #556550",
"Y  c #5D645B",
"T  c #636363",
"R  c #666A64",
"E  c #686D66",
"W  c #6C6C6D",
"Q  c #6D746B",
"!  c #777677",
"~  c #787778",
"^  c #7C7B7C",
"/  c #43812F",
"(  c #458331",
")  c #498536",
"_  c #478833",
"`  c #498935",
"'  c #4D8B39",
"]  c #508E3C",
"[  c #52923E",
"{  c #549240",
"}  c #589644",
"|  c #5D9B49",
" . c #609D4C",
".. c #64A150",
"X. c #858A83",
"o. c #908F90",
"O. c None",
/* pixels */
"O.O.O.O.O.O.O.O.O.O.O.O.O.O.O.O.O.O.O.O.O.O.O.O.O.O.O.O.O.O.O.O.",
"O.O.O.O.O.O.O.O.O.O.O.O.O.w e w e e w O.O.O.O.O.O.O.O.O.O.O.O.O.",
"O.O.O.O.O.O.O.O.O.O.3 e m ' ( m m ( ' m e 3 O.O.O.O.O.O.O.O.O.O.",
"O.O.O.O.O.O.O.O.O.4 e V  ...` ( ( ) .. .V y 3 O.O.O.O.O.O.O.O.O.",
"O.O.O.O.O.O.O.O.O.q e u V [ ' / / ' { m x e 4 O.O.O.O.O.O.O.O.O.",
"O.O.O.O.O.O.O.3 q y b V m m / V V V m m m x y w 3 O.O.O.O.O.O.O.",
"O.O.O.O.O.O.O.w e u c C V ( m C C m ( C C c y y w O.O.O.O.O.O.O.",
"O.O.O.O.O.O.O.w y y y 2 r c 9 p p 0 x r 5 y y y w O.O.O.O.O.O.O.",
"O.O.O.O.O.O.O.O.w e y = c f * 9 9 * f c = y e w O.O.O.O.O.O.O.O.",
"O.O.O.O.O.O.O.O.O.& $ + 5 n ` [ [ ` n 8 1 $ & O.O.O.O.O.O.O.O.O.",
"O.O.O.O.O.O.q 3 $ 7 q 8 3 + 0 B z a + 2 q w q # 3 q O.O.O.O.O.O.",
"O.O.O.O.O.r m v q V V t 3 1 $ # # # 1 3 w V m w v V y O.O.O.O.O.",
"O.O.O.O.4 ' { x i } [ e 7 w 7 3 3 q w 4 q ' { x x ' ` 4 2 O.O.O.",
"O.O.4 $ 8 n ) w t / ` w i i u w w y x i 4 c ( y w P L l r w 3 O.",
"O.O.y I W E Y g 4 u v t ` [ ( i x ( { ( w q i w U o.! T Y h 8 O.",
"O.3 M X.^ K T Y s 4 w w V |  .V m | | ( q 3 q S ~ W , Z Y T l O.",
"O.g E K - X > T J 5 $ 4 u b m b b m n u 3 $ 6 H T -   . Z T S O.",
"O.N T :     X J J # O 1 w w w q q w w q 1 O % J J X     : T B O.",
"O.S J , .   o G G O.O 4 b i w 4 4 w i b q $ O.J G : X - D H g O.",
"O.0 S G , ; D G N O.@ w [ m i w w i m [ e 2 O.O.D G D D G j 4 O.",
"O.O.d G G G G k O.O.# w m / m w w m / m q $ O.O.d A S A A a O.O.",
"O.O.O.d d d d O.O.O.$ q q t t 7 7 t t q q < O.O.O.O.0 8 O.O.O.O.",
"O.O.O.O.O.O.O.O.O.@ 1 3 e t y q q y t 7 4 2 @ O.O.O.O.O.O.O.O.O.",
"O.O.O.O.O.O.O.O.O.@ 3 w / m u w w u b ( w 2 @ O.O.O.O.O.O.O.O.O.",
"O.O.O.O.O.O.O.O.O.O 2 q u b i q q i b u q 2 @ O.O.O.O.O.O.O.O.O.",
"O.O.O.O.O.O.O.O.@ 3 w y e w t y y t w t y w 2 @ O.O.O.O.O.O.O.O.",
"O.O.O.O.O.O.O.$ 3 i ` ` m b b i i b b m ' _ v 3 $ O.O.O.O.O.O.O.",
"O.O.O.O.O.O.O.$ q b } | [ ' _ b b _ ` [ | } b q $ O.O.O.O.O.O.O.",
"O.O.O.O.O.O.O.@ 2 y m m / ` _ b b _ ` / m m u 2 @ O.O.O.O.O.O.O.",
"O.O.O.O.O.O.O.O.$ 3 t e i v b u i b b i w e 3 $ O.O.O.O.O.O.O.O.",
"O.O.O.O.O.O.O.O.O.$ 2 2 4 4 t y y w 4 3 2 2 # O.O.O.O.O.O.O.O.O.",
"O.O.O.O.O.O.O.O.O.O.@ $ < 2 3 3 4 4 2 < $ @ O.O.O.O.O.O.O.O.O.O."
};
