/* XPM */
static char *result[] = {
/* columns rows colors chars-per-pixel */
"32 32 114 2 ",
"   c #000106",
".  c #05050C",
"X  c #0C0C13",
"o  c #111210",
"O  c #1A1A1F",
"+  c #0C2E01",
"@  c #0F2B0A",
"#  c #112B0C",
"$  c #0D3102",
"%  c #103604",
"&  c #133B06",
"*  c #10300B",
"=  c #163F08",
"-  c #183012",
";  c #1A3F14",
":  c #1D1D22",
">  c #2C2C2F",
",  c #3B2828",
"<  c #343437",
"1  c #363638",
"2  c #3A3A3C",
"3  c #613406",
"4  c #663C1C",
"5  c #164107",
"6  c #174208",
"7  c #19460A",
"8  c #1C4C0C",
"9  c #1F510E",
"0  c #1E4711",
"q  c #1F4C15",
"w  c #20520F",
"e  c #224D14",
"r  c #225511",
"t  c #255A14",
"y  c #285E16",
"u  c #27521B",
"i  c #2A561B",
"p  c #2B5D1A",
"a  c #305E1E",
"s  c #2D641A",
"d  c #2F681B",
"f  c #31691E",
"g  c #304C26",
"h  c #33492C",
"j  c #2F5223",
"k  c #345823",
"l  c #345429",
"z  c #3F4B3B",
"x  c #316323",
"c  c #3F6227",
"v  c #346C21",
"b  c #3C6A21",
"n  c #3C6B29",
"m  c #367123",
"M  c #3A7526",
"N  c #3C762A",
"B  c #3D7A2A",
"V  c #3F6234",
"C  c #42451E",
"Z  c #4F551A",
"A  c #68411C",
"S  c #424E3E",
"D  c #415639",
"F  c #435A3C",
"G  c #417E2D",
"H  c #477435",
"J  c #447F30",
"K  c #547C32",
"L  c #7A6922",
"P  c #3E3E40",
"I  c #484F46",
"U  c #494849",
"Y  c #495046",
"T  c #4F5D4A",
"R  c #525252",
"E  c #5B5A5B",
"W  c #7B5E54",
"Q  c #4C6842",
"!  c #537A46",
"~  c #5A6157",
"^  c #5C625A",
"/  c #60615F",
"(  c #636263",
")  c #676B65",
"_  c #676668",
"`  c #6C6E6B",
"'  c #657360",
"]  c #6F766C",
"[  c #706F70",
"{  c #737C70",
"}  c #7B7B7C",
"|  c #A24F0D",
" . c #884229",
".. c #97602D",
"X. c #8E7C31",
"o. c #837C3C",
"O. c #BA6823",
"+. c #8F7758",
"@. c #8F7858",
"#. c #AF6A68",
"$. c #43812F",
"%. c #458431",
"&. c #4A8936",
"*. c #4D8B39",
"=. c #548044",
"-. c #588342",
";. c #559341",
":. c #599446",
">. c #5C9A48",
",. c #619E4D",
"<. c #64A150",
"1. c #848983",
"2. c gray55",
"3. c None",
/* pixels */
"3.3.3.3.3.3.3.3.3.3.3.3.3.3.3.3.3.3.3.3.3.3.3.3.3.3.3.3.3.3.3.3.",
"3.3.3.3.3.3.3.3.3.3.3.3.3.t y y y y t 3.3.3.3.3.3.3.3.3.3.3.3.3.",
"3.3.3.3.3.3.3.3.3.3.8 s N *.%.B N %.*.N y 8 3.3.3.3.3.3.3.3.3.3.",
"3.3.3.3.3.3.3.3.3.q y B ,.<.&.%.%.&.<.,.G s 8 3.3.3.3.3.3.3.3.3.",
"3.3.3.3.3.3.3.3.3.w y v G ;.*.$.$.*.;.G v y w 3.3.3.3.3.3.3.3.3.",
"3.3.3.3.3.3.3.8 t s M N B B G G G $.B B N v s t 8 3.3.3.3.3.3.3.",
"3.3.3.3.3.3.3.t m c L o.X.Z p d d s Z X.o.L c m t 3.3.3.3.3.3.3.",
"3.3.3.3.3.3.3.t M C | ..O.3 i :.:.i 3 O...| C M t 3.3.3.3.3.3.3.",
"3.3.3.3.3.3.3.3.y v H K K f x H H x b K K H v y 3.3.3.3.3.3.3.3.",
"3.3.3.3.3.3.3.3.3.& % $ u H H b n n H u % & & 3.3.3.3.3.3.3.3.3.",
"3.3.3.3.3.3.r 8 % w t @ @.#.,     , #.@.+ t w % 8 r 3.3.3.3.3.3.",
"3.3.3.3.3.s B m t B G ; 4  .W o o W  .4 e G B t m B s 3.3.3.3.3.",
"3.3.3.3.r *.;.m f ;.*.s e k -.=.=.-.k q d ;.;.v v ;.*.r 3.3.3.3.",
"3.3.3.+ & v $.t s %.*.M 8 # # - - # @ 8 v *.%.s y G v & $ 3.3.3.",
"3.3.9 r = 7 d t 7 s M s r 8 7 7 7 7 8 w d m f 7 t s 7 = t 8 3.3.",
"3.3.d G k u t t 7 9 y r y s y w 9 y d y r y t 6 t i u p G s 3.3.",
"3.9 v ! ] ) ~ l 8 6 % t M G m p s m G M r % 7 7 i { ` ~ Q x 9 3.",
"3.8 F 1.} E ( ^ g + + t *.,.;.G M ;.,.*.t + + F ' 2._ E ( T j 3.",
"3.l ) E : X < ( / 3.+ r m *.*.G $.*.*.m t + 3.[ ` P X : R _ F 3.",
"3.D ( <     X E ( 3.+ 7 t s f s f d d t 6 + 3.( E X     < ( F 3.",
"3.h E 2 .   : R R 3.$ e f y w w w w y d e % 3.( R :   . 2 ( D 3.",
"3.e Y R 2 > U R S 3.$ s *.G v s d f G *.y % 3.S R U > 1 R Y e 3.",
"3.3.h R R R R z 3.$ 6 w s m m t t v m s w 6 $ 3.S R R R R h 3.3.",
"3.3.3.h h h g 3.3.$ 7 s v y w w w t y v y 8 % 3.3.h h h h 3.3.3.",
"3.3.3.3.3.3.3.3.3.$ 7 t G %.m y t m %.J t 6 + 3.3.3.3.3.3.3.3.3.",
"3.3.3.3.3.3.3.3.$ 7 t t t p s s d s p t t t 8 $ 3.3.3.3.3.3.3.3.",
"3.3.3.3.3.3.3.& 7 m %.B f s f s d s d f N %.v 8 & 3.3.3.3.3.3.3.",
"3.3.3.3.3.3.3.& r M >.>.*.%.$.m m $.%.*.>.:.M r & 3.3.3.3.3.3.3.",
"3.3.3.3.3.3.3.$ 7 d G *.*.*.&.M M &.*.*.*.G d 8 $ 3.3.3.3.3.3.3.",
"3.3.3.3.3.3.3.3.& 7 y f M %.$.m m $.$.M f y 8 % 3.3.3.3.3.3.3.3.",
"3.3.3.3.3.3.3.3.3.& 7 9 t s d d d f s t 8 7 % 3.3.3.3.3.3.3.3.3.",
"3.3.3.3.3.3.3.3.3.3.$ $ 5 7 r t t w 7 & % $ 3.3.3.3.3.3.3.3.3.3."
};
