/* XPM */
static char *result[] = {
/* columns rows colors chars-per-pixel */
"32 32 113 2 ",
"   c #000006",
".  c #04040C",
"X  c #070E0E",
"o  c #0B0B12",
"O  c #19191E",
"+  c #0D2E01",
"@  c #0F2C0C",
"#  c #0E3202",
"$  c #113405",
"%  c #143C06",
"&  c #11320B",
"*  c #163F09",
"=  c #1A3F14",
"-  c #1B1B20",
";  c #333336",
":  c #343438",
">  c #3A3A3E",
",  c #643709",
"<  c #43312F",
"1  c #164207",
"2  c #174308",
"3  c #18450A",
"4  c #1C4C0C",
"5  c #1F510E",
"6  c #1D4415",
"7  c #1F4B15",
"8  c #20520F",
"9  c #224C14",
"0  c #225411",
"q  c #255913",
"w  c #285D16",
"e  c #2B5D1A",
"r  c #2A6017",
"t  c #2D641A",
"y  c #31691D",
"u  c #2C4C24",
"i  c #324A2A",
"p  c #2D5A20",
"a  c #325228",
"s  c #3A5C2E",
"d  c #3C4B37",
"f  c #3F4D3A",
"g  c #3E5436",
"h  c #3F5A36",
"j  c #316220",
"k  c #3F6126",
"l  c #346E21",
"z  c #377123",
"x  c #397426",
"c  c #3C742A",
"v  c #3E7A2A",
"b  c #3F6137",
"n  c #474C12",
"m  c #41441E",
"M  c #61431D",
"N  c #72621B",
"B  c #495730",
"V  c #405738",
"C  c #445C3C",
"Z  c #704C24",
"A  c #407228",
"S  c #407E2D",
"D  c #4D7A2D",
"F  c #45633B",
"G  c #49643F",
"H  c #457531",
"J  c #437C30",
"K  c #477838",
"L  c #517F30",
"P  c #404043",
"I  c #454C43",
"U  c #4C4C4C",
"Y  c #475343",
"T  c #4A5D43",
"R  c #4C514B",
"E  c #50524F",
"W  c #525E4E",
"Q  c #535354",
"!  c #555855",
"~  c #575758",
"^  c #5B5B5B",
"/  c #4C6943",
"(  c #576752",
")  c #5C6359",
"_  c #605F60",
"`  c #646464",
"'  c #6C6B6C",
"]  c #757774",
"[  c #777678",
"{  c #797979",
"}  c #A3500E",
"|  c #975F2D",
" . c #8E7931",
".. c #807939",
"X. c #B86721",
"o. c #927E5A",
"O. c #B6736E",
"+. c #43802F",
"@. c #458331",
"#. c #498635",
"$. c #4A8936",
"%. c #4D8C39",
"&. c #55883F",
"*. c #5E8A3B",
"=. c #608D3F",
"-. c #4F8040",
";. c #549240",
":. c #5F9C4B",
">. c #609D4C",
",. c #72856C",
"<. c #838283",
"1. c #8E8F8D",
"2. c None",
/* pixels */
"2.2.2.2.2.2.2.2.2.2.2.2.2.2.2.2.2.2.2.2.2.2.2.2.2.2.2.2.2.2.2.2.",
"2.2.2.2.2.2.2.2.2.2.2.2.2.2.2.2.2.2.2.2.2.2.2.2.2.2.2.2.2.2.2.2.",
"2.2.2.2.2.2.2.2.2.2.2.2.w l x y y x l e 2.2.2.2.2.2.2.2.2.2.2.2.",
"2.2.2.2.2.2.2.2.2.2.q z ;.>.%.S +.$.>.;.z 0 2.2.2.2.2.2.2.2.2.2.",
"2.2.2.2.2.2.2.2.2.8 t S %.>.%.@.@.%.>.;.S t 0 2.2.2.2.2.2.2.2.2.",
"2.2.2.2.2.2.2.2.5 8 w t x +.%.+.+.%.@.y t r 0 4 2.2.2.2.2.2.2.2.",
"2.2.2.2.2.2.2.0 y z #.=.*.A l l y l A *.*.D z t 0 2.2.2.2.2.2.2.",
"2.2.2.2.2.2.2.q x m } | X., t @.@.e , X.| } m c q 2.2.2.2.2.2.2.",
"2.2.2.2.2.2.2.q l k N N  .n p / / a n  .N N A l q 2.2.2.2.2.2.2.",
"2.2.2.2.2.2.2.4 4 8 p j c &.H K #.K ;.c j 9 9 4 4 2.2.2.2.2.2.2.",
"2.2.2.2.2.5 t r 4 7 0 @ o.O.: X X < O.o.= 0 5 3 t t 8 2.2.2.2.2.",
"2.2.2.2.5 v &.c t S v 6 M Z B u u B Z M 7 v S t x %.S 7 2.2.2.2.",
"2.2.2.+ 4 @.%.t l ;.;.r 3 6 u b b u 6 4 t %.;.l t %.@.4 + 2.2.2.",
"2.2.4 % $ 0 x q 0 +.%.x 7 2 % # # % 1 7 z %.@.q q x 0 # % 4 2.2.",
"2.2.q z 0 1 w q 3 t x t 5 4 4 4 4 4 4 5 t x t 3 q q 1 0 z q 2.2.",
"2.4 l J / T h q 3 5 r 5 0 q 5 4 4 0 q 8 8 w q 2 0 / C F H l 4 2.",
"2.4 j ,.<.' ` T 9 1 % 5 y l y q 0 t y y 8 % 3 4 F 1.[ ` ) s 8 2.",
"2.9 ( { Q : Q ` Y $ + q $.&.+.y l @.;.$.q + $ W [ ' > P _ _ h 2.",
"2.C ` P .   - ^ ` 2.# 0 +.:.>.v v :.:.S q + 2.' _ -   . P ` C 2.",
"2.g _ :     o Q ~ 2.# 5 t x v x x v v t 4 + 2.` ~ o     : ` C 2.",
"2.u E U - o ; Q U 2.# 3 q q q q q q q q 1 # 2.! Q ; o O U Q a 2.",
"2.4 f Q U U Q U i 2.# t @.z q q q q l #.t # 2.i U Q U U Q d 7 2.",
"2.2.u I I U I i 2.+ 1 q x +.v r r v @.v q 1 + 2.i I I U I u 2.2.",
"2.2.2.2.9 9 2.2.2.$ 4 q w w w 8 0 r q q q 4 # 2.2.2.9 9 2.2.2.2.",
"2.2.2.2.2.2.2.2.2.# 3 q @.c t q 0 t c @.q 4 + 2.2.2.2.2.2.2.2.2.",
"2.2.2.2.2.2.2.2.% 4 0 0 t v l r r z x t 0 8 9 % 2.2.2.2.2.2.2.2.",
"2.2.2.2.2.2.2.1 q +.@.z w r t y t t r r y @.S q 1 2.2.2.2.2.2.2.",
"2.2.2.2.2.2.# 3 t %.:.%.@.@.+.t y S @.#.;.:.%.t 3 # 2.2.2.2.2.2.",
"2.2.2.2.2.2.2.% w z #.%.%.$.@.y y +.$.%.%.$.x q % 2.2.2.2.2.2.2.",
"2.2.2.2.2.2.2.+ 2 8 t z S @.v y y v @.+.l t 8 1 + 2.2.2.2.2.2.2.",
"2.2.2.2.2.2.2.2.# 1 4 5 q t y t t y t w 8 4 1 # 2.2.2.2.2.2.2.2.",
"2.2.2.2.2.2.2.2.2.2.# 1 2 4 q t r q 4 1 % # 2.2.2.2.2.2.2.2.2.2."
};
