/* XPM */
static char *result[] = {
/* columns rows colors chars-per-pixel */
"32 32 234 2 ",
"   c #000006",
".  c #000007",
"X  c #04040C",
"o  c #05050C",
"O  c #0B0B12",
"+  c #0C0C13",
"@  c #0D0C14",
"#  c #0D0D14",
"$  c #17181C",
"%  c #19191E",
"&  c #0E3102",
"*  c #113704",
"=  c #123905",
"-  c #133A06",
";  c #153E07",
":  c #143309",
">  c #16380B",
",  c #163A0A",
"<  c #163B0A",
"1  c #1A3E0D",
"2  c #1A3E0E",
"3  c #233E1A",
"4  c #263F1D",
"5  c #1B1B20",
"6  c #1F1F24",
"7  c #2C2C30",
"8  c #2F3031",
"9  c #333336",
"0  c #333337",
"q  c #363638",
"w  c #38383B",
"e  c #3A3A3E",
"r  c #3C3C3F",
"t  c #194609",
"y  c #1A450D",
"u  c #1B460D",
"i  c #194909",
"p  c #1A4909",
"a  c #1A490A",
"s  c #1A4B0A",
"d  c #1B4B0A",
"f  c #1B4A0B",
"g  c #1B4B0B",
"h  c #1B480C",
"j  c #1D4A0E",
"k  c #1C4C0C",
"l  c #1C4D0C",
"z  c #1D4E0C",
"x  c #1D4E0D",
"c  c #1D4F0D",
"v  c #1E4D0E",
"b  c #1E4F0E",
"n  c #1F4F0E",
"m  c #1E500E",
"M  c #1F500E",
"N  c #1F510F",
"B  c #1F4512",
"V  c #20510F",
"C  c #20520F",
"Z  c #20540F",
"A  c #204C11",
"S  c #204D11",
"D  c #204E10",
"F  c #204F10",
"G  c #204E11",
"H  c #24401B",
"J  c #23451B",
"K  c #27401E",
"L  c #274A1B",
"P  c #25481D",
"I  c #284D1F",
"U  c #205110",
"Y  c #215310",
"T  c #235313",
"R  c #215410",
"E  c #235611",
"W  c #245613",
"Q  c #265417",
"!  c #265517",
"~  c #245813",
"^  c #255813",
"/  c #255913",
"(  c #255814",
")  c #265B14",
"_  c #265A15",
"`  c #275B15",
"'  c #275C15",
"]  c #275D15",
"[  c #285C15",
"{  c #285D15",
"}  c #285C16",
"|  c #285D16",
" . c #285E16",
".. c #295E16",
"X. c #295F16",
"o. c #295E17",
"O. c #295F17",
"+. c #2D5A1E",
"@. c #2B6119",
"#. c #2B6218",
"$. c #2B6219",
"%. c #2C611A",
"&. c #2C611B",
"*. c #2D631A",
"=. c #2D6419",
"-. c #2D641A",
";. c #2E651A",
":. c #2F671B",
">. c #2F671C",
",. c #2F671D",
"<. c #30691C",
"1. c #316A1D",
"2. c #326B1E",
"3. c #336C1F",
"4. c #304C26",
"5. c #325228",
"6. c #345529",
"7. c #35542A",
"8. c #395B2E",
"9. c #3C4B37",
"0. c #3A4D34",
"q. c #3F5737",
"w. c #3E5935",
"e. c #326921",
"r. c #336921",
"t. c #346E21",
"y. c #356F21",
"u. c #356924",
"i. c #367022",
"p. c #377123",
"a. c #387325",
"s. c #387026",
"d. c #397227",
"f. c #397426",
"g. c #3A7526",
"h. c #3A7626",
"j. c #3B7627",
"k. c #3B7727",
"l. c #3B7429",
"z. c #3C7728",
"x. c #3D702C",
"c. c #3C7928",
"v. c #3D7A29",
"b. c #3E7A2A",
"n. c #3E7B2A",
"m. c #3E7A2B",
"M. c #3F7C2B",
"N. c #3F792C",
"B. c #3F6233",
"V. c #42553C",
"C. c #44593D",
"Z. c #417E2D",
"A. c #404340",
"S. c #404042",
"D. c #434B42",
"F. c #444C43",
"G. c #464D43",
"H. c #454844",
"J. c #464944",
"K. c #474F45",
"L. c #49494A",
"P. c #4A4D49",
"I. c #4B4B4C",
"U. c #4C4C4C",
"Y. c gray30",
"T. c #4E4D4E",
"R. c #4E4E4E",
"E. c gray31",
"W. c gray32",
"Q. c #535353",
"!. c #535851",
"~. c #555855",
"^. c #585857",
"/. c #5C5B5D",
"(. c #5C5C5D",
"). c gray37",
"_. c #4C6644",
"`. c #4F6B46",
"'. c #4D7040",
"]. c #556550",
"[. c #5C645A",
"{. c #5E665B",
"}. c #5D615C",
"|. c #616061",
" X c #606260",
".X c #626162",
"XX c #636263",
"oX c #646364",
"OX c #656465",
"+X c #666566",
"@X c #666A64",
"#X c #686D66",
"$X c #6C6C6D",
"%X c #6D746B",
"&X c #777677",
"*X c #787778",
"=X c #7C7B7C",
"-X c #448230",
";X c #448330",
":X c #458331",
">X c #468431",
",X c #468532",
"<X c #478733",
"1X c #498136",
"2X c #498435",
"3X c #488634",
"4X c #498635",
"5X c #478833",
"6X c #488834",
"7X c #4A8936",
"8X c #4B8837",
"9X c #4A8A36",
"0X c #4D8839",
"qX c #4C8A38",
"wX c #4C8B38",
"eX c #4D8A39",
"rX c #4E8B3A",
"tX c #4C8C38",
"yX c #508C3C",
"uX c #508F3C",
"iX c #528F3E",
"pX c #54923F",
"aX c #549240",
"sX c #549340",
"dX c #559341",
"fX c #569442",
"gX c #569542",
"hX c #599646",
"jX c #5A9646",
"kX c #5B9747",
"lX c #5A9846",
"zX c #858A83",
"xX c #908F90",
"cX c None",
/* pixels */
"cXcXcXcXcXcXcXcXcXcXcXcXcXcXcXcXcXcXcXcXcXcXcXcXcXcXcXcXcXcXcXcX",
"cXcXcXcXcXcXcXcXcXcXcXcXcXcXcXcXcXcXcXcXcXcXcXcXcXcXcXcXcXcXcXcX",
"cXcXcXcXcXcXcXcXcXcXcXcXcXcXcXcXcXcXcXcXcXcXcXcXcXcXcXcXcXcXcXcX",
"cXcXcXcXcXcXcXcXcXcXcXcXcXcXcXcXcXcXcXcXcXcXcXcXcXcXcXcXcXcXcXcX",
"cXcXcXcXcXcXcXcXcXcXcXcXcXcXcXcXcXcXcXcXcXcXcXcXcXcXcXcXcXcXcXcX",
"cXcXcXcXcXcXcXcXcXcXcXcXcXcXcXcXcXcXcXcXcXcXcXcXcXcXcXcXcXcXcXcX",
"cXcXcXcXcXcXcXcXcXcXcXcXcXcXcXcXcXcXcXcXcXcXcXcXcXcXcXcXcXcXcXcX",
"cXcXcXcXcXcXcXcXcXcXcXcXcXcXcXcXcXcXcXcXcXcXcXcXcXcXcXcXcXcXcXcX",
"cXcXcXcXcXcXcXcXcXcXcXcXcXcXcXcXcXcXcXcXcXcXcXcXcXcXcXcXcXcXcXcX",
"cXcXcXcXcXcXcXcXcXcXcXcXcXcXcXcXcXcXcXcXcXcXcXcXcXcXcXcXcXcXcXcX",
"cXcXcXcXcXcXcXcXcXcXcXcXcXcXcXcXcXcXcXcXcXcXcXcXcXcXcXcXcXcXcXcX",
"cXcXcXcXcXcXcXcXcXcXcXcXcXcXcXcXcXcXcXcXcXcXcXcXcXcXcXcXcXcXcXcX",
"cXcXcXcXcXcXcXcXcXcXcXcXcXcXcXcXcXcXcXcXcXcXcXcXcXcXcXcXcXcXcXcX",
"cXcXcXcXcXcXcXcXcXcXcXcXcXcXcXcXcXcXcXcXcXcXcXcXcXcXcXcXcXcXcXcX",
"cXcXcXcXcXcXcXcXcXcXcXcXcXcXcXcXcXcXcXcXcXcXcXcXcXcXcXcXcXcXcXcX",
"cXcXcXcXcXcXcXcXcXcXcXcXcXcXcXcXcXcXcXcXcXcXcXcXcXcXcXcXcXcXcXcX",
"cXcXcXcXcXcXcXcXcXcXcXcXcX~ o.[ [ o.~ cXcXcXcXcXcXcXcXcXcXcXcXcX",
"cXcXcXcXcXcXcXcXC cXm ( e.8X<Xc.c.<X8Xr.( m cXC cXcXcXcXcXcXcXcX",
"cXcXcXcXcXcXY ~ V ..-.( S I P J J P I A W -...V / R cXcXcXcXcXcX",
"cXcXcXcXcX%.b.p.~ m.Z.O.b u < < < < y g ) Z.m.~ p.m.&.cXcXcXcXcX",
"cXcXcXcXN eXpXi.t.sXiXO.N.iX3Xv.v.3XyXs.] 0XdXt.y.rX2XZ i cXcXcX",
"cXcXM - B x.1X` @.-X4X@.:XhXkXj.j.kXjX>X^ u.:X$.Q `._.w.+.~ d cX",
"cXcX-.'.%X#X{.6.z :.p.` ,.*.%.^ ^ %.*.,.U T <.! ].xX&X+X[.8.D cX",
"cXs B.zX=X/.|.}.4.v  .#. .) X.=.=.X.) ..} F E C.*X$Xe S.). Xq.cX",
"cX7.@X(.6 + q XX!.> _ j.3.2.1.:.:.1.2.3.p.n , !..X5   X S.+XC.cX",
"cXV.oX0     # F.K h l.lXqX,X-Xi.i.-X,XqXaXd.G 4 D.@ .   9 OXC.cX",
"cXG.^.r o . $ 3 p t.7XuXtXwX6Xk.k.6XwXtXuXtXf.i H 8 O % L.~.5.cX",
"cXL K.W.w 7 A.2 E z.gX9X<X<X5Xj.j.5X<X<X9XfXk.E 1 P.I.E.Q.9.j cX",
"cXcX0.Y.Y.R.J.: f ;.M.n.;X<X6Xg.g.6X<X;Xn.M.;.f : H.Y.U.T.cXcXcX",
"cXcXcXcXcXcXcXcX* k | ' >.a.h.1.1.h.a.>.' | k * cXcXcXcXcXcXcXcX",
"cXcXcXcXcXcXcXcXcX* t t z c { =.=.{ c z t t * cXcXcXcXcXcXcXcXcX",
"cXcXcXcXcXcXcXcXcXcX& = ; a l x x l a ; = & cXcXcXcXcXcXcXcXcXcX"
};
