/* XPM */
static char *result[] = {
/* columns rows colors chars-per-pixel */
"32 32 149 2 ",
"   c #000106",
".  c #03020A",
"X  c #09060F",
"o  c #0B0B13",
"O  c #151912",
"+  c #1A1A1F",
"@  c #0C2E01",
"#  c #0F2D09",
"$  c #112D0C",
"%  c #0E3202",
"&  c #103604",
"*  c #133B06",
"=  c #15330D",
"-  c #163E09",
";  c #183E0F",
":  c #173211",
">  c #193614",
",  c #353E16",
"<  c #1D1D22",
"1  c #2C2C2F",
"2  c #312524",
"3  c #3D2129",
"4  c #2E2E31",
"5  c #323236",
"6  c #363638",
"7  c #39393C",
"8  c #641310",
"9  c #4E361C",
"0  c #613406",
"q  c #643709",
"w  c #164107",
"e  c #174209",
"r  c #19460A",
"t  c #1C4B0C",
"y  c #1F500E",
"u  c #1D4315",
"i  c #1F4C13",
"p  c #20520F",
"a  c #214D13",
"s  c #284F1B",
"d  c #254A1D",
"f  c #225511",
"g  c #265A14",
"h  c #285E16",
"j  c #27521B",
"k  c #295719",
"l  c #2B5F1A",
"z  c #305E1E",
"x  c #2D641A",
"c  c #2F681B",
"v  c #30671E",
"b  c #316A1E",
"n  c #2F4727",
"m  c #2E4925",
"M  c #314B27",
"N  c #334A2C",
"B  c #2E5A21",
"V  c #3E5E25",
"C  c #335329",
"Z  c #3A5C2E",
"A  c #3C4B37",
"S  c #3F4B3B",
"D  c #3F5737",
"F  c #336424",
"G  c #3F6227",
"H  c #346D21",
"J  c #396C22",
"K  c #39622F",
"L  c #3F6C29",
"P  c #367123",
"I  c #3A7526",
"U  c #3C7528",
"Y  c #3D7A2A",
"T  c #3F6234",
"R  c #494D14",
"E  c #41451E",
"W  c #4F551A",
"Q  c #4F5F1C",
"!  c #69431D",
"~  c #444C2C",
"^  c #41553A",
"/  c #44593D",
"(  c #416C21",
")  c #407228",
"_  c #417E2D",
"`  c #486231",
"'  c #45633B",
"]  c #457536",
"[  c #487132",
"{  c #447F30",
"}  c #48703B",
"|  c #587234",
" . c #547D33",
".. c #7A6922",
"X. c #6B7527",
"o. c #3F3F41",
"O. c #464945",
"+. c #484F46",
"@. c #4B4C4B",
"#. c #4D514C",
"$. c #535353",
"%. c #585C56",
"&. c #5B5A5B",
"*. c #7F5E55",
"=. c #576B43",
"-. c #4F7F40",
";. c #537A46",
":. c #5A6157",
">. c #5C625B",
",. c #636263",
"<. c #676B65",
"1. c #6B6C6B",
"2. c #6E746C",
"3. c #737473",
"4. c #7B7B7C",
"5. c #8F2E33",
"6. c #A14F0C",
"7. c #975F2D",
"8. c #95593C",
"9. c #97602D",
"0. c #8E7C31",
"q. c #837C3B",
"w. c #917A32",
"e. c #B86721",
"r. c #BA6823",
"t. c #857B5E",
"y. c #8F7858",
"u. c #AB6967",
"i. c #43812F",
"p. c #458431",
"a. c #488434",
"s. c #478833",
"d. c #4A8936",
"f. c #4C8439",
"g. c #4D8C39",
"h. c #508E3C",
"j. c #5B8939",
"k. c #52913E",
"l. c #588343",
"z. c #568345",
"x. c #559341",
"c. c #599346",
"v. c #5D9B49",
"b. c #609D4C",
"n. c #64A150",
"m. c #848F40",
"M. c #858D5E",
"N. c #888C88",
"B. c None",
/* pixels */
"B.B.B.B.B.B.B.B.B.B.B.B.B.t t y t B.B.B.B.B.B.B.B.B.B.B.B.B.B.B.",
"B.B.B.B.B.B.B.B.B.B.B.y g H I b g h f B.B.B.B.B.B.B.B.B.B.B.B.B.",
"B.B.B.B.B.B.B.B.B.i x Y k.b.d._ Y p.g.I h B.B.B.B.B.B.B.B.B.B.B.",
"B.B.B.B.B.B.B.B.B.p g I x.b.g.p.p.g.n.b._ h B.B.B.B.B.B.B.B.B.B.",
"B.B.B.B.B.B.B.t f x I H H a.g.{ i.g.x.{ v h p B.B.B.B.B.B.B.B.B.",
"B.B.B.B.B.B.B.g P V ..m.j.U H H Y i.Y Y Y v p t B.B.B.B.B.B.B.B.",
"B.B.B.B.B.B.B.g I E 6.7.e.q l Y H l W 0.q.X.H c f B.B.B.B.B.B.B.",
"B.B.B.B.B.B.B.B.g F ( | w.R B -.c.l 0 r.9.6.~ P g B.B.B.B.B.B.B.",
"B.B.B.B.B.B.B.B.B.* * i h I I f.] F J  .f.Q G b g B.B.B.B.B.B.B.",
"B.B.B.B.B.B.f t * f f # =.t.~ > K ( [ j * e r y B.B.B.B.B.B.B.B.",
"B.B.B.B.B.h U H g Y _ u 8.5.X     2 u.y.$ p a % B.B.B.B.B.B.B.B.",
"B.B.B.% * c i.x x x.x.u , 9 3     . 8 ! a i.U t h x B.B.B.B.B.B.",
"B.B.y f w r c f t _ g.P ; K M.M O *.` u x x.k.b I g.x B.B.B.B.B.",
"B.B.c Y F a k h r x U b t = K c.l.l.d r b g.p.b x h.g.f B.B.B.B.",
"B.t b ;.2.<.:.C t p h g f f r r : $ - f v U b f f U b * @ B.B.B.",
"B.t T N.4.&.,.>.m e * t c H x f t g x g f h f e g h e - t t B.B.",
"B.C <.&.< o 5 ,.%.= @ g d.k.i.b x P _ I f * r e f ' s l U f B.B.",
"B./ ,.5 .   o &.,.B.@ f _ v.b._ U c.b.g.f @ % a ' N.2.>.} H t B.",
"B.N %.7 .   + $.$.B.@ r v I _ I _ k.g.P f @ B.1.3.3.,.&.>.K a B.",
"B.a +.$.7 4 @.$.^ B.& r g g g g c c c g e @ B.1.,.< o < $.,.^ B.",
"B.B.A $.$.$.$.A B.B.& x a.b g p p p g b a & B.<.%.o     5 <./ B.",
"B.B.B.N N N N B.B.@ e g _ i._ x x b _ g.l & B.$.$.5 . . o.,./ B.",
"B.B.B.B.B.B.B.B.B.& t f g h x p f P P x p w % n @.$.4 7 $.$.C B.",
"B.B.B.B.B.B.B.B.B.@ r g i.I x f f f h H h t & B.N @.$.$.$.A t B.",
"B.B.B.B.B.B.B.B.B.& t f v I b g g P p.i.f r @ B.B.B.B.B.O.m B.B.",
"B.B.B.B.B.B.B.B.* h H b h g x x c x h g g g r % B.B.B.B.B.B.B.B.",
"B.B.B.B.B.B.B.* p I k.g._ U I b v v b b Y a.H t * B.B.B.B.B.B.B.",
"B.B.B.B.B.B.B.& p P h.v.h.g.s.I P i.i.g.v.c.U f * B.B.B.B.B.B.B.",
"B.B.B.B.B.B.B.@ e g b Y p.s.s.I I s.g.g.g._ c t % B.B.B.B.B.B.B.",
"B.B.B.B.B.B.B.B.@ w f h b I I b P i.i.I b h t & B.B.B.B.B.B.B.B.",
"B.B.B.B.B.B.B.B.B.B.* w t t g c c c x f t r & B.B.B.B.B.B.B.B.B.",
"B.B.B.B.B.B.B.B.B.B.B.@ % % w e p p r w & % B.B.B.B.B.B.B.B.B.B."
};
