/* XPM */
static char *result[] = {
/* columns rows colors chars-per-pixel */
"32 32 160 2 ",
"   c #000005",
".  c #000006",
"X  c #000007",
"o  c #010307",
"O  c #010607",
"+  c #030C06",
"@  c #000008",
"#  c #03030B",
"$  c #030808",
"%  c #041005",
"&  c #071606",
"*  c #0E0F14",
"=  c #111615",
"-  c #14141A",
";  c #0C2606",
":  c #0D2E02",
">  c #0E2D06",
",  c #0F3204",
"<  c #123805",
"1  c #123A05",
"2  c #143D06",
"3  c #153E07",
"4  c #13310A",
"5  c #16380D",
"6  c #193C0D",
"7  c #1C201F",
"8  c #1D251E",
"9  c #1B1B21",
"0  c #202026",
"q  c #232329",
"w  c #2A2C2D",
"e  c #2D2C32",
"r  c #313135",
"t  c #323237",
"y  c #333237",
"u  c #363B37",
"i  c #353D34",
"p  c #333338",
"a  c #393B3B",
"s  c #164008",
"d  c #184609",
"f  c #194609",
"g  c #18440A",
"h  c #19470A",
"j  c #1A460C",
"k  c #1A480A",
"l  c #1B480B",
"z  c #1A4A0A",
"x  c #1B4B0B",
"c  c #1B4A0C",
"v  c #1C480C",
"b  c #1C4A0C",
"n  c #1C4B0C",
"m  c #1D4B0D",
"M  c #1D4A0E",
"N  c #1E4A0F",
"B  c #1C4C0C",
"V  c #1D4D0C",
"C  c #1D4E0C",
"Z  c #1D4E0D",
"A  c #1E4F0D",
"S  c #1E4E0E",
"D  c #1E4F0E",
"F  c #1F510E",
"G  c #1F510F",
"H  c #1F4911",
"J  c #1E4A10",
"K  c #204E11",
"L  c #235611",
"P  c #235412",
"I  c #235512",
"U  c #245712",
"Y  c #255913",
"T  c #255A13",
"R  c #265A13",
"E  c #265A14",
"W  c #265B15",
"Q  c #275C15",
"!  c #285D15",
"~  c #285E16",
"^  c #295E16",
"/  c #2A5F17",
"(  c #2B501F",
")  c #2A5E19",
"_  c #2A6017",
"`  c #2B6117",
"'  c #2A6018",
"]  c #2B6018",
"[  c #2A6118",
"{  c #2B6118",
"}  c #2B6218",
"|  c #2C6218",
" . c #2C6318",
".. c #2C6219",
"X. c #2C6419",
"o. c #2D6419",
"O. c #2D6519",
"+. c #2D641B",
"@. c #2E651A",
"#. c #2E641B",
"$. c #2E661B",
"%. c #2F661B",
"&. c #2F671B",
"*. c #2F671C",
"=. c #2F681B",
"-. c #30671E",
";. c #30681C",
":. c #30691D",
">. c #31691D",
",. c #31691E",
"<. c #326C1E",
"1. c #336D1F",
"2. c #2B4721",
"3. c #365D29",
"4. c #3E5337",
"5. c #346A21",
"6. c #346B22",
"7. c #336C20",
"8. c #356E21",
"9. c #356F21",
"0. c #357021",
"q. c #367022",
"w. c #387224",
"e. c #387324",
"r. c #387325",
"t. c #397425",
"y. c #3A7426",
"u. c #3A7526",
"i. c #3A7427",
"p. c #3A7626",
"a. c #3B7627",
"s. c #3B7727",
"d. c #3C7729",
"f. c #3C7829",
"g. c #3F792B",
"h. c #3F7B2B",
"j. c #445E3B",
"k. c #417C2D",
"l. c #417F2D",
"z. c #474D46",
"x. c #475B40",
"c. c #50554F",
"v. c #504F52",
"b. c #555456",
"n. c #566252",
"m. c #448230",
"M. c #448330",
"N. c #458231",
"B. c #478132",
"V. c #478133",
"C. c #468233",
"Z. c #498935",
"A. c #498A35",
"S. c #4B8A37",
"D. c #4D8B39",
"F. c #4E8C3A",
"G. c #4E8D3A",
"H. c #559341",
"J. c #569342",
"K. c None",
/* pixels */
"K.K.K.K.K.K.K.K.K.K.K.K.K.K.K.K.K.K.K.K.K.K.K.K.K.K.K.K.K.K.K.K.",
"K.K.K.K.K.K.K.K.K.K.K.K.K.K.K.K.K.K.K.K.K.K.K.K.K.K.K.K.K.K.K.K.",
"K.K.K.K.K.K.K.K.K.K.K.K.K.K.K.K.K.K.K.K.K.K.K.K.K.K.K.K.K.K.K.K.",
"K.K.K.K.K.K.K.K.K.K.K.K.K.K.K.K.K.K.K.K.K.K.K.K.K.K.K.K.K.K.K.K.",
"K.K.K.K.K.K.K.K.K.K.K.K.K.K.K.K.K.K.K.K.K.K.K.K.K.K.K.K.K.K.K.K.",
"K.K.K.K.K.K.K.K.K.K.K.K.K.K.K.K.K.K.K.K.K.K.K.K.K.K.K.K.K.K.K.K.",
"K.K.K.K.K.K.K.K.K.K.K.K.K.K.K.K.K.K.K.K.K.K.K.K.K.K.K.K.K.K.K.K.",
"K.K.K.K.K.K.K.K.K.K.K.K.K.K.K.K.K.K.K.K.K.K.K.K.K.K.K.K.K.K.K.K.",
"K.K.K.K.K.K.K.K.K.K.K.K.K.K.K.K.K.K.K.K.K.K.K.K.K.K.K.K.K.K.K.K.",
"K.K.K.K.K.K.K.K.K.K.K.K.K.K.K.K.K.K.K.K.K.K.K.K.K.K.K.K.K.K.K.K.",
"K.K.K.K.K.K.K.K.K.K.K.K.K.K.K.K.K.K.K.K.K.K.K.K.K.K.K.K.K.K.K.K.",
"K.K.K.K.K.K.K.K.K.K.K.K.K.K.K.K.K.K.K.K.K.K.K.K.K.K.K.K.K.K.K.K.",
"K.K.K.K.K.K.K.K.K.K.K.K.K.K.K.K.K.K.K.K.K.K.K.K.K.K.K.K.K.K.K.K.",
"K.K.K.K.K.K.K.K.K.K.K.K.K.K.K.K.K.K.K.K.K.K.K.K.K.K.K.K.K.K.K.K.",
"K.K.K.K.K.K.K.K.K.K.K.K.K.K.K.K.K.K.K.K.K.K.K.K.K.K.K.K.K.K.K.K.",
"K.K.K.K.K.K.K.K.K.K.K.K.K.K.K.K.K.K.K.K.K.K.K.K.K.K.K.K.K.K.K.K.",
"K.K.K.K.K.K.K.K.K.K.K.K.K.K.K.K.K.K.K.K.K.K.K.K.K.K.K.K.K.K.K.K.",
"K.K.K.K.K.K.K.K.K.K.K.K.K.K.K.K.K.K.K.K.K.K.K.K.K.K.K.K.K.K.K.K.",
"K.K.K.K.K.K.K.K.K.K.K.K.K.K.K.K.K.K.K.K.K.K.K.K.K.K.K.K.K.K.K.K.",
"K.K.K.K.K.K.K.K.K.K.K.K.K.K.K.K.K.K.K.K.K.K.K.K.K.K.K.K.K.K.K.K.",
"K.K.K.K.K.K.K.K.K.K.K.K.K.K.K.K.K.K.K.K.K.K.K.K.K.K.K.K.K.K.K.K.",
"K.K.K.K.K.K.K.K.K.K.K.K.K.K.K.K.K.K.K.K.K.K.K.K.K.K.K.K.K.K.K.K.",
"K.K.K.K.K.K.K.K.K.K.K.K.K.x x x K.K.K.K.K.K.K.K.K.K.K.K.K.K.K.K.",
"K.K.K.K.K.K.K.z K.x x x x x x x x B V A A K.h K.K.K.K.K.K.K.K.K.",
"K.K.K.K.F E ! U ~ G x V A L A V Z R T | :...I _ Q G K.K.K.K.K.K.",
"K.K.K.b :.e.} { +.6.L $.a.h.r.r.d.8...Y 5.+.Q *.%...^ K.Q K.K.K.",
"K.M c L @.;. .[ W -.[ 9.k.V.w.w.B.g.1./ ) #.` ~  .O.=.O.X.3.K.K.",
"K.x.4.5 g g N n d S C.N.a.p.q.&.0.s.s.m.i.P v l J j K H j.n.( K.",
"K.e v.a u u z.2.k 7.F.J.S.A.M.1.l.Z.G.H.D.f.m 6 i = $ 7 b.c.K.K.",
"K.K.- r t y p 8 > D ' ] ,.t.u.>.<.a.y.>.' _ B 4 w q # 9 0 * K.K.",
"K.K.K.K.  . . X + , f f C A ! o.o.! A C f g ; O . K.K.K.K.K.K.K.",
"K.K.K.K.K.K.K.@ @ % : 1 2 2 3 s s 3 2 2 < & o K.K.K.K.K.K.K.K.K."
};
