/* XPM */
static char *result[] = {
/* columns rows colors chars-per-pixel */
"32 32 190 2 ",
"   c #000006",
".  c #060B0D",
"X  c #0B0B12",
"o  c #19191E",
"O  c #0D2E01",
"+  c #0E3102",
"@  c #123405",
"#  c #133C06",
"$  c #153909",
"%  c #1B1B20",
"&  c #353538",
"*  c #6A3A0A",
"=  c #43312F",
"-  c #164207",
";  c #174308",
":  c #19450A",
">  c #1C4C0C",
",  c #1F510E",
"<  c #1E4815",
"1  c #354005",
"2  c #20520F",
"3  c #224C14",
"4  c #344F11",
"5  c #225411",
"6  c #255913",
"7  c #295D16",
"8  c #2B5D1A",
"9  c #385818",
"0  c #324E0C",
"q  c #2A6017",
"w  c #2D641A",
"e  c #31691D",
"r  c #3E691F",
"t  c #2C4C25",
"y  c #334B2B",
"u  c #2D5A20",
"i  c #36572B",
"p  c #3F5737",
"a  c #3C4B37",
"s  c #356D21",
"d  c #3E6F25",
"f  c #3F6126",
"g  c #377123",
"h  c #3A7426",
"j  c #3C752B",
"k  c #3E7B2A",
"l  c #444818",
"z  c #43511C",
"x  c #46560C",
"c  c #62451D",
"v  c #45701F",
"b  c #486419",
"n  c #60620E",
"m  c #68661C",
"M  c #776617",
"N  c #70781D",
"B  c #4D4C24",
"V  c #465C23",
"C  c #445C3C",
"Z  c #495730",
"A  c #515B34",
"S  c #704C24",
"D  c #4C6126",
"F  c #536C28",
"G  c #44732A",
"H  c #407D2D",
"J  c #4C7C2E",
"K  c #427324",
"L  c #597828",
"P  c #49663C",
"I  c #457531",
"U  c #487A35",
"Y  c #527C30",
"T  c #5E7A31",
"R  c #64782E",
"E  c #717937",
"W  c #6C783A",
"Q  c #404042",
"!  c #454C43",
"~  c #4C4C4C",
"^  c #4C514B",
"/  c #525E4E",
"(  c gray33",
")  c #5B5B5B",
"_  c #555855",
"`  c #5C6359",
"'  c #636363",
"]  c #6C6B6C",
"[  c #767776",
"{  c #A3500E",
"}  c #8D6810",
"|  c #897213",
" . c #A17F1B",
".. c #965F2D",
"X. c #986F3F",
"o. c #877935",
"O. c #947029",
"+. c #B76621",
"@. c #A37F35",
"#. c #927D5A",
"$. c #B6736E",
"%. c #B57871",
"&. c #43812F",
"*. c #4A822F",
"=. c #458431",
"-. c #4A8635",
";. c #4A8936",
":. c #4E8C3A",
">. c #538D3C",
",. c #5D8B3A",
"<. c #5B8234",
"1. c #58903B",
"2. c #78802D",
"3. c #618E3F",
"4. c #6C8838",
"5. c #7A8937",
"6. c #79953D",
"7. c #4F8040",
"8. c #549240",
"9. c #5C9745",
"0. c #5E9B4A",
"q. c #588542",
"w. c #6C8740",
"e. c #798643",
"r. c #609C4B",
"t. c #679846",
"y. c #719D4A",
"u. c #7B9946",
"i. c #7EA34E",
"p. c #7AA654",
"a. c #9F8A2F",
"s. c #898233",
"d. c #92953D",
"f. c #87933C",
"g. c #AD8522",
"h. c #B88C32",
"j. c #A7873C",
"k. c #D59D2E",
"l. c #C7972B",
"z. c #DCA32F",
"x. c #D9A538",
"c. c #EBA22C",
"v. c #E5A939",
"b. c #888E45",
"n. c #829A44",
"m. c #8C9B46",
"M. c #8B9C4D",
"N. c #869446",
"B. c #909D4E",
"V. c #909449",
"C. c #9F9952",
"Z. c #9D8947",
"A. c #A29B45",
"S. c #8CA14A",
"D. c #92A54C",
"F. c #8AA859",
"G. c #95AD59",
"H. c #A6AA57",
"J. c #AAB45C",
"K. c #AFB153",
"L. c #B7B254",
"P. c #98B761",
"I. c #B2BA63",
"U. c #BCBC69",
"Y. c #ABBA63",
"T. c #D8B37C",
"R. c #E0AC63",
"E. c #B7C26B",
"W. c #F9C354",
"Q. c #F5C65A",
"!. c #CAC469",
"~. c #CAC871",
"^. c #D8C567",
"/. c #FAD269",
"(. c #FCDF7C",
"). c #FCE17F",
"_. c #8E8F8D",
"`. c #FCEA8C",
"'. c #FCEB93",
"]. c #FBEE98",
"[. c #FBF09B",
"{. c #FBF2A5",
"}. c #FCF4B3",
"|. c #FDF8C9",
" X c #FEFADC",
".X c #FDF8D2",
"XX c #FEFCEB",
"oX c #FFFFFD",
"OX c #FFFEF7",
"+X c None",
/* pixels */
"+X+X+X+X+X+X+X+X+X+X+X+X+X+X+X+X+X+X+X+X+X+X+X+X+X+X+X+X+X+X+X+X",
"+X+X+X+X+X+X+X+X+X+X+X+X+X+X+X+X+X+X+X+X+X+X+X+X+X+X+X+X+X+X+X+X",
"+X+X+X+X+X+X+X+X+X+X+X+X!.S.3.K e h s 7 +X+X+X+X+X+X+X+X+X+X+X+X",
"+X+X+X+X+X+X+X+X+X+XH.Y.p.0.:.&.H :.r.8.g 5 +X+X+X+X+X+X+X+X+X+X",
"+X+X+X+X+X+X+X+X+Xb ~.E.y.9.;.*.=.:.0.8.k w 2 +X+X+X+X+X+X+X+X+X",
"+X+X+X+X+X+X+X+Xb L u.M.i.i.1.&.&.:.=.s w 7 5 > +X+X+X+X+X+X+X+X",
"+X+X+X+X+X+X+XF d.*.*.4.f.5.<.v s s G ,.q.J g w 5 +X+X+X+X+X+X+X",
"+X+X+X+X+X+X+XM.L.z { ..+.c E 6.H 8 * +...{ l j 6 +X+X+X+X+X+X+X",
"+X+X+X+X+X+X+XN.~.C.@.Z.j.m R q.7.u l o.E m f s 6 +X+X+X+X+X+X+X",
"+X+X+X+X+X+X+X5 4.b.N.B.F.w.U U U I ,.j 8 , , > > +X+X+X+X+X+X+X",
"+X+X+X+X+XG G J T 8 8 5.T.$.= . X = $.#.$ 5 , > w w , +X+X+X+X+X",
"+X+X+X+X5.F.9.D.u.8.j w.R.#.A t t Z S c < U H w j :.k 2 +X+X+X+X",
"+X+X+X@ N.P.t.K.i.r.8.d M.H.m.e.P t 3 > w 1.8.s w :.=.> O +X+X+X",
"+X+X: # F I.J.!.G.r.:.g 5 9 4 0 # @ # , g :.&.5 6 h 5 + # > +X+X",
"+X+X6 v m a.f.L.U.y.U s 7 5 > : > > > 5 w h w ; 6 7 - 2 g 6 +X+X",
"+X, N z.Q./.x.z.^.Y.u.4.Y h 5 > > 5 5 5 , q 6 ; , / C P I s > +X",
"+Xn v.(.'.].'.Q.k.d.A.N.*.s e 6 5 w e e 2 # : > P _.[ ' ' i 5 +X",
"+X ./.}..X X|.'.v.1 s.D.>.>.&.e s =.8.;.6 O @ / [ ] & Q ) ' p +X",
"+Xv.`. XoXoXoX}./.} 5.L.>.1.0.H k 0.0.&.6 O +X] ) %   . Q ' C +X",
"+Xl.`.|.OXoXXX{.W.+XD U.i.*.&.h k k j w > O +X' ) X     & ' C +X",
"+X| W.].{.}.{.(.c.+XV U.L.5.r 5 6 5 6 6 ; + +X_ ( & X % ~ _ y +X",
"+X4 g.W.(.`./.v.| +XV.I.i.J w 6 6 6 s =.w @ +Xy ~ ( ~ ~ ( a > +X",
"+X+Xz O.h.x.@.M +X@ V.J.,.=.k q w k &.k 5 - O +Xy ! ~ ! ! t +X+X",
"+X+X+X+X0 x +X+X+XV H.T K q 7 2 2 7 7 6 6 > @ +X+X+X3 3 +X+X+X+X",
"+X+X+X+X+X+X+X+X+XE B.<.-.j w 6 5 w j =.7 : + +X+X+X+X+X+X+X+X+X",
"+X+X+X+X+X+X+X+XH.K.M.U s h s q q s j w 5 5 , # +X+X+X+X+X+X+X+X",
"+X+X+X+X+X+X+XH.G.t.>.h 7 7 w w e w w 7 e =.H 6 - +X+X+X+X+X+X+X",
"+X+X+X+X+X+XW U.,.;.0.>.-.=.H e e k =.=.8.0.:.w : + +X+X+X+X+X+X",
"+X+X+X+X+X+X+XB.J g ;.:.:.;.=.e e &.;.:.:.-.g 6 # +X+X+X+X+X+X+X",
"+X+X+X+X+X+X+X5.L 7 w g H =.k e e k &.H g e 2 - O +X+X+X+X+X+X+X",
"+X+X+X+X+X+X+X+XD > > , q q e w e e w 6 2 : - + +X+X+X+X+X+X+X+X",
"+X+X+X+X+X+X+X+X+X+X+ - ; > 6 q q 6 , ; # + +X+X+X+X+X+X+X+X+X+X"
};
